<?xml version="1.0" encoding="UTF-8"?><svg xmlns="http://www.w3.org/2000/svg" xmlns:xlink="http://www.w3.org/1999/xlink" fill-opacity="1" color-rendering="auto" color-interpolation="auto" text-rendering="auto" stroke="black" stroke-linecap="square" width="585" stroke-miterlimit="10" shape-rendering="auto" stroke-opacity="1" fill="black" stroke-dasharray="none" font-weight="normal" stroke-width="1" height="936" font-family="'Dialog'" font-style="normal" stroke-linejoin="miter" font-size="12px" stroke-dashoffset="0" image-rendering="auto">
  <!--Generated by ySVG 2.5-->
  <defs id="genericDefs"/>
  <g>
    <defs id="defs1">
      <clipPath clipPathUnits="userSpaceOnUse" id="clipPath1">
        <path d="M0 0 L585 0 L585 936 L0 936 L0 0 Z"/>
      </clipPath>
      <clipPath clipPathUnits="userSpaceOnUse" id="clipPath2">
        <path d="M339 97 L924 97 L924 1033 L339 1033 L339 97 Z"/>
      </clipPath>
    </defs>
    <g fill="white" text-rendering="geometricPrecision" shape-rendering="geometricPrecision" transform="translate(-339,-97)" stroke="white">
      <rect x="339" width="585" height="936" y="97" clip-path="url(#clipPath2)" stroke="none"/>
    </g>
    <g stroke-linecap="butt" transform="matrix(1,0,0,1,-339,-97)" fill="gray" text-rendering="geometricPrecision" shape-rendering="geometricPrecision" stroke-dasharray="6,2" stroke="gray" stroke-miterlimit="1.45">
      <rect fill="none" x="354.6302" width="412.6896" height="187.72" y="218.7503" clip-path="url(#clipPath2)"/>
      <text x="360.6302" y="236.8148" clip-path="url(#clipPath2)" font-family="sans-serif" stroke-dasharray="none" stroke="none" xml:space="preserve">Change sample date</text>
    </g>
    <g fill="rgb(255,153,0)" text-rendering="geometricPrecision" shape-rendering="geometricPrecision" transform="matrix(1,0,0,1,-339,-97)" stroke="rgb(255,153,0)">
      <rect x="414.4749" width="293" height="42" y="252.3753" clip-path="url(#clipPath2)" stroke="none"/>
    </g>
    <g stroke-linecap="butt" transform="matrix(1,0,0,1,-339,-97)" fill="rgb(153,51,0)" text-rendering="geometricPrecision" shape-rendering="geometricPrecision" stroke="rgb(153,51,0)" stroke-miterlimit="1.45">
      <rect fill="none" x="414.4749" width="293" height="42" y="252.3753" clip-path="url(#clipPath2)"/>
      <text x="442.2523" y="270.7386" clip-path="url(#clipPath2)" fill="black" font-family="sans-serif" stroke="none" xml:space="preserve">Get new date string from filename of new file</text>
      <text x="434.304" y="285.4398" clip-path="url(#clipPath2)" fill="black" font-family="sans-serif" stroke="none" xml:space="preserve"> using the "dbas_date_regex" from the template</text>
    </g>
    <g fill="rgb(255,153,0)" text-rendering="geometricPrecision" shape-rendering="geometricPrecision" transform="matrix(1,0,0,1,-339,-97)" stroke="rgb(255,153,0)">
      <rect x="369.9749" width="382" height="30" y="313.6933" clip-path="url(#clipPath2)" stroke="none"/>
    </g>
    <g stroke-linecap="butt" transform="matrix(1,0,0,1,-339,-97)" fill="rgb(153,51,0)" text-rendering="geometricPrecision" shape-rendering="geometricPrecision" stroke="rgb(153,51,0)" stroke-miterlimit="1.45">
      <rect fill="none" x="369.9749" width="382" height="30" y="313.6933" clip-path="url(#clipPath2)"/>
      <text x="381.2738" y="333.4072" clip-path="url(#clipPath2)" fill="black" font-family="sans-serif" stroke="none" xml:space="preserve">Parse the date string using the "dbas_date_format" field of template</text>
    </g>
    <g fill="rgb(255,153,0)" text-rendering="geometricPrecision" shape-rendering="geometricPrecision" transform="matrix(1,0,0,1,-339,-97)" stroke="rgb(255,153,0)">
      <rect x="482.1925" width="157.565" height="30" y="363.0113" clip-path="url(#clipPath2)" stroke="none"/>
    </g>
    <g stroke-linecap="butt" transform="matrix(1,0,0,1,-339,-97)" fill="rgb(153,51,0)" text-rendering="geometricPrecision" shape-rendering="geometricPrecision" stroke="rgb(153,51,0)" stroke-miterlimit="1.45">
      <rect fill="none" x="482.1925" width="157.565" height="30" y="363.0113" clip-path="url(#clipPath2)"/>
      <text x="488.2777" y="382.7252" clip-path="url(#clipPath2)" fill="black" font-family="sans-serif" stroke="none" xml:space="preserve">Overwrite sample date field</text>
    </g>
    <g fill="rgb(232,238,247)" text-rendering="geometricPrecision" shape-rendering="geometricPrecision" transform="matrix(1,0,0,1,-339,-97)" stroke="rgb(232,238,247)">
      <rect x="493.7271" y="112.5972" clip-path="url(#clipPath2)" width="134.4957" rx="20" ry="20" height="40" stroke="none"/>
    </g>
    <g stroke-linecap="butt" transform="matrix(1,0,0,1,-339,-97)" fill="gray" text-rendering="geometricPrecision" shape-rendering="geometricPrecision" stroke="gray" stroke-miterlimit="1.45">
      <rect x="493.7271" y="112.5972" clip-path="url(#clipPath2)" fill="none" width="134.4957" rx="20" ry="20" height="40"/>
      <text x="507.9476" y="137.311" clip-path="url(#clipPath2)" fill="black" font-family="sans-serif" stroke="none" xml:space="preserve">Template document</text>
    </g>
    <g stroke-linecap="butt" transform="matrix(1,0,0,1,-339,-97)" fill="gray" text-rendering="geometricPrecision" shape-rendering="geometricPrecision" stroke-dasharray="6,2" stroke="gray" stroke-miterlimit="1.45">
      <rect fill="none" x="384.7749" width="355.0896" height="314.1132" y="436.4703" clip-path="url(#clipPath2)"/>
      <text x="390.7749" y="454.5348" clip-path="url(#clipPath2)" font-family="sans-serif" stroke-dasharray="none" stroke="none" xml:space="preserve">Change location data</text>
    </g>
    <g fill="rgb(255,153,0)" text-rendering="geometricPrecision" shape-rendering="geometricPrecision" transform="matrix(1,0,0,1,-339,-97)" stroke="rgb(255,153,0)">
      <rect x="436.3197" width="252" height="30" y="478.1235" clip-path="url(#clipPath2)" stroke="none"/>
    </g>
    <g stroke-linecap="butt" transform="matrix(1,0,0,1,-339,-97)" fill="rgb(153,51,0)" text-rendering="geometricPrecision" shape-rendering="geometricPrecision" stroke="rgb(153,51,0)" stroke-miterlimit="1.45">
      <rect fill="none" x="436.3197" width="252" height="30" y="478.1235" clip-path="url(#clipPath2)"/>
      <text x="467.9398" y="497.8373" clip-path="url(#clipPath2)" fill="black" font-family="sans-serif" stroke="none" xml:space="preserve">Get station code from new filename</text>
    </g>
    <g fill="rgb(255,153,0)" text-rendering="geometricPrecision" shape-rendering="geometricPrecision" transform="matrix(1,0,0,1,-339,-97)" stroke="rgb(255,153,0)">
      <rect x="441.6055" width="241.4284" height="42" y="533.8965" clip-path="url(#clipPath2)" stroke="none"/>
    </g>
    <g stroke-linecap="butt" transform="matrix(1,0,0,1,-339,-97)" fill="rgb(153,51,0)" text-rendering="geometricPrecision" shape-rendering="geometricPrecision" stroke="rgb(153,51,0)" stroke-miterlimit="1.45">
      <rect fill="none" x="441.6055" width="241.4284" height="42" y="533.8965" clip-path="url(#clipPath2)"/>
      <text x="456.268" y="552.2598" clip-path="url(#clipPath2)" fill="black" font-family="sans-serif" stroke="none" xml:space="preserve">Using regex, make search query to find </text>
      <text x="478.2729" y="566.9609" clip-path="url(#clipPath2)" fill="black" font-family="sans-serif" stroke="none" xml:space="preserve">similar station code in database</text>
    </g>
    <g fill="rgb(255,153,0)" text-rendering="geometricPrecision" shape-rendering="geometricPrecision" transform="matrix(1,0,0,1,-339,-97)" stroke="rgb(255,153,0)">
      <rect x="398.3197" width="328" height="30" y="600.2965" clip-path="url(#clipPath2)" stroke="none"/>
    </g>
    <g stroke-linecap="butt" transform="matrix(1,0,0,1,-339,-97)" fill="rgb(153,51,0)" text-rendering="geometricPrecision" shape-rendering="geometricPrecision" stroke="rgb(153,51,0)" stroke-miterlimit="1.45">
      <rect fill="none" x="398.3197" width="328" height="30" y="600.2965" clip-path="url(#clipPath2)"/>
      <text x="410.5502" y="620.0104" clip-path="url(#clipPath2)" fill="black" font-family="sans-serif" stroke="none" xml:space="preserve">Check that candidates have only one station and location</text>
    </g>
    <g fill="rgb(255,153,0)" text-rendering="geometricPrecision" shape-rendering="geometricPrecision" transform="matrix(1,0,0,1,-339,-97)" stroke="rgb(255,153,0)">
      <rect x="448.5197" width="227.6" height="30" y="706.3925" clip-path="url(#clipPath2)" stroke="none"/>
    </g>
    <g stroke-linecap="butt" transform="matrix(1,0,0,1,-339,-97)" fill="rgb(153,51,0)" text-rendering="geometricPrecision" shape-rendering="geometricPrecision" stroke="rgb(153,51,0)" stroke-miterlimit="1.45">
      <rect fill="none" x="448.5197" width="227.6" height="30" y="706.3925" clip-path="url(#clipPath2)"/>
      <text x="467.2777" y="726.1064" clip-path="url(#clipPath2)" fill="black" font-family="sans-serif" stroke="none" xml:space="preserve">Overwrite location fields of template</text>
    </g>
    <g fill="rgb(255,153,0)" text-rendering="geometricPrecision" shape-rendering="geometricPrecision" transform="matrix(1,0,0,1,-339,-97)" stroke="rgb(255,153,0)">
      <rect x="400.8797" width="322.88" height="30" y="654.6965" clip-path="url(#clipPath2)" stroke="none"/>
    </g>
    <g stroke-linecap="butt" transform="matrix(1,0,0,1,-339,-97)" fill="rgb(153,51,0)" text-rendering="geometricPrecision" shape-rendering="geometricPrecision" stroke="rgb(153,51,0)" stroke-miterlimit="1.45">
      <rect fill="none" x="400.8797" width="322.88" height="30" y="654.6965" clip-path="url(#clipPath2)"/>
      <text x="461.9398" y="674.4103" clip-path="url(#clipPath2)" fill="black" font-family="sans-serif" stroke="none" xml:space="preserve">Get location fileds from first candidate</text>
      <rect x="384.7749" y="780.5835" clip-path="url(#clipPath2)" fill="none" width="355.0896" stroke-dasharray="6,2" height="181.332" stroke="gray"/>
      <text x="390.7749" y="798.6479" clip-path="url(#clipPath2)" fill="gray" font-family="sans-serif" stroke="none" xml:space="preserve">Change measurment time</text>
    </g>
    <g fill="rgb(255,153,0)" text-rendering="geometricPrecision" shape-rendering="geometricPrecision" transform="matrix(1,0,0,1,-339,-97)" stroke="rgb(255,153,0)">
      <rect x="393.7169" width="340.9473" height="30" y="816.2245" clip-path="url(#clipPath2)" stroke="none"/>
    </g>
    <g stroke-linecap="butt" transform="matrix(1,0,0,1,-339,-97)" fill="rgb(153,51,0)" text-rendering="geometricPrecision" shape-rendering="geometricPrecision" stroke="rgb(153,51,0)" stroke-miterlimit="1.45">
      <rect fill="none" x="393.7169" width="340.9473" height="30" y="816.2245" clip-path="url(#clipPath2)"/>
      <text x="403.1222" y="835.9384" clip-path="url(#clipPath2)" fill="black" font-family="sans-serif" stroke="none" xml:space="preserve">Look for files of the same filename (excl. filetype) in directory</text>
    </g>
    <g fill="rgb(255,153,0)" text-rendering="geometricPrecision" shape-rendering="geometricPrecision" transform="matrix(1,0,0,1,-339,-97)" stroke="rgb(255,153,0)">
      <rect x="402.1813" width="324.0185" height="30" y="867.0495" clip-path="url(#clipPath2)" stroke="none"/>
    </g>
    <g stroke-linecap="butt" transform="matrix(1,0,0,1,-339,-97)" fill="rgb(153,51,0)" text-rendering="geometricPrecision" shape-rendering="geometricPrecision" stroke="rgb(153,51,0)" stroke-miterlimit="1.45">
      <rect fill="none" x="402.1813" width="324.0185" height="30" y="867.0495" clip-path="url(#clipPath2)"/>
      <text x="412.1222" y="886.7634" clip-path="url(#clipPath2)" fill="black" font-family="sans-serif" stroke="none" xml:space="preserve">Get creation time of oldest file (e.g. original intrument file)</text>
    </g>
    <g fill="rgb(232,238,247)" text-rendering="geometricPrecision" shape-rendering="geometricPrecision" transform="matrix(1,0,0,1,-339,-97)" stroke="rgb(232,238,247)">
      <rect x="507.9427" y="977.8745" clip-path="url(#clipPath2)" width="112.4957" rx="20" ry="20" height="40" stroke="none"/>
    </g>
    <g stroke-linecap="butt" transform="matrix(1,0,0,1,-339,-97)" fill="gray" text-rendering="geometricPrecision" shape-rendering="geometricPrecision" stroke="gray" stroke-miterlimit="1.45">
      <rect x="507.9427" y="977.8745" clip-path="url(#clipPath2)" fill="none" width="112.4957" rx="20" ry="20" height="40"/>
      <text x="525.1671" y="1002.5883" clip-path="url(#clipPath2)" fill="black" font-family="sans-serif" stroke="none" xml:space="preserve">new document</text>
    </g>
    <g fill="rgb(255,153,0)" text-rendering="geometricPrecision" shape-rendering="geometricPrecision" transform="matrix(1,0,0,1,-339,-97)" stroke="rgb(255,153,0)">
      <rect x="470.4749" width="181" height="30" y="170.6737" clip-path="url(#clipPath2)" stroke="none"/>
    </g>
    <g stroke-linecap="butt" transform="matrix(1,0,0,1,-339,-97)" fill="rgb(153,51,0)" text-rendering="geometricPrecision" shape-rendering="geometricPrecision" stroke="rgb(153,51,0)" stroke-miterlimit="1.45">
      <rect fill="none" x="470.4749" width="181" height="30" y="170.6737" clip-path="url(#clipPath2)"/>
      <text x="480.7455" y="190.3876" clip-path="url(#clipPath2)" fill="black" font-family="sans-serif" stroke="none" xml:space="preserve">Change fields "path", "filesize"</text>
    </g>
    <g fill="rgb(204,255,204)" text-rendering="geometricPrecision" shape-rendering="geometricPrecision" transform="matrix(1,0,0,1,-339,-97)" stroke="rgb(204,255,204)">
      <path d="M769.8645 542.8965 C771.8832 534.8965 835.1339 534.8965 837.1525 542.8965 L837.1525 566.8965 C835.1339 574.8965 771.8832 574.8965 769.8645 566.8965 Z" stroke="none" clip-path="url(#clipPath2)"/>
    </g>
    <g stroke-linecap="butt" transform="matrix(1,0,0,1,-339,-97)" fill="green" text-rendering="geometricPrecision" shape-rendering="geometricPrecision" stroke="green" stroke-miterlimit="1.45">
      <path fill="none" d="M769.8645 542.8965 C771.8832 534.8965 835.1339 534.8965 837.1525 542.8965 L837.1525 566.8965 C835.1339 574.8965 771.8832 574.8965 769.8645 566.8965 Z" clip-path="url(#clipPath2)"/>
      <path fill="none" d="M837.1525 542.8965 C835.1339 550.8965 771.8832 550.8965 769.8645 542.8965" clip-path="url(#clipPath2)"/>
      <text x="775.1726" y="559.6104" clip-path="url(#clipPath2)" fill="black" font-family="sans-serif" stroke="none" xml:space="preserve">msrawfiles</text>
    </g>
    <g fill="rgb(255,255,153)" text-rendering="geometricPrecision" shape-rendering="geometricPrecision" transform="matrix(1,0,0,1,-339,-97)" stroke="rgb(255,255,153)">
      <rect x="764.6642" width="143.664" height="30" y="816.2245" clip-path="url(#clipPath2)" stroke="none"/>
    </g>
    <g stroke-linecap="butt" transform="matrix(1,0,0,1,-339,-97)" fill="rgb(255,204,0)" text-rendering="geometricPrecision" shape-rendering="geometricPrecision" stroke="rgb(255,204,0)" stroke-miterlimit="1.45">
      <rect fill="none" x="764.6642" width="143.664" height="30" y="816.2245" clip-path="url(#clipPath2)"/>
      <text x="771.6857" y="835.5985" clip-path="url(#clipPath2)" fill="black" font-family="'Arial monospaced for SAP'" stroke="none" xml:space="preserve">dirMeasurmentFiles</text>
      <rect x="776.8987" y="681.5805" clip-path="url(#clipPath2)" fill="none" width="72.7937" stroke-dasharray="6,2" height="79.8" stroke="black"/>
      <text x="788.0914" y="684.4932" clip-path="url(#clipPath2)" fill="black" font-family="'Arial monospaced for SAP'" stroke="none" xml:space="preserve"> </text>
      <text x="788.0914" y="698.2803" clip-path="url(#clipPath2)" fill="black" font-family="'Arial monospaced for SAP'" stroke="none" xml:space="preserve">station</text>
      <text x="788.0914" y="712.0674" clip-path="url(#clipPath2)" fill="black" font-family="'Arial monospaced for SAP'" stroke="none" xml:space="preserve">loc</text>
      <text x="788.0914" y="725.8545" clip-path="url(#clipPath2)" fill="black" font-family="'Arial monospaced for SAP'" stroke="none" xml:space="preserve">river</text>
      <text x="788.0914" y="739.6416" clip-path="url(#clipPath2)" fill="black" font-family="'Arial monospaced for SAP'" stroke="none" xml:space="preserve">km</text>
      <text x="788.0914" y="753.4287" clip-path="url(#clipPath2)" fill="black" font-family="'Arial monospaced for SAP'" stroke="none" xml:space="preserve">gkz</text>
      <text x="788.0914" y="767.2158" clip-path="url(#clipPath2)" fill="black" font-family="'Arial monospaced for SAP'" stroke="none" xml:space="preserve"> </text>
      <rect x="791.4904" y="363.0113" clip-path="url(#clipPath2)" fill="none" width="67.288" stroke-dasharray="6,2" height="30" stroke="black"/>
      <text x="807.1315" y="368.5982" clip-path="url(#clipPath2)" fill="black" font-family="'Arial monospaced for SAP'" stroke="none" xml:space="preserve"> </text>
      <text x="807.1315" y="382.3853" clip-path="url(#clipPath2)" fill="black" font-family="'Arial monospaced for SAP'" stroke="none" xml:space="preserve">start</text>
      <text x="807.1315" y="396.1725" clip-path="url(#clipPath2)" fill="black" font-family="'Arial monospaced for SAP'" stroke="none" xml:space="preserve"> </text>
      <rect x="764.6642" y="917.8745" clip-path="url(#clipPath2)" fill="none" width="133.5937" stroke-dasharray="6,2" height="30" stroke="black"/>
      <text x="777.4522" y="937.2485" clip-path="url(#clipPath2)" fill="black" font-family="'Arial monospaced for SAP'" stroke="none" xml:space="preserve">measurment_time</text>
    </g>
    <g fill="rgb(255,153,0)" text-rendering="geometricPrecision" shape-rendering="geometricPrecision" transform="matrix(1,0,0,1,-339,-97)" stroke="rgb(255,153,0)">
      <rect x="486.3905" width="155.6" height="30" y="917.8745" clip-path="url(#clipPath2)" stroke="none"/>
    </g>
    <g stroke-linecap="butt" transform="matrix(1,0,0,1,-339,-97)" fill="rgb(153,51,0)" text-rendering="geometricPrecision" shape-rendering="geometricPrecision" stroke="rgb(153,51,0)" stroke-miterlimit="1.45">
      <rect fill="none" x="486.3905" width="155.6" height="30" y="917.8745" clip-path="url(#clipPath2)"/>
      <text x="494.8302" y="937.5883" clip-path="url(#clipPath2)" fill="black" font-family="sans-serif" stroke="none" xml:space="preserve">Overwrite field in template</text>
      <path fill="none" d="M560.9749 294.3753 L560.9749 305.6933" clip-path="url(#clipPath2)" stroke="black"/>
      <path fill="black" d="M560.9749 313.6933 L565.9749 301.6933 L560.9749 304.6933 L555.9749 301.6933 Z" clip-path="url(#clipPath2)" stroke="none"/>
      <path fill="none" d="M560.9749 343.6933 L560.9749 355.0113" clip-path="url(#clipPath2)" stroke="black"/>
      <path fill="black" d="M560.9749 363.0113 L565.9749 351.0113 L560.9749 354.0113 L555.9749 351.0113 Z" clip-path="url(#clipPath2)" stroke="none"/>
      <path fill="none" d="M561.1502 393.0113 L562.051 470.124" clip-path="url(#clipPath2)" stroke="black"/>
      <path fill="black" d="M562.1445 478.1235 L567.004 466.0659 L562.0394 469.1241 L557.0046 466.1827 Z" clip-path="url(#clipPath2)" stroke="none"/>
      <path fill="none" d="M562.3198 508.1235 L562.3198 525.8965" clip-path="url(#clipPath2)" stroke="black"/>
      <path fill="black" d="M562.3198 533.8965 L567.3198 521.8965 L562.3198 524.8965 L557.3198 521.8965 Z" clip-path="url(#clipPath2)" stroke="none"/>
      <path fill="none" d="M562.3198 575.8965 L562.3198 592.2965" clip-path="url(#clipPath2)" stroke="black"/>
      <path fill="black" d="M562.3198 600.2965 L567.3198 588.2965 L562.3198 591.2965 L557.3198 588.2965 Z" clip-path="url(#clipPath2)" stroke="none"/>
      <path fill="none" d="M562.3198 630.2965 L562.3198 646.6965" clip-path="url(#clipPath2)" stroke="black"/>
      <path fill="black" d="M562.3198 654.6965 L567.3198 642.6965 L562.3198 645.6965 L557.3198 642.6965 Z" clip-path="url(#clipPath2)" stroke="none"/>
      <path fill="none" d="M562.3198 684.6965 L562.3198 698.3925" clip-path="url(#clipPath2)" stroke="black"/>
      <path fill="black" d="M562.3198 706.3925 L567.3198 694.3925 L562.3198 697.3925 L557.3198 694.3925 Z" clip-path="url(#clipPath2)" stroke="none"/>
      <path fill="none" d="M562.5753 736.3925 L563.7988 808.2256" clip-path="url(#clipPath2)" stroke="black"/>
      <path fill="black" d="M563.9351 816.2245 L568.7299 804.1411 L563.7817 807.2258 L558.7313 804.3114 Z" clip-path="url(#clipPath2)" stroke="none"/>
      <path fill="none" d="M564.1906 846.2245 L564.1906 859.0495" clip-path="url(#clipPath2)" stroke="black"/>
      <path fill="black" d="M564.1906 867.0495 L569.1906 855.0495 L564.1906 858.0495 L559.1906 855.0495 Z" clip-path="url(#clipPath2)" stroke="none"/>
      <path fill="none" d="M560.9749 152.5786 L560.9749 162.6738" clip-path="url(#clipPath2)" stroke="black"/>
      <path fill="black" d="M560.9749 170.6738 L565.9749 158.6738 L560.9749 161.6738 L555.9749 158.6738 Z" clip-path="url(#clipPath2)" stroke="none"/>
      <path fill="none" d="M560.9749 200.6738 L560.9749 244.3753" clip-path="url(#clipPath2)" stroke="black"/>
      <path fill="black" d="M560.9749 252.3753 L565.9749 240.3753 L560.9749 243.3753 L555.9749 240.3753 Z" clip-path="url(#clipPath2)" stroke="none"/>
      <path fill="none" d="M683.0339 554.8965 L761.8898 554.8965" clip-path="url(#clipPath2)" stroke="black"/>
      <path fill="black" d="M769.8898 554.8965 L757.8898 549.8965 L760.8898 554.8965 L757.8898 559.8965 Z" clip-path="url(#clipPath2)" stroke="none"/>
      <path fill="none" stroke-dasharray="6,2" d="M734.6642 831.2245 L764.6642 831.2245" clip-path="url(#clipPath2)" stroke="black"/>
      <path fill="none" stroke-dasharray="6,2" d="M676.1198 721.4324 L776.8987 721.4677" clip-path="url(#clipPath2)" stroke="black"/>
      <path fill="none" stroke-dasharray="6,2" d="M639.7574 378.0113 L791.4904 378.0113" clip-path="url(#clipPath2)" stroke="black"/>
      <path fill="none" d="M564.1906 897.0495 L564.1906 909.8745" clip-path="url(#clipPath2)" stroke="black"/>
      <path fill="black" d="M564.1906 917.8745 L569.1906 905.8745 L564.1906 908.8745 L559.1906 905.8745 Z" clip-path="url(#clipPath2)" stroke="none"/>
      <path fill="none" stroke-dasharray="6,2" d="M641.9905 932.8745 L764.6642 932.8745" clip-path="url(#clipPath2)" stroke="black"/>
      <path fill="none" d="M564.1906 947.8745 L564.1906 969.9037" clip-path="url(#clipPath2)" stroke="black"/>
      <path fill="black" d="M564.1906 977.9037 L569.1906 965.9037 L564.1906 968.9037 L559.1906 965.9037 Z" clip-path="url(#clipPath2)" stroke="none"/>
    </g>
  </g>
</svg>
