<?xml version="1.0" encoding="UTF-8"?><svg xmlns="http://www.w3.org/2000/svg" xmlns:xlink="http://www.w3.org/1999/xlink" fill-opacity="1" color-rendering="auto" color-interpolation="auto" text-rendering="auto" stroke="black" stroke-linecap="square" width="623" stroke-miterlimit="10" shape-rendering="auto" stroke-opacity="1" fill="black" stroke-dasharray="none" font-weight="normal" stroke-width="1" height="454" font-family="'Dialog'" font-style="normal" stroke-linejoin="miter" font-size="12px" stroke-dashoffset="0" image-rendering="auto">
  <!--Generated by ySVG 2.6-->
  <defs id="genericDefs"/>
  <g>
    <defs id="defs1">
      <clipPath clipPathUnits="userSpaceOnUse" id="clipPath1">
        <path d="M0 0 L623 0 L623 454 L0 454 L0 0 Z"/>
      </clipPath>
      <clipPath clipPathUnits="userSpaceOnUse" id="clipPath2">
        <path d="M-18 170 L605 170 L605 624 L-18 624 L-18 170 Z"/>
      </clipPath>
    </defs>
    <g fill="white" text-rendering="geometricPrecision" shape-rendering="geometricPrecision" transform="translate(18,-170)" stroke="white">
      <rect x="-18" width="623" height="454" y="170" clip-path="url(#clipPath2)" stroke="none"/>
    </g>
    <g text-rendering="geometricPrecision" stroke-miterlimit="1.45" shape-rendering="geometricPrecision" transform="matrix(1,0,0,1,18,-170)" stroke-linecap="butt">
      <rect fill="none" x="429.502" width="159.6" height="347.1" y="185.5" clip-path="url(#clipPath2)"/>
      <rect fill="none" x="189.9" width="177.8" height="111" y="358" clip-path="url(#clipPath2)"/>
    </g>
    <g fill="rgb(255,153,0)" text-rendering="geometricPrecision" shape-rendering="geometricPrecision" transform="matrix(1,0,0,1,18,-170)" stroke="rgb(255,153,0)">
      <rect x="219.9" width="110.2" height="30" y="320" clip-path="url(#clipPath2)" stroke="none"/>
    </g>
    <g stroke-linecap="butt" transform="matrix(1,0,0,1,18,-170)" fill="rgb(153,51,0)" text-rendering="geometricPrecision" shape-rendering="geometricPrecision" stroke="rgb(153,51,0)" stroke-miterlimit="1.45">
      <rect fill="none" x="219.9" width="110.2" height="30" y="320" clip-path="url(#clipPath2)"/>
      <text x="245.9873" y="339.7139" clip-path="url(#clipPath2)" fill="black" font-family="sans-serif" stroke="none" xml:space="preserve">Pick peaks</text>
    </g>
    <g fill="rgb(255,153,0)" text-rendering="geometricPrecision" shape-rendering="geometricPrecision" transform="matrix(1,0,0,1,18,-170)" stroke="rgb(255,153,0)">
      <rect x="219.9" width="110.2" height="30" y="372" clip-path="url(#clipPath2)" stroke="none"/>
    </g>
    <g stroke-linecap="butt" transform="matrix(1,0,0,1,18,-170)" fill="rgb(153,51,0)" text-rendering="geometricPrecision" shape-rendering="geometricPrecision" stroke="rgb(153,51,0)" stroke-miterlimit="1.45">
      <rect fill="none" x="219.9" width="110.2" height="30" y="372" clip-path="url(#clipPath2)"/>
      <text x="226.6396" y="391.7139" clip-path="url(#clipPath2)" fill="black" font-family="sans-serif" stroke="none" xml:space="preserve">Feature alignment</text>
    </g>
    <g fill="rgb(255,153,0)" text-rendering="geometricPrecision" shape-rendering="geometricPrecision" transform="matrix(1,0,0,1,18,-170)" stroke="rgb(255,153,0)">
      <rect x="203.9" width="142.2" height="30" y="424" clip-path="url(#clipPath2)" stroke="none"/>
    </g>
    <g stroke-linecap="butt" transform="matrix(1,0,0,1,18,-170)" fill="rgb(153,51,0)" text-rendering="geometricPrecision" shape-rendering="geometricPrecision" stroke="rgb(153,51,0)" stroke-miterlimit="1.45">
      <rect fill="none" x="203.9" width="142.2" height="30" y="424" clip-path="url(#clipPath2)"/>
      <text x="212.6328" y="443.7139" clip-path="url(#clipPath2)" fill="black" font-family="sans-serif" stroke="none" xml:space="preserve">Alignment table filtering</text>
    </g>
    <g fill="rgb(255,153,0)" text-rendering="geometricPrecision" shape-rendering="geometricPrecision" transform="matrix(1,0,0,1,18,-170)" stroke="rgb(255,153,0)">
      <rect x="180.9" width="188.2" height="30" y="574" clip-path="url(#clipPath2)" stroke="none"/>
    </g>
    <g stroke-linecap="butt" transform="matrix(1,0,0,1,18,-170)" fill="rgb(153,51,0)" text-rendering="geometricPrecision" shape-rendering="geometricPrecision" stroke="rgb(153,51,0)" stroke-miterlimit="1.45">
      <rect fill="none" x="180.9" width="188.2" height="30" y="574" clip-path="url(#clipPath2)"/>
      <text x="185.624" y="593.7139" clip-path="url(#clipPath2)" fill="black" font-family="sans-serif" stroke="none" xml:space="preserve">Blank correction (alignment table)</text>
    </g>
    <g fill="rgb(255,153,0)" text-rendering="geometricPrecision" shape-rendering="geometricPrecision" transform="matrix(1,0,0,1,18,-170)" stroke="rgb(255,153,0)">
      <rect x="190.1" width="169.8" height="30" y="484" clip-path="url(#clipPath2)" stroke="none"/>
    </g>
    <g stroke-linecap="butt" transform="matrix(1,0,0,1,18,-170)" fill="rgb(153,51,0)" text-rendering="geometricPrecision" shape-rendering="geometricPrecision" stroke="rgb(153,51,0)" stroke-miterlimit="1.45">
      <rect fill="none" x="190.1" width="169.8" height="30" y="484" clip-path="url(#clipPath2)"/>
      <text x="197.2783" y="503.7139" clip-path="url(#clipPath2)" fill="black" font-family="sans-serif" stroke="none" xml:space="preserve">Annotation of alignment table</text>
    </g>
    <g fill="rgb(232,238,247)" text-rendering="geometricPrecision" shape-rendering="geometricPrecision" transform="matrix(1,0,0,1,18,-170)" stroke="rgb(232,238,247)">
      <rect x="437.3345" y="569" clip-path="url(#clipPath2)" width="140.8" rx="20" ry="20" height="40" stroke="none"/>
    </g>
    <g stroke-linecap="butt" transform="matrix(1,0,0,1,18,-170)" fill="gray" text-rendering="geometricPrecision" shape-rendering="geometricPrecision" stroke="gray" stroke-miterlimit="1.45">
      <rect x="437.3345" y="569" clip-path="url(#clipPath2)" fill="none" width="140.8" rx="20" ry="20" height="40"/>
      <text x="455.712" y="593.7139" clip-path="url(#clipPath2)" fill="black" font-family="sans-serif" stroke="none" xml:space="preserve">Export as ntsResult</text>
    </g>
    <g fill="rgb(232,238,247)" text-rendering="geometricPrecision" shape-rendering="geometricPrecision" transform="matrix(1,0,0,1,18,-170)" stroke="rgb(232,238,247)">
      <rect x="204.6" y="242" clip-path="url(#clipPath2)" width="140.8" rx="20" ry="20" height="40" stroke="none"/>
    </g>
    <g stroke-linecap="butt" transform="matrix(1,0,0,1,18,-170)" fill="gray" text-rendering="geometricPrecision" shape-rendering="geometricPrecision" stroke="gray" stroke-miterlimit="1.45">
      <rect x="204.6" y="242" clip-path="url(#clipPath2)" fill="none" width="140.8" rx="20" ry="20" height="40"/>
      <text x="217.6367" y="266.7139" clip-path="url(#clipPath2)" fill="black" font-family="sans-serif" stroke="none" xml:space="preserve">Start nts file scanning</text>
    </g>
    <g fill="rgb(204,255,204)" text-rendering="geometricPrecision" shape-rendering="geometricPrecision" transform="matrix(1,0,0,1,18,-170)" stroke="rgb(204,255,204)">
      <path d="M43.404 483.7024 C46.1698 473.504 132.8302 473.504 135.596 483.7024 L135.596 514.2976 C132.8302 524.496 46.1698 524.496 43.404 514.2976 Z" stroke="none" clip-path="url(#clipPath2)"/>
    </g>
    <g stroke-linecap="butt" transform="matrix(1,0,0,1,18,-170)" fill="green" text-rendering="geometricPrecision" shape-rendering="geometricPrecision" stroke="green" stroke-miterlimit="1.45">
      <path fill="none" d="M43.404 483.7024 C46.1698 473.504 132.8302 473.504 135.596 483.7024 L135.596 514.2976 C132.8302 524.496 46.1698 524.496 43.404 514.2976 Z" clip-path="url(#clipPath2)"/>
      <path fill="none" d="M135.596 483.7024 C132.8302 493.9008 46.1698 493.9008 43.404 483.7024" clip-path="url(#clipPath2)"/>
      <text x="49.4863" y="503.7139" clip-path="url(#clipPath2)" fill="black" font-family="sans-serif" stroke="none" xml:space="preserve">Spectral library</text>
    </g>
    <g fill="rgb(204,255,255)" text-rendering="geometricPrecision" shape-rendering="geometricPrecision" transform="matrix(1,0,0,1,18,-170)" stroke="rgb(204,255,255)">
      <path d="M5.25 320 L181.4 320 L173.75 350 L-2.4 350 Z" stroke="none" clip-path="url(#clipPath2)"/>
    </g>
    <g stroke-linecap="butt" transform="matrix(1,0,0,1,18,-170)" fill="teal" text-rendering="geometricPrecision" shape-rendering="geometricPrecision" stroke="teal" stroke-miterlimit="1.45">
      <path fill="none" d="M5.25 320 L181.4 320 L173.75 350 L-2.4 350 Z" clip-path="url(#clipPath2)"/>
      <text x="8.793" y="339.7139" clip-path="url(#clipPath2)" fill="black" font-family="sans-serif" stroke="none" xml:space="preserve">Records to process in batches</text>
    </g>
    <g fill="rgb(204,255,255)" text-rendering="geometricPrecision" shape-rendering="geometricPrecision" transform="matrix(1,0,0,1,18,-170)" stroke="rgb(204,255,255)">
      <path d="M460.2693 398.5 L566.8192 398.5 L559.1693 428.5 L452.6192 428.5 Z" stroke="none" clip-path="url(#clipPath2)"/>
    </g>
    <g stroke-linecap="butt" transform="matrix(1,0,0,1,18,-170)" fill="teal" text-rendering="geometricPrecision" shape-rendering="geometricPrecision" stroke="teal" stroke-miterlimit="1.45">
      <path fill="none" d="M460.2693 398.5 L566.8192 398.5 L559.1693 428.5 L452.6192 428.5 Z" clip-path="url(#clipPath2)"/>
      <text x="468.3608" y="418.2139" clip-path="url(#clipPath2)" fill="black" font-family="sans-serif" stroke="none" xml:space="preserve">Alignment table</text>
    </g>
    <g fill="rgb(204,255,255)" text-rendering="geometricPrecision" shape-rendering="geometricPrecision" transform="matrix(1,0,0,1,18,-170)" stroke="rgb(204,255,255)">
      <path d="M461.2693 484 L565.8192 484 L558.1693 514 L453.6192 514 Z" stroke="none" clip-path="url(#clipPath2)"/>
    </g>
    <g stroke-linecap="butt" transform="matrix(1,0,0,1,18,-170)" fill="teal" text-rendering="geometricPrecision" shape-rendering="geometricPrecision" stroke="teal" stroke-miterlimit="1.45">
      <path fill="none" d="M461.2693 484 L565.8192 484 L558.1693 514 L453.6192 514 Z" clip-path="url(#clipPath2)"/>
      <text x="466.3511" y="503.7139" clip-path="url(#clipPath2)" fill="black" font-family="sans-serif" stroke="none" xml:space="preserve">Annotation table</text>
    </g>
    <g fill="rgb(204,255,255)" text-rendering="geometricPrecision" shape-rendering="geometricPrecision" transform="matrix(1,0,0,1,18,-170)" stroke="rgb(204,255,255)">
      <path d="M468.2693 320 L558.8192 320 L551.1693 350 L460.6192 350 Z" stroke="none" clip-path="url(#clipPath2)"/>
    </g>
    <g stroke-linecap="butt" transform="matrix(1,0,0,1,18,-170)" fill="teal" text-rendering="geometricPrecision" shape-rendering="geometricPrecision" stroke="teal" stroke-miterlimit="1.45">
      <path fill="none" d="M468.2693 320 L558.8192 320 L551.1693 350 L460.6192 350 Z" clip-path="url(#clipPath2)"/>
      <text x="472.3657" y="339.7139" clip-path="url(#clipPath2)" fill="black" font-family="sans-serif" stroke="none" xml:space="preserve">Peak list table</text>
    </g>
    <g fill="rgb(204,255,255)" text-rendering="geometricPrecision" shape-rendering="geometricPrecision" transform="matrix(1,0,0,1,18,-170)" stroke="rgb(204,255,255)">
      <path d="M464.2693 199.5 L562.8192 199.5 L555.1693 229.5 L456.6192 229.5 Z" stroke="none" clip-path="url(#clipPath2)"/>
    </g>
    <g stroke-linecap="butt" transform="matrix(1,0,0,1,18,-170)" fill="teal" text-rendering="geometricPrecision" shape-rendering="geometricPrecision" stroke="teal" stroke-miterlimit="1.45">
      <path fill="none" d="M464.2693 199.5 L562.8192 199.5 L555.1693 229.5 L456.6192 229.5 Z" clip-path="url(#clipPath2)"/>
      <text x="465.6978" y="219.2139" clip-path="url(#clipPath2)" fill="black" font-family="sans-serif" stroke="none" xml:space="preserve">Sample list table</text>
    </g>
    <g fill="rgb(255,153,0)" text-rendering="geometricPrecision" shape-rendering="geometricPrecision" transform="matrix(1,0,0,1,18,-170)" stroke="rgb(255,153,0)">
      <rect x="303.1" width="110.2" height="30" y="199.5" clip-path="url(#clipPath2)" stroke="none"/>
    </g>
    <g stroke-linecap="butt" transform="matrix(1,0,0,1,18,-170)" fill="rgb(153,51,0)" text-rendering="geometricPrecision" shape-rendering="geometricPrecision" stroke="rgb(153,51,0)" stroke-miterlimit="1.45">
      <rect fill="none" x="303.1" width="110.2" height="30" y="199.5" clip-path="url(#clipPath2)"/>
      <text x="313.5193" y="219.2139" clip-path="url(#clipPath2)" fill="black" font-family="sans-serif" stroke="none" xml:space="preserve">make sample list</text>
    </g>
    <g fill="rgb(255,153,0)" text-rendering="geometricPrecision" shape-rendering="geometricPrecision" transform="matrix(1,0,0,1,18,-170)" stroke="rgb(255,153,0)">
      <rect x="186.9" width="176.2" height="30" y="529" clip-path="url(#clipPath2)" stroke="none"/>
    </g>
    <g stroke-linecap="butt" transform="matrix(1,0,0,1,18,-170)" fill="rgb(153,51,0)" text-rendering="geometricPrecision" shape-rendering="geometricPrecision" stroke="rgb(153,51,0)" stroke-miterlimit="1.45">
      <rect fill="none" x="186.9" width="176.2" height="30" y="529" clip-path="url(#clipPath2)"/>
      <text x="198.3037" y="548.7139" clip-path="url(#clipPath2)" fill="black" font-family="sans-serif" stroke="none" xml:space="preserve">Record int. std. in sample list</text>
      <path fill="none" d="M275 350 L275 364" clip-path="url(#clipPath2)" stroke="black"/>
      <path fill="black" d="M275 372 L280 360 L275 363 L270 360 Z" clip-path="url(#clipPath2)" stroke="none"/>
      <path fill="none" d="M275 402 L275 416" clip-path="url(#clipPath2)" stroke="black"/>
      <path fill="black" d="M275 424 L280 412 L275 415 L270 412 Z" clip-path="url(#clipPath2)" stroke="none"/>
      <path fill="none" d="M275 454 L275 475.9756" clip-path="url(#clipPath2)" stroke="black"/>
      <path fill="black" d="M275 483.9756 L280 471.9756 L275 474.9756 L270 471.9756 Z" clip-path="url(#clipPath2)" stroke="none"/>
      <path fill="none" d="M507.8373 532.5935 L507.8373 542.5316 L507.7345 542.5316 L507.7345 560.9877" clip-path="url(#clipPath2)" stroke="black"/>
      <path fill="black" d="M507.7345 568.9877 L512.7345 556.9877 L507.7345 559.9877 L502.7345 556.9877 Z" clip-path="url(#clipPath2)" stroke="none"/>
      <path fill="none" d="M275 281.9966 L275 312" clip-path="url(#clipPath2)" stroke="black"/>
      <path fill="black" d="M275 320 L280 308 L275 311 L270 308 Z" clip-path="url(#clipPath2)" stroke="none"/>
      <path fill="none" stroke-dasharray="6,2" d="M135.558 499 L190.1 499" clip-path="url(#clipPath2)" stroke="rgb(153,153,153)"/>
      <path fill="none" stroke-dasharray="6,2" d="M178.0612 333 L219.8837 333" clip-path="url(#clipPath2)" stroke="rgb(153,153,153)"/>
      <path fill="none" d="M367.6779 413 L448.5577 413" clip-path="url(#clipPath2)" stroke="black"/>
      <path fill="black" d="M456.5577 413 L444.5577 408 L447.5577 413 L444.5577 418 Z" clip-path="url(#clipPath2)" stroke="none"/>
      <path fill="none" stroke-dasharray="6,2" d="M369.1 589 L409.1672 589 L409.1672 422 L454.288 422" clip-path="url(#clipPath2)" stroke="rgb(153,153,153)"/>
      <path fill="none" d="M359.9 499 L449.4508 499" clip-path="url(#clipPath2)" stroke="black"/>
      <path fill="black" d="M457.4508 499 L445.4508 494 L448.4508 499 L445.4508 504 Z" clip-path="url(#clipPath2)" stroke="none"/>
      <path fill="none" d="M330.1 335 L456.4198 335" clip-path="url(#clipPath2)" stroke="black"/>
      <path fill="black" d="M464.4198 335 L452.4198 330 L455.4198 335 L452.4198 340 Z" clip-path="url(#clipPath2)" stroke="none"/>
      <path fill="none" d="M89.5 320.0258 L89.5 214.5 L295.1 214.5" clip-path="url(#clipPath2)" stroke="black"/>
      <path fill="black" d="M303.1 214.5 L291.1 209.5 L294.1 214.5 L291.1 219.5 Z" clip-path="url(#clipPath2)" stroke="none"/>
      <path fill="none" d="M413.3 214.5 L452.4268 214.5" clip-path="url(#clipPath2)" stroke="black"/>
      <path fill="black" d="M460.4268 214.5 L448.4268 209.5 L451.4268 214.5 L448.4268 219.5 Z" clip-path="url(#clipPath2)" stroke="none"/>
      <path fill="none" d="M275 514 L275 521" clip-path="url(#clipPath2)" stroke="black"/>
      <path fill="black" d="M275 529 L280 517 L275 520 L270 517 Z" clip-path="url(#clipPath2)" stroke="none"/>
      <path fill="none" d="M275 559 L275 566" clip-path="url(#clipPath2)" stroke="black"/>
      <path fill="black" d="M275 574 L280 562 L275 565 L270 562 Z" clip-path="url(#clipPath2)" stroke="none"/>
      <path fill="none" stroke-dasharray="6,2" d="M363.1 544 L393.852 544 L393.852 293.75 L512.704 293.75 L510.2833 229.4755" clip-path="url(#clipPath2)" stroke="rgb(153,153,153)"/>
    </g>
  </g>
</svg>
