<?xml version="1.0" encoding="UTF-8"?><svg xmlns="http://www.w3.org/2000/svg" xmlns:xlink="http://www.w3.org/1999/xlink" fill-opacity="1" color-rendering="auto" color-interpolation="auto" text-rendering="auto" stroke="black" stroke-linecap="square" width="770" stroke-miterlimit="10" shape-rendering="auto" stroke-opacity="1" fill="black" stroke-dasharray="none" font-weight="normal" stroke-width="1" height="790" font-family="'Dialog'" font-style="normal" stroke-linejoin="miter" font-size="12px" stroke-dashoffset="0" image-rendering="auto">
  <!--Generated by ySVG 2.5-->
  <defs id="genericDefs"/>
  <g>
    <defs id="defs1">
      <clipPath clipPathUnits="userSpaceOnUse" id="clipPath1">
        <path d="M0 0 L770 0 L770 790 L0 790 L0 0 Z"/>
      </clipPath>
      <clipPath clipPathUnits="userSpaceOnUse" id="clipPath2">
        <path d="M433 -269 L1203 -269 L1203 521 L433 521 L433 -269 Z"/>
      </clipPath>
    </defs>
    <g fill="white" text-rendering="geometricPrecision" shape-rendering="geometricPrecision" transform="translate(-433,269)" stroke="white">
      <rect x="433" width="770" height="790" y="-269" clip-path="url(#clipPath2)" stroke="none"/>
    </g>
    <g text-rendering="geometricPrecision" stroke-miterlimit="1.45" shape-rendering="geometricPrecision" transform="matrix(1,0,0,1,-433,269)" stroke-linecap="butt">
      <rect fill="none" x="448.6822" width="738.5021" height="667.2417" y="-207.7884" clip-path="url(#clipPath2)"/>
      <text x="454.6822" font-size="18px" y="-184.8871" clip-path="url(#clipPath2)" font-family="'Arial monospaced for SAP'" stroke="none" xml:space="preserve">dbaScreening*()</text>
      <rect fill="none" x="885.3575" width="218.9745" height="432.791" y="-170.4259" clip-path="url(#clipPath2)"/>
      <text x="891.3575" font-size="18px" y="-147.5245" clip-path="url(#clipPath2)" font-family="'Arial monospaced for SAP'" stroke="none" xml:space="preserve">scanBatchDbas(), </text>
      <text x="891.3575" font-size="18px" y="-126.8438" clip-path="url(#clipPath2)" font-family="'Arial monospaced for SAP'" stroke="none" xml:space="preserve">convertToRecord(), </text>
      <text x="891.3575" font-size="18px" y="-106.1632" clip-path="url(#clipPath2)" font-family="'Arial monospaced for SAP'" stroke="none" xml:space="preserve">saveRecord()</text>
      <rect fill="none" x="660.6719" width="163.559" height="255.9196" y="189.7723" clip-path="url(#clipPath2)"/>
      <text x="666.6719" font-size="18px" y="212.6737" clip-path="url(#clipPath2)" font-family="'Arial monospaced for SAP'" stroke="none" xml:space="preserve">ingest()</text>
      <rect fill="none" x="463.5229" width="359.5278" height="348.6948" y="-171.3023" clip-path="url(#clipPath2)"/>
      <text x="469.5229" font-size="18px" y="-148.401" clip-path="url(#clipPath2)" font-family="'Arial monospaced for SAP'" stroke="none" xml:space="preserve">getSelectedMsrawfileBatches()</text>
    </g>
    <g fill="rgb(255,153,0)" text-rendering="geometricPrecision" shape-rendering="geometricPrecision" transform="matrix(1,0,0,1,-433,269)" stroke="rgb(255,153,0)">
      <rect x="475.239" width="181" height="30" y="-138.9684" clip-path="url(#clipPath2)" stroke="none"/>
    </g>
    <g stroke-linecap="butt" transform="matrix(1,0,0,1,-433,269)" fill="rgb(153,51,0)" text-rendering="geometricPrecision" shape-rendering="geometricPrecision" stroke="rgb(153,51,0)" stroke-miterlimit="1.45">
      <rect fill="none" x="475.239" width="181" height="30" y="-138.9684" clip-path="url(#clipPath2)"/>
      <text x="506.3777" y="-119.2545" clip-path="url(#clipPath2)" fill="black" font-family="sans-serif" stroke="none" xml:space="preserve">Load msrawfiles index</text>
    </g>
    <g fill="rgb(255,153,0)" text-rendering="geometricPrecision" shape-rendering="geometricPrecision" transform="matrix(1,0,0,1,-433,269)" stroke="rgb(255,153,0)">
      <rect x="475.943" width="183.6" height="30" y="-11.9569" clip-path="url(#clipPath2)" stroke="none"/>
    </g>
    <g stroke-linecap="butt" transform="matrix(1,0,0,1,-433,269)" fill="rgb(153,51,0)" text-rendering="geometricPrecision" shape-rendering="geometricPrecision" stroke="rgb(153,51,0)" stroke-miterlimit="1.45">
      <rect fill="none" x="475.943" width="183.6" height="30" y="-11.9569" clip-path="url(#clipPath2)"/>
      <text x="500.3748" y="7.757" clip-path="url(#clipPath2)" fill="black" font-family="sans-serif" stroke="none" xml:space="preserve">Split records into batches</text>
      <rect x="896.3405" y="-89.0361" clip-path="url(#clipPath2)" fill="none" width="199.7055" height="136.7666" stroke="black"/>
    </g>
    <g font-size="18px" stroke-linecap="butt" transform="matrix(1,0,0,1,-433,269)" text-rendering="geometricPrecision" font-family="'Arial monospaced for SAP'" shape-rendering="geometricPrecision" stroke-miterlimit="1.45">
      <text x="902.3405" xml:space="preserve" y="-66.1347" clip-path="url(#clipPath2)" stroke="none">fileScanDbas()</text>
    </g>
    <g fill="rgb(255,153,0)" text-rendering="geometricPrecision" shape-rendering="geometricPrecision" transform="matrix(1,0,0,1,-433,269)" stroke="rgb(255,153,0)">
      <rect x="923.1323" width="140.3584" height="30" y="-51.0297" clip-path="url(#clipPath2)" stroke="none"/>
    </g>
    <g stroke-linecap="butt" transform="matrix(1,0,0,1,-433,269)" fill="maroon" text-rendering="geometricPrecision" shape-rendering="geometricPrecision" stroke="maroon" stroke-miterlimit="1.45">
      <rect fill="none" x="923.1323" width="140.3584" height="30" y="-51.0297" clip-path="url(#clipPath2)"/>
      <text x="930.9473" y="-31.3159" clip-path="url(#clipPath2)" fill="black" font-family="sans-serif" stroke="none" xml:space="preserve">Open measurement file</text>
    </g>
    <g fill="rgb(255,153,0)" text-rendering="geometricPrecision" shape-rendering="geometricPrecision" transform="matrix(1,0,0,1,-433,269)" stroke="rgb(255,153,0)">
      <rect x="932.9852" width="123.719" height="30" y="0.1348" clip-path="url(#clipPath2)" stroke="none"/>
    </g>
    <g stroke-linecap="butt" transform="matrix(1,0,0,1,-433,269)" fill="maroon" text-rendering="geometricPrecision" shape-rendering="geometricPrecision" stroke="maroon" stroke-miterlimit="1.45">
      <rect fill="none" x="932.9852" width="123.719" height="30" y="0.1348" clip-path="url(#clipPath2)"/>
      <text x="939.8135" y="19.8486" clip-path="url(#clipPath2)" fill="black" font-family="sans-serif" stroke="none" xml:space="preserve">Scan for compounds</text>
    </g>
    <g fill="rgb(255,153,0)" text-rendering="geometricPrecision" shape-rendering="geometricPrecision" transform="matrix(1,0,0,1,-433,269)" stroke="rgb(255,153,0)">
      <rect x="948.6613" width="95.0639" height="30" y="66.0965" clip-path="url(#clipPath2)" stroke="none"/>
    </g>
    <g stroke-linecap="butt" transform="matrix(1,0,0,1,-433,269)" fill="maroon" text-rendering="geometricPrecision" shape-rendering="geometricPrecision" stroke="maroon" stroke-miterlimit="1.45">
      <rect fill="none" x="948.6613" width="95.0639" height="30" y="66.0965" clip-path="url(#clipPath2)"/>
      <text x="961.1776" y="85.8104" clip-path="url(#clipPath2)" fill="black" font-family="sans-serif" stroke="none" xml:space="preserve">Clean results</text>
    </g>
    <g fill="rgb(255,153,0)" text-rendering="geometricPrecision" shape-rendering="geometricPrecision" transform="matrix(1,0,0,1,-433,269)" stroke="rgb(255,153,0)">
      <rect x="909.1297" width="174.1272" height="30" y="139.6283" clip-path="url(#clipPath2)" stroke="none"/>
    </g>
    <g stroke-linecap="butt" transform="matrix(1,0,0,1,-433,269)" fill="maroon" text-rendering="geometricPrecision" shape-rendering="geometricPrecision" stroke="maroon" stroke-miterlimit="1.45">
      <rect fill="none" x="909.1297" width="174.1272" height="30" y="139.6283" clip-path="url(#clipPath2)"/>
      <text x="916.4969" y="159.3422" clip-path="url(#clipPath2)" fill="black" font-family="sans-serif" stroke="none" xml:space="preserve">Convert to NTSPortal schema</text>
    </g>
    <g fill="rgb(255,153,0)" text-rendering="geometricPrecision" shape-rendering="geometricPrecision" transform="matrix(1,0,0,1,-433,269)" stroke="rgb(255,153,0)">
      <rect x="929.0627" width="134.2611" height="30" y="213.1601" clip-path="url(#clipPath2)" stroke="none"/>
    </g>
    <g stroke-linecap="butt" transform="matrix(1,0,0,1,-433,269)" fill="maroon" text-rendering="geometricPrecision" shape-rendering="geometricPrecision" stroke="maroon" stroke-miterlimit="1.45">
      <rect fill="none" x="929.0627" width="134.2611" height="30" y="213.1601" clip-path="url(#clipPath2)"/>
      <text x="937.8456" y="232.874" clip-path="url(#clipPath2)" fill="black" font-family="sans-serif" stroke="none" xml:space="preserve">Save as RDS (*.RDS)</text>
    </g>
    <g fill="rgb(255,153,0)" text-rendering="geometricPrecision" shape-rendering="geometricPrecision" transform="matrix(1,0,0,1,-433,269)" stroke="rgb(255,153,0)">
      <rect x="675.1397" width="140.7808" height="30" y="225.4375" clip-path="url(#clipPath2)" stroke="none"/>
    </g>
    <g stroke-linecap="butt" transform="matrix(1,0,0,1,-433,269)" fill="maroon" text-rendering="geometricPrecision" shape-rendering="geometricPrecision" stroke="maroon" stroke-miterlimit="1.45">
      <rect fill="none" x="675.1397" width="140.7808" height="30" y="225.4375" clip-path="url(#clipPath2)"/>
      <text x="687.1736" y="245.1514" clip-path="url(#clipPath2)" fill="black" font-family="sans-serif" stroke="none" xml:space="preserve">Read RDS file (batch)</text>
    </g>
    <g fill="rgb(255,153,0)" text-rendering="geometricPrecision" shape-rendering="geometricPrecision" transform="matrix(1,0,0,1,-433,269)" stroke="rgb(255,153,0)">
      <rect x="689.5497" width="111.9608" height="30" y="285.4375" clip-path="url(#clipPath2)" stroke="none"/>
    </g>
    <g stroke-linecap="butt" transform="matrix(1,0,0,1,-433,269)" fill="maroon" text-rendering="geometricPrecision" shape-rendering="geometricPrecision" stroke="maroon" stroke-miterlimit="1.45">
      <rect fill="none" x="689.5497" width="111.9608" height="30" y="285.4375" clip-path="url(#clipPath2)"/>
      <text x="698.8367" y="305.1514" clip-path="url(#clipPath2)" fill="black" font-family="sans-serif" stroke="none" xml:space="preserve">Create new index</text>
    </g>
    <g fill="rgb(255,153,0)" text-rendering="geometricPrecision" shape-rendering="geometricPrecision" transform="matrix(1,0,0,1,-433,269)" stroke="rgb(255,153,0)">
      <rect x="703.024" width="85.0122" height="30" y="405.4375" clip-path="url(#clipPath2)" stroke="none"/>
    </g>
    <g stroke-linecap="butt" transform="matrix(1,0,0,1,-433,269)" fill="maroon" text-rendering="geometricPrecision" shape-rendering="geometricPrecision" stroke="maroon" stroke-miterlimit="1.45">
      <rect fill="none" x="703.024" width="85.0122" height="30" y="405.4375" clip-path="url(#clipPath2)"/>
      <text x="712.8406" y="425.1514" clip-path="url(#clipPath2)" fill="black" font-family="sans-serif" stroke="none" xml:space="preserve">Ingest batch</text>
    </g>
    <g fill="rgb(255,153,0)" text-rendering="geometricPrecision" shape-rendering="geometricPrecision" transform="matrix(1,0,0,1,-433,269)" stroke="rgb(255,153,0)">
      <rect x="672.7253" width="145.6095" height="30" y="345.4375" clip-path="url(#clipPath2)" stroke="none"/>
    </g>
    <g stroke-linecap="butt" transform="matrix(1,0,0,1,-433,269)" fill="maroon" text-rendering="geometricPrecision" shape-rendering="geometricPrecision" stroke="maroon" stroke-miterlimit="1.45">
      <rect fill="none" x="672.7253" width="145.6095" height="30" y="345.4375" clip-path="url(#clipPath2)"/>
      <text x="678.159" y="365.1514" clip-path="url(#clipPath2)" fill="black" font-family="sans-serif" stroke="none" xml:space="preserve">Create alias to new index</text>
    </g>
    <g fill="rgb(255,153,0)" text-rendering="geometricPrecision" shape-rendering="geometricPrecision" transform="matrix(1,0,0,1,-433,269)" stroke="rgb(255,153,0)">
      <rect x="672.7253" width="118.7389" height="42" y="-77.9569" clip-path="url(#clipPath2)" stroke="none"/>
    </g>
    <g stroke-linecap="butt" transform="matrix(1,0,0,1,-433,269)" fill="rgb(153,51,0)" text-rendering="geometricPrecision" shape-rendering="geometricPrecision" stroke="rgb(153,51,0)" stroke-miterlimit="1.45">
      <rect fill="none" x="672.7253" width="118.7389" height="42" y="-77.9569" clip-path="url(#clipPath2)"/>
      <text x="680.0694" y="-59.5936" clip-path="url(#clipPath2)" fill="black" font-family="sans-serif" stroke="none" xml:space="preserve">Run quality checks </text>
      <text x="702.7393" y="-44.8924" clip-path="url(#clipPath2)" fill="black" font-family="sans-serif" stroke="none" xml:space="preserve">on batches</text>
    </g>
    <g fill="rgb(255,153,0)" text-rendering="geometricPrecision" shape-rendering="geometricPrecision" transform="matrix(1,0,0,1,-433,269)" stroke="rgb(255,153,0)">
      <rect x="689.543" width="118.6669" height="30" y="97.9851" clip-path="url(#clipPath2)" stroke="none"/>
    </g>
    <g stroke-linecap="butt" transform="matrix(1,0,0,1,-433,269)" fill="maroon" text-rendering="geometricPrecision" shape-rendering="geometricPrecision" stroke="maroon" stroke-miterlimit="1.45">
      <rect fill="none" x="689.543" width="118.6669" height="30" y="97.9851" clip-path="url(#clipPath2)"/>
      <text x="697.8589" y="117.699" clip-path="url(#clipPath2)" fill="black" font-family="sans-serif" stroke="none" xml:space="preserve">Submit job SLURM</text>
    </g>
    <g fill="rgb(255,153,0)" text-rendering="geometricPrecision" shape-rendering="geometricPrecision" transform="matrix(1,0,0,1,-433,269)" stroke="rgb(255,153,0)">
      <rect x="682.8308" width="132.0914" height="42" y="32.8961" clip-path="url(#clipPath2)" stroke="none"/>
    </g>
    <g stroke-linecap="butt" transform="matrix(1,0,0,1,-433,269)" fill="rgb(153,51,0)" text-rendering="geometricPrecision" shape-rendering="geometricPrecision" stroke="rgb(153,51,0)" stroke-miterlimit="1.45">
      <rect fill="none" x="682.8308" width="132.0914" height="42" y="32.8961" clip-path="url(#clipPath2)"/>
      <text x="696.8511" y="51.2594" clip-path="url(#clipPath2)" fill="black" font-family="sans-serif" stroke="none" xml:space="preserve">Prepare job files for</text>
      <text x="726.2065" y="65.9606" clip-path="url(#clipPath2)" fill="black" font-family="sans-serif" stroke="none" xml:space="preserve"> SLURM</text>
    </g>
    <g fill="rgb(204,255,255)" text-rendering="geometricPrecision" shape-rendering="geometricPrecision" transform="matrix(1,0,0,1,-433,269)" stroke="rgb(204,255,255)">
      <path d="M479.796 33.8961 L665.89 33.8961 L655.69 73.8961 L469.596 73.8961 Z" stroke="none" clip-path="url(#clipPath2)"/>
    </g>
    <g stroke-linecap="butt" transform="matrix(1,0,0,1,-433,269)" fill="teal" text-rendering="geometricPrecision" shape-rendering="geometricPrecision" stroke="teal" stroke-miterlimit="1.45">
      <path fill="none" d="M479.796 33.8961 L665.89 33.8961 L655.69 73.8961 L469.596 73.8961 Z" clip-path="url(#clipPath2)"/>
      <text x="487.7127" y="51.2594" clip-path="url(#clipPath2)" fill="black" font-family="sans-serif" stroke="none" xml:space="preserve">Records of measurement-files</text>
      <text x="490.0506" y="65.9606" clip-path="url(#clipPath2)" fill="black" font-family="sans-serif" stroke="none" xml:space="preserve">(msrawfileRecord) in batches</text>
    </g>
    <g fill="rgb(255,255,153)" text-rendering="geometricPrecision" shape-rendering="geometricPrecision" transform="matrix(1,0,0,1,-433,269)" stroke="rgb(255,255,153)">
      <rect x="510.3625" width="110.7531" height="40" y="-82.3515" clip-path="url(#clipPath2)" stroke="none"/>
    </g>
    <g stroke-linecap="butt" transform="matrix(1,0,0,1,-433,269)" fill="olive" text-rendering="geometricPrecision" shape-rendering="geometricPrecision" stroke="olive" stroke-miterlimit="1.45">
      <rect fill="none" x="510.3625" width="110.7531" height="40" y="-82.3515" clip-path="url(#clipPath2)"/>
      <path fill="none" d="M520.3625 -82.3515 L520.3625 -42.3515 M611.1155 -82.3515 L611.1155 -42.3515 M520.3625 -82.3515 Z" clip-path="url(#clipPath2)"/>
      <text x="527.3894" y="-57.6376" clip-path="url(#clipPath2)" fill="black" font-family="sans-serif" stroke="none" xml:space="preserve">Select records</text>
    </g>
    <g fill="rgb(232,238,247)" text-rendering="geometricPrecision" shape-rendering="geometricPrecision" transform="matrix(1,0,0,1,-433,269)" stroke="rgb(232,238,247)">
      <rect x="597.7024" y="-253.348" clip-path="url(#clipPath2)" width="91.1687" rx="20" ry="20" height="40" stroke="none"/>
    </g>
    <g stroke-linecap="butt" transform="matrix(1,0,0,1,-433,269)" fill="gray" text-rendering="geometricPrecision" shape-rendering="geometricPrecision" stroke="gray" stroke-miterlimit="1.45">
      <rect x="597.7024" y="-253.348" clip-path="url(#clipPath2)" fill="none" width="91.1687" rx="20" ry="20" height="40"/>
      <text x="607.9401" y="-228.6341" clip-path="url(#clipPath2)" fill="black" font-family="sans-serif" stroke="none" xml:space="preserve">Start process</text>
    </g>
    <g fill="rgb(153,204,255)" text-rendering="geometricPrecision" shape-rendering="geometricPrecision" transform="matrix(1,0,0,1,-433,269)" stroke="rgb(153,204,255)">
      <path d="M567.743 97.9851 L649.3647 131.8342 L567.743 165.6833 L486.1213 131.8342 Z" stroke="none" clip-path="url(#clipPath2)"/>
    </g>
    <g text-rendering="geometricPrecision" stroke-miterlimit="1.45" shape-rendering="geometricPrecision" transform="matrix(1,0,0,1,-433,269)" stroke-linecap="butt">
      <path fill="none" d="M567.743 97.9851 L649.3647 131.8342 L567.743 165.6833 L486.1213 131.8342 Z" clip-path="url(#clipPath2)"/>
      <text x="548.4042" xml:space="preserve" y="121.8469" clip-path="url(#clipPath2)" font-family="sans-serif" stroke="none">Where </text>
      <text x="517.7128" xml:space="preserve" y="136.5481" clip-path="url(#clipPath2)" font-family="sans-serif" stroke="none">should processing </text>
      <text x="537.0546" xml:space="preserve" y="151.2493" clip-path="url(#clipPath2)" font-family="sans-serif" stroke="none">take place?</text>
    </g>
    <g fill="rgb(204,255,204)" text-rendering="geometricPrecision" shape-rendering="geometricPrecision" transform="matrix(1,0,0,1,-433,269)" stroke="rgb(204,255,204)">
      <path d="M1112.1472 -2.0959 C1114.1219 -13.583 1175.9989 -13.583 1177.9736 -2.0959 L1177.9736 32.3654 C1175.9989 43.8525 1114.1219 43.8525 1112.1472 32.3654 Z" stroke="none" clip-path="url(#clipPath2)"/>
    </g>
    <g stroke-linecap="butt" transform="matrix(1,0,0,1,-433,269)" fill="green" text-rendering="geometricPrecision" shape-rendering="geometricPrecision" stroke="green" stroke-miterlimit="1.45">
      <path fill="none" d="M1112.1472 -2.0959 C1114.1219 -13.583 1175.9989 -13.583 1177.9736 -2.0959 L1177.9736 32.3654 C1175.9989 43.8525 1114.1219 43.8525 1112.1472 32.3654 Z" clip-path="url(#clipPath2)"/>
      <path fill="none" d="M1177.9736 -2.0959 C1175.9989 9.3912 1114.1219 9.3912 1112.1472 -2.0959" clip-path="url(#clipPath2)"/>
      <text x="1123.0497" y="5.1475" clip-path="url(#clipPath2)" fill="black" font-family="sans-serif" stroke="none" xml:space="preserve">Spectral</text>
      <text x="1128.7245" y="19.8486" clip-path="url(#clipPath2)" fill="black" font-family="sans-serif" stroke="none" xml:space="preserve">library</text>
      <text x="1129.3925" y="34.5498" clip-path="url(#clipPath2)" fill="black" font-family="sans-serif" stroke="none" xml:space="preserve">(CSL)</text>
    </g>
    <g fill="rgb(255,153,204)" text-rendering="geometricPrecision" shape-rendering="geometricPrecision" transform="matrix(1,0,0,1,-433,269)" stroke="rgb(255,153,204)">
      <path d="M946.5138 275.7219 L1045.8728 275.7219 L1045.8728 318.9743 Q1021.033 306.6165 996.1932 318.9743 Q971.3535 331.3321 946.5138 318.9743 Z" stroke="none" clip-path="url(#clipPath2)"/>
    </g>
    <g stroke-linecap="butt" transform="matrix(1,0,0,1,-433,269)" fill="purple" text-rendering="geometricPrecision" shape-rendering="geometricPrecision" stroke="purple" stroke-miterlimit="1.45">
      <path fill="none" d="M946.5138 275.7219 L1045.8728 275.7219 L1045.8728 318.9743 Q1021.033 306.6165 996.1932 318.9743 Q971.3535 331.3321 946.5138 318.9743 Z" clip-path="url(#clipPath2)"/>
    </g>
    <g fill="rgb(255,153,204)" text-rendering="geometricPrecision" shape-rendering="geometricPrecision" transform="matrix(1,0,0,1,-433,269)" stroke="rgb(255,153,204)">
      <path d="M957.8651 288.7003 L1057.2241 288.7003 L1057.2241 331.9527 Q1032.3844 319.5948 1007.5446 331.9527 Q982.7049 344.3105 957.8651 331.9527 Z" stroke="none" clip-path="url(#clipPath2)"/>
    </g>
    <g stroke-linecap="butt" transform="matrix(1,0,0,1,-433,269)" fill="purple" text-rendering="geometricPrecision" shape-rendering="geometricPrecision" stroke="purple" stroke-miterlimit="1.45">
      <path fill="none" d="M957.8651 288.7003 L1057.2241 288.7003 L1057.2241 331.9527 Q1032.3844 319.5948 1007.5446 331.9527 Q982.7049 344.3105 957.8651 331.9527 Z" clip-path="url(#clipPath2)"/>
    </g>
    <g fill="rgb(255,153,204)" text-rendering="geometricPrecision" shape-rendering="geometricPrecision" transform="matrix(1,0,0,1,-433,269)" stroke="rgb(255,153,204)">
      <path d="M971.1948 301.6714 L1070.5538 301.6714 L1070.5538 344.9239 Q1045.714 332.566 1020.8743 344.9239 Q996.0345 357.2817 971.1948 344.9239 Z" stroke="none" clip-path="url(#clipPath2)"/>
    </g>
    <g stroke-linecap="butt" transform="matrix(1,0,0,1,-433,269)" fill="purple" text-rendering="geometricPrecision" shape-rendering="geometricPrecision" stroke="purple" stroke-miterlimit="1.45">
      <path fill="none" d="M971.1948 301.6714 L1070.5538 301.6714 L1070.5538 344.9239 Q1045.714 332.566 1020.8743 344.9239 Q996.0345 357.2817 971.1948 344.9239 Z" clip-path="url(#clipPath2)"/>
      <text x="995.8694" y="331.101" clip-path="url(#clipPath2)" fill="black" font-family="sans-serif" stroke="none" xml:space="preserve">RDS files</text>
    </g>
    <g fill="rgb(232,238,247)" text-rendering="geometricPrecision" shape-rendering="geometricPrecision" transform="matrix(1,0,0,1,-433,269)" stroke="rgb(232,238,247)">
      <rect x="682.9795" y="465.4375" clip-path="url(#clipPath2)" width="125.1012" rx="20" ry="20" height="40" stroke="none"/>
    </g>
    <g stroke-linecap="butt" transform="matrix(1,0,0,1,-433,269)" fill="gray" text-rendering="geometricPrecision" shape-rendering="geometricPrecision" stroke="gray" stroke-miterlimit="1.45">
      <rect x="682.9795" y="465.4375" clip-path="url(#clipPath2)" fill="none" width="125.1012" rx="20" ry="20" height="40"/>
      <text x="697.8436" y="490.1514" clip-path="url(#clipPath2)" fill="black" font-family="sans-serif" stroke="none" xml:space="preserve">Process complete</text>
    </g>
    <g text-rendering="geometricPrecision" stroke-miterlimit="1.45" shape-rendering="geometricPrecision" transform="matrix(1,0,0,1,-433,269)" stroke-linecap="butt">
      <path fill="none" d="M993.761 -21.0297 L994.1556 -7.8616" clip-path="url(#clipPath2)"/>
      <path d="M994.3952 0.1348 L999.0335 -12.0096 L994.1256 -8.8612 L989.038 -11.7101 Z" clip-path="url(#clipPath2)" stroke="none"/>
      <path fill="none" d="M996.1932 47.7305 L996.1932 58.0965" clip-path="url(#clipPath2)"/>
      <path d="M996.1932 66.0965 L1001.1932 54.0965 L996.1932 57.0965 L991.1932 54.0965 Z" clip-path="url(#clipPath2)" stroke="none"/>
      <path fill="none" d="M996.1932 96.0965 L996.1932 131.6283" clip-path="url(#clipPath2)"/>
      <path d="M996.1932 139.6283 L1001.1932 127.6283 L996.1932 130.6283 L991.1932 127.6283 Z" clip-path="url(#clipPath2)" stroke="none"/>
      <rect x="958.1874" y="108.9689" clip-path="url(#clipPath2)" fill="silver" width="76.0117" height="17.7871" stroke="none"/>
      <text x="960.1874" xml:space="preserve" y="122.2364" clip-path="url(#clipPath2)" font-family="'Arial monospaced for SAP'" stroke="none">dbasResult</text>
      <path fill="none" d="M996.1932 169.6283 L996.1932 205.1601" clip-path="url(#clipPath2)"/>
      <path d="M996.1932 213.1601 L1001.1932 201.1601 L996.1932 204.1601 L991.1932 201.1601 Z" clip-path="url(#clipPath2)" stroke="none"/>
      <rect x="954.1737" y="182.0436" clip-path="url(#clipPath2)" fill="silver" width="84.0391" height="18.7012" stroke="none"/>
      <text x="956.1737" xml:space="preserve" y="196.1081" clip-path="url(#clipPath2)" font-family="sans-serif" stroke="none">FeatureRecord</text>
      <path fill="none" d="M745.5301 255.4375 L745.5301 277.4375" clip-path="url(#clipPath2)"/>
      <path d="M745.5301 285.4375 L750.5301 273.4375 L745.5301 276.4375 L740.5301 273.4375 Z" clip-path="url(#clipPath2)" stroke="none"/>
      <path fill="none" d="M745.5301 315.4375 L745.5301 337.4375" clip-path="url(#clipPath2)"/>
      <path d="M745.5301 345.4375 L750.5301 333.4375 L745.5301 336.4375 L740.5301 333.4375 Z" clip-path="url(#clipPath2)" stroke="none"/>
      <path fill="none" d="M745.5301 375.4375 L745.5301 397.4375" clip-path="url(#clipPath2)"/>
      <path d="M745.5301 405.4375 L750.5301 393.4375 L745.5301 396.4375 L740.5301 393.4375 Z" clip-path="url(#clipPath2)" stroke="none"/>
      <path fill="none" stroke-dasharray="6,2" d="M667.0568 -33.2134 L608.8309 -11.9569" clip-path="url(#clipPath2)"/>
      <path stroke-dasharray="6,2" d="M674.5717 -35.9569 L661.5847 -36.5385 L666.1174 -32.8705 L665.014 -27.1449 Z" clip-path="url(#clipPath2)" stroke="none"/>
      <path fill="none" d="M808.2099 112.9851 L832.7485 112.9851 L845.5576 -48.1647 L877.3537 -48.1647" clip-path="url(#clipPath2)"/>
      <path d="M885.3537 -48.1647 L873.3537 -53.1647 L876.3537 -48.1647 L873.3537 -43.1647 Z" clip-path="url(#clipPath2)" stroke="none"/>
      <path fill="none" d="M748.8765 74.8961 L748.8765 89.9851" clip-path="url(#clipPath2)"/>
      <path d="M748.8765 97.9851 L753.8765 85.9851 L748.8765 88.9851 L743.8765 85.9851 Z" clip-path="url(#clipPath2)" stroke="none"/>
      <path fill="none" d="M567.743 18.0431 L567.743 25.9039" clip-path="url(#clipPath2)"/>
      <path d="M567.743 33.9039 L572.743 21.9039 L567.743 24.9039 L562.743 21.9039 Z" clip-path="url(#clipPath2)" stroke="none"/>
      <path fill="none" d="M565.739 -108.9684 L565.739 -90.3366" clip-path="url(#clipPath2)"/>
      <path d="M565.739 -82.3366 L570.739 -94.3366 L565.739 -91.3366 L560.739 -94.3366 Z" clip-path="url(#clipPath2)" stroke="none"/>
      <path fill="none" d="M566.3525 -42.3308 L567.0383 -19.9531" clip-path="url(#clipPath2)"/>
      <path d="M567.2833 -11.9569 L571.9135 -24.1044 L567.0077 -20.9527 L561.9182 -23.7981 Z" clip-path="url(#clipPath2)" stroke="none"/>
      <path fill="none" d="M643.2867 -213.3504 L643.2867 -179.3023" clip-path="url(#clipPath2)"/>
      <path d="M643.2867 -171.3023 L648.2867 -183.3023 L643.2867 -180.3023 L638.2867 -183.3023 Z" clip-path="url(#clipPath2)" stroke="none"/>
      <path fill="none" d="M567.743 73.8754 L567.743 89.9589" clip-path="url(#clipPath2)"/>
      <path d="M567.743 97.9589 L572.743 85.9589 L567.743 88.9589 L562.743 85.9589 Z" clip-path="url(#clipPath2)" stroke="none"/>
      <path fill="none" d="M567.743 165.706 L846.032 165.706 L862.162 -35.2579 L877.3509 -35.2579" clip-path="url(#clipPath2)"/>
      <path d="M885.3509 -35.2579 L873.3509 -40.2579 L876.3509 -35.2579 L873.3509 -30.2579 Z" clip-path="url(#clipPath2)" stroke="none"/>
      <rect x="720.3882" y="154.5516" clip-path="url(#clipPath2)" fill="white" width="90.0449" height="18.7012" stroke="none"/>
      <text x="722.3882" xml:space="preserve" y="168.6161" clip-path="url(#clipPath2)" font-family="sans-serif" stroke="none">local processing</text>
      <path fill="none" d="M649.3712 131.8342 L678.4572 131.8342 L678.4572 3.6756 L748.8765 3.6756 L748.8765 24.8961" clip-path="url(#clipPath2)"/>
      <path d="M748.8765 32.8961 L753.8765 20.8961 L748.8765 23.8961 L743.8765 20.8961 Z" clip-path="url(#clipPath2)" stroke="none"/>
      <rect x="708.53" y="-20.3174" clip-path="url(#clipPath2)" fill="white" width="70.6797" height="33.4023" stroke="none"/>
      <text x="712.5222" xml:space="preserve" y="-6.2529" clip-path="url(#clipPath2)" font-family="sans-serif" stroke="none">Processing </text>
      <text x="710.53" xml:space="preserve" y="8.4482" clip-path="url(#clipPath2)" font-family="sans-serif" stroke="none">with SLURM</text>
      <path fill="none" stroke-dasharray="6,2" d="M1112.1641 15.1348 L1064.7042 15.1348" clip-path="url(#clipPath2)"/>
      <path stroke-dasharray="6,2" d="M1056.7042 15.1348 L1068.7042 20.1348 L1065.7042 15.1348 L1068.7042 10.1348 Z" clip-path="url(#clipPath2)" stroke="none"/>
      <path fill="none" d="M996.1932 243.1601 L996.1932 267.7422" clip-path="url(#clipPath2)"/>
      <path d="M996.1932 275.7422 L1001.1932 263.7422 L996.1932 266.7422 L991.1932 263.7422 Z" clip-path="url(#clipPath2)" stroke="none"/>
      <path fill="none" d="M946.5089 300.4375 L868.4406 300.4375 L868.4406 239.4841 L832.2643 239.4841" clip-path="url(#clipPath2)"/>
      <path d="M824.2643 239.4841 L836.2643 244.4841 L833.2643 239.4841 L836.2643 234.4841 Z" clip-path="url(#clipPath2)" stroke="none"/>
      <path fill="none" d="M745.5301 435.4375 L745.5301 457.4668" clip-path="url(#clipPath2)"/>
      <path d="M745.5301 465.4668 L750.5301 453.4668 L745.5301 456.4668 L740.5301 453.4668 Z" clip-path="url(#clipPath2)" stroke="none"/>
    </g>
  </g>
</svg>
