<?xml version="1.0" encoding="UTF-8"?><svg xmlns="http://www.w3.org/2000/svg" xmlns:xlink="http://www.w3.org/1999/xlink" fill-opacity="1" color-rendering="auto" color-interpolation="auto" text-rendering="auto" stroke="black" stroke-linecap="square" width="462" stroke-miterlimit="10" shape-rendering="auto" stroke-opacity="1" fill="black" stroke-dasharray="none" font-weight="normal" stroke-width="1" height="599" font-family="'Dialog'" font-style="normal" stroke-linejoin="miter" font-size="12px" stroke-dashoffset="0" image-rendering="auto">
  <!--Generated by ySVG 2.5-->
  <defs id="genericDefs"/>
  <g>
    <defs id="defs1">
      <clipPath clipPathUnits="userSpaceOnUse" id="clipPath1">
        <path d="M0 0 L462 0 L462 599 L0 599 L0 0 Z"/>
      </clipPath>
      <clipPath clipPathUnits="userSpaceOnUse" id="clipPath2">
        <path d="M328 -177 L790 -177 L790 422 L328 422 L328 -177 Z"/>
      </clipPath>
    </defs>
    <g fill="white" text-rendering="geometricPrecision" shape-rendering="geometricPrecision" transform="translate(-328,177)" stroke="white">
      <rect x="328" width="462" height="599" y="-177" clip-path="url(#clipPath2)" stroke="none"/>
    </g>
    <g fill="rgb(255,153,0)" text-rendering="geometricPrecision" shape-rendering="geometricPrecision" transform="matrix(1,0,0,1,-328,177)" stroke="rgb(255,153,0)">
      <rect x="386.1893" width="105.216" height="30" y="-45.4988" clip-path="url(#clipPath2)" stroke="none"/>
    </g>
    <g stroke-linecap="butt" transform="matrix(1,0,0,1,-328,177)" fill="rgb(153,51,0)" text-rendering="geometricPrecision" shape-rendering="geometricPrecision" stroke="rgb(153,51,0)" stroke-miterlimit="1.45">
      <rect fill="none" x="386.1893" width="105.216" height="30" y="-45.4988" clip-path="url(#clipPath2)"/>
      <text x="397.7817" y="-25.785" clip-path="url(#clipPath2)" fill="black" font-family="sans-serif" stroke="none" xml:space="preserve">Read RDS files</text>
    </g>
    <g fill="rgb(255,153,0)" text-rendering="geometricPrecision" shape-rendering="geometricPrecision" transform="matrix(1,0,0,1,-328,177)" stroke="rgb(255,153,0)">
      <rect x="377.9973" width="121.6" height="30" y="7.6906" clip-path="url(#clipPath2)" stroke="none"/>
    </g>
    <g stroke-linecap="butt" transform="matrix(1,0,0,1,-328,177)" fill="rgb(153,51,0)" text-rendering="geometricPrecision" shape-rendering="geometricPrecision" stroke="rgb(153,51,0)" stroke-miterlimit="1.45">
      <rect fill="none" x="377.9973" width="121.6" height="30" y="7.6906" clip-path="url(#clipPath2)"/>
      <text x="385.1049" y="27.4045" clip-path="url(#clipPath2)" fill="black" font-family="sans-serif" stroke="none" xml:space="preserve">Get user credentials</text>
      <rect x="549.9945" y="7.6906" clip-path="url(#clipPath2)" fill="none" width="62.764" stroke-dasharray="6,2" height="30" stroke="rgb(153,153,153)"/>
      <text x="556.1724" y="27.0647" clip-path="url(#clipPath2)" fill="black" font-family="'Arial monospaced for SAP'" stroke="none" xml:space="preserve">keyring</text>
    </g>
    <g fill="rgb(255,153,0)" text-rendering="geometricPrecision" shape-rendering="geometricPrecision" transform="matrix(1,0,0,1,-328,177)" stroke="rgb(255,153,0)">
      <rect x="352.1973" width="173.2" height="30" y="64.5422" clip-path="url(#clipPath2)" stroke="none"/>
    </g>
    <g stroke-linecap="butt" transform="matrix(1,0,0,1,-328,177)" fill="rgb(153,51,0)" text-rendering="geometricPrecision" shape-rendering="geometricPrecision" stroke="rgb(153,51,0)" stroke-miterlimit="1.45">
      <rect fill="none" x="352.1973" width="173.2" height="30" y="64.5422" clip-path="url(#clipPath2)"/>
      <text x="356.7573" y="84.2561" clip-path="url(#clipPath2)" fill="black" font-family="sans-serif" stroke="none" xml:space="preserve">Connect to Elasticsearch client</text>
    </g>
    <g fill="rgb(255,153,0)" text-rendering="geometricPrecision" shape-rendering="geometricPrecision" transform="matrix(1,0,0,1,-328,177)" stroke="rgb(255,153,0)">
      <rect x="343.6973" width="190.2" height="30" y="121.3938" clip-path="url(#clipPath2)" stroke="none"/>
    </g>
    <g stroke-linecap="butt" transform="matrix(1,0,0,1,-328,177)" fill="rgb(153,51,0)" text-rendering="geometricPrecision" shape-rendering="geometricPrecision" stroke="rgb(153,51,0)" stroke-miterlimit="1.45">
      <rect fill="none" x="343.6973" width="190.2" height="30" y="121.3938" clip-path="url(#clipPath2)"/>
      <text x="348.4253" y="141.1076" clip-path="url(#clipPath2)" fill="black" font-family="sans-serif" stroke="none" xml:space="preserve">Update import time for all features</text>
    </g>
    <g fill="rgb(255,153,0)" text-rendering="geometricPrecision" shape-rendering="geometricPrecision" transform="matrix(1,0,0,1,-328,177)" stroke="rgb(255,153,0)">
      <rect x="357.6001" width="162.3944" height="48" y="178.2453" clip-path="url(#clipPath2)" stroke="none"/>
    </g>
    <g stroke-linecap="butt" transform="matrix(1,0,0,1,-328,177)" fill="rgb(153,51,0)" text-rendering="geometricPrecision" shape-rendering="geometricPrecision" stroke="rgb(153,51,0)" stroke-miterlimit="1.45">
      <rect fill="none" x="357.6001" width="162.3944" height="48" y="178.2453" clip-path="url(#clipPath2)"/>
      <text x="364.0815" y="199.6086" clip-path="url(#clipPath2)" fill="black" font-family="sans-serif" stroke="none" xml:space="preserve">Create new index based on </text>
      <text x="368.7632" y="214.3098" clip-path="url(#clipPath2)" fill="black" font-family="sans-serif" stroke="none" xml:space="preserve">alias name and timestamp</text>
    </g>
    <g fill="rgb(255,153,0)" text-rendering="geometricPrecision" shape-rendering="geometricPrecision" transform="matrix(1,0,0,1,-328,177)" stroke="rgb(255,153,0)">
      <rect x="383.1973" width="111.2" height="30" y="309.9484" clip-path="url(#clipPath2)" stroke="none"/>
    </g>
    <g stroke-linecap="butt" transform="matrix(1,0,0,1,-328,177)" fill="rgb(153,51,0)" text-rendering="geometricPrecision" shape-rendering="geometricPrecision" stroke="rgb(153,51,0)" stroke-miterlimit="1.45">
      <rect fill="none" x="383.1973" width="111.2" height="30" y="309.9484" clip-path="url(#clipPath2)"/>
      <text x="399.1059" y="329.6623" clip-path="url(#clipPath2)" fill="black" font-family="sans-serif" stroke="none" xml:space="preserve">Ingest features</text>
    </g>
    <g fill="rgb(255,153,0)" text-rendering="geometricPrecision" shape-rendering="geometricPrecision" transform="matrix(1,0,0,1,-328,177)" stroke="rgb(255,153,0)">
      <rect x="365.9926" width="145.6095" height="30" y="253.0969" clip-path="url(#clipPath2)" stroke="none"/>
    </g>
    <g stroke-linecap="butt" transform="matrix(1,0,0,1,-328,177)" fill="rgb(153,51,0)" text-rendering="geometricPrecision" shape-rendering="geometricPrecision" stroke="rgb(153,51,0)" stroke-miterlimit="1.45">
      <rect fill="none" x="365.9926" width="145.6095" height="30" y="253.0969" clip-path="url(#clipPath2)"/>
      <text x="371.4262" y="272.8107" clip-path="url(#clipPath2)" fill="black" font-family="sans-serif" stroke="none" xml:space="preserve">Create alias to new index</text>
      <rect x="549.9945" y="187.2453" clip-path="url(#clipPath2)" fill="none" width="224.5944" stroke-dasharray="6,2" height="30" stroke="gray"/>
      <text x="555.9945" y="205.3098" clip-path="url(#clipPath2)" fill="black" font-family="sans-serif" stroke="none" xml:space="preserve">Use mapping found under inst/mappings</text>
    </g>
    <g fill="rgb(232,238,247)" text-rendering="geometricPrecision" shape-rendering="geometricPrecision" transform="matrix(1,0,0,1,-328,177)" stroke="rgb(232,238,247)">
      <rect x="376.5893" y="-161.4781" clip-path="url(#clipPath2)" width="123.008" rx="20" ry="20" height="40" stroke="none"/>
    </g>
    <g stroke-linecap="butt" transform="matrix(1,0,0,1,-328,177)" fill="gray" text-rendering="geometricPrecision" shape-rendering="geometricPrecision" stroke="gray" stroke-miterlimit="1.45">
      <rect x="376.5893" y="-161.4781" clip-path="url(#clipPath2)" fill="none" width="123.008" rx="20" ry="20" height="40"/>
      <text x="390.7525" y="-136.7642" clip-path="url(#clipPath2)" fill="black" font-family="sans-serif" stroke="none" xml:space="preserve">User starts import</text>
    </g>
    <g stroke-linecap="butt" transform="matrix(1,0,0,1,-328,177)" fill="rgb(153,153,153)" text-rendering="geometricPrecision" shape-rendering="geometricPrecision" stroke-dasharray="6,2" stroke="rgb(153,153,153)" stroke-miterlimit="1.45">
      <rect fill="none" x="549.9945" width="67.6284" height="30" y="-45.4988" clip-path="url(#clipPath2)"/>
    </g>
    <g text-rendering="geometricPrecision" stroke-miterlimit="1.45" shape-rendering="geometricPrecision" font-family="'Arial monospaced for SAP'" transform="matrix(1,0,0,1,-328,177)" stroke-linecap="butt">
      <text x="555.004" xml:space="preserve" y="-26.1248" clip-path="url(#clipPath2)" stroke="none">ingest()</text>
    </g>
    <g fill="rgb(232,238,247)" text-rendering="geometricPrecision" shape-rendering="geometricPrecision" transform="matrix(1,0,0,1,-328,177)" stroke="rgb(232,238,247)">
      <rect x="377.2933" y="366.8" clip-path="url(#clipPath2)" width="123.008" rx="20" ry="20" height="40" stroke="none"/>
    </g>
    <g stroke-linecap="butt" transform="matrix(1,0,0,1,-328,177)" fill="gray" text-rendering="geometricPrecision" shape-rendering="geometricPrecision" stroke="gray" stroke-miterlimit="1.45">
      <rect x="377.2933" y="366.8" clip-path="url(#clipPath2)" fill="none" width="123.008" rx="20" ry="20" height="40"/>
      <text x="395.7807" y="391.5139" clip-path="url(#clipPath2)" fill="black" font-family="sans-serif" stroke="none" xml:space="preserve">Import complete</text>
    </g>
    <g stroke-linecap="butt" transform="matrix(1,0,0,1,-328,177)" fill="rgb(153,153,153)" text-rendering="geometricPrecision" shape-rendering="geometricPrecision" stroke-dasharray="6,2" stroke="rgb(153,153,153)" stroke-miterlimit="1.45">
      <rect fill="none" x="549.9945" width="125.3944" height="30" y="309.9484" clip-path="url(#clipPath2)"/>
    </g>
    <g text-rendering="geometricPrecision" stroke-miterlimit="1.45" shape-rendering="geometricPrecision" font-family="'Arial monospaced for SAP'" transform="matrix(1,0,0,1,-328,177)" stroke-linecap="butt">
      <text x="555.0823" xml:space="preserve" y="329.3224" clip-path="url(#clipPath2)" stroke="none">streaming_bulk()</text>
    </g>
    <g fill="rgb(255,153,0)" text-rendering="geometricPrecision" shape-rendering="geometricPrecision" transform="matrix(1,0,0,1,-328,177)" stroke="rgb(255,153,0)">
      <rect x="375.1301" width="127.3344" height="30" y="-98.6883" clip-path="url(#clipPath2)" stroke="none"/>
    </g>
    <g stroke-linecap="butt" transform="matrix(1,0,0,1,-328,177)" fill="rgb(153,51,0)" text-rendering="geometricPrecision" shape-rendering="geometricPrecision" stroke="rgb(153,51,0)" stroke-miterlimit="1.45">
      <rect fill="none" x="375.1301" width="127.3344" height="30" y="-98.6883" clip-path="url(#clipPath2)"/>
      <text x="379.7641" y="-78.9744" clip-path="url(#clipPath2)" fill="black" font-family="sans-serif" stroke="none" xml:space="preserve">Update enrich policies</text>
      <rect x="549.9945" y="-98.6883" clip-path="url(#clipPath2)" fill="none" width="167.1612" stroke-dasharray="6,2" height="30" stroke="rgb(153,153,153)"/>
      <text x="554.3622" y="-79.3142" clip-path="url(#clipPath2)" fill="black" font-family="'Arial monospaced for SAP'" stroke="none" xml:space="preserve">updateEnrichPolicies()</text>
      <path fill="none" d="M438.7973 -15.4988 L438.7973 -0.3094" clip-path="url(#clipPath2)" stroke="black"/>
      <path fill="black" d="M438.7973 7.6906 L443.7973 -4.3094 L438.7973 -1.3094 L433.7973 -4.3094 Z" clip-path="url(#clipPath2)" stroke="none"/>
      <path fill="none" stroke-dasharray="6,2" d="M549.9945 22.6906 L499.5973 22.6906" clip-path="url(#clipPath2)" stroke="rgb(153,153,153)"/>
      <path fill="none" d="M438.7973 37.6906 L438.7973 51.1164 L438.7973 51.1164 L438.7973 56.5422" clip-path="url(#clipPath2)" stroke="black"/>
      <path fill="black" d="M438.7973 64.5422 L443.7973 52.5422 L438.7973 55.5422 L433.7973 52.5422 Z" clip-path="url(#clipPath2)" stroke="none"/>
      <path fill="none" d="M438.7973 94.5422 L438.7973 113.3938" clip-path="url(#clipPath2)" stroke="black"/>
      <path fill="black" d="M438.7973 121.3938 L443.7973 109.3938 L438.7973 112.3938 L433.7973 109.3938 Z" clip-path="url(#clipPath2)" stroke="none"/>
      <path fill="none" d="M438.7973 151.3938 L438.7973 169.3195 L438.7973 169.3195 L438.7973 170.2453" clip-path="url(#clipPath2)" stroke="black"/>
      <path fill="black" d="M438.7973 178.2453 L443.7973 166.2453 L438.7973 169.2453 L433.7973 166.2453 Z" clip-path="url(#clipPath2)" stroke="none"/>
      <path fill="none" d="M438.7973 226.2453 L438.7973 245.0969" clip-path="url(#clipPath2)" stroke="black"/>
      <path fill="black" d="M438.7973 253.0969 L443.7973 241.0969 L438.7973 244.0969 L433.7973 241.0969 Z" clip-path="url(#clipPath2)" stroke="none"/>
      <path fill="none" d="M438.7973 283.0969 L438.7973 301.9484" clip-path="url(#clipPath2)" stroke="black"/>
      <path fill="black" d="M438.7973 309.9484 L443.7973 297.9484 L438.7973 300.9484 L433.7973 297.9484 Z" clip-path="url(#clipPath2)" stroke="none"/>
      <path fill="none" stroke-dasharray="6,2" d="M549.9945 202.2453 L519.9945 202.2453" clip-path="url(#clipPath2)" stroke="rgb(153,153,153)"/>
      <path fill="none" stroke-dasharray="6,2" d="M549.9945 -30.4988 L491.4053 -30.4988" clip-path="url(#clipPath2)" stroke="rgb(153,153,153)"/>
      <path fill="none" d="M438.7973 339.9484 L438.7973 358.8057" clip-path="url(#clipPath2)" stroke="black"/>
      <path fill="black" d="M438.7973 366.8057 L443.7973 354.8057 L438.7973 357.8057 L433.7973 354.8057 Z" clip-path="url(#clipPath2)" stroke="none"/>
      <path fill="none" stroke-dasharray="6,2" d="M494.3973 324.9484 L549.9945 324.9484" clip-path="url(#clipPath2)" stroke="rgb(153,153,153)"/>
      <path fill="none" d="M438.337 -121.4718 L438.5172 -106.6877" clip-path="url(#clipPath2)" stroke="black"/>
      <path fill="black" d="M438.6146 -98.6883 L443.468 -110.7483 L438.505 -107.6876 L433.4688 -110.6265 Z" clip-path="url(#clipPath2)" stroke="none"/>
      <path fill="none" d="M438.7973 -68.6883 L438.7973 -53.4988" clip-path="url(#clipPath2)" stroke="black"/>
      <path fill="black" d="M438.7973 -45.4988 L443.7973 -57.4988 L438.7973 -54.4988 L433.7973 -57.4988 Z" clip-path="url(#clipPath2)" stroke="none"/>
      <path fill="none" stroke-dasharray="6,2" d="M502.4645 -83.6883 L549.9945 -83.6883" clip-path="url(#clipPath2)" stroke="rgb(153,153,153)"/>
    </g>
  </g>
</svg>
