<?xml version="1.0" encoding="UTF-8"?><svg xmlns="http://www.w3.org/2000/svg" xmlns:xlink="http://www.w3.org/1999/xlink" fill-opacity="1" color-rendering="auto" color-interpolation="auto" text-rendering="auto" stroke="black" stroke-linecap="square" width="634" stroke-miterlimit="10" shape-rendering="auto" stroke-opacity="1" fill="black" stroke-dasharray="none" font-weight="normal" stroke-width="1" height="428" font-family="'Dialog'" font-style="normal" stroke-linejoin="miter" font-size="12px" stroke-dashoffset="0" image-rendering="auto">
  <!--Generated by ySVG 2.6-->
  <defs id="genericDefs"/>
  <g>
    <defs id="defs1">
      <clipPath clipPathUnits="userSpaceOnUse" id="clipPath1">
        <path d="M0 0 L634 0 L634 428 L0 428 L0 0 Z"/>
      </clipPath>
      <clipPath clipPathUnits="userSpaceOnUse" id="clipPath2">
        <path d="M187 365 L821 365 L821 793 L187 793 L187 365 Z"/>
      </clipPath>
    </defs>
    <g fill="white" text-rendering="geometricPrecision" shape-rendering="geometricPrecision" transform="translate(-187,-365)" stroke="white">
      <rect x="187" width="634" height="428" y="365" clip-path="url(#clipPath2)" stroke="none"/>
    </g>
    <g fill="rgb(255,153,0)" text-rendering="geometricPrecision" shape-rendering="geometricPrecision" transform="matrix(1,0,0,1,-187,-365)" stroke="rgb(255,153,0)">
      <rect x="231.9" width="280.2" height="30" y="447" clip-path="url(#clipPath2)" stroke="none"/>
    </g>
    <g stroke-linecap="butt" transform="matrix(1,0,0,1,-187,-365)" fill="rgb(153,51,0)" text-rendering="geometricPrecision" shape-rendering="geometricPrecision" stroke="rgb(153,51,0)" stroke-miterlimit="1.45">
      <rect fill="none" x="231.9" width="280.2" height="30" y="447" clip-path="url(#clipPath2)"/>
      <text x="235.9219" y="466.7139" clip-path="url(#clipPath2)" fill="black" font-family="sans-serif" stroke="none" xml:space="preserve">Remove rows of alignment table with an annotation</text>
    </g>
    <g fill="rgb(255,153,0)" text-rendering="geometricPrecision" shape-rendering="geometricPrecision" transform="matrix(1,0,0,1,-187,-365)" stroke="rgb(255,153,0)">
      <rect x="202.9" width="338.2" height="30" y="504" clip-path="url(#clipPath2)" stroke="none"/>
    </g>
    <g stroke-linecap="butt" transform="matrix(1,0,0,1,-187,-365)" fill="rgb(153,51,0)" text-rendering="geometricPrecision" shape-rendering="geometricPrecision" stroke="rgb(153,51,0)" stroke-miterlimit="1.45">
      <rect fill="none" x="202.9" width="338.2" height="30" y="504" clip-path="url(#clipPath2)"/>
      <text x="212.9209" y="523.7139" clip-path="url(#clipPath2)" fill="black" font-family="sans-serif" stroke="none" xml:space="preserve">Remove blank files and all associated entries from all tables</text>
    </g>
    <g fill="rgb(255,153,0)" text-rendering="geometricPrecision" shape-rendering="geometricPrecision" transform="matrix(1,0,0,1,-187,-365)" stroke="rgb(255,153,0)">
      <rect x="224.9" width="294.2" height="30" y="561" clip-path="url(#clipPath2)" stroke="none"/>
    </g>
    <g stroke-linecap="butt" transform="matrix(1,0,0,1,-187,-365)" fill="rgb(153,51,0)" text-rendering="geometricPrecision" shape-rendering="geometricPrecision" stroke="rgb(153,51,0)" stroke-miterlimit="1.45">
      <rect fill="none" x="224.9" width="294.2" height="30" y="561" clip-path="url(#clipPath2)"/>
      <text x="236.2617" y="580.7139" clip-path="url(#clipPath2)" fill="black" font-family="sans-serif" stroke="none" xml:space="preserve">Collect peak areas of features from alignment table</text>
    </g>
    <g fill="rgb(255,153,0)" text-rendering="geometricPrecision" shape-rendering="geometricPrecision" transform="matrix(1,0,0,1,-187,-365)" stroke="rgb(255,153,0)">
      <rect x="204.9" width="334.2" height="30" y="622" clip-path="url(#clipPath2)" stroke="none"/>
    </g>
    <g stroke-linecap="butt" transform="matrix(1,0,0,1,-187,-365)" fill="rgb(153,51,0)" text-rendering="geometricPrecision" shape-rendering="geometricPrecision" stroke="rgb(153,51,0)" stroke-miterlimit="1.45">
      <rect fill="none" x="204.9" width="334.2" height="30" y="622" clip-path="url(#clipPath2)"/>
      <text x="221.915" y="641.7139" clip-path="url(#clipPath2)" fill="black" font-family="sans-serif" stroke="none" xml:space="preserve">Add peak areas of internal standards from peak list table</text>
    </g>
    <g fill="rgb(255,153,0)" text-rendering="geometricPrecision" shape-rendering="geometricPrecision" transform="matrix(1,0,0,1,-187,-365)" stroke="rgb(255,153,0)">
      <rect x="202.9" width="338.2" height="30" y="683" clip-path="url(#clipPath2)" stroke="none"/>
    </g>
    <g stroke-linecap="butt" transform="matrix(1,0,0,1,-187,-365)" fill="rgb(153,51,0)" text-rendering="geometricPrecision" shape-rendering="geometricPrecision" stroke="rgb(153,51,0)" stroke-miterlimit="1.45">
      <rect fill="none" x="202.9" width="338.2" height="30" y="683" clip-path="url(#clipPath2)"/>
      <text x="222.6064" y="702.7139" clip-path="url(#clipPath2)" fill="black" font-family="sans-serif" stroke="none" xml:space="preserve">Add EIC, MS1 and MS2 spectra from measurement files</text>
    </g>
    <g fill="rgb(232,238,247)" text-rendering="geometricPrecision" shape-rendering="geometricPrecision" transform="matrix(1,0,0,1,-187,-365)" stroke="rgb(232,238,247)">
      <rect x="614.6" y="738" clip-path="url(#clipPath2)" width="190.8" rx="20" ry="20" height="40" stroke="none"/>
    </g>
    <g stroke-linecap="butt" transform="matrix(1,0,0,1,-187,-365)" fill="gray" text-rendering="geometricPrecision" shape-rendering="geometricPrecision" stroke="gray" stroke-miterlimit="1.45">
      <rect x="614.6" y="738" clip-path="url(#clipPath2)" fill="none" width="190.8" rx="20" ry="20" height="40"/>
      <text x="631.9648" y="762.7139" clip-path="url(#clipPath2)" fill="black" font-family="sans-serif" stroke="none" xml:space="preserve">Save feature records as RDS</text>
    </g>
    <g fill="rgb(232,238,247)" text-rendering="geometricPrecision" shape-rendering="geometricPrecision" transform="matrix(1,0,0,1,-187,-365)" stroke="rgb(232,238,247)">
      <rect x="266.6" y="380" clip-path="url(#clipPath2)" width="210.8" rx="20" ry="20" height="40" stroke="none"/>
    </g>
    <g stroke-linecap="butt" transform="matrix(1,0,0,1,-187,-365)" fill="gray" text-rendering="geometricPrecision" shape-rendering="geometricPrecision" stroke="gray" stroke-miterlimit="1.45">
      <rect x="266.6" y="380" clip-path="url(#clipPath2)" fill="none" width="210.8" rx="20" ry="20" height="40"/>
      <text x="280.623" y="404.7139" clip-path="url(#clipPath2)" fill="black" font-family="sans-serif" stroke="none" xml:space="preserve">ntsResult object from file scanning</text>
    </g>
    <g fill="rgb(204,255,255)" text-rendering="geometricPrecision" shape-rendering="geometricPrecision" transform="matrix(1,0,0,1,-187,-365)" stroke="rgb(204,255,255)">
      <path d="M621.75 561 L805.9 561 L798.25 591 L614.1 591 Z" stroke="none" clip-path="url(#clipPath2)"/>
    </g>
    <g stroke-linecap="butt" transform="matrix(1,0,0,1,-187,-365)" fill="teal" text-rendering="geometricPrecision" shape-rendering="geometricPrecision" stroke="teal" stroke-miterlimit="1.45">
      <path fill="none" d="M621.75 561 L805.9 561 L798.25 591 L614.1 591 Z" clip-path="url(#clipPath2)"/>
      <text x="628.2852" y="580.7139" clip-path="url(#clipPath2)" fill="black" font-family="sans-serif" stroke="none" xml:space="preserve">featureRecord for each feature</text>
    </g>
    <g text-rendering="geometricPrecision" stroke-miterlimit="1.45" shape-rendering="geometricPrecision" transform="matrix(1,0,0,1,-187,-365)" stroke-linecap="butt">
      <path fill="none" d="M372 477 L372 496" clip-path="url(#clipPath2)"/>
      <path d="M372 504 L377 492 L372 495 L367 492 Z" clip-path="url(#clipPath2)" stroke="none"/>
      <path fill="none" d="M372 534 L372 553" clip-path="url(#clipPath2)"/>
      <path d="M372 561 L377 549 L372 552 L367 549 Z" clip-path="url(#clipPath2)" stroke="none"/>
      <path fill="none" d="M372 591 L372 614" clip-path="url(#clipPath2)"/>
      <path d="M372 622 L377 610 L372 613 L367 610 Z" clip-path="url(#clipPath2)" stroke="none"/>
      <path fill="none" d="M372 652 L372 675" clip-path="url(#clipPath2)"/>
      <path d="M372 683 L377 671 L372 674 L367 671 Z" clip-path="url(#clipPath2)" stroke="none"/>
      <path fill="none" stroke-dasharray="6,2" d="M539.1 637 L710 637 L710 738.0007" clip-path="url(#clipPath2)" stroke="rgb(153,153,153)"/>
      <path fill="none" stroke-dasharray="6,2" d="M541.1 698 L710 698 L710 737.9902" clip-path="url(#clipPath2)" stroke="rgb(153,153,153)"/>
      <path fill="none" d="M372 420.0107 L372 439" clip-path="url(#clipPath2)"/>
      <path d="M372 447 L377 435 L372 438 L367 435 Z" clip-path="url(#clipPath2)" stroke="none"/>
      <path fill="none" d="M519.1 576 L609.9523 576" clip-path="url(#clipPath2)"/>
      <path d="M617.9523 576 L605.9523 571 L608.9523 576 L605.9523 581 Z" clip-path="url(#clipPath2)" stroke="none"/>
      <path fill="none" d="M710 590.9741 L710 729.9781" clip-path="url(#clipPath2)"/>
      <path d="M710 737.9781 L715 725.9781 L710 728.9781 L705 725.9781 Z" clip-path="url(#clipPath2)" stroke="none"/>
    </g>
  </g>
</svg>
