<?xml version="1.0" encoding="UTF-8"?><svg xmlns="http://www.w3.org/2000/svg" xmlns:xlink="http://www.w3.org/1999/xlink" fill-opacity="1" color-rendering="auto" color-interpolation="auto" text-rendering="auto" stroke="black" stroke-linecap="square" width="385" stroke-miterlimit="10" shape-rendering="auto" stroke-opacity="1" fill="black" stroke-dasharray="none" font-weight="normal" stroke-width="1" height="400" font-family="'Dialog'" font-style="normal" stroke-linejoin="miter" font-size="12px" stroke-dashoffset="0" image-rendering="auto">
  <!--Generated by ySVG 2.6-->
  <defs id="genericDefs"/>
  <g>
    <defs id="defs1">
      <clipPath clipPathUnits="userSpaceOnUse" id="clipPath1">
        <path d="M0 0 L385 0 L385 400 L0 400 L0 0 Z"/>
      </clipPath>
      <clipPath clipPathUnits="userSpaceOnUse" id="clipPath2">
        <path d="M523 138 L908 138 L908 538 L523 538 L523 138 Z"/>
      </clipPath>
    </defs>
    <g fill="white" text-rendering="geometricPrecision" shape-rendering="geometricPrecision" transform="translate(-523,-138)" stroke="white">
      <rect x="523" width="385" height="400" y="138" clip-path="url(#clipPath2)" stroke="none"/>
    </g>
    <g fill="rgb(255,153,0)" text-rendering="geometricPrecision" shape-rendering="geometricPrecision" transform="matrix(1,0,0,1,-523,-138)" stroke="rgb(255,153,0)">
      <path d="M546.75 363.5217 L755.25 363.5217 L755.25 393.5217 L546.75 393.5217 Z" stroke="none" clip-path="url(#clipPath2)"/>
    </g>
    <g stroke-linecap="butt" transform="matrix(1,0,0,1,-523,-138)" fill="rgb(153,51,0)" text-rendering="geometricPrecision" shape-rendering="geometricPrecision" stroke="rgb(153,51,0)" stroke-miterlimit="1.45">
      <path fill="none" d="M546.75 363.5217 L755.25 363.5217 L755.25 393.5217 L546.75 393.5217 Z" clip-path="url(#clipPath2)"/>
      <text x="561.9492" y="383.2356" clip-path="url(#clipPath2)" fill="black" font-family="sans-serif" stroke="none" xml:space="preserve">Run quality checks on all batches</text>
    </g>
    <g fill="rgb(255,153,0)" text-rendering="geometricPrecision" shape-rendering="geometricPrecision" transform="matrix(1,0,0,1,-523,-138)" stroke="rgb(255,153,0)">
      <path d="M538.1059 303.9031 L763.8941 303.9031 L763.8941 333.9031 L538.1059 333.9031 Z" stroke="none" clip-path="url(#clipPath2)"/>
    </g>
    <g stroke-linecap="butt" transform="matrix(1,0,0,1,-523,-138)" fill="rgb(153,51,0)" text-rendering="geometricPrecision" shape-rendering="geometricPrecision" stroke="rgb(153,51,0)" stroke-miterlimit="1.45">
      <path fill="none" d="M538.1059 303.9031 L763.8941 303.9031 L763.8941 333.9031 L538.1059 333.9031 Z" clip-path="url(#clipPath2)"/>
      <text x="546.958" y="323.617" clip-path="url(#clipPath2)" fill="black" font-family="sans-serif" stroke="none" xml:space="preserve">Split records into batches (by directory)</text>
    </g>
    <g fill="rgb(204,255,255)" text-rendering="geometricPrecision" shape-rendering="geometricPrecision" transform="matrix(1,0,0,1,-523,-138)" stroke="rgb(204,255,255)">
      <path d="M569.75 423.1403 L739.9 423.1403 L732.25 453.1403 L562.1 453.1403 Z" stroke="none" clip-path="url(#clipPath2)"/>
    </g>
    <g stroke-linecap="butt" transform="matrix(1,0,0,1,-523,-138)" fill="teal" text-rendering="geometricPrecision" shape-rendering="geometricPrecision" stroke="teal" stroke-miterlimit="1.45">
      <path fill="none" d="M569.75 423.1403 L739.9 423.1403 L732.25 453.1403 L562.1 453.1403 Z" clip-path="url(#clipPath2)"/>
      <text x="570.293" y="442.8542" clip-path="url(#clipPath2)" fill="black" font-family="sans-serif" stroke="none" xml:space="preserve">Records to process in batches</text>
    </g>
    <g fill="rgb(204,255,204)" text-rendering="geometricPrecision" shape-rendering="geometricPrecision" transform="matrix(1,0,0,1,-523,-138)" stroke="rgb(204,255,204)">
      <path d="M783.304 236.347 C786.0698 226.1486 872.7302 226.1486 875.496 236.347 L875.496 266.9422 C872.7302 277.1406 786.0698 277.1406 783.304 266.9422 Z" stroke="none" clip-path="url(#clipPath2)"/>
    </g>
    <g stroke-linecap="butt" transform="matrix(1,0,0,1,-523,-138)" fill="green" text-rendering="geometricPrecision" shape-rendering="geometricPrecision" stroke="green" stroke-miterlimit="1.45">
      <path fill="none" d="M783.304 236.347 C786.0698 226.1486 872.7302 226.1486 875.496 236.347 L875.496 266.9422 C872.7302 277.1406 786.0698 277.1406 783.304 266.9422 Z" clip-path="url(#clipPath2)"/>
      <path fill="none" d="M875.496 236.347 C872.7302 246.5454 786.0698 246.5454 783.304 236.347" clip-path="url(#clipPath2)"/>
      <text x="793.3942" y="256.0186" clip-path="url(#clipPath2)" fill="black" font-family="'Arial monospaced for SAP'" stroke="none" xml:space="preserve">msrawfiles</text>
    </g>
    <g fill="rgb(255,153,0)" text-rendering="geometricPrecision" shape-rendering="geometricPrecision" transform="matrix(1,0,0,1,-523,-138)" stroke="rgb(255,153,0)">
      <rect x="567.7906" width="166.4187" height="50.992" y="223.2926" clip-path="url(#clipPath2)" stroke="none"/>
    </g>
    <g stroke-linecap="butt" transform="matrix(1,0,0,1,-523,-138)" fill="rgb(153,51,0)" text-rendering="geometricPrecision" shape-rendering="geometricPrecision" stroke="rgb(153,51,0)" stroke-miterlimit="1.45">
      <rect fill="none" x="567.7906" width="166.4187" height="50.992" y="223.2926" clip-path="url(#clipPath2)"/>
      <text x="573.6211" y="246.1518" clip-path="url(#clipPath2)" fill="black" font-family="sans-serif" stroke="none" xml:space="preserve">Search for available batches </text>
      <text x="594.9697" y="260.853" clip-path="url(#clipPath2)" fill="black" font-family="sans-serif" stroke="none" xml:space="preserve">under given directory</text>
    </g>
    <g fill="rgb(232,238,247)" text-rendering="geometricPrecision" shape-rendering="geometricPrecision" transform="matrix(1,0,0,1,-523,-138)" stroke="rgb(232,238,247)">
      <rect x="580.6" y="153.674" clip-path="url(#clipPath2)" width="140.8" rx="20" ry="20" height="40" stroke="none"/>
    </g>
    <g stroke-linecap="butt" transform="matrix(1,0,0,1,-523,-138)" fill="gray" text-rendering="geometricPrecision" shape-rendering="geometricPrecision" stroke="gray" stroke-miterlimit="1.45">
      <rect x="580.6" y="153.674" clip-path="url(#clipPath2)" fill="none" width="140.8" rx="20" ry="20" height="40"/>
      <text x="585.6387" y="178.3879" clip-path="url(#clipPath2)" fill="black" font-family="sans-serif" stroke="none" xml:space="preserve">User initiates processing</text>
    </g>
    <g fill="rgb(232,238,247)" text-rendering="geometricPrecision" shape-rendering="geometricPrecision" transform="matrix(1,0,0,1,-523,-138)" stroke="rgb(232,238,247)">
      <rect x="579" y="482.7588" clip-path="url(#clipPath2)" width="144" rx="20" ry="20" height="40" stroke="none"/>
    </g>
    <g stroke-linecap="butt" transform="matrix(1,0,0,1,-523,-138)" fill="gray" text-rendering="geometricPrecision" shape-rendering="geometricPrecision" stroke="gray" stroke-miterlimit="1.45">
      <rect x="579" y="482.7588" clip-path="url(#clipPath2)" fill="none" width="144" rx="20" ry="20" height="40"/>
      <text x="588.6357" y="507.4727" clip-path="url(#clipPath2)" fill="black" font-family="sans-serif" stroke="none" xml:space="preserve">Next step in processing</text>
    </g>
    <g stroke-linecap="butt" transform="matrix(1,0,0,1,-523,-138)" fill="rgb(153,153,153)" text-rendering="geometricPrecision" shape-rendering="geometricPrecision" stroke-dasharray="6,2" stroke="rgb(153,153,153)" stroke-miterlimit="1.45">
      <rect fill="none" x="749.571" width="119" height="30" y="158.674" clip-path="url(#clipPath2)"/>
    </g>
    <g text-rendering="geometricPrecision" stroke-miterlimit="1.45" shape-rendering="geometricPrecision" font-family="'Arial monospaced for SAP'" transform="matrix(1,0,0,1,-523,-138)" stroke-linecap="butt">
      <text x="765.864" xml:space="preserve" y="178.048" clip-path="url(#clipPath2)" stroke="none">screening*()</text>
    </g>
    <g stroke-linecap="butt" transform="matrix(1,0,0,1,-523,-138)" fill="rgb(153,153,153)" text-rendering="geometricPrecision" shape-rendering="geometricPrecision" stroke-dasharray="6,2" stroke="rgb(153,153,153)" stroke-miterlimit="1.45">
      <rect fill="none" x="765.9" width="127" height="30" y="423.2588" clip-path="url(#clipPath2)"/>
    </g>
    <g text-rendering="geometricPrecision" stroke-miterlimit="1.45" shape-rendering="geometricPrecision" font-family="'Arial monospaced for SAP'" transform="matrix(1,0,0,1,-523,-138)" stroke-linecap="butt">
      <text x="775.3912" xml:space="preserve" y="442.6329" clip-path="url(#clipPath2)" stroke="none">msrawfilesBatch</text>
      <path fill="none" d="M651 333.8951 L651 355.4864" clip-path="url(#clipPath2)"/>
      <path d="M651 363.4864 L656 351.4864 L651 354.4864 L646 351.4864 Z" clip-path="url(#clipPath2)" stroke="none"/>
      <path fill="none" d="M651 393.5277 L651 415.1324" clip-path="url(#clipPath2)"/>
      <path d="M651 423.1324 L656 411.1324 L651 414.1324 L646 411.1324 Z" clip-path="url(#clipPath2)" stroke="none"/>
      <path fill="none" stroke-dasharray="6,2" d="M783.32 255.472 L753.2052 255.472 L753.2052 255.472 L734.1877 255.3181" clip-path="url(#clipPath2)"/>
      <path fill="none" d="M651 274.2846 L651 295.8705" clip-path="url(#clipPath2)"/>
      <path d="M651 303.8705 L656 291.8705 L651 294.8705 L646 291.8705 Z" clip-path="url(#clipPath2)" stroke="none"/>
      <path fill="none" d="M651 193.663 L651 215.2926" clip-path="url(#clipPath2)"/>
      <path d="M651 223.2926 L656 211.2926 L651 214.2926 L646 211.2926 Z" clip-path="url(#clipPath2)" stroke="none"/>
      <path fill="none" d="M651 453.1275 L651 474.7415" clip-path="url(#clipPath2)"/>
      <path d="M651 482.7415 L656 470.7415 L651 473.7415 L646 470.7415 Z" clip-path="url(#clipPath2)" stroke="none"/>
    </g>
    <g stroke-linecap="butt" transform="matrix(1,0,0,1,-523,-138)" fill="rgb(153,153,153)" text-rendering="geometricPrecision" shape-rendering="geometricPrecision" stroke-dasharray="6,2" stroke="rgb(153,153,153)" stroke-miterlimit="1.45">
      <path fill="none" d="M749.571 173.674 L721.4147 173.674" clip-path="url(#clipPath2)"/>
      <path fill="none" d="M765.9 438.1869 L736.0801 438.1531" clip-path="url(#clipPath2)"/>
    </g>
  </g>
</svg>
