<?xml version="1.0" encoding="UTF-8"?><svg xmlns="http://www.w3.org/2000/svg" xmlns:xlink="http://www.w3.org/1999/xlink" fill-opacity="1" color-rendering="auto" color-interpolation="auto" text-rendering="auto" stroke="black" stroke-linecap="square" width="845" stroke-miterlimit="10" shape-rendering="auto" stroke-opacity="1" fill="black" stroke-dasharray="none" font-weight="normal" stroke-width="1" height="376" font-family="'Dialog'" font-style="normal" stroke-linejoin="miter" font-size="12px" stroke-dashoffset="0" image-rendering="auto">
  <!--Generated by ySVG 2.5-->
  <defs id="genericDefs"/>
  <g>
    <defs id="defs1">
      <clipPath clipPathUnits="userSpaceOnUse" id="clipPath1">
        <path d="M0 0 L845 0 L845 376 L0 376 L0 0 Z"/>
      </clipPath>
      <clipPath clipPathUnits="userSpaceOnUse" id="clipPath2">
        <path d="M128 219 L973 219 L973 595 L128 595 L128 219 Z"/>
      </clipPath>
    </defs>
    <g fill="white" text-rendering="geometricPrecision" shape-rendering="geometricPrecision" transform="translate(-128,-219)" stroke="white">
      <rect x="128" width="845" height="376" y="219" clip-path="url(#clipPath2)" stroke="none"/>
    </g>
    <g stroke-linecap="butt" transform="matrix(1,0,0,1,-128,-219)" fill="gray" text-rendering="geometricPrecision" shape-rendering="geometricPrecision" stroke-dasharray="6,2" stroke="gray" stroke-miterlimit="1.45">
      <rect x="564.6576" y="234.5749" clip-path="url(#clipPath2)" fill="none" width="294.48" rx="4" ry="4" height="232.456"/>
      <text x="821.453" font-size="15px" y="439.3586" clip-path="url(#clipPath2)" font-family="sans-serif" stroke-dasharray="none" stroke="none" xml:space="preserve">Data</text>
      <text x="765.5839" font-size="15px" y="457.735" clip-path="url(#clipPath2)" font-family="sans-serif" stroke-dasharray="none" stroke="none" xml:space="preserve">management</text>
      <rect x="564.6576" y="476.5681" clip-path="url(#clipPath2)" fill="none" width="392.88" rx="4" ry="4" height="96.0436"/>
      <text x="577.8655" font-size="14px" y="563.5356" clip-path="url(#clipPath2)" font-family="sans-serif" stroke-dasharray="none" stroke="none" xml:space="preserve">Visualization</text>
      <rect x="152.9811" y="234.5749" clip-path="url(#clipPath2)" fill="none" width="402.7467" rx="4" ry="4" height="232.4187"/>
      <text x="167.1655" font-size="15px" y="264.839" clip-path="url(#clipPath2)" font-family="sans-serif" stroke-dasharray="none" stroke="none" xml:space="preserve">Measurement file</text>
      <text x="167.1655" font-size="15px" y="283.2155" clip-path="url(#clipPath2)" font-family="sans-serif" stroke-dasharray="none" stroke="none" xml:space="preserve">processing</text>
    </g>
    <g fill="rgb(255,204,0)" text-rendering="geometricPrecision" shape-rendering="geometricPrecision" transform="matrix(1,0,0,1,-128,-219)" stroke="rgb(255,204,0)">
      <rect x="575" y="323" clip-path="url(#clipPath2)" width="104" rx="4" ry="4" height="55" stroke="none"/>
    </g>
    <g text-rendering="geometricPrecision" stroke-miterlimit="1.45" shape-rendering="geometricPrecision" transform="matrix(1,0,0,1,-128,-219)" stroke-linecap="butt">
      <rect x="575" y="323" clip-path="url(#clipPath2)" fill="none" width="104" rx="4" ry="4" height="55"/>
      <text x="603.9873" xml:space="preserve" y="347.8633" clip-path="url(#clipPath2)" font-family="sans-serif" stroke="none">ntsportal</text>
      <text x="593.9883" xml:space="preserve" y="362.5645" clip-path="url(#clipPath2)" font-family="sans-serif" stroke="none">(R-package)</text>
    </g>
    <g fill="rgb(153,204,255)" text-rendering="geometricPrecision" shape-rendering="geometricPrecision" transform="matrix(1,0,0,1,-128,-219)" stroke="rgb(153,204,255)">
      <rect x="575" y="399.1568" clip-path="url(#clipPath2)" width="104" rx="4" ry="4" height="55" stroke="none"/>
    </g>
    <g text-rendering="geometricPrecision" stroke-miterlimit="1.45" shape-rendering="geometricPrecision" transform="matrix(1,0,0,1,-128,-219)" stroke-linecap="butt">
      <rect x="575" y="399.1568" clip-path="url(#clipPath2)" fill="none" width="104" rx="4" ry="4" height="55"/>
      <text x="591.3193" xml:space="preserve" y="424.0201" clip-path="url(#clipPath2)" font-family="sans-serif" stroke="none">Elasticsearch</text>
      <text x="617.3291" xml:space="preserve" y="438.7213" clip-path="url(#clipPath2)" font-family="sans-serif" stroke="none">API</text>
    </g>
    <g fill="rgb(255,204,0)" text-rendering="geometricPrecision" shape-rendering="geometricPrecision" transform="matrix(1,0,0,1,-128,-219)" stroke="rgb(255,204,0)">
      <path d="M709 334.7373 C712.12 323 809.88 323 813 334.7373 L813 369.9491 C809.88 381.6864 712.12 381.6864 709 369.9491 Z" stroke="none" clip-path="url(#clipPath2)"/>
    </g>
    <g text-rendering="geometricPrecision" stroke-miterlimit="1.45" shape-rendering="geometricPrecision" transform="matrix(1,0,0,1,-128,-219)" stroke-linecap="butt">
      <path fill="none" d="M709 334.7373 C712.12 323 809.88 323 813 334.7373 L813 369.9491 C809.88 381.6864 712.12 381.6864 709 369.9491 Z" clip-path="url(#clipPath2)"/>
      <path fill="none" d="M813 334.7373 C809.88 346.4745 712.12 346.4745 709 334.7373" clip-path="url(#clipPath2)"/>
      <text x="735.3154" xml:space="preserve" y="355.6593" clip-path="url(#clipPath2)" font-family="sans-serif" stroke="none">Database</text>
      <text x="721.3232" xml:space="preserve" y="370.3604" clip-path="url(#clipPath2)" font-family="sans-serif" stroke="none">(Elasticsearch)</text>
    </g>
    <g fill="rgb(153,204,255)" text-rendering="geometricPrecision" shape-rendering="geometricPrecision" transform="matrix(1,0,0,1,-128,-219)" stroke="rgb(153,204,255)">
      <rect x="577.7312" y="246.8432" clip-path="url(#clipPath2)" width="104" rx="4" ry="4" height="55" stroke="none"/>
    </g>
    <g text-rendering="geometricPrecision" stroke-miterlimit="1.45" shape-rendering="geometricPrecision" transform="matrix(1,0,0,1,-128,-219)" stroke-linecap="butt">
      <rect x="577.7312" y="246.8432" clip-path="url(#clipPath2)" fill="none" width="104" rx="4" ry="4" height="55"/>
      <text x="585.0447" xml:space="preserve" y="271.7065" clip-path="url(#clipPath2)" font-family="sans-serif" stroke="none">R and third-party</text>
      <text x="604.0466" xml:space="preserve" y="286.4077" clip-path="url(#clipPath2)" font-family="sans-serif" stroke="none">packages</text>
    </g>
    <g fill="rgb(153,204,255)" text-rendering="geometricPrecision" shape-rendering="geometricPrecision" transform="matrix(1,0,0,1,-128,-219)" stroke="rgb(153,204,255)">
      <rect x="709" y="246.8432" clip-path="url(#clipPath2)" width="104" rx="4" ry="4" height="55" stroke="none"/>
    </g>
    <g text-rendering="geometricPrecision" stroke-miterlimit="1.45" shape-rendering="geometricPrecision" transform="matrix(1,0,0,1,-128,-219)" stroke-linecap="butt">
      <rect x="709" y="246.8432" clip-path="url(#clipPath2)" fill="none" width="104" rx="4" ry="4" height="55"/>
      <text x="715.3057" xml:space="preserve" y="271.7065" clip-path="url(#clipPath2)" font-family="sans-serif" stroke="none">Python and third-</text>
      <text x="720.3096" xml:space="preserve" y="286.4077" clip-path="url(#clipPath2)" font-family="sans-serif" stroke="none">party packages</text>
    </g>
    <g fill="rgb(153,204,255)" text-rendering="geometricPrecision" shape-rendering="geometricPrecision" transform="matrix(1,0,0,1,-128,-219)" stroke="rgb(153,204,255)">
      <rect x="575" y="486.7843" clip-path="url(#clipPath2)" width="104" rx="4" ry="4" height="55" stroke="none"/>
    </g>
    <g text-rendering="geometricPrecision" stroke-miterlimit="1.45" shape-rendering="geometricPrecision" transform="matrix(1,0,0,1,-128,-219)" stroke-linecap="butt">
      <rect x="575" y="486.7843" clip-path="url(#clipPath2)" fill="none" width="104" rx="4" ry="4" height="55"/>
      <text x="606.6504" xml:space="preserve" y="511.6476" clip-path="url(#clipPath2)" font-family="sans-serif" stroke="none">Kibana </text>
      <text x="583.3096" xml:space="preserve" y="526.3487" clip-path="url(#clipPath2)" font-family="sans-serif" stroke="none">Dashboards API</text>
    </g>
    <g fill="rgb(255,204,0)" text-rendering="geometricPrecision" shape-rendering="geometricPrecision" transform="matrix(1,0,0,1,-128,-219)" stroke="rgb(255,204,0)">
      <rect x="709" y="486.7843" clip-path="url(#clipPath2)" width="104" rx="4" ry="4" height="55" stroke="none"/>
    </g>
    <g text-rendering="geometricPrecision" stroke-miterlimit="1.45" shape-rendering="geometricPrecision" transform="matrix(1,0,0,1,-128,-219)" stroke-linecap="butt">
      <rect x="709" y="486.7843" clip-path="url(#clipPath2)" fill="none" width="104" rx="4" ry="4" height="55"/>
      <text x="718.6543" xml:space="preserve" y="511.6476" clip-path="url(#clipPath2)" font-family="sans-serif" stroke="none">NTSPortal web-</text>
      <text x="729.6436" xml:space="preserve" y="526.3487" clip-path="url(#clipPath2)" font-family="sans-serif" stroke="none">dashboards</text>
    </g>
    <g fill="rgb(255,204,0)" text-rendering="geometricPrecision" shape-rendering="geometricPrecision" transform="matrix(1,0,0,1,-128,-219)" stroke="rgb(255,204,0)">
      <rect x="428.1821" y="323" clip-path="url(#clipPath2)" width="104" rx="4" ry="4" height="55" stroke="none"/>
    </g>
    <g text-rendering="geometricPrecision" stroke-miterlimit="1.45" shape-rendering="geometricPrecision" transform="matrix(1,0,0,1,-128,-219)" stroke-linecap="butt">
      <rect x="428.1821" y="323" clip-path="url(#clipPath2)" fill="none" width="104" rx="4" ry="4" height="55"/>
      <text x="448.8403" xml:space="preserve" y="347.8633" clip-path="url(#clipPath2)" font-family="sans-serif" stroke="none">ntsworkflow</text>
      <text x="447.1704" xml:space="preserve" y="362.5645" clip-path="url(#clipPath2)" font-family="sans-serif" stroke="none">(R-package)</text>
    </g>
    <g fill="rgb(153,204,255)" text-rendering="geometricPrecision" shape-rendering="geometricPrecision" transform="matrix(1,0,0,1,-128,-219)" stroke="rgb(153,204,255)">
      <rect x="428.1821" y="399.1568" clip-path="url(#clipPath2)" width="104" rx="4" ry="4" height="55" stroke="none"/>
    </g>
    <g text-rendering="geometricPrecision" stroke-miterlimit="1.45" shape-rendering="geometricPrecision" transform="matrix(1,0,0,1,-128,-219)" stroke-linecap="butt">
      <rect x="428.1821" y="399.1568" clip-path="url(#clipPath2)" fill="none" width="104" rx="4" ry="4" height="55"/>
      <text x="459.1792" xml:space="preserve" y="431.3707" clip-path="url(#clipPath2)" font-family="sans-serif" stroke="none">SLURM</text>
    </g>
    <g fill="rgb(153,204,255)" text-rendering="geometricPrecision" shape-rendering="geometricPrecision" transform="matrix(1,0,0,1,-128,-219)" stroke="rgb(153,204,255)">
      <rect x="296.4909" y="399.1568" clip-path="url(#clipPath2)" width="104" rx="4" ry="4" height="55" stroke="none"/>
    </g>
    <g text-rendering="geometricPrecision" stroke-miterlimit="1.45" shape-rendering="geometricPrecision" transform="matrix(1,0,0,1,-128,-219)" stroke-linecap="butt">
      <rect x="296.4909" y="399.1568" clip-path="url(#clipPath2)" fill="none" width="104" rx="4" ry="4" height="55"/>
      <text x="308.8025" xml:space="preserve" y="424.0201" clip-path="url(#clipPath2)" font-family="sans-serif" stroke="none">Java and third-</text>
      <text x="307.8005" xml:space="preserve" y="438.7213" clip-path="url(#clipPath2)" font-family="sans-serif" stroke="none">party packages</text>
    </g>
    <g fill="rgb(153,204,255)" text-rendering="geometricPrecision" shape-rendering="geometricPrecision" transform="matrix(1,0,0,1,-128,-219)" stroke="rgb(153,204,255)">
      <rect x="843" y="486.9824" clip-path="url(#clipPath2)" width="104" rx="4" ry="4" height="55" stroke="none"/>
    </g>
    <g text-rendering="geometricPrecision" stroke-miterlimit="1.45" shape-rendering="geometricPrecision" transform="matrix(1,0,0,1,-128,-219)" stroke-linecap="butt">
      <rect x="843" y="486.9824" clip-path="url(#clipPath2)" fill="none" width="104" rx="4" ry="4" height="55"/>
      <text x="853.9727" xml:space="preserve" y="519.1963" clip-path="url(#clipPath2)" font-family="sans-serif" stroke="none">Vega, Vega-lite</text>
    </g>
    <g fill="rgb(153,204,255)" text-rendering="geometricPrecision" shape-rendering="geometricPrecision" transform="matrix(1,0,0,1,-128,-219)" stroke="rgb(153,204,255)">
      <rect x="296.4909" y="323" clip-path="url(#clipPath2)" width="104" rx="4" ry="4" height="55" stroke="none"/>
    </g>
    <g text-rendering="geometricPrecision" stroke-miterlimit="1.45" shape-rendering="geometricPrecision" transform="matrix(1,0,0,1,-128,-219)" stroke-linecap="butt">
      <rect x="296.4909" y="323" clip-path="url(#clipPath2)" fill="none" width="104" rx="4" ry="4" height="55"/>
      <text x="303.8044" xml:space="preserve" y="347.8633" clip-path="url(#clipPath2)" font-family="sans-serif" stroke="none">R and third-party</text>
      <text x="322.8064" xml:space="preserve" y="362.5645" clip-path="url(#clipPath2)" font-family="sans-serif" stroke="none">packages</text>
    </g>
    <g fill="rgb(153,204,255)" text-rendering="geometricPrecision" shape-rendering="geometricPrecision" transform="matrix(1,0,0,1,-128,-219)" stroke="rgb(153,204,255)">
      <rect x="164.7997" y="323" clip-path="url(#clipPath2)" width="104" rx="4" ry="4" height="55" stroke="none"/>
    </g>
    <g text-rendering="geometricPrecision" stroke-miterlimit="1.45" shape-rendering="geometricPrecision" transform="matrix(1,0,0,1,-128,-219)" stroke-linecap="butt">
      <rect x="164.7997" y="323" clip-path="url(#clipPath2)" fill="none" width="104" rx="4" ry="4" height="55"/>
      <text x="178.4443" xml:space="preserve" y="347.8633" clip-path="url(#clipPath2)" font-family="sans-serif" stroke="none">C++ and third-</text>
      <text x="176.1093" xml:space="preserve" y="362.5645" clip-path="url(#clipPath2)" font-family="sans-serif" stroke="none">party packages</text>
    </g>
    <g fill="rgb(153,204,255)" text-rendering="geometricPrecision" shape-rendering="geometricPrecision" transform="matrix(1,0,0,1,-128,-219)" stroke="rgb(153,204,255)">
      <rect x="298.6877" y="249.1843" clip-path="url(#clipPath2)" width="104" rx="4" ry="4" height="55" stroke="none"/>
    </g>
    <g text-rendering="geometricPrecision" stroke-miterlimit="1.45" shape-rendering="geometricPrecision" transform="matrix(1,0,0,1,-128,-219)" stroke-linecap="butt">
      <rect x="298.6877" y="249.1843" clip-path="url(#clipPath2)" fill="none" width="104" rx="4" ry="4" height="55"/>
      <text x="332.345" xml:space="preserve" y="281.3981" clip-path="url(#clipPath2)" font-family="sans-serif" stroke="none">SQLite</text>
    </g>
    <g fill="rgb(255,204,0)" text-rendering="geometricPrecision" shape-rendering="geometricPrecision" transform="matrix(1,0,0,1,-128,-219)" stroke="rgb(255,204,0)">
      <path d="M428.1821 259.0783 C431.3021 247.3411 529.0621 247.3411 532.1821 259.0783 L532.1821 294.2902 C529.0621 306.0275 431.3021 306.0275 428.1821 294.2902 Z" stroke="none" clip-path="url(#clipPath2)"/>
    </g>
    <g text-rendering="geometricPrecision" stroke-miterlimit="1.45" shape-rendering="geometricPrecision" transform="matrix(1,0,0,1,-128,-219)" stroke-linecap="butt">
      <path fill="none" d="M428.1821 259.0783 C431.3021 247.3411 529.0621 247.3411 532.1821 259.0783 L532.1821 294.2902 C529.0621 306.0275 431.3021 306.0275 428.1821 294.2902 Z" clip-path="url(#clipPath2)"/>
      <path fill="none" d="M532.1821 259.0783 C529.0621 270.8156 431.3021 270.8156 428.1821 259.0783" clip-path="url(#clipPath2)"/>
      <text x="440.5054" xml:space="preserve" y="280.0003" clip-path="url(#clipPath2)" font-family="sans-serif" stroke="none">Spectral library</text>
      <text x="458.1802" xml:space="preserve" y="294.7015" clip-path="url(#clipPath2)" font-family="sans-serif" stroke="none">(SQLite)</text>
    </g>
    <g fill="rgb(153,204,255)" text-rendering="geometricPrecision" shape-rendering="geometricPrecision" transform="matrix(1,0,0,1,-128,-219)" stroke="rgb(153,204,255)">
      <rect x="156.8032" y="515.5843" clip-path="url(#clipPath2)" width="61.12" rx="4" ry="4" height="26.2" stroke="none"/>
    </g>
    <g text-rendering="geometricPrecision" stroke-miterlimit="1.45" shape-rendering="geometricPrecision" transform="matrix(1,0,0,1,-128,-219)" stroke-linecap="butt">
      <rect x="156.8032" y="515.5843" clip-path="url(#clipPath2)" fill="none" width="61.12" rx="4" ry="4" height="26.2"/>
    </g>
    <g fill="rgb(255,204,0)" text-rendering="geometricPrecision" shape-rendering="geometricPrecision" transform="matrix(1,0,0,1,-128,-219)" stroke="rgb(255,204,0)">
      <rect x="356.8032" y="515.5843" clip-path="url(#clipPath2)" width="61.12" rx="4" ry="4" height="26.2" stroke="none"/>
    </g>
    <g text-rendering="geometricPrecision" stroke-miterlimit="1.45" shape-rendering="geometricPrecision" transform="matrix(1,0,0,1,-128,-219)" stroke-linecap="butt">
      <rect x="356.8032" y="515.5843" clip-path="url(#clipPath2)" fill="none" width="61.12" rx="4" ry="4" height="26.2"/>
      <text x="221.2396" xml:space="preserve" y="533.3981" clip-path="url(#clipPath2)" font-family="sans-serif" stroke="none">: Third-party software</text>
      <text x="421.8706" xml:space="preserve" y="533.3981" clip-path="url(#clipPath2)" font-family="sans-serif" stroke="none">: In-house development</text>
    </g>
    <g stroke-linecap="butt" font-size="15px" transform="matrix(1,0,0,1,-128,-219)" fill="rgb(51,51,51)" text-rendering="geometricPrecision" font-family="sans-serif" shape-rendering="geometricPrecision" stroke="rgb(51,51,51)" stroke-miterlimit="1.45">
      <text x="158.17" xml:space="preserve" y="501.3898" clip-path="url(#clipPath2)" stroke="none">Legend:</text>
      <line y2="504.6857" fill="none" x1="158.17" clip-path="url(#clipPath2)" x2="212.3912" y1="504.6857"/>
    </g>
    <g text-rendering="geometricPrecision" stroke-miterlimit="1.45" shape-rendering="geometricPrecision" transform="matrix(1,0,0,1,-128,-219)" stroke-linecap="butt">
      <path fill="none" d="M627 377.9804 L627 391.1337" clip-path="url(#clipPath2)"/>
      <path d="M627 399.1337 L632 387.1337 L627 390.1337 L622 387.1337 Z" clip-path="url(#clipPath2)" stroke="none"/>
      <path fill="none" d="M678.9839 351.2151 L700.9798 351.5176" clip-path="url(#clipPath2)"/>
      <path d="M708.9791 351.6277 L697.049 346.4631 L699.9799 351.5038 L696.9114 356.4621 Z" clip-path="url(#clipPath2)" stroke="none"/>
      <path fill="none" d="M627.9855 323.0196 L628.4574 309.8611" clip-path="url(#clipPath2)"/>
      <path d="M628.7441 301.8663 L623.3173 313.6794 L628.4216 310.8605 L633.3108 314.0378 Z" clip-path="url(#clipPath2)" stroke="none"/>
      <path fill="none" d="M627 486.7723 L627 462.1608" clip-path="url(#clipPath2)"/>
      <path d="M627 454.1608 L622 466.1608 L627 463.1608 L632 466.1608 Z" clip-path="url(#clipPath2)" stroke="none"/>
      <path fill="none" d="M709.0161 514.2842 L687.0209 514.2842" clip-path="url(#clipPath2)"/>
      <path d="M679.0209 514.2842 L691.0209 519.2842 L688.0209 514.2842 L691.0209 509.2842 Z" clip-path="url(#clipPath2)" stroke="none"/>
      <path fill="none" d="M761 486.8065 L761 386.7697" clip-path="url(#clipPath2)"/>
      <path d="M761 378.7697 L756 390.7697 L761 387.7697 L766 390.7697 Z" clip-path="url(#clipPath2)" stroke="none"/>
      <path fill="none" d="M574.9901 350.5 L540.1691 350.5" clip-path="url(#clipPath2)"/>
      <path d="M532.1691 350.5 L544.1691 355.5 L541.1691 350.5 L544.1691 345.5 Z" clip-path="url(#clipPath2)" stroke="none"/>
      <path fill="none" d="M576.2087 376.8462 L538.0867 396.6207" clip-path="url(#clipPath2)"/>
      <path d="M530.9853 400.3044 L543.9398 399.2173 L538.9744 396.1603 L539.3352 390.3405 Z" clip-path="url(#clipPath2)" stroke="none"/>
      <path fill="none" d="M812.9839 514.3611 L834.9791 514.3937" clip-path="url(#clipPath2)"/>
      <path d="M842.9791 514.4055 L830.9865 509.3878 L833.9791 514.3922 L830.9717 519.3878 Z" clip-path="url(#clipPath2)" stroke="none"/>
      <path fill="none" d="M428.1937 350.5 L408.5234 350.5" clip-path="url(#clipPath2)"/>
      <path d="M400.5234 350.5 L412.5234 355.5 L409.5234 350.5 L412.5234 345.5 Z" clip-path="url(#clipPath2)" stroke="none"/>
      <path fill="none" d="M348.4909 377.9804 L348.4909 391.1337" clip-path="url(#clipPath2)"/>
      <path d="M348.4909 399.1337 L353.4909 387.1337 L348.4909 390.1337 L343.4909 387.1337 Z" clip-path="url(#clipPath2)" stroke="none"/>
      <path fill="none" d="M296.5025 350.5 L276.8322 350.5" clip-path="url(#clipPath2)"/>
      <path d="M268.8322 350.5 L280.8322 355.5 L277.8322 350.5 L280.8322 345.5 Z" clip-path="url(#clipPath2)" stroke="none"/>
      <path fill="none" d="M431.9695 323.0173 L405.8592 308.1337" clip-path="url(#clipPath2)"/>
      <path d="M398.9091 304.1719 L406.8582 314.4584 L406.728 308.6289 L411.8104 305.7708 Z" clip-path="url(#clipPath2)" stroke="none"/>
      <path fill="none" d="M480.1821 322.9993 L480.1821 311.0531" clip-path="url(#clipPath2)"/>
      <path d="M480.1821 303.0531 L475.1821 315.0531 L480.1821 312.0531 L485.1821 315.0531 Z" clip-path="url(#clipPath2)" stroke="none"/>
    </g>
  </g>
</svg>
