<?xml version="1.0" encoding="UTF-8"?><svg xmlns="http://www.w3.org/2000/svg" xmlns:xlink="http://www.w3.org/1999/xlink" fill-opacity="1" color-rendering="auto" color-interpolation="auto" text-rendering="auto" stroke="black" stroke-linecap="square" width="543" stroke-miterlimit="10" shape-rendering="auto" stroke-opacity="1" fill="black" stroke-dasharray="none" font-weight="normal" stroke-width="1" height="362" font-family="'Dialog'" font-style="normal" stroke-linejoin="miter" font-size="12px" stroke-dashoffset="0" image-rendering="auto">
  <!--Generated by ySVG 2.6-->
  <defs id="genericDefs"/>
  <g>
    <defs id="defs1">
      <clipPath clipPathUnits="userSpaceOnUse" id="clipPath1">
        <path d="M0 0 L543 0 L543 362 L0 362 L0 0 Z"/>
      </clipPath>
      <clipPath clipPathUnits="userSpaceOnUse" id="clipPath2">
        <path d="M364 107 L907 107 L907 469 L364 469 L364 107 Z"/>
      </clipPath>
    </defs>
    <g fill="white" text-rendering="geometricPrecision" shape-rendering="geometricPrecision" transform="translate(-364,-107)" stroke="white">
      <rect x="364" width="543" height="362" y="107" clip-path="url(#clipPath2)" stroke="none"/>
    </g>
    <g text-rendering="geometricPrecision" stroke-miterlimit="1.45" shape-rendering="geometricPrecision" transform="matrix(1,0,0,1,-364,-107)" stroke-linecap="butt">
      <rect fill="none" x="586.243" width="305.2" height="330.16" y="122.92" clip-path="url(#clipPath2)"/>
      <text x="592.243" xml:space="preserve" y="140.9845" clip-path="url(#clipPath2)" font-family="sans-serif" stroke="none">Conversion to structural formula (R)</text>
      <rect x="379.3327" y="122.92" clip-path="url(#clipPath2)" fill="none" width="184.88" stroke-dasharray="6,2" height="330.16"/>
      <text x="385.3327" xml:space="preserve" y="140.9845" clip-path="url(#clipPath2)" font-family="sans-serif" stroke="none">Folder paths</text>
    </g>
    <g fill="rgb(255,153,0)" text-rendering="geometricPrecision" shape-rendering="geometricPrecision" transform="matrix(1,0,0,1,-364,-107)" stroke="rgb(255,153,0)">
      <rect x="600.9704" y="165" clip-path="url(#clipPath2)" width="274" rx="4" ry="4" height="30" stroke="none"/>
    </g>
    <g text-rendering="geometricPrecision" stroke-miterlimit="1.45" shape-rendering="geometricPrecision" transform="matrix(1,0,0,1,-364,-107)" stroke-linecap="butt">
      <rect x="600.9704" y="165" clip-path="url(#clipPath2)" fill="none" width="274" rx="4" ry="4" height="30"/>
      <text x="629.2497" xml:space="preserve" y="184.7139" clip-path="url(#clipPath2)" font-family="sans-serif" stroke="none">Create a copy of the current CSL version</text>
    </g>
    <g fill="rgb(255,153,0)" text-rendering="geometricPrecision" shape-rendering="geometricPrecision" transform="matrix(1,0,0,1,-364,-107)" stroke="rgb(255,153,0)">
      <rect x="600.9704" y="225" clip-path="url(#clipPath2)" width="274" rx="4" ry="4" height="30" stroke="none"/>
    </g>
    <g text-rendering="geometricPrecision" stroke-miterlimit="1.45" shape-rendering="geometricPrecision" transform="matrix(1,0,0,1,-364,-107)" stroke-linecap="butt">
      <rect x="600.9704" y="225" clip-path="url(#clipPath2)" fill="none" width="274" rx="4" ry="4" height="30"/>
      <text x="645.9343" xml:space="preserve" y="244.7139" clip-path="url(#clipPath2)" font-family="sans-serif" stroke="none">Import the substance list from CSL</text>
    </g>
    <g fill="rgb(255,153,0)" text-rendering="geometricPrecision" shape-rendering="geometricPrecision" transform="matrix(1,0,0,1,-364,-107)" stroke="rgb(255,153,0)">
      <rect x="600.9704" y="285" clip-path="url(#clipPath2)" width="274" rx="4" ry="4" height="30" stroke="none"/>
    </g>
    <g text-rendering="geometricPrecision" stroke-miterlimit="1.45" shape-rendering="geometricPrecision" transform="matrix(1,0,0,1,-364,-107)" stroke-linecap="butt">
      <rect x="600.9704" y="285" clip-path="url(#clipPath2)" fill="none" width="274" rx="4" ry="4" height="30"/>
      <text x="608.5778" xml:space="preserve" y="304.7139" clip-path="url(#clipPath2)" font-family="sans-serif" stroke="none">Create images from SMILES for each compound</text>
    </g>
    <g fill="rgb(255,153,0)" text-rendering="geometricPrecision" shape-rendering="geometricPrecision" transform="matrix(1,0,0,1,-364,-107)" stroke="rgb(255,153,0)">
      <rect x="600.9704" y="345" clip-path="url(#clipPath2)" width="274" rx="4" ry="4" height="30" stroke="none"/>
    </g>
    <g text-rendering="geometricPrecision" stroke-miterlimit="1.45" shape-rendering="geometricPrecision" transform="matrix(1,0,0,1,-364,-107)" stroke-linecap="butt">
      <rect x="600.9704" y="345" clip-path="url(#clipPath2)" fill="none" width="274" rx="4" ry="4" height="30"/>
      <text x="646.5964" xml:space="preserve" y="364.7139" clip-path="url(#clipPath2)" font-family="sans-serif" stroke="none">Export images as PNG with a loop</text>
    </g>
    <g fill="rgb(255,153,0)" text-rendering="geometricPrecision" shape-rendering="geometricPrecision" transform="matrix(1,0,0,1,-364,-107)" stroke="rgb(255,153,0)">
      <rect x="749.4504" y="405" clip-path="url(#clipPath2)" width="125.52" rx="4" ry="4" height="30" stroke="none"/>
    </g>
    <g text-rendering="geometricPrecision" stroke-miterlimit="1.45" shape-rendering="geometricPrecision" transform="matrix(1,0,0,1,-364,-107)" stroke-linecap="butt">
      <rect x="749.4504" y="405" clip-path="url(#clipPath2)" fill="none" width="125.52" rx="4" ry="4" height="30"/>
      <text x="755.518" xml:space="preserve" y="424.7139" clip-path="url(#clipPath2)" font-family="sans-serif" stroke="none">Remove copy of CSL</text>
    </g>
    <g fill="rgb(255,153,0)" text-rendering="geometricPrecision" shape-rendering="geometricPrecision" transform="matrix(1,0,0,1,-364,-107)" stroke="rgb(255,153,0)">
      <path d="M404.7276 165 L556.2437 165 L539.4084 195 L387.8925 195 Z" fill-rule="evenodd" clip-path="url(#clipPath2)" stroke="none"/>
    </g>
    <g text-rendering="geometricPrecision" stroke-miterlimit="1.45" shape-rendering="geometricPrecision" transform="matrix(1,0,0,1,-364,-107)" stroke-linecap="butt">
      <path fill="none" d="M404.7276 165 L556.2437 165 L539.4084 195 L387.8925 195 Z" fill-rule="evenodd" clip-path="url(#clipPath2)"/>
      <text x="414.7189" xml:space="preserve" y="184.7139" clip-path="url(#clipPath2)" font-family="sans-serif" stroke="none">Spectral library (CSL)</text>
    </g>
    <g fill="rgb(153,204,255)" text-rendering="geometricPrecision" shape-rendering="geometricPrecision" transform="matrix(1,0,0,1,-364,-107)" stroke="rgb(153,204,255)">
      <path d="M404.7271 405 L556.243 405 L539.4079 435 L387.8921 435 Z" fill-rule="evenodd" clip-path="url(#clipPath2)" stroke="none"/>
    </g>
    <g text-rendering="geometricPrecision" stroke-miterlimit="1.45" shape-rendering="geometricPrecision" transform="matrix(1,0,0,1,-364,-107)" stroke-linecap="butt">
      <path fill="none" d="M404.7271 405 L556.243 405 L539.4079 435 L387.8921 435 Z" fill-rule="evenodd" clip-path="url(#clipPath2)"/>
      <text x="419.0373" xml:space="preserve" y="424.7139" clip-path="url(#clipPath2)" font-family="sans-serif" stroke="none">Synchronized folder</text>
      <path fill="none" d="M737.9704 194.9707 L737.9704 217.0049" clip-path="url(#clipPath2)"/>
      <path d="M737.9704 225.0049 L742.9704 213.0049 L737.9704 216.0049 L732.9704 213.0049 Z" clip-path="url(#clipPath2)" stroke="none"/>
      <path fill="none" d="M737.9704 254.9707 L737.9704 277.0049" clip-path="url(#clipPath2)"/>
      <path d="M737.9704 285.0049 L742.9704 273.0049 L737.9704 276.0049 L732.9704 273.0049 Z" clip-path="url(#clipPath2)" stroke="none"/>
      <path fill="none" d="M737.9704 314.9707 L737.9704 337.0049" clip-path="url(#clipPath2)"/>
      <path d="M737.9704 345.0049 L742.9704 333.0049 L737.9704 336.0049 L732.9704 333.0049 Z" clip-path="url(#clipPath2)" stroke="none"/>
      <path fill="none" d="M756.4941 374.9707 L787.4072 399.9543" clip-path="url(#clipPath2)"/>
      <path d="M793.6293 404.9829 L787.4391 393.5513 L786.6295 399.3258 L781.1534 401.3289 Z" clip-path="url(#clipPath2)" stroke="none"/>
      <path fill="none" stroke-dasharray="6,2" d="M547.794 180 L592.9561 180" clip-path="url(#clipPath2)"/>
      <path stroke-dasharray="6,2" d="M600.9561 180 L588.9561 175 L591.9561 180 L588.9561 185 Z" clip-path="url(#clipPath2)" stroke="none"/>
    </g>
    <g stroke-linecap="round" transform="matrix(1,0,0,1,-364,-107)" stroke-dashoffset="2" text-rendering="geometricPrecision" shape-rendering="geometricPrecision" stroke-dasharray="0,8" stroke-width="2" stroke-miterlimit="1.45">
      <path fill="none" d="M671.5272 374.9927 L547.3171 403.0202" clip-path="url(#clipPath2)"/>
      <path d="M538.5378 405.0012 L552.9448 407.5167 L548.4144 402.7726 L550.4686 396.5426 Z" clip-path="url(#clipPath2)" stroke="none"/>
    </g>
  </g>
</svg>
