<?xml version="1.0" encoding="UTF-8"?><svg xmlns="http://www.w3.org/2000/svg" xmlns:xlink="http://www.w3.org/1999/xlink" fill-opacity="1" color-rendering="auto" color-interpolation="auto" text-rendering="auto" stroke="black" stroke-linecap="square" width="498" stroke-miterlimit="10" shape-rendering="auto" stroke-opacity="1" fill="black" stroke-dasharray="none" font-weight="normal" stroke-width="1" height="489" font-family="'Dialog'" font-style="normal" stroke-linejoin="miter" font-size="12px" stroke-dashoffset="0" image-rendering="auto">
  <!--Generated by ySVG 2.5-->
  <defs id="genericDefs"/>
  <g>
    <defs id="defs1">
      <clipPath clipPathUnits="userSpaceOnUse" id="clipPath1">
        <path d="M0 0 L498 0 L498 489 L0 489 L0 0 Z"/>
      </clipPath>
      <clipPath clipPathUnits="userSpaceOnUse" id="clipPath2">
        <path d="M409 49 L907 49 L907 538 L409 538 L409 49 Z"/>
      </clipPath>
    </defs>
    <g fill="white" text-rendering="geometricPrecision" shape-rendering="geometricPrecision" transform="translate(-409,-49)" stroke="white">
      <rect x="409" width="498" height="489" y="49" clip-path="url(#clipPath2)" stroke="none"/>
    </g>
    <g stroke-linecap="butt" transform="matrix(1,0,0,1,-409,-49)" fill="gray" text-rendering="geometricPrecision" shape-rendering="geometricPrecision" stroke="gray" stroke-miterlimit="1.45">
      <rect fill="none" x="586.243" width="305.2" height="271.28" y="122.92" clip-path="url(#clipPath2)"/>
      <text x="592.243" y="140.1876" clip-path="url(#clipPath2)" fill="black" font-family="'Arial monospaced for SAP'" stroke="none" xml:space="preserve">createAllStructures()</text>
    </g>
    <g fill="rgb(255,153,0)" text-rendering="geometricPrecision" shape-rendering="geometricPrecision" transform="matrix(1,0,0,1,-409,-49)" stroke="rgb(255,153,0)">
      <rect x="629.7704" width="216.4" height="30" y="165" clip-path="url(#clipPath2)" stroke="none"/>
    </g>
    <g stroke-linecap="butt" transform="matrix(1,0,0,1,-409,-49)" fill="rgb(153,51,0)" text-rendering="geometricPrecision" shape-rendering="geometricPrecision" stroke="rgb(153,51,0)" stroke-miterlimit="1.45">
      <rect fill="none" x="629.7704" width="216.4" height="30" y="165" clip-path="url(#clipPath2)"/>
      <text x="637.2419" y="184.7139" clip-path="url(#clipPath2)" fill="black" font-family="sans-serif" stroke="none" xml:space="preserve">Create a copy of the current database</text>
    </g>
    <g fill="rgb(255,153,0)" text-rendering="geometricPrecision" shape-rendering="geometricPrecision" transform="matrix(1,0,0,1,-409,-49)" stroke="rgb(255,153,0)">
      <rect x="634.2504" width="207.44" height="30" y="225" clip-path="url(#clipPath2)" stroke="none"/>
    </g>
    <g stroke-linecap="butt" transform="matrix(1,0,0,1,-409,-49)" fill="rgb(153,51,0)" text-rendering="geometricPrecision" shape-rendering="geometricPrecision" stroke="rgb(153,51,0)" stroke-miterlimit="1.45">
      <rect fill="none" x="634.2504" width="207.44" height="30" y="225" clip-path="url(#clipPath2)"/>
      <text x="640.5729" y="244.7139" clip-path="url(#clipPath2)" fill="black" font-family="sans-serif" stroke="none" xml:space="preserve">Read compound data from database</text>
    </g>
    <g fill="rgb(255,153,0)" text-rendering="geometricPrecision" shape-rendering="geometricPrecision" transform="matrix(1,0,0,1,-409,-49)" stroke="rgb(255,153,0)">
      <rect x="600.9704" width="274" height="30" y="285" clip-path="url(#clipPath2)" stroke="none"/>
    </g>
    <g stroke-linecap="butt" transform="matrix(1,0,0,1,-409,-49)" fill="rgb(153,51,0)" text-rendering="geometricPrecision" shape-rendering="geometricPrecision" stroke="rgb(153,51,0)" stroke-miterlimit="1.45">
      <rect fill="none" x="600.9704" width="274" height="30" y="285" clip-path="url(#clipPath2)"/>
      <text x="608.5778" y="304.7139" clip-path="url(#clipPath2)" fill="black" font-family="sans-serif" stroke="none" xml:space="preserve">Create images from SMILES for each compound</text>
    </g>
    <g fill="rgb(255,153,0)" text-rendering="geometricPrecision" shape-rendering="geometricPrecision" transform="matrix(1,0,0,1,-409,-49)" stroke="rgb(255,153,0)">
      <rect x="641.2904" width="193.36" height="40.88" y="339.56" clip-path="url(#clipPath2)" stroke="none"/>
    </g>
    <g stroke-linecap="butt" transform="matrix(1,0,0,1,-409,-49)" fill="rgb(153,51,0)" text-rendering="geometricPrecision" shape-rendering="geometricPrecision" stroke="rgb(153,51,0)" stroke-miterlimit="1.45">
      <rect fill="none" x="641.2904" width="193.36" height="40.88" y="339.56" clip-path="url(#clipPath2)"/>
      <text x="650.61" y="357.3633" clip-path="url(#clipPath2)" fill="black" font-family="sans-serif" stroke="none" xml:space="preserve">Write images to folder as PNGs, </text>
      <text x="658.2653" y="372.0645" clip-path="url(#clipPath2)" fill="black" font-family="sans-serif" stroke="none" xml:space="preserve">use InChi-key for the filename</text>
    </g>
    <g fill="rgb(204,255,255)" text-rendering="geometricPrecision" shape-rendering="geometricPrecision" transform="matrix(1,0,0,1,-409,-49)" stroke="rgb(204,255,255)">
      <path d="M437.2707 165 L556.243 165 L543.0241 195 L424.0516 195 Z" fill-rule="evenodd" clip-path="url(#clipPath2)" stroke="none"/>
    </g>
    <g stroke-linecap="butt" transform="matrix(1,0,0,1,-409,-49)" fill="teal" text-rendering="geometricPrecision" shape-rendering="geometricPrecision" stroke="teal" stroke-miterlimit="1.45">
      <path fill="none" d="M437.2707 165 L556.243 165 L543.0241 195 L424.0516 195 Z" fill-rule="evenodd" clip-path="url(#clipPath2)"/>
      <text x="446.94" y="184.374" clip-path="url(#clipPath2)" fill="black" font-family="'Arial monospaced for SAP'" stroke="none" xml:space="preserve">databasePath</text>
    </g>
    <g fill="rgb(204,255,255)" text-rendering="geometricPrecision" shape-rendering="geometricPrecision" transform="matrix(1,0,0,1,-409,-49)" stroke="rgb(204,255,255)">
      <path d="M438.4227 344.9997 L567.7631 344.9997 L553.3923 374.9997 L424.0514 374.9997 Z" fill-rule="evenodd" clip-path="url(#clipPath2)" stroke="none"/>
    </g>
    <g stroke-linecap="butt" transform="matrix(1,0,0,1,-409,-49)" fill="teal" text-rendering="geometricPrecision" shape-rendering="geometricPrecision" stroke="teal" stroke-miterlimit="1.45">
      <path fill="none" d="M438.4227 344.9997 L567.7631 344.9997 L553.3923 374.9997 L424.0514 374.9997 Z" fill-rule="evenodd" clip-path="url(#clipPath2)"/>
      <text x="463.5017" y="364.374" clip-path="url(#clipPath2)" fill="black" font-family="'Arial monospaced for SAP'" stroke="none" xml:space="preserve">targetDir</text>
    </g>
    <g fill="rgb(204,255,204)" text-rendering="geometricPrecision" shape-rendering="geometricPrecision" transform="matrix(1,0,0,1,-409,-49)" stroke="rgb(204,255,204)">
      <path d="M424.051 237.1984 C428.0168 225 552.2772 225 556.243 237.1984 L556.243 273.7936 C552.2772 285.992 428.0168 285.992 424.051 273.7936 Z" stroke="none" clip-path="url(#clipPath2)"/>
    </g>
    <g stroke-linecap="butt" transform="matrix(1,0,0,1,-409,-49)" fill="green" text-rendering="geometricPrecision" shape-rendering="geometricPrecision" stroke="green" stroke-miterlimit="1.45">
      <path fill="none" d="M424.051 237.1984 C428.0168 225 552.2772 225 556.243 237.1984 L556.243 273.7936 C552.2772 285.992 428.0168 285.992 424.051 273.7936 Z" clip-path="url(#clipPath2)"/>
      <path fill="none" d="M556.243 237.1984 C552.2772 249.3968 428.0168 249.3968 424.051 237.1984" clip-path="url(#clipPath2)"/>
      <text x="432.7984" y="260.2099" clip-path="url(#clipPath2)" fill="black" font-family="sans-serif" stroke="none" xml:space="preserve">Spectral library (CSL)</text>
    </g>
    <g fill="rgb(255,153,0)" text-rendering="geometricPrecision" shape-rendering="geometricPrecision" transform="matrix(1,0,0,1,-409,-49)" stroke="rgb(255,153,0)">
      <rect x="646.9704" width="182" height="49.2" y="416.2" clip-path="url(#clipPath2)" stroke="none"/>
    </g>
    <g stroke-linecap="butt" transform="matrix(1,0,0,1,-409,-49)" fill="rgb(153,51,0)" text-rendering="geometricPrecision" shape-rendering="geometricPrecision" stroke="rgb(153,51,0)" stroke-miterlimit="1.45">
      <rect fill="none" x="646.9704" width="182" height="49.2" y="416.2" clip-path="url(#clipPath2)"/>
      <text x="657.2722" y="438.1633" clip-path="url(#clipPath2)" fill="black" font-family="sans-serif" stroke="none" xml:space="preserve">Sychronize files from folder to </text>
      <text x="667.6081" y="452.8644" clip-path="url(#clipPath2)" fill="black" font-family="sans-serif" stroke="none" xml:space="preserve">picture server (automated)</text>
    </g>
    <g fill="rgb(232,238,247)" text-rendering="geometricPrecision" shape-rendering="geometricPrecision" transform="matrix(1,0,0,1,-409,-49)" stroke="rgb(232,238,247)">
      <rect x="666.7704" y="482.8075" clip-path="url(#clipPath2)" width="142.4" rx="20" ry="20" height="40" stroke="none"/>
    </g>
    <g stroke-linecap="butt" transform="matrix(1,0,0,1,-409,-49)" fill="gray" text-rendering="geometricPrecision" shape-rendering="geometricPrecision" stroke="gray" stroke-miterlimit="1.45">
      <rect x="666.7704" y="482.8075" clip-path="url(#clipPath2)" fill="none" width="142.4" rx="20" ry="20" height="40"/>
      <text x="678.2634" y="507.5214" clip-path="url(#clipPath2)" fill="black" font-family="sans-serif" stroke="none" xml:space="preserve">End, check dashboard</text>
    </g>
    <g fill="rgb(232,238,247)" text-rendering="geometricPrecision" shape-rendering="geometricPrecision" transform="matrix(1,0,0,1,-409,-49)" stroke="rgb(232,238,247)">
      <rect x="638.7704" y="64.92" clip-path="url(#clipPath2)" width="198.4" rx="20" ry="20" height="40" stroke="none"/>
    </g>
    <g stroke-linecap="butt" transform="matrix(1,0,0,1,-409,-49)" fill="gray" text-rendering="geometricPrecision" shape-rendering="geometricPrecision" stroke="gray" stroke-miterlimit="1.45">
      <rect x="638.7704" y="64.92" clip-path="url(#clipPath2)" fill="none" width="198.4" rx="20" ry="20" height="40"/>
      <text x="649.2712" y="89.6339" clip-path="url(#clipPath2)" fill="black" font-family="sans-serif" stroke="none" xml:space="preserve">New version of CSL in NTSPortal</text>
    </g>
    <g text-rendering="geometricPrecision" stroke-miterlimit="1.45" shape-rendering="geometricPrecision" transform="matrix(1,0,0,1,-409,-49)" stroke-linecap="butt">
      <path fill="none" d="M737.9704 195 L737.9704 217" clip-path="url(#clipPath2)"/>
      <path d="M737.9704 225 L742.9704 213 L737.9704 216 L732.9704 213 Z" clip-path="url(#clipPath2)" stroke="none"/>
      <path fill="none" d="M737.9704 255 L737.9704 277" clip-path="url(#clipPath2)"/>
      <path d="M737.9704 285 L742.9704 273 L737.9704 276 L732.9704 273 Z" clip-path="url(#clipPath2)" stroke="none"/>
      <path fill="none" d="M737.9704 315 L737.9704 331.56" clip-path="url(#clipPath2)"/>
      <path d="M737.9704 339.56 L742.9704 327.56 L737.9704 330.56 L732.9704 327.56 Z" clip-path="url(#clipPath2)" stroke="none"/>
      <path fill="none" stroke-dasharray="6,2" d="M549.6525 180 L621.7704 180" clip-path="url(#clipPath2)"/>
      <path stroke-dasharray="6,2" d="M629.7704 180 L617.7704 175 L620.7704 180 L617.7704 185 Z" clip-path="url(#clipPath2)" stroke="none"/>
      <path fill="none" stroke-dasharray="6,2" d="M633.2904 360 L560.6122 360" clip-path="url(#clipPath2)"/>
      <path stroke-dasharray="6,2" d="M641.2904 360 L629.2904 355 L632.2904 360 L629.2904 365 Z" clip-path="url(#clipPath2)" stroke="none"/>
      <path fill="none" stroke-dasharray="6,2" d="M490.147 195.0034 L490.147 220.0557" clip-path="url(#clipPath2)"/>
      <path stroke-dasharray="6,2" d="M490.147 228.0557 L495.147 216.0557 L490.147 219.0557 L485.147 216.0557 Z" clip-path="url(#clipPath2)" stroke="none"/>
      <path fill="none" d="M738.1935 394.2 L738.1265 408.2001" clip-path="url(#clipPath2)"/>
      <path d="M738.0882 416.2 L743.1456 404.2241 L738.1313 407.2001 L733.1458 404.1762 Z" clip-path="url(#clipPath2)" stroke="none"/>
      <path fill="none" d="M737.9704 465.4 L737.9704 474.8252" clip-path="url(#clipPath2)"/>
      <path d="M737.9704 482.8252 L742.9704 470.8252 L737.9704 473.8252 L732.9704 470.8252 Z" clip-path="url(#clipPath2)" stroke="none"/>
      <path fill="none" d="M738.0707 104.8869 L738.1212 114.9201" clip-path="url(#clipPath2)"/>
      <path d="M738.1614 122.92 L743.101 110.895 L738.1161 113.9201 L733.1011 110.9453 Z" clip-path="url(#clipPath2)" stroke="none"/>
    </g>
  </g>
</svg>
