<?xml version="1.0" encoding="UTF-8"?><svg xmlns="http://www.w3.org/2000/svg" xmlns:xlink="http://www.w3.org/1999/xlink" fill-opacity="1" color-rendering="auto" color-interpolation="auto" text-rendering="auto" stroke="black" stroke-linecap="square" width="532" stroke-miterlimit="10" shape-rendering="auto" stroke-opacity="1" fill="black" stroke-dasharray="none" font-weight="normal" stroke-width="1" height="853" font-family="'Dialog'" font-style="normal" stroke-linejoin="miter" font-size="12px" stroke-dashoffset="0" image-rendering="auto">
  <!--Generated by ySVG 2.5-->
  <defs id="genericDefs"/>
  <g>
    <defs id="defs1">
      <clipPath clipPathUnits="userSpaceOnUse" id="clipPath1">
        <path d="M0 0 L532 0 L532 853 L0 853 L0 0 Z"/>
      </clipPath>
      <clipPath clipPathUnits="userSpaceOnUse" id="clipPath2">
        <path d="M667 -100 L1199 -100 L1199 753 L667 753 L667 -100 Z"/>
      </clipPath>
    </defs>
    <g fill="white" text-rendering="geometricPrecision" shape-rendering="geometricPrecision" transform="translate(-667,100)" stroke="white">
      <rect x="667" width="532" height="853" y="-100" clip-path="url(#clipPath2)" stroke="none"/>
    </g>
    <g stroke-linecap="butt" transform="matrix(1,0,0,1,-667,100)" fill="gray" text-rendering="geometricPrecision" shape-rendering="geometricPrecision" stroke-dasharray="6,2" stroke="gray" stroke-miterlimit="1.45">
      <rect fill="none" x="690.5083" width="275.1222" height="310.187" y="-10.4565" clip-path="url(#clipPath2)"/>
      <text x="696.5083" y="7.6079" clip-path="url(#clipPath2)" font-family="sans-serif" stroke-dasharray="none" stroke="none" xml:space="preserve">Argument validity checks</text>
    </g>
    <g fill="rgb(255,153,0)" text-rendering="geometricPrecision" shape-rendering="geometricPrecision" transform="matrix(1,0,0,1,-667,100)" stroke="rgb(255,153,0)">
      <rect x="738.2797" width="181" height="30" y="84.1427" clip-path="url(#clipPath2)" stroke="none"/>
    </g>
    <g stroke-linecap="butt" transform="matrix(1,0,0,1,-667,100)" fill="rgb(153,51,0)" text-rendering="geometricPrecision" shape-rendering="geometricPrecision" stroke="rgb(153,51,0)" stroke-miterlimit="1.45">
      <rect fill="none" x="738.2797" width="181" height="30" y="84.1427" clip-path="url(#clipPath2)"/>
      <text x="763.0844" y="103.8565" clip-path="url(#clipPath2)" fill="black" font-family="sans-serif" stroke="none" xml:space="preserve">Retrieve template record</text>
    </g>
    <g fill="rgb(255,153,0)" text-rendering="geometricPrecision" shape-rendering="geometricPrecision" transform="matrix(1,0,0,1,-667,100)" stroke="rgb(255,153,0)">
      <rect x="756.7418" width="144.0758" height="30" y="26.964" clip-path="url(#clipPath2)" stroke="none"/>
    </g>
    <g stroke-linecap="butt" transform="matrix(1,0,0,1,-667,100)" fill="rgb(153,51,0)" text-rendering="geometricPrecision" shape-rendering="geometricPrecision" stroke="rgb(153,51,0)" stroke-miterlimit="1.45">
      <rect fill="none" x="756.7418" width="144.0758" height="30" y="26.964" clip-path="url(#clipPath2)"/>
      <text x="762.4193" y="46.6779" clip-path="url(#clipPath2)" fill="black" font-family="sans-serif" stroke="none" xml:space="preserve">Measurement files exist?</text>
    </g>
    <g fill="rgb(255,153,0)" text-rendering="geometricPrecision" shape-rendering="geometricPrecision" transform="matrix(1,0,0,1,-667,100)" stroke="rgb(255,153,0)">
      <rect x="697.6672" width="262.2249" height="30" y="312.8573" clip-path="url(#clipPath2)" stroke="none"/>
    </g>
    <g stroke-linecap="butt" transform="matrix(1,0,0,1,-667,100)" fill="rgb(153,51,0)" text-rendering="geometricPrecision" shape-rendering="geometricPrecision" stroke="rgb(153,51,0)" stroke-miterlimit="1.45">
      <rect fill="none" x="697.6672" width="262.2249" height="30" y="312.8573" clip-path="url(#clipPath2)"/>
      <text x="706.3802" y="332.5712" clip-path="url(#clipPath2)" fill="black" font-family="sans-serif" stroke="none" xml:space="preserve">Remove already added files list of files to add </text>
    </g>
    <g fill="rgb(255,255,153)" text-rendering="geometricPrecision" shape-rendering="geometricPrecision" transform="matrix(1,0,0,1,-667,100)" stroke="rgb(255,255,153)">
      <rect x="682.0797" width="293.4" height="30" y="372.8573" clip-path="url(#clipPath2)" stroke="none"/>
    </g>
    <g stroke-linecap="butt" transform="matrix(1,0,0,1,-667,100)" fill="olive" text-rendering="geometricPrecision" shape-rendering="geometricPrecision" stroke="olive" stroke-miterlimit="1.45">
      <rect fill="none" x="682.0797" width="293.4" height="30" y="372.8573" clip-path="url(#clipPath2)"/>
      <path fill="none" d="M692.0797 372.8573 L692.0797 402.8573 M965.4797 372.8573 L965.4797 402.8573 M692.0797 372.8573 Z" clip-path="url(#clipPath2)"/>
      <text x="695.0541" y="392.5712" clip-path="url(#clipPath2)" fill="black" font-family="sans-serif" stroke="none" xml:space="preserve">For each new file create new record from template</text>
    </g>
    <g fill="rgb(255,153,0)" text-rendering="geometricPrecision" shape-rendering="geometricPrecision" transform="matrix(1,0,0,1,-667,100)" stroke="rgb(255,153,0)">
      <rect x="735.2797" width="187" height="30" y="432.8573" clip-path="url(#clipPath2)" stroke="none"/>
    </g>
    <g stroke-linecap="butt" transform="matrix(1,0,0,1,-667,100)" fill="rgb(153,51,0)" text-rendering="geometricPrecision" shape-rendering="geometricPrecision" stroke="rgb(153,51,0)" stroke-miterlimit="1.45">
      <rect fill="none" x="735.2797" width="187" height="30" y="432.8573" clip-path="url(#clipPath2)"/>
      <text x="768.0912" y="452.5712" clip-path="url(#clipPath2)" fill="black" font-family="sans-serif" stroke="none" xml:space="preserve">Write json for checking</text>
    </g>
    <g fill="rgb(255,153,0)" text-rendering="geometricPrecision" shape-rendering="geometricPrecision" transform="matrix(1,0,0,1,-667,100)" stroke="rgb(255,153,0)">
      <rect x="714.0797" width="229.4" height="42" y="495.8594" clip-path="url(#clipPath2)" stroke="none"/>
    </g>
    <g stroke-linecap="butt" transform="matrix(1,0,0,1,-667,100)" fill="rgb(153,51,0)" text-rendering="geometricPrecision" shape-rendering="geometricPrecision" stroke="rgb(153,51,0)" stroke-miterlimit="1.45">
      <rect fill="none" x="714.0797" width="229.4" height="42" y="495.8594" clip-path="url(#clipPath2)"/>
      <text x="718.7377" y="514.2227" clip-path="url(#clipPath2)" fill="black" font-family="sans-serif" stroke="none" xml:space="preserve">User checks json or  (only for one record)</text>
      <text x="765.4105" y="528.9238" clip-path="url(#clipPath2)" fill="black" font-family="sans-serif" stroke="none" xml:space="preserve">makes manual changes</text>
    </g>
    <g fill="rgb(255,153,0)" text-rendering="geometricPrecision" shape-rendering="geometricPrecision" transform="matrix(1,0,0,1,-667,100)" stroke="rgb(255,153,0)">
      <rect x="695.6797" width="266.2" height="41" y="567.8594" clip-path="url(#clipPath2)" stroke="none"/>
    </g>
    <g stroke-linecap="butt" transform="matrix(1,0,0,1,-667,100)" fill="rgb(153,51,0)" text-rendering="geometricPrecision" shape-rendering="geometricPrecision" stroke="rgb(153,51,0)" stroke-miterlimit="1.45">
      <rect fill="none" x="695.6797" width="266.2" height="41" y="567.8594" clip-path="url(#clipPath2)"/>
      <text x="710.3998" y="593.0732" clip-path="url(#clipPath2)" fill="black" font-family="sans-serif" stroke="none" xml:space="preserve"> After user confermation, import new records</text>
    </g>
    <g fill="rgb(255,153,0)" text-rendering="geometricPrecision" shape-rendering="geometricPrecision" transform="matrix(1,0,0,1,-667,100)" stroke="rgb(255,153,0)">
      <rect x="724.7797" width="208" height="30" y="141.3213" clip-path="url(#clipPath2)" stroke="none"/>
    </g>
    <g stroke-linecap="butt" transform="matrix(1,0,0,1,-667,100)" fill="rgb(153,51,0)" text-rendering="geometricPrecision" shape-rendering="geometricPrecision" stroke="rgb(153,51,0)" stroke-miterlimit="1.45">
      <rect fill="none" x="724.7797" width="208" height="30" y="141.3213" clip-path="url(#clipPath2)"/>
      <text x="760.4154" y="161.0352" clip-path="url(#clipPath2)" fill="black" font-family="sans-serif" stroke="none" xml:space="preserve">Check validity of template</text>
    </g>
    <g fill="rgb(255,153,0)" text-rendering="geometricPrecision" shape-rendering="geometricPrecision" transform="matrix(1,0,0,1,-667,100)" stroke="rgb(255,153,0)">
      <rect x="704.0797" width="249.4" height="30" y="198.5" clip-path="url(#clipPath2)" stroke="none"/>
    </g>
    <g stroke-linecap="butt" transform="matrix(1,0,0,1,-667,100)" fill="rgb(153,51,0)" text-rendering="geometricPrecision" shape-rendering="geometricPrecision" stroke="rgb(153,51,0)" stroke-miterlimit="1.45">
      <rect fill="none" x="704.0797" width="249.4" height="30" y="198.5" clip-path="url(#clipPath2)"/>
      <text x="716.7279" y="218.2139" clip-path="url(#clipPath2)" fill="black" font-family="sans-serif" stroke="none" xml:space="preserve">Test parsing of sample date from filename</text>
    </g>
    <g fill="rgb(255,153,0)" text-rendering="geometricPrecision" shape-rendering="geometricPrecision" transform="matrix(1,0,0,1,-667,100)" stroke="rgb(255,153,0)">
      <rect x="720.5413" width="216.4768" height="30" y="255.6787" clip-path="url(#clipPath2)" stroke="none"/>
    </g>
    <g stroke-linecap="butt" transform="matrix(1,0,0,1,-667,100)" fill="rgb(153,51,0)" text-rendering="geometricPrecision" shape-rendering="geometricPrecision" stroke="rgb(153,51,0)" stroke-miterlimit="1.45">
      <rect fill="none" x="720.5413" width="216.4768" height="30" y="255.6787" clip-path="url(#clipPath2)"/>
      <text x="731.7367" y="275.3925" clip-path="url(#clipPath2)" fill="black" font-family="sans-serif" stroke="none" xml:space="preserve">Test parsing of station from filename</text>
    </g>
    <g fill="rgb(255,153,0)" text-rendering="geometricPrecision" shape-rendering="geometricPrecision" transform="matrix(1,0,0,1,-667,100)" stroke="rgb(255,153,0)">
      <rect x="700.6878" width="256.1839" height="30" y="637.8225" clip-path="url(#clipPath2)" stroke="none"/>
    </g>
    <g stroke-linecap="butt" transform="matrix(1,0,0,1,-667,100)" fill="rgb(153,51,0)" text-rendering="geometricPrecision" shape-rendering="geometricPrecision" stroke="rgb(153,51,0)" stroke-miterlimit="1.45">
      <rect fill="none" x="700.6878" width="256.1839" height="30" y="637.8225" clip-path="url(#clipPath2)"/>
      <text x="713.7133" y="657.5364" clip-path="url(#clipPath2)" fill="black" font-family="sans-serif" stroke="none" xml:space="preserve">Check that records are present in database</text>
      <rect x="1058.4496" y="314.1164" clip-path="url(#clipPath2)" fill="none" width="125.0177" stroke-dasharray="6,2" height="147.4819" stroke="black"/>
      <text x="1063.3491" y="330.1894" clip-path="url(#clipPath2)" fill="black" font-family="'Arial monospaced for SAP'" stroke="none" xml:space="preserve">path</text>
      <text x="1063.3491" y="343.9765" clip-path="url(#clipPath2)" fill="black" font-family="'Arial monospaced for SAP'" stroke="none" xml:space="preserve">start</text>
      <text x="1063.3491" y="357.7636" clip-path="url(#clipPath2)" fill="black" font-family="'Arial monospaced for SAP'" stroke="none" xml:space="preserve">station</text>
      <text x="1063.3491" y="371.5507" clip-path="url(#clipPath2)" fill="black" font-family="'Arial monospaced for SAP'" stroke="none" xml:space="preserve">loc</text>
      <text x="1063.3491" y="385.3378" clip-path="url(#clipPath2)" fill="black" font-family="'Arial monospaced for SAP'" stroke="none" xml:space="preserve">river</text>
      <text x="1063.3491" y="399.1249" clip-path="url(#clipPath2)" fill="black" font-family="'Arial monospaced for SAP'" stroke="none" xml:space="preserve">km</text>
      <text x="1063.3491" y="412.912" clip-path="url(#clipPath2)" fill="black" font-family="'Arial monospaced for SAP'" stroke="none" xml:space="preserve">gkz</text>
      <text x="1063.3491" y="426.6991" clip-path="url(#clipPath2)" fill="black" font-family="'Arial monospaced for SAP'" stroke="none" xml:space="preserve">measurement_date</text>
      <text x="1063.3491" y="440.4862" clip-path="url(#clipPath2)" fill="black" font-family="'Arial monospaced for SAP'" stroke="none" xml:space="preserve">date_import</text>
      <text x="1063.3491" y="454.2733" clip-path="url(#clipPath2)" fill="black" font-family="'Arial monospaced for SAP'" stroke="none" xml:space="preserve">filesize</text>
    </g>
    <g fill="rgb(232,238,247)" text-rendering="geometricPrecision" shape-rendering="geometricPrecision" transform="matrix(1,0,0,1,-667,100)" stroke="rgb(232,238,247)">
      <rect x="780.5319" y="-84.947" clip-path="url(#clipPath2)" width="96.4957" rx="20" ry="20" height="40" stroke="none"/>
    </g>
    <g stroke-linecap="butt" transform="matrix(1,0,0,1,-667,100)" fill="gray" text-rendering="geometricPrecision" shape-rendering="geometricPrecision" stroke="gray" stroke-miterlimit="1.45">
      <rect x="780.5319" y="-84.947" clip-path="url(#clipPath2)" fill="none" width="96.4957" rx="20" ry="20" height="40"/>
      <text x="793.4271" y="-60.2331" clip-path="url(#clipPath2)" fill="black" font-family="sans-serif" stroke="none" xml:space="preserve">Start function</text>
    </g>
    <g fill="rgb(204,255,204)" text-rendering="geometricPrecision" shape-rendering="geometricPrecision" transform="matrix(1,0,0,1,-667,100)" stroke="rgb(204,255,204)">
      <path d="M1004.8056 85.1427 C1006.8243 77.1427 1070.075 77.1427 1072.0936 85.1427 L1072.0936 109.1427 C1070.075 117.1427 1006.8243 117.1427 1004.8056 109.1427 Z" stroke="none" clip-path="url(#clipPath2)"/>
    </g>
    <g stroke-linecap="butt" transform="matrix(1,0,0,1,-667,100)" fill="green" text-rendering="geometricPrecision" shape-rendering="geometricPrecision" stroke="green" stroke-miterlimit="1.45">
      <path fill="none" d="M1004.8056 85.1427 C1006.8243 77.1427 1070.075 77.1427 1072.0936 85.1427 L1072.0936 109.1427 C1070.075 117.1427 1006.8243 117.1427 1004.8056 109.1427 Z" clip-path="url(#clipPath2)"/>
      <path fill="none" d="M1072.0936 85.1427 C1070.075 93.1427 1006.8243 93.1427 1004.8056 85.1427" clip-path="url(#clipPath2)"/>
      <text x="1010.1137" y="101.8565" clip-path="url(#clipPath2)" fill="black" font-family="sans-serif" stroke="none" xml:space="preserve">msrawfiles</text>
    </g>
    <g fill="rgb(232,238,247)" text-rendering="geometricPrecision" shape-rendering="geometricPrecision" transform="matrix(1,0,0,1,-667,100)" stroke="rgb(232,238,247)">
      <rect x="766.1045" y="697.8225" clip-path="url(#clipPath2)" width="125.3504" rx="20" ry="20" height="40" stroke="none"/>
    </g>
    <g stroke-linecap="butt" transform="matrix(1,0,0,1,-667,100)" fill="gray" text-rendering="geometricPrecision" shape-rendering="geometricPrecision" stroke="gray" stroke-miterlimit="1.45">
      <rect x="766.1045" y="697.8225" clip-path="url(#clipPath2)" fill="none" width="125.3504" rx="20" ry="20" height="40"/>
      <text x="779.7543" y="722.5364" clip-path="url(#clipPath2)" fill="black" font-family="sans-serif" stroke="none" xml:space="preserve">Function complete</text>
    </g>
    <g fill="rgb(204,255,255)" text-rendering="geometricPrecision" shape-rendering="geometricPrecision" transform="matrix(1,0,0,1,-667,100)" stroke="rgb(204,255,255)">
      <rect x="1058.4496" width="125.0177" height="49.3193" y="268.5723" clip-path="url(#clipPath2)" stroke="none"/>
    </g>
    <g text-rendering="geometricPrecision" stroke-miterlimit="1.45" shape-rendering="geometricPrecision" transform="matrix(1,0,0,1,-667,100)" stroke-linecap="butt">
      <rect fill="none" x="1058.4496" width="125.0177" height="49.3193" y="268.5723" clip-path="url(#clipPath2)"/>
      <text x="1065.5991" xml:space="preserve" y="283.2446" clip-path="url(#clipPath2)" font-family="sans-serif" stroke="none">Dynamically change </text>
      <text x="1065.5991" xml:space="preserve" y="297.9458" clip-path="url(#clipPath2)" font-family="sans-serif" stroke="none">fields based on</text>
      <text x="1065.5991" xml:space="preserve" y="312.6469" clip-path="url(#clipPath2)" font-family="sans-serif" stroke="none">filename:</text>
      <path fill="none" d="M828.7797 56.964 L828.7797 76.1427" clip-path="url(#clipPath2)"/>
      <path d="M828.7797 84.1427 L833.7797 72.1427 L828.7797 75.1427 L823.7797 72.1427 Z" clip-path="url(#clipPath2)" stroke="none"/>
      <path fill="none" d="M828.7797 342.8573 L828.7797 364.872" clip-path="url(#clipPath2)"/>
      <path d="M828.7797 372.872 L833.7797 360.872 L828.7797 363.872 L823.7797 360.872 Z" clip-path="url(#clipPath2)" stroke="none"/>
      <path fill="none" d="M828.7797 402.828 L828.7797 424.8573" clip-path="url(#clipPath2)"/>
      <path d="M828.7797 432.8573 L833.7797 420.8573 L828.7797 423.8573 L823.7797 420.8573 Z" clip-path="url(#clipPath2)" stroke="none"/>
      <path fill="none" d="M828.7797 462.8573 L828.7797 487.8594" clip-path="url(#clipPath2)"/>
      <path d="M828.7797 495.8594 L833.7797 483.8594 L828.7797 486.8594 L823.7797 483.8594 Z" clip-path="url(#clipPath2)" stroke="none"/>
      <path fill="none" d="M828.7797 537.8594 L828.7797 559.8594" clip-path="url(#clipPath2)"/>
      <path d="M828.7797 567.8594 L833.7797 555.8594 L828.7797 558.8594 L823.7797 555.8594 Z" clip-path="url(#clipPath2)" stroke="none"/>
      <path fill="none" d="M828.7797 114.1427 L828.7797 133.3213" clip-path="url(#clipPath2)"/>
      <path d="M828.7797 141.3213 L833.7797 129.3213 L828.7797 132.3213 L823.7797 129.3213 Z" clip-path="url(#clipPath2)" stroke="none"/>
      <path fill="none" d="M828.7797 171.3213 L828.7797 190.5" clip-path="url(#clipPath2)"/>
      <path d="M828.7797 198.5 L833.7797 186.5 L828.7797 189.5 L823.7797 186.5 Z" clip-path="url(#clipPath2)" stroke="none"/>
      <path fill="none" d="M828.7797 228.5 L828.7797 247.6787" clip-path="url(#clipPath2)"/>
      <path d="M828.7797 255.6787 L833.7797 243.6787 L828.7797 246.6787 L823.7797 243.6787 Z" clip-path="url(#clipPath2)" stroke="none"/>
      <path fill="none" d="M828.7797 608.8594 L828.7797 629.8225" clip-path="url(#clipPath2)"/>
      <path d="M828.7797 637.8225 L833.7797 625.8225 L828.7797 628.8225 L823.7797 625.8225 Z" clip-path="url(#clipPath2)" stroke="none"/>
      <path fill="none" stroke-dasharray="6,2" d="M975.4754 387.8573 L1058.4496 387.8573" clip-path="url(#clipPath2)"/>
      <path fill="none" d="M828.712 -44.9659 L828.6221 -18.4565" clip-path="url(#clipPath2)"/>
      <path d="M828.595 -10.4565 L833.6357 -22.4395 L828.6255 -19.4565 L823.6357 -22.4734 Z" clip-path="url(#clipPath2)" stroke="none"/>
      <path fill="none" d="M961.8797 588.3594 L1038.4496 588.3594 L1038.4496 123.1615" clip-path="url(#clipPath2)"/>
      <path d="M1038.4496 115.1615 L1033.4496 127.1615 L1038.4496 124.1615 L1043.4496 127.1615 Z" clip-path="url(#clipPath2)" stroke="none"/>
      <path fill="none" d="M956.8716 652.8225 L1038.4496 652.8225 L1038.4496 123.1521" clip-path="url(#clipPath2)"/>
      <path d="M1038.4496 115.1521 L1033.4496 127.1521 L1038.4496 124.1521 L1043.4496 127.1521 Z" clip-path="url(#clipPath2)" stroke="none"/>
      <path fill="none" d="M1004.7929 97.4637 L927.2794 98.2031" clip-path="url(#clipPath2)"/>
      <path d="M919.2797 98.2794 L931.3268 103.1647 L928.2793 98.1936 L931.2315 93.1652 Z" clip-path="url(#clipPath2)" stroke="none"/>
      <path fill="none" d="M828.7797 667.8225 L828.7797 689.8518" clip-path="url(#clipPath2)"/>
      <path d="M828.7797 697.8518 L833.7797 685.8518 L828.7797 688.8518 L823.7797 685.8518 Z" clip-path="url(#clipPath2)" stroke="none"/>
    </g>
  </g>
</svg>
