<?xml version="1.0" encoding="UTF-8"?><svg xmlns="http://www.w3.org/2000/svg" xmlns:xlink="http://www.w3.org/1999/xlink" fill-opacity="1" color-rendering="auto" color-interpolation="auto" text-rendering="auto" stroke="black" stroke-linecap="square" width="954" stroke-miterlimit="10" shape-rendering="auto" stroke-opacity="1" fill="black" stroke-dasharray="none" font-weight="normal" stroke-width="1" height="1041" font-family="'Dialog'" font-style="normal" stroke-linejoin="miter" font-size="12px" stroke-dashoffset="0" image-rendering="auto">
  <!--Generated by ySVG 2.5-->
  <defs id="genericDefs"/>
  <g>
    <defs id="defs1">
      <clipPath clipPathUnits="userSpaceOnUse" id="clipPath1">
        <path d="M0 0 L954 0 L954 1041 L0 1041 L0 0 Z"/>
      </clipPath>
      <clipPath clipPathUnits="userSpaceOnUse" id="clipPath2">
        <path d="M652 -25 L1606 -25 L1606 1016 L652 1016 L652 -25 Z"/>
      </clipPath>
    </defs>
    <g fill="white" text-rendering="geometricPrecision" shape-rendering="geometricPrecision" transform="translate(-652,25)" stroke="white">
      <rect x="652" width="954" height="1041" y="-25" clip-path="url(#clipPath2)" stroke="none"/>
    </g>
    <g text-rendering="geometricPrecision" stroke-miterlimit="1.45" shape-rendering="geometricPrecision" transform="matrix(1,0,0,1,-652,25)" stroke-linecap="butt">
      <rect fill="none" x="667.7797" width="322" height="318" y="-9.036" clip-path="url(#clipPath2)"/>
      <text x="673.7797" xml:space="preserve" y="9.0285" clip-path="url(#clipPath2)" font-family="sans-serif" stroke="none">Check arguments are valid</text>
    </g>
    <g fill="rgb(255,204,0)" text-rendering="geometricPrecision" shape-rendering="geometricPrecision" transform="matrix(1,0,0,1,-652,25)" stroke="rgb(255,204,0)">
      <rect x="738.2797" y="83.1427" clip-path="url(#clipPath2)" width="181" rx="4" ry="4" height="28" stroke="none"/>
    </g>
    <g text-rendering="geometricPrecision" stroke-miterlimit="1.45" shape-rendering="geometricPrecision" transform="matrix(1,0,0,1,-652,25)" stroke-linecap="butt">
      <rect x="738.2797" y="83.1427" clip-path="url(#clipPath2)" fill="none" width="181" rx="4" ry="4" height="28"/>
      <text x="775.7552" xml:space="preserve" y="101.8565" clip-path="url(#clipPath2)" font-family="sans-serif" stroke="none">Get template record</text>
    </g>
    <g fill="rgb(255,204,0)" text-rendering="geometricPrecision" shape-rendering="geometricPrecision" transform="matrix(1,0,0,1,-652,25)" stroke="rgb(255,204,0)">
      <rect x="724.7797" y="23.964" clip-path="url(#clipPath2)" width="208" rx="4" ry="4" height="36" stroke="none"/>
    </g>
    <g text-rendering="geometricPrecision" stroke-miterlimit="1.45" shape-rendering="geometricPrecision" transform="matrix(1,0,0,1,-652,25)" stroke-linecap="butt">
      <rect x="724.7797" y="23.964" clip-path="url(#clipPath2)" fill="none" width="208" rx="4" ry="4" height="36"/>
      <text x="735.4076" xml:space="preserve" y="46.6779" clip-path="url(#clipPath2)" font-family="sans-serif" stroke="none">Check that measurement files exist</text>
    </g>
    <g fill="rgb(255,204,0)" text-rendering="geometricPrecision" shape-rendering="geometricPrecision" transform="matrix(1,0,0,1,-652,25)" stroke="rgb(255,204,0)">
      <rect x="677.7797" y="344.875" clip-path="url(#clipPath2)" width="302" rx="4" ry="4" height="41" stroke="none"/>
    </g>
    <g text-rendering="geometricPrecision" stroke-miterlimit="1.45" shape-rendering="geometricPrecision" transform="matrix(1,0,0,1,-652,25)" stroke-linecap="butt">
      <rect x="677.7797" y="344.875" clip-path="url(#clipPath2)" fill="none" width="302" rx="4" ry="4" height="41"/>
      <text x="687.0472" xml:space="preserve" y="370.0889" clip-path="url(#clipPath2)" font-family="sans-serif" stroke="none">Remove previously added files from list of files to add</text>
    </g>
    <g fill="rgb(255,204,0)" text-rendering="geometricPrecision" shape-rendering="geometricPrecision" transform="matrix(1,0,0,1,-652,25)" stroke="rgb(255,204,0)">
      <rect x="682.0797" y="422.3399" clip-path="url(#clipPath2)" width="293.4" rx="4" ry="4" height="36" stroke="none"/>
    </g>
    <g text-rendering="geometricPrecision" stroke-miterlimit="1.45" shape-rendering="geometricPrecision" transform="matrix(1,0,0,1,-652,25)" stroke-linecap="butt">
      <rect x="682.0797" y="422.3399" clip-path="url(#clipPath2)" fill="none" width="293.4" rx="4" ry="4" height="36"/>
      <text x="695.0541" xml:space="preserve" y="445.0538" clip-path="url(#clipPath2)" font-family="sans-serif" stroke="none">For each new file create new record from template</text>
    </g>
    <g fill="rgb(255,204,0)" text-rendering="geometricPrecision" shape-rendering="geometricPrecision" transform="matrix(1,0,0,1,-652,25)" stroke="rgb(255,204,0)">
      <rect x="735.2797" y="494.8049" clip-path="url(#clipPath2)" width="187" rx="4" ry="4" height="36" stroke="none"/>
    </g>
    <g text-rendering="geometricPrecision" stroke-miterlimit="1.45" shape-rendering="geometricPrecision" transform="matrix(1,0,0,1,-652,25)" stroke-linecap="butt">
      <rect x="735.2797" y="494.8049" clip-path="url(#clipPath2)" fill="none" width="187" rx="4" ry="4" height="36"/>
      <text x="768.0912" xml:space="preserve" y="517.5187" clip-path="url(#clipPath2)" font-family="sans-serif" stroke="none">Write json for checking</text>
    </g>
    <g fill="rgb(255,204,0)" text-rendering="geometricPrecision" shape-rendering="geometricPrecision" transform="matrix(1,0,0,1,-652,25)" stroke="rgb(255,204,0)">
      <rect x="714.0797" y="567.2698" clip-path="url(#clipPath2)" width="229.4" rx="4" ry="4" height="47" stroke="none"/>
    </g>
    <g text-rendering="geometricPrecision" stroke-miterlimit="1.45" shape-rendering="geometricPrecision" transform="matrix(1,0,0,1,-652,25)" stroke-linecap="butt">
      <rect x="714.0797" y="567.2698" clip-path="url(#clipPath2)" fill="none" width="229.4" rx="4" ry="4" height="47"/>
      <text x="755.0892" xml:space="preserve" y="588.1331" clip-path="url(#clipPath2)" font-family="sans-serif" stroke="none">User checks json or makes </text>
      <text x="729.059" xml:space="preserve" y="602.8343" clip-path="url(#clipPath2)" font-family="sans-serif" stroke="none">manual changes (only for one record)</text>
    </g>
    <g fill="rgb(255,204,0)" text-rendering="geometricPrecision" shape-rendering="geometricPrecision" transform="matrix(1,0,0,1,-652,25)" stroke="rgb(255,204,0)">
      <rect x="695.6797" y="650.7348" clip-path="url(#clipPath2)" width="266.2" rx="4" ry="4" height="41" stroke="none"/>
    </g>
    <g text-rendering="geometricPrecision" stroke-miterlimit="1.45" shape-rendering="geometricPrecision" transform="matrix(1,0,0,1,-652,25)" stroke-linecap="butt">
      <rect x="695.6797" y="650.7348" clip-path="url(#clipPath2)" fill="none" width="266.2" rx="4" ry="4" height="41"/>
      <text x="703.389" xml:space="preserve" y="675.9486" clip-path="url(#clipPath2)" font-family="sans-serif" stroke="none"> After user confermation, ingest all new records</text>
    </g>
    <g fill="rgb(255,204,0)" text-rendering="geometricPrecision" shape-rendering="geometricPrecision" transform="matrix(1,0,0,1,-652,25)" stroke="rgb(255,204,0)">
      <rect x="724.7797" y="134.3213" clip-path="url(#clipPath2)" width="208" rx="4" ry="4" height="36" stroke="none"/>
    </g>
    <g text-rendering="geometricPrecision" stroke-miterlimit="1.45" shape-rendering="geometricPrecision" transform="matrix(1,0,0,1,-652,25)" stroke-linecap="butt">
      <rect x="724.7797" y="134.3213" clip-path="url(#clipPath2)" fill="none" width="208" rx="4" ry="4" height="36"/>
      <text x="760.4154" xml:space="preserve" y="157.0352" clip-path="url(#clipPath2)" font-family="sans-serif" stroke="none">Check validity of template</text>
    </g>
    <g fill="rgb(255,204,0)" text-rendering="geometricPrecision" shape-rendering="geometricPrecision" transform="matrix(1,0,0,1,-652,25)" stroke="rgb(255,204,0)">
      <rect x="704.0797" y="193.5" clip-path="url(#clipPath2)" width="249.4" rx="4" ry="4" height="36" stroke="none"/>
    </g>
    <g text-rendering="geometricPrecision" stroke-miterlimit="1.45" shape-rendering="geometricPrecision" transform="matrix(1,0,0,1,-652,25)" stroke-linecap="butt">
      <rect x="704.0797" y="193.5" clip-path="url(#clipPath2)" fill="none" width="249.4" rx="4" ry="4" height="36"/>
      <text x="716.7279" xml:space="preserve" y="216.2139" clip-path="url(#clipPath2)" font-family="sans-serif" stroke="none">Test parsing of sample date from filename</text>
    </g>
    <g fill="rgb(255,204,0)" text-rendering="geometricPrecision" shape-rendering="geometricPrecision" transform="matrix(1,0,0,1,-652,25)" stroke="rgb(255,204,0)">
      <rect x="716.2797" y="252.6787" clip-path="url(#clipPath2)" width="225" rx="4" ry="4" height="36" stroke="none"/>
    </g>
    <g text-rendering="geometricPrecision" stroke-miterlimit="1.45" shape-rendering="geometricPrecision" transform="matrix(1,0,0,1,-652,25)" stroke-linecap="butt">
      <rect x="716.2797" y="252.6787" clip-path="url(#clipPath2)" fill="none" width="225" rx="4" ry="4" height="36"/>
      <text x="731.7367" xml:space="preserve" y="275.3925" clip-path="url(#clipPath2)" font-family="sans-serif" stroke="none">Test parsing of station from filename</text>
    </g>
    <g fill="rgb(255,204,0)" text-rendering="geometricPrecision" shape-rendering="geometricPrecision" transform="matrix(1,0,0,1,-652,25)" stroke="rgb(255,204,0)">
      <rect x="679.3797" y="728.1997" clip-path="url(#clipPath2)" width="298.8" rx="4" ry="4" height="36" stroke="none"/>
    </g>
    <g text-rendering="geometricPrecision" stroke-miterlimit="1.45" shape-rendering="geometricPrecision" transform="matrix(1,0,0,1,-652,25)" stroke-linecap="butt">
      <rect x="679.3797" y="728.1997" clip-path="url(#clipPath2)" fill="none" width="298.8" rx="4" ry="4" height="36"/>
      <text x="694.0551" xml:space="preserve" y="750.9136" clip-path="url(#clipPath2)" font-family="sans-serif" stroke="none">Check that records are present in msrawfiles index</text>
    </g>
    <g fill="rgb(204,255,204)" text-rendering="geometricPrecision" shape-rendering="geometricPrecision" transform="matrix(1,0,0,1,-652,25)" stroke="rgb(204,255,204)">
      <rect x="718.5497" width="220.4601" height="199.3438" y="800.6646" clip-path="url(#clipPath2)" stroke="none"/>
      <rect x="718.5497" y="800.6646" clip-path="url(#clipPath2)" fill="white" width="1" height="199.3438" stroke="none"/>
      <rect x="719.5497" y="800.6646" clip-path="url(#clipPath2)" fill="white" width="218.4601" height="1" stroke="none"/>
      <rect x="719.5497" y="999.0084" clip-path="url(#clipPath2)" fill="rgb(142,178,142)" width="219.4601" height="1" stroke="none"/>
      <rect x="938.0097" y="800.6646" clip-path="url(#clipPath2)" fill="rgb(142,178,142)" width="1" height="198.3438" stroke="none"/>
    </g>
    <g text-rendering="geometricPrecision" stroke-miterlimit="1.45" shape-rendering="geometricPrecision" font-family="sans-serif" transform="matrix(1,0,0,1,-652,25)" stroke-linecap="butt">
      <text x="790.4213" xml:space="preserve" y="824.1939" clip-path="url(#clipPath2)" stroke="none">Change fields:</text>
      <text x="774.4076" xml:space="preserve" y="838.8951" clip-path="url(#clipPath2)" stroke="none">1. path and filename</text>
      <text x="814.1019" xml:space="preserve" y="853.5963" clip-path="url(#clipPath2)" stroke="none">2. pol</text>
      <text x="781.764" xml:space="preserve" y="868.2974" clip-path="url(#clipPath2)" stroke="none">3. start (see right)</text>
      <text x="775.7552" xml:space="preserve" y="882.9986" clip-path="url(#clipPath2)" stroke="none">4. station (see right)</text>
      <text x="814.4388" xml:space="preserve" y="897.6998" clip-path="url(#clipPath2)" stroke="none">5. loc</text>
      <text x="810.4427" xml:space="preserve" y="912.4009" clip-path="url(#clipPath2)" stroke="none">6. river</text>
      <text x="814.1107" xml:space="preserve" y="927.1021" clip-path="url(#clipPath2)" stroke="none">7. km</text>
      <text x="812.7719" xml:space="preserve" y="941.8033" clip-path="url(#clipPath2)" stroke="none">8. gkz</text>
      <text x="741.7357" xml:space="preserve" y="956.5045" clip-path="url(#clipPath2)" stroke="none">9. measurement_date (see right)</text>
      <text x="725.057" xml:space="preserve" y="971.2056" clip-path="url(#clipPath2)" stroke="none">10. date_import - current date and time</text>
      <text x="800.432" xml:space="preserve" y="985.9068" clip-path="url(#clipPath2)" stroke="none">11. filesize</text>
      <rect fill="none" x="1145.6428" width="412.6896" height="221" y="15.375" clip-path="url(#clipPath2)"/>
      <text x="1151.6428" xml:space="preserve" y="33.4395" clip-path="url(#clipPath2)" stroke="none">Add sample date (start) as parsed from filename</text>
    </g>
    <g fill="rgb(255,204,0)" text-rendering="geometricPrecision" shape-rendering="geometricPrecision" transform="matrix(1,0,0,1,-652,25)" stroke="rgb(255,204,0)">
      <rect x="1205.4876" y="46.5" clip-path="url(#clipPath2)" width="293" rx="4" ry="4" height="47" stroke="none"/>
    </g>
    <g text-rendering="geometricPrecision" stroke-miterlimit="1.45" shape-rendering="geometricPrecision" transform="matrix(1,0,0,1,-652,25)" stroke-linecap="butt">
      <rect x="1205.4876" y="46.5" clip-path="url(#clipPath2)" fill="none" width="293" rx="4" ry="4" height="47"/>
      <text x="1233.2649" xml:space="preserve" y="67.3633" clip-path="url(#clipPath2)" font-family="sans-serif" stroke="none">Get new date string from filename of new file</text>
      <text x="1225.3167" xml:space="preserve" y="82.0645" clip-path="url(#clipPath2)" font-family="sans-serif" stroke="none"> using the "dbas_date_regex" from the template</text>
    </g>
    <g fill="rgb(255,204,0)" text-rendering="geometricPrecision" shape-rendering="geometricPrecision" transform="matrix(1,0,0,1,-652,25)" stroke="rgb(255,204,0)">
      <rect x="1160.9876" y="105.8333" clip-path="url(#clipPath2)" width="382" rx="4" ry="4" height="36" stroke="none"/>
    </g>
    <g text-rendering="geometricPrecision" stroke-miterlimit="1.45" shape-rendering="geometricPrecision" transform="matrix(1,0,0,1,-652,25)" stroke-linecap="butt">
      <rect x="1160.9876" y="105.8333" clip-path="url(#clipPath2)" fill="none" width="382" rx="4" ry="4" height="36"/>
      <text x="1172.2864" xml:space="preserve" y="128.5472" clip-path="url(#clipPath2)" font-family="sans-serif" stroke="none">Parse the date string using the "dbas_date_format" field of template</text>
    </g>
    <g fill="rgb(255,204,0)" text-rendering="geometricPrecision" shape-rendering="geometricPrecision" transform="matrix(1,0,0,1,-652,25)" stroke="rgb(255,204,0)">
      <rect x="1252.3563" y="154.1667" clip-path="url(#clipPath2)" width="199.2625" rx="4" ry="4" height="30" stroke="none"/>
    </g>
    <g text-rendering="geometricPrecision" stroke-miterlimit="1.45" shape-rendering="geometricPrecision" transform="matrix(1,0,0,1,-652,25)" stroke-linecap="butt">
      <rect x="1252.3563" y="154.1667" clip-path="url(#clipPath2)" fill="none" width="199.2625" rx="4" ry="4" height="30"/>
      <text x="1275.9504" xml:space="preserve" y="173.8805" clip-path="url(#clipPath2)" font-family="sans-serif" stroke="none">Convert Date object to string</text>
    </g>
    <g fill="rgb(255,204,0)" text-rendering="geometricPrecision" shape-rendering="geometricPrecision" transform="matrix(1,0,0,1,-652,25)" stroke="rgb(255,204,0)">
      <rect x="1266.5344" y="196.5" clip-path="url(#clipPath2)" width="170.9063" rx="4" ry="4" height="30" stroke="none"/>
    </g>
    <g text-rendering="geometricPrecision" stroke-miterlimit="1.45" shape-rendering="geometricPrecision" transform="matrix(1,0,0,1,-652,25)" stroke-linecap="butt">
      <rect x="1266.5344" y="196.5" clip-path="url(#clipPath2)" fill="none" width="170.9063" rx="4" ry="4" height="30"/>
      <text x="1299.6282" xml:space="preserve" y="216.2139" clip-path="url(#clipPath2)" font-family="sans-serif" stroke="none">Add string to record</text>
      <rect fill="none" x="1145.9804" width="444.6896" height="445.1532" y="294.2828" clip-path="url(#clipPath2)"/>
      <text x="1151.9805" xml:space="preserve" y="312.3473" clip-path="url(#clipPath2)" font-family="sans-serif" stroke="none">Adding station from filename:</text>
    </g>
    <g fill="rgb(255,204,0)" text-rendering="geometricPrecision" shape-rendering="geometricPrecision" transform="matrix(1,0,0,1,-652,25)" stroke="rgb(255,204,0)">
      <rect x="1242.3252" y="330.436" clip-path="url(#clipPath2)" width="252" rx="4" ry="4" height="41" stroke="none"/>
    </g>
    <g text-rendering="geometricPrecision" stroke-miterlimit="1.45" shape-rendering="geometricPrecision" transform="matrix(1,0,0,1,-652,25)" stroke-linecap="butt">
      <rect x="1242.3252" y="330.436" clip-path="url(#clipPath2)" fill="none" width="252" rx="4" ry="4" height="41"/>
      <text x="1273.9453" xml:space="preserve" y="355.6498" clip-path="url(#clipPath2)" font-family="sans-serif" stroke="none">Get station code from new filename</text>
    </g>
    <g fill="rgb(255,204,0)" text-rendering="geometricPrecision" shape-rendering="geometricPrecision" transform="matrix(1,0,0,1,-652,25)" stroke="rgb(255,204,0)">
      <rect x="1247.611" y="391.5495" clip-path="url(#clipPath2)" width="241.4284" rx="4" ry="4" height="42.3191" stroke="none"/>
    </g>
    <g text-rendering="geometricPrecision" stroke-miterlimit="1.45" shape-rendering="geometricPrecision" transform="matrix(1,0,0,1,-652,25)" stroke-linecap="butt">
      <rect x="1247.611" y="391.5495" clip-path="url(#clipPath2)" fill="none" width="241.4284" rx="4" ry="4" height="42.3191"/>
      <text x="1262.2734" xml:space="preserve" y="410.0723" clip-path="url(#clipPath2)" font-family="sans-serif" stroke="none">Using regex, make search query to find </text>
      <text x="1270.9512" xml:space="preserve" y="424.7734" clip-path="url(#clipPath2)" font-family="sans-serif" stroke="none">similar station code in elasitic search</text>
    </g>
    <g fill="rgb(255,204,0)" text-rendering="geometricPrecision" shape-rendering="geometricPrecision" transform="matrix(1,0,0,1,-652,25)" stroke="rgb(255,204,0)">
      <rect x="1248.0787" y="453.982" clip-path="url(#clipPath2)" width="240.493" rx="4" ry="4" height="41" stroke="none"/>
    </g>
    <g text-rendering="geometricPrecision" stroke-miterlimit="1.45" shape-rendering="geometricPrecision" transform="matrix(1,0,0,1,-652,25)" stroke-linecap="butt">
      <rect x="1248.0787" y="453.982" clip-path="url(#clipPath2)" fill="none" width="240.493" rx="4" ry="4" height="41"/>
      <text x="1273.6025" xml:space="preserve" y="479.1959" clip-path="url(#clipPath2)" font-family="sans-serif" stroke="none">Run search and retrieve candidates</text>
    </g>
    <g fill="rgb(255,204,0)" text-rendering="geometricPrecision" shape-rendering="geometricPrecision" transform="matrix(1,0,0,1,-652,25)" stroke="rgb(255,204,0)">
      <rect x="1204.3252" y="515.0955" clip-path="url(#clipPath2)" width="328" rx="4" ry="4" height="36" stroke="none"/>
    </g>
    <g text-rendering="geometricPrecision" stroke-miterlimit="1.45" shape-rendering="geometricPrecision" transform="matrix(1,0,0,1,-652,25)" stroke-linecap="butt">
      <rect x="1204.3252" y="515.0955" clip-path="url(#clipPath2)" fill="none" width="328" rx="4" ry="4" height="36"/>
      <text x="1216.5557" xml:space="preserve" y="537.8094" clip-path="url(#clipPath2)" font-family="sans-serif" stroke="none">Check that candidates have only one station and location</text>
    </g>
    <g fill="rgb(255,204,0)" text-rendering="geometricPrecision" shape-rendering="geometricPrecision" transform="matrix(1,0,0,1,-652,25)" stroke="rgb(255,204,0)">
      <rect x="1194.3252" y="571.209" clip-path="url(#clipPath2)" width="348" rx="4" ry="4" height="41" stroke="none"/>
    </g>
    <g text-rendering="geometricPrecision" stroke-miterlimit="1.45" shape-rendering="geometricPrecision" transform="matrix(1,0,0,1,-652,25)" stroke-linecap="butt">
      <rect x="1194.3252" y="571.209" clip-path="url(#clipPath2)" fill="none" width="348" rx="4" ry="4" height="41"/>
      <text x="1193.2236" xml:space="preserve" y="596.4229" clip-path="url(#clipPath2)" font-family="sans-serif" stroke="none">If more than one coordinates, ask user if he/she wants to continue</text>
    </g>
    <g fill="rgb(255,204,0)" text-rendering="geometricPrecision" shape-rendering="geometricPrecision" transform="matrix(1,0,0,1,-652,25)" stroke="rgb(255,204,0)">
      <rect x="1163.3252" y="693.436" clip-path="url(#clipPath2)" width="410" rx="4" ry="4" height="36" stroke="none"/>
    </g>
    <g text-rendering="geometricPrecision" stroke-miterlimit="1.45" shape-rendering="geometricPrecision" transform="matrix(1,0,0,1,-652,25)" stroke-linecap="butt">
      <rect x="1163.3252" y="693.436" clip-path="url(#clipPath2)" fill="none" width="410" rx="4" ry="4" height="36"/>
      <text x="1174.5586" xml:space="preserve" y="716.1498" clip-path="url(#clipPath2)" font-family="sans-serif" stroke="none">If there are also river, km and gkz values associated, add these to the list</text>
    </g>
    <g fill="rgb(255,204,0)" text-rendering="geometricPrecision" shape-rendering="geometricPrecision" transform="matrix(1,0,0,1,-652,25)" stroke="rgb(255,204,0)">
      <rect x="1204.3252" y="632.3225" clip-path="url(#clipPath2)" width="328" rx="4" ry="4" height="41" stroke="none"/>
    </g>
    <g text-rendering="geometricPrecision" stroke-miterlimit="1.45" shape-rendering="geometricPrecision" transform="matrix(1,0,0,1,-652,25)" stroke-linecap="butt">
      <rect x="1204.3252" y="632.3225" clip-path="url(#clipPath2)" fill="none" width="328" rx="4" ry="4" height="41"/>
      <text x="1255.9336" xml:space="preserve" y="657.5364" clip-path="url(#clipPath2)" font-family="sans-serif" stroke="none">Make list with new station and coordinates</text>
      <rect fill="none" x="1145.6428" width="437.2" height="177.3" y="791.8124" clip-path="url(#clipPath2)"/>
      <text x="1151.6428" xml:space="preserve" y="809.8769" clip-path="url(#clipPath2)" font-family="sans-serif" stroke="none">Adding measurment_time</text>
    </g>
    <g fill="rgb(255,204,0)" text-rendering="geometricPrecision" shape-rendering="geometricPrecision" transform="matrix(1,0,0,1,-652,25)" stroke="rgb(255,204,0)">
      <rect x="1156.9051" y="840.6033" clip-path="url(#clipPath2)" width="414.6753" rx="4" ry="4" height="36.4682" stroke="none"/>
    </g>
    <g text-rendering="geometricPrecision" stroke-miterlimit="1.45" shape-rendering="geometricPrecision" transform="matrix(1,0,0,1,-652,25)" stroke-linecap="butt">
      <rect x="1156.9051" y="840.6033" clip-path="url(#clipPath2)" fill="none" width="414.6753" rx="4" ry="4" height="36.4682"/>
      <text x="1162.8268" xml:space="preserve" y="863.5513" clip-path="url(#clipPath2)" font-family="sans-serif" stroke="none">Look for files of same filename (excl. filetype) in root measurement directory</text>
    </g>
    <g fill="rgb(255,204,0)" text-rendering="geometricPrecision" shape-rendering="geometricPrecision" transform="matrix(1,0,0,1,-652,25)" stroke="rgb(255,204,0)">
      <rect x="1186.3615" y="907.7347" clip-path="url(#clipPath2)" width="355.7625" rx="4" ry="4" height="26.2555" stroke="none"/>
    </g>
    <g text-rendering="geometricPrecision" stroke-miterlimit="1.45" shape-rendering="geometricPrecision" transform="matrix(1,0,0,1,-652,25)" stroke-linecap="butt">
      <rect x="1186.3615" y="907.7347" clip-path="url(#clipPath2)" fill="none" width="355.7625" rx="4" ry="4" height="26.2555"/>
      <text x="1208.5065" xml:space="preserve" y="925.5763" clip-path="url(#clipPath2)" font-family="sans-serif" stroke="none">Take creation time of oldest file (e.g. original intrument file)</text>
      <path fill="none" d="M828.7797 308.964 L828.7797 336.8544" clip-path="url(#clipPath2)"/>
      <path d="M828.7797 344.8544 L833.7797 332.8544 L828.7797 335.8544 L823.7797 332.8544 Z" clip-path="url(#clipPath2)" stroke="none"/>
      <path fill="none" d="M828.7797 385.9098 L828.7797 414.3472" clip-path="url(#clipPath2)"/>
      <path d="M828.7797 422.3472 L833.7797 410.3472 L828.7797 413.3472 L823.7797 410.3472 Z" clip-path="url(#clipPath2)" stroke="none"/>
      <path fill="none" d="M828.7797 458.35 L828.7797 486.8039" clip-path="url(#clipPath2)"/>
      <path d="M828.7797 494.8039 L833.7797 482.8039 L828.7797 485.8039 L823.7797 482.8039 Z" clip-path="url(#clipPath2)" stroke="none"/>
      <path fill="none" d="M828.7797 530.8114 L828.7797 559.2607" clip-path="url(#clipPath2)"/>
      <path d="M828.7797 567.2607 L833.7797 555.2607 L828.7797 558.2607 L823.7797 555.2607 Z" clip-path="url(#clipPath2)" stroke="none"/>
      <path fill="none" d="M828.7797 614.3043 L828.7797 642.7476" clip-path="url(#clipPath2)"/>
      <path d="M828.7797 650.7476 L833.7797 638.7476 L828.7797 641.7476 L823.7797 638.7476 Z" clip-path="url(#clipPath2)" stroke="none"/>
      <path fill="none" d="M828.7797 691.7696 L828.7797 720.2069" clip-path="url(#clipPath2)"/>
      <path d="M828.7797 728.2069 L833.7797 716.2069 L828.7797 719.2069 L823.7797 716.2069 Z" clip-path="url(#clipPath2)" stroke="none"/>
      <path fill="none" d="M975.4951 440.3399 L1110.9805 440.3399 L1110.9805 900.3365 L938.9799 900.3365" clip-path="url(#clipPath2)"/>
    </g>
  </g>
</svg>
