<?xml version="1.0" encoding="UTF-8"?><svg xmlns="http://www.w3.org/2000/svg" xmlns:xlink="http://www.w3.org/1999/xlink" fill-opacity="1" color-rendering="auto" color-interpolation="auto" text-rendering="auto" stroke="black" stroke-linecap="square" width="581" stroke-miterlimit="10" shape-rendering="auto" stroke-opacity="1" fill="black" stroke-dasharray="none" font-weight="normal" stroke-width="1" height="484" font-family="'Dialog'" font-style="normal" stroke-linejoin="miter" font-size="12px" stroke-dashoffset="0" image-rendering="auto">
  <!--Generated by ySVG 2.6-->
  <defs id="genericDefs"/>
  <g>
    <defs id="defs1">
      <clipPath clipPathUnits="userSpaceOnUse" id="clipPath1">
        <path d="M0 0 L581 0 L581 484 L0 484 L0 0 Z"/>
      </clipPath>
      <clipPath clipPathUnits="userSpaceOnUse" id="clipPath2">
        <path d="M349 -104 L930 -104 L930 380 L349 380 L349 -104 Z"/>
      </clipPath>
    </defs>
    <g fill="white" text-rendering="geometricPrecision" shape-rendering="geometricPrecision" transform="translate(-349,104)" stroke="white">
      <rect x="349" width="581" height="484" y="-104" clip-path="url(#clipPath2)" stroke="none"/>
    </g>
    <g stroke-linecap="round" transform="matrix(1,0,0,1,-349,104)" stroke-dashoffset="2" fill="gray" text-rendering="geometricPrecision" shape-rendering="geometricPrecision" stroke-dasharray="0,8" stroke="gray" stroke-width="2" stroke-miterlimit="1.45">
      <rect fill="none" x="375.27" width="250" height="183" y="41.5" clip-path="url(#clipPath2)"/>
    </g>
    <g text-rendering="geometricPrecision" stroke-miterlimit="1.45" shape-rendering="geometricPrecision" font-family="sans-serif" transform="matrix(1,0,0,1,-349,104)" stroke-linecap="butt">
      <text x="381.27" xml:space="preserve" y="59.5645" clip-path="url(#clipPath2)" stroke="none">Files saved to disk</text>
    </g>
    <g fill="rgb(204,255,255)" text-rendering="geometricPrecision" shape-rendering="geometricPrecision" transform="matrix(1,0,0,1,-349,104)" stroke="rgb(204,255,255)">
      <path d="M431.0857 169.188 L586.75 169.188 L569.4544 199.188 L413.79 199.188 Z" fill-rule="evenodd" clip-path="url(#clipPath2)" stroke="none"/>
    </g>
    <g stroke-linecap="butt" transform="matrix(1,0,0,1,-349,104)" fill="teal" text-rendering="geometricPrecision" shape-rendering="geometricPrecision" stroke="teal" stroke-miterlimit="1.45">
      <path fill="none" d="M431.0857 169.188 L586.75 169.188 L569.4544 199.188 L413.79 199.188 Z" fill-rule="evenodd" clip-path="url(#clipPath2)"/>
      <text x="435.2485" y="188.9019" clip-path="url(#clipPath2)" fill="black" font-family="sans-serif" stroke="none" xml:space="preserve">SLURM job file (.sbatch)</text>
    </g>
    <g fill="rgb(204,255,255)" text-rendering="geometricPrecision" shape-rendering="geometricPrecision" transform="matrix(1,0,0,1,-349,104)" stroke="rgb(204,255,255)">
      <path d="M410.2858 67.46 L612.75 67.46 L590.2542 97.46 L387.79 97.46 Z" fill-rule="evenodd" clip-path="url(#clipPath2)" stroke="none"/>
    </g>
    <g stroke-linecap="butt" transform="matrix(1,0,0,1,-349,104)" fill="teal" text-rendering="geometricPrecision" shape-rendering="geometricPrecision" stroke="teal" stroke-miterlimit="1.45">
      <path fill="none" d="M410.2858 67.46 L612.75 67.46 L590.2542 97.46 L387.79 97.46 Z" fill-rule="evenodd" clip-path="url(#clipPath2)"/>
      <text x="416.9233" y="87.1739" clip-path="url(#clipPath2)" fill="black" font-family="sans-serif" stroke="none" xml:space="preserve">list of msrawfileRecords (.RDS)</text>
    </g>
    <g fill="rgb(204,255,255)" text-rendering="geometricPrecision" shape-rendering="geometricPrecision" transform="matrix(1,0,0,1,-349,104)" stroke="rgb(204,255,255)">
      <path d="M414.2858 118.324 L607.75 118.324 L586.2542 148.324 L392.79 148.324 Z" fill-rule="evenodd" clip-path="url(#clipPath2)" stroke="none"/>
    </g>
    <g stroke-linecap="butt" transform="matrix(1,0,0,1,-349,104)" fill="teal" text-rendering="geometricPrecision" shape-rendering="geometricPrecision" stroke="teal" stroke-miterlimit="1.45">
      <path fill="none" d="M414.2858 118.324 L607.75 118.324 L586.2542 148.324 L392.79 148.324 Z" fill-rule="evenodd" clip-path="url(#clipPath2)"/>
      <text x="417.5825" y="138.0379" clip-path="url(#clipPath2)" fill="black" font-family="sans-serif" stroke="none" xml:space="preserve">R script to start processing (.R)</text>
      <rect x="637.75" y="59.96" clip-path="url(#clipPath2)" fill="none" width="276.6" stroke-dasharray="6,2" height="45" stroke="rgb(153,153,153)"/>
      <text x="658.6516" y="79.8233" clip-path="url(#clipPath2)" fill="black" font-family="sans-serif" stroke="none" xml:space="preserve">Each top-level list element is one batch, the </text>
      <text x="643.1769" y="94.5245" clip-path="url(#clipPath2)" fill="black" font-family="sans-serif" stroke="none" xml:space="preserve">element's index becomes the batch ID for SLURM</text>
    </g>
    <g fill="rgb(255,204,153)" text-rendering="geometricPrecision" shape-rendering="geometricPrecision" transform="matrix(1,0,0,1,-349,104)" stroke="rgb(255,204,153)">
      <path d="M413.5 254.5 L587.04 254.5 L577.04 294.5 L423.5 294.5 Z" stroke="none" clip-path="url(#clipPath2)"/>
    </g>
    <g stroke-linecap="butt" transform="matrix(1,0,0,1,-349,104)" fill="rgb(153,51,0)" text-rendering="geometricPrecision" shape-rendering="geometricPrecision" stroke="rgb(153,51,0)" stroke-miterlimit="1.45">
      <path fill="none" d="M413.5 254.5 L587.04 254.5 L577.04 294.5 L423.5 294.5 Z" clip-path="url(#clipPath2)"/>
      <text x="427.5815" y="279.2139" clip-path="url(#clipPath2)" fill="black" font-family="sans-serif" stroke="none" xml:space="preserve">User: submit job to SLURM</text>
    </g>
    <g fill="rgb(232,238,247)" text-rendering="geometricPrecision" shape-rendering="geometricPrecision" transform="matrix(1,0,0,1,-349,104)" stroke="rgb(232,238,247)">
      <rect x="461.6857" y="-88.5" clip-path="url(#clipPath2)" width="77.1687" rx="20" ry="20" height="40" stroke="none"/>
    </g>
    <g stroke-linecap="butt" transform="matrix(1,0,0,1,-349,104)" fill="gray" text-rendering="geometricPrecision" shape-rendering="geometricPrecision" stroke="gray" stroke-miterlimit="1.45">
      <rect x="461.6857" y="-88.5" clip-path="url(#clipPath2)" fill="none" width="77.1687" rx="20" ry="20" height="40"/>
      <text x="474.9282" y="-63.7861" clip-path="url(#clipPath2)" fill="black" font-family="sans-serif" stroke="none" xml:space="preserve">Start task</text>
    </g>
    <g fill="rgb(255,153,0)" text-rendering="geometricPrecision" shape-rendering="geometricPrecision" transform="matrix(1,0,0,1,-349,104)" stroke="rgb(255,153,0)">
      <rect x="364.77" width="271" height="30" y="-18.5" clip-path="url(#clipPath2)" stroke="none"/>
    </g>
    <g stroke-linecap="butt" transform="matrix(1,0,0,1,-349,104)" fill="rgb(153,51,0)" text-rendering="geometricPrecision" shape-rendering="geometricPrecision" stroke="rgb(153,51,0)" stroke-miterlimit="1.45">
      <rect fill="none" x="364.77" width="271" height="30" y="-18.5" clip-path="url(#clipPath2)"/>
      <text x="377.8501" y="0.874" clip-path="url(#clipPath2)" fill="black" font-family="'Arial monospaced for SAP'" stroke="none" xml:space="preserve">dbaScreeningSelectedBatchesSlurm()</text>
      <rect x="637.75" y="161.688" clip-path="url(#clipPath2)" fill="none" width="276.6" stroke-dasharray="6,2" height="45" stroke="rgb(153,153,153)"/>
      <text x="651.3244" y="181.5513" clip-path="url(#clipPath2)" fill="black" font-family="sans-serif" stroke="none" xml:space="preserve">Contains parameters for R environment setup, </text>
      <text x="669.6789" y="196.2525" clip-path="url(#clipPath2)" fill="black" font-family="sans-serif" stroke="none" xml:space="preserve">Rscript command, email for notifications</text>
    </g>
    <g fill="rgb(232,238,247)" text-rendering="geometricPrecision" shape-rendering="geometricPrecision" transform="matrix(1,0,0,1,-349,104)" stroke="rgb(232,238,247)">
      <rect x="394.6857" y="324.5" clip-path="url(#clipPath2)" width="211.1687" rx="20" ry="20" height="40" stroke="none"/>
    </g>
    <g stroke-linecap="butt" transform="matrix(1,0,0,1,-349,104)" fill="gray" text-rendering="geometricPrecision" shape-rendering="geometricPrecision" stroke="gray" stroke-miterlimit="1.45">
      <rect x="394.6857" y="324.5" clip-path="url(#clipPath2)" fill="none" width="211.1687" rx="20" ry="20" height="40"/>
      <text x="403.2182" y="349.2139" clip-path="url(#clipPath2)" fill="black" font-family="sans-serif" stroke="none" xml:space="preserve">Email notification when job complete</text>
    </g>
    <g stroke-linecap="butt" transform="matrix(1,0,0,1,-349,104)" fill="rgb(153,153,153)" text-rendering="geometricPrecision" shape-rendering="geometricPrecision" stroke-dasharray="6,2" stroke="rgb(153,153,153)" stroke-miterlimit="1.45">
      <path fill="none" d="M637.75 82.46 L601.5339 82.46" clip-path="url(#clipPath2)"/>
      <path fill="none" stroke-dasharray="none" d="M500.27 224.5 L500.27 246.5293" clip-path="url(#clipPath2)" stroke="black"/>
      <path fill="black" stroke-dasharray="none" d="M500.27 254.5293 L505.27 242.5293 L500.27 245.5293 L495.27 242.5293 Z" clip-path="url(#clipPath2)" stroke="none"/>
      <path fill="none" stroke-dasharray="none" d="M500.27 -48.4731 L500.27 -26.5" clip-path="url(#clipPath2)" stroke="black"/>
      <path fill="black" stroke-dasharray="none" d="M500.27 -18.5 L505.27 -30.5 L500.27 -27.5 L495.27 -30.5 Z" clip-path="url(#clipPath2)" stroke="none"/>
      <path fill="none" stroke-dasharray="none" d="M500.27 11.5 L500.27 33.5" clip-path="url(#clipPath2)" stroke="black"/>
      <path fill="black" stroke-dasharray="none" d="M500.27 41.5 L505.27 29.5 L500.27 32.5 L495.27 29.5 Z" clip-path="url(#clipPath2)" stroke="none"/>
      <path fill="none" d="M578.0688 184.188 L637.75 184.188" clip-path="url(#clipPath2)"/>
      <path fill="none" stroke-dasharray="none" d="M500.27 294.4951 L500.27 316.5273" clip-path="url(#clipPath2)" stroke="black"/>
      <path fill="black" stroke-dasharray="none" d="M500.27 324.5273 L505.27 312.5273 L500.27 315.5273 L495.27 312.5273 Z" clip-path="url(#clipPath2)" stroke="none"/>
    </g>
  </g>
</svg>
