<?xml version="1.0" encoding="UTF-8"?><svg xmlns="http://www.w3.org/2000/svg" xmlns:xlink="http://www.w3.org/1999/xlink" fill-opacity="1" color-rendering="auto" color-interpolation="auto" text-rendering="auto" stroke="black" stroke-linecap="square" width="1030" stroke-miterlimit="10" shape-rendering="auto" stroke-opacity="1" fill="black" stroke-dasharray="none" font-weight="normal" stroke-width="1" height="1361" font-family="'Dialog'" font-style="normal" stroke-linejoin="miter" font-size="12px" stroke-dashoffset="0" image-rendering="auto">
  <!--Generated by ySVG 2.5-->
  <defs id="genericDefs"/>
  <g>
    <defs id="defs1">
      <linearGradient x1="562.6118" gradientUnits="userSpaceOnUse" x2="642.6118" y1="-252.0243" y2="-212.0243" id="linearGradient1" spreadMethod="reflect">
        <stop stop-opacity="1" stop-color="rgb(232,238,247)" offset="0%"/>
        <stop stop-opacity="1" stop-color="rgb(183,201,227)" offset="100%"/>
      </linearGradient>
      <linearGradient x1="515.6614" gradientUnits="userSpaceOnUse" x2="711.9554" y1="80.3771" y2="152.1222" id="linearGradient2" spreadMethod="reflect">
        <stop stop-opacity="1" stop-color="rgb(232,238,247)" offset="0%"/>
        <stop stop-opacity="1" stop-color="rgb(183,201,227)" offset="100%"/>
      </linearGradient>
      <linearGradient x1="480.8929" gradientUnits="userSpaceOnUse" x2="591.646" y1="-82.3515" y2="-42.3515" id="linearGradient3" spreadMethod="reflect">
        <stop stop-opacity="1" stop-color="rgb(232,238,247)" offset="0%"/>
        <stop stop-opacity="1" stop-color="rgb(183,201,227)" offset="100%"/>
      </linearGradient>
      <clipPath clipPathUnits="userSpaceOnUse" id="clipPath1">
        <path d="M0 0 L1030 0 L1030 1361 L0 1361 L0 0 Z"/>
      </clipPath>
      <clipPath clipPathUnits="userSpaceOnUse" id="clipPath2">
        <path d="M100 -268 L1130 -268 L1130 1093 L100 1093 L100 -268 Z"/>
      </clipPath>
    </defs>
    <g fill="white" text-rendering="geometricPrecision" shape-rendering="geometricPrecision" transform="translate(-100,268)" stroke="white">
      <rect x="100" width="1030" height="1361" y="-268" clip-path="url(#clipPath2)" stroke="none"/>
    </g>
    <g text-rendering="geometricPrecision" stroke-miterlimit="1.45" stroke-dasharray="6,2" shape-rendering="geometricPrecision" transform="matrix(1,0,0,1,-100,268)" stroke-linecap="butt">
      <rect fill="none" x="115.9189" width="267.4489" height="1154.176" y="-76.8995" clip-path="url(#clipPath2)"/>
      <text x="121.9189" font-size="20px" y="-50.7921" clip-path="url(#clipPath2)" font-family="sans-serif" stroke-dasharray="none" stroke="none" xml:space="preserve">Arguments</text>
      <rect x="461.9191" y="260.888" clip-path="url(#clipPath2)" fill="none" width="339.8029" stroke-dasharray="none" height="484.1746"/>
      <text x="467.9191" font-size="18px" y="284.9847" clip-path="url(#clipPath2)" font-family="sans-serif" stroke-dasharray="none" stroke="none" xml:space="preserve">Batch-wise scanning, cleaning, </text>
      <text x="467.9191" font-size="18px" y="307.0365" clip-path="url(#clipPath2)" font-family="sans-serif" stroke-dasharray="none" stroke="none" xml:space="preserve">conversion and saving (R)</text>
      <rect x="496.6769" y="763.3394" clip-path="url(#clipPath2)" fill="none" width="280.368" stroke-dasharray="none" height="300.413"/>
      <text x="502.6768" font-size="18px" y="787.436" clip-path="url(#clipPath2)" font-family="sans-serif" stroke-dasharray="none" stroke="none" xml:space="preserve">ElasticSearch Ingest (Python)</text>
      <rect x="407.947" y="-175.08" clip-path="url(#clipPath2)" fill="none" width="473.7451" stroke-dasharray="none" height="225.4571"/>
      <text x="413.947" font-size="18px" y="-150.9834" clip-path="url(#clipPath2)" font-family="sans-serif" stroke-dasharray="none" stroke="none" xml:space="preserve">Collect Msrawfile Records (R)</text>
    </g>
    <g fill="rgb(255,204,0)" text-rendering="geometricPrecision" shape-rendering="geometricPrecision" transform="matrix(1,0,0,1,-100,268)" stroke="rgb(255,204,0)">
      <rect x="445.7694" y="-138.9684" clip-path="url(#clipPath2)" width="181" rx="4" ry="4" height="30" stroke="none"/>
    </g>
    <g text-rendering="geometricPrecision" stroke-miterlimit="1.45" shape-rendering="geometricPrecision" transform="matrix(1,0,0,1,-100,268)" stroke-linecap="butt">
      <rect x="445.7694" y="-138.9684" clip-path="url(#clipPath2)" fill="none" width="181" rx="4" ry="4" height="30"/>
      <text x="460.2323" xml:space="preserve" y="-119.2545" clip-path="url(#clipPath2)" font-family="sans-serif" stroke="none">Load entire msrawfiles index</text>
    </g>
    <g fill="rgb(255,204,0)" text-rendering="geometricPrecision" shape-rendering="geometricPrecision" transform="matrix(1,0,0,1,-100,268)" stroke="rgb(255,204,0)">
      <rect x="446.4734" y="-11.9569" clip-path="url(#clipPath2)" width="183.6" rx="4" ry="4" height="30" stroke="none"/>
    </g>
    <g text-rendering="geometricPrecision" stroke-miterlimit="1.45" shape-rendering="geometricPrecision" transform="matrix(1,0,0,1,-100,268)" stroke-linecap="butt">
      <rect x="446.4734" y="-11.9569" clip-path="url(#clipPath2)" fill="none" width="183.6" rx="4" ry="4" height="30"/>
      <text x="470.9053" xml:space="preserve" y="7.757" clip-path="url(#clipPath2)" font-family="sans-serif" stroke="none">Split records into batches</text>
      <rect fill="none" x="492.9851" width="280.368" height="183.6" y="323.56" clip-path="url(#clipPath2)"/>
      <text x="498.9851" font-size="18px" y="347.6567" clip-path="url(#clipPath2)" font-family="sans-serif" stroke="none" xml:space="preserve">File-wise scanning</text>
    </g>
    <g fill="rgb(255,153,0)" text-rendering="geometricPrecision" shape-rendering="geometricPrecision" transform="matrix(1,0,0,1,-100,268)" stroke="rgb(255,153,0)">
      <rect x="549.0291" y="405" clip-path="url(#clipPath2)" width="168.28" rx="4" ry="4" height="30" stroke="none"/>
    </g>
    <g text-rendering="geometricPrecision" stroke-miterlimit="1.45" shape-rendering="geometricPrecision" transform="matrix(1,0,0,1,-100,268)" stroke-linecap="butt">
      <rect x="549.0291" y="405" clip-path="url(#clipPath2)" fill="none" width="168.28" rx="4" ry="4" height="30"/>
      <text x="570.8048" xml:space="preserve" y="424.7139" clip-path="url(#clipPath2)" font-family="sans-serif" stroke="none">Open measurement file</text>
    </g>
    <g fill="rgb(255,153,0)" text-rendering="geometricPrecision" shape-rendering="geometricPrecision" transform="matrix(1,0,0,1,-100,268)" stroke="rgb(255,153,0)">
      <rect x="549.0291" y="356.744" clip-path="url(#clipPath2)" width="171.14" rx="4" ry="4" height="30" stroke="none"/>
    </g>
    <g text-rendering="geometricPrecision" stroke-miterlimit="1.45" shape-rendering="geometricPrecision" transform="matrix(1,0,0,1,-100,268)" stroke-linecap="butt">
      <rect x="549.0291" y="356.744" clip-path="url(#clipPath2)" fill="none" width="171.14" rx="4" ry="4" height="30"/>
      <text x="618.9194" xml:space="preserve" y="376.4579" clip-path="url(#clipPath2)" font-family="sans-serif" stroke="none">Setup</text>
    </g>
    <g fill="rgb(255,153,0)" text-rendering="geometricPrecision" shape-rendering="geometricPrecision" transform="matrix(1,0,0,1,-100,268)" stroke="rgb(255,153,0)">
      <rect x="556.7491" y="453.256" clip-path="url(#clipPath2)" width="160.56" rx="4" ry="4" height="30" stroke="none"/>
    </g>
    <g text-rendering="geometricPrecision" stroke-miterlimit="1.45" shape-rendering="geometricPrecision" transform="matrix(1,0,0,1,-100,268)" stroke-linecap="butt">
      <rect x="556.7491" y="453.256" clip-path="url(#clipPath2)" fill="none" width="160.56" rx="4" ry="4" height="30"/>
      <text x="575.6668" xml:space="preserve" y="472.9699" clip-path="url(#clipPath2)" font-family="sans-serif" stroke="none">Scan measurement file</text>
    </g>
    <g fill="rgb(255,153,0)" text-rendering="geometricPrecision" shape-rendering="geometricPrecision" transform="matrix(1,0,0,1,-100,268)" stroke="rgb(255,153,0)">
      <rect x="562.3691" y="537.16" clip-path="url(#clipPath2)" width="141.6" rx="4" ry="4" height="30" stroke="none"/>
    </g>
    <g text-rendering="geometricPrecision" stroke-miterlimit="1.45" shape-rendering="geometricPrecision" transform="matrix(1,0,0,1,-100,268)" stroke-linecap="butt">
      <rect x="562.3691" y="537.16" clip-path="url(#clipPath2)" fill="none" width="141.6" rx="4" ry="4" height="30"/>
      <text x="598.1534" xml:space="preserve" y="556.8738" clip-path="url(#clipPath2)" font-family="sans-serif" stroke="none">Clean results</text>
    </g>
    <g fill="rgb(255,153,0)" text-rendering="geometricPrecision" shape-rendering="geometricPrecision" transform="matrix(1,0,0,1,-100,268)" stroke="rgb(255,153,0)">
      <rect x="531.3691" y="632.84" clip-path="url(#clipPath2)" width="203.6" rx="4" ry="4" height="30" stroke="none"/>
    </g>
    <g text-rendering="geometricPrecision" stroke-miterlimit="1.45" shape-rendering="geometricPrecision" transform="matrix(1,0,0,1,-100,268)" stroke-linecap="butt">
      <rect x="531.3691" y="632.84" clip-path="url(#clipPath2)" fill="none" width="203.6" rx="4" ry="4" height="30"/>
      <text x="565.8009" xml:space="preserve" y="652.5539" clip-path="url(#clipPath2)" font-family="sans-serif" stroke="none">Convert to featureRecord</text>
    </g>
    <g fill="rgb(255,153,0)" text-rendering="geometricPrecision" shape-rendering="geometricPrecision" transform="matrix(1,0,0,1,-100,268)" stroke="rgb(255,153,0)">
      <rect x="524.3421" y="692.84" clip-path="url(#clipPath2)" width="217.654" rx="4" ry="4" height="30" stroke="none"/>
    </g>
    <g text-rendering="geometricPrecision" stroke-miterlimit="1.45" shape-rendering="geometricPrecision" transform="matrix(1,0,0,1,-100,268)" stroke-linecap="butt">
      <rect x="524.3421" y="692.84" clip-path="url(#clipPath2)" fill="none" width="217.654" rx="4" ry="4" height="30"/>
      <text x="530.3341" xml:space="preserve" y="712.5539" clip-path="url(#clipPath2)" font-family="sans-serif" stroke="none">Save as compressed JSON (*json.gz")</text>
    </g>
    <g fill="rgb(153,204,255)" text-rendering="geometricPrecision" shape-rendering="geometricPrecision" transform="matrix(1,0,0,1,-100,268)" stroke="rgb(153,204,255)">
      <rect x="581.3691" y="823.534" clip-path="url(#clipPath2)" width="165.6" rx="4" ry="4" height="30" stroke="none"/>
    </g>
    <g text-rendering="geometricPrecision" stroke-miterlimit="1.45" shape-rendering="geometricPrecision" transform="matrix(1,0,0,1,-100,268)" stroke-linecap="butt">
      <rect x="581.3691" y="823.534" clip-path="url(#clipPath2)" fill="none" width="165.6" rx="4" ry="4" height="30"/>
      <text x="602.4786" xml:space="preserve" y="843.2479" clip-path="url(#clipPath2)" font-family="sans-serif" stroke="none">Read JSON file (batch)</text>
    </g>
    <g fill="rgb(153,204,255)" text-rendering="geometricPrecision" shape-rendering="geometricPrecision" transform="matrix(1,0,0,1,-100,268)" stroke="rgb(153,204,255)">
      <rect x="608.1887" y="883.534" clip-path="url(#clipPath2)" width="111.9608" rx="4" ry="4" height="30" stroke="none"/>
    </g>
    <g text-rendering="geometricPrecision" stroke-miterlimit="1.45" shape-rendering="geometricPrecision" transform="matrix(1,0,0,1,-100,268)" stroke-linecap="butt">
      <rect x="608.1887" y="883.534" clip-path="url(#clipPath2)" fill="none" width="111.9608" rx="4" ry="4" height="30"/>
      <text x="617.4757" xml:space="preserve" y="903.2479" clip-path="url(#clipPath2)" font-family="sans-serif" stroke="none">Create new index</text>
    </g>
    <g fill="rgb(153,204,255)" text-rendering="geometricPrecision" shape-rendering="geometricPrecision" transform="matrix(1,0,0,1,-100,268)" stroke="rgb(153,204,255)">
      <rect x="593.3691" y="1003.534" clip-path="url(#clipPath2)" width="141.6" rx="4" ry="4" height="30" stroke="none"/>
    </g>
    <g text-rendering="geometricPrecision" stroke-miterlimit="1.45" shape-rendering="geometricPrecision" transform="matrix(1,0,0,1,-100,268)" stroke-linecap="butt">
      <rect x="593.3691" y="1003.534" clip-path="url(#clipPath2)" fill="none" width="141.6" rx="4" ry="4" height="30"/>
      <text x="631.4796" xml:space="preserve" y="1023.2479" clip-path="url(#clipPath2)" font-family="sans-serif" stroke="none">Ingest batch</text>
    </g>
    <g fill="rgb(153,204,255)" text-rendering="geometricPrecision" shape-rendering="geometricPrecision" transform="matrix(1,0,0,1,-100,268)" stroke="rgb(153,204,255)">
      <rect x="591.3644" y="943.534" clip-path="url(#clipPath2)" width="145.6095" rx="4" ry="4" height="30" stroke="none"/>
    </g>
    <g text-rendering="geometricPrecision" stroke-miterlimit="1.45" shape-rendering="geometricPrecision" transform="matrix(1,0,0,1,-100,268)" stroke-linecap="butt">
      <rect x="591.3644" y="943.534" clip-path="url(#clipPath2)" fill="none" width="145.6095" rx="4" ry="4" height="30"/>
      <text x="596.798" xml:space="preserve" y="963.2479" clip-path="url(#clipPath2)" font-family="sans-serif" stroke="none">Create alias to new index</text>
    </g>
    <g fill="rgb(153,204,255)" text-rendering="geometricPrecision" shape-rendering="geometricPrecision" transform="matrix(1,0,0,1,-100,268)" stroke="rgb(153,204,255)">
      <path d="M165.2307 833.0668 L341.8953 833.0668 L322.2659 863.0668 L145.6013 863.0668 Z" fill-rule="evenodd" clip-path="url(#clipPath2)" stroke="none"/>
    </g>
    <g text-rendering="geometricPrecision" stroke-miterlimit="1.45" shape-rendering="geometricPrecision" transform="matrix(1,0,0,1,-100,268)" stroke-linecap="butt">
      <path fill="none" d="M165.2307 833.0668 L341.8953 833.0668 L322.2659 863.0668 L145.6013 863.0668 Z" fill-rule="evenodd" clip-path="url(#clipPath2)"/>
      <text x="162.0452" xml:space="preserve" y="852.7806" clip-path="url(#clipPath2)" font-family="sans-serif" stroke="none">Folder where JSON files found</text>
    </g>
    <g fill="rgb(153,204,255)" text-rendering="geometricPrecision" shape-rendering="geometricPrecision" transform="matrix(1,0,0,1,-100,268)" stroke="rgb(153,204,255)">
      <path d="M156.6468 970.8101 L333.3114 970.8101 L313.682 1000.8101 L137.0174 1000.8101 Z" fill-rule="evenodd" clip-path="url(#clipPath2)" stroke="none"/>
    </g>
    <g text-rendering="geometricPrecision" stroke-miterlimit="1.45" shape-rendering="geometricPrecision" transform="matrix(1,0,0,1,-100,268)" stroke-linecap="butt">
      <path fill="none" d="M156.6468 970.8101 L333.3114 970.8101 L313.682 1000.8101 L137.0174 1000.8101 Z" fill-rule="evenodd" clip-path="url(#clipPath2)"/>
      <text x="159.7894" xml:space="preserve" y="988.8745" clip-path="url(#clipPath2)" font-family="sans-serif" stroke="none">Connection to ElasticSearch</text>
    </g>
    <g fill="rgb(255,204,0)" text-rendering="geometricPrecision" shape-rendering="geometricPrecision" transform="matrix(1,0,0,1,-100,268)" stroke="rgb(255,204,0)">
      <path d="M176.1431 -16.9481 L352.8077 -16.9481 L333.1783 13.0518 L156.5137 13.0518 Z" fill-rule="evenodd" clip-path="url(#clipPath2)" stroke="none"/>
    </g>
    <g text-rendering="geometricPrecision" stroke-miterlimit="1.45" shape-rendering="geometricPrecision" transform="matrix(1,0,0,1,-100,268)" stroke-linecap="butt">
      <path fill="none" d="M176.1431 -16.9481 L352.8077 -16.9481 L333.1783 13.0518 L156.5137 13.0518 Z" fill-rule="evenodd" clip-path="url(#clipPath2)"/>
      <text x="179.2857" xml:space="preserve" y="1.1163" clip-path="url(#clipPath2)" font-family="sans-serif" stroke="none">Connection to ElasticSearch</text>
    </g>
    <g fill="rgb(255,153,0)" text-rendering="geometricPrecision" shape-rendering="geometricPrecision" transform="matrix(1,0,0,1,-100,268)" stroke="rgb(255,153,0)">
      <path d="M873.0549 458.2162 L1084.8682 458.2162 L1061.3334 488.2162 L849.5201 488.2162 Z" fill-rule="evenodd" clip-path="url(#clipPath2)" stroke="none"/>
    </g>
    <g text-rendering="geometricPrecision" stroke-miterlimit="1.45" shape-rendering="geometricPrecision" transform="matrix(1,0,0,1,-100,268)" stroke-linecap="butt">
      <path fill="none" d="M873.0549 458.2162 L1084.8682 458.2162 L1061.3334 488.2162 L849.5201 488.2162 Z" fill-rule="evenodd" clip-path="url(#clipPath2)"/>
      <text x="873.5" xml:space="preserve" y="476.2806" clip-path="url(#clipPath2)" font-family="sans-serif" stroke="none">Spectral library (CSL) or ufid library</text>
    </g>
    <g fill="rgb(255,204,0)" text-rendering="geometricPrecision" shape-rendering="geometricPrecision" transform="matrix(1,0,0,1,-100,268)" stroke="rgb(255,204,0)">
      <rect x="684.498" y="-11.9569" clip-path="url(#clipPath2)" width="183.6" rx="4" ry="4" height="30" stroke="none"/>
    </g>
    <g text-rendering="geometricPrecision" stroke-miterlimit="1.45" shape-rendering="geometricPrecision" transform="matrix(1,0,0,1,-100,268)" stroke-linecap="butt">
      <rect x="684.498" y="-11.9569" clip-path="url(#clipPath2)" fill="none" width="183.6" rx="4" ry="4" height="30"/>
      <text x="694.9171" xml:space="preserve" y="7.757" clip-path="url(#clipPath2)" font-family="sans-serif" stroke="none">Run quality checks on batches</text>
    </g>
    <g fill="rgb(255,153,0)" text-rendering="geometricPrecision" shape-rendering="geometricPrecision" transform="matrix(1,0,0,1,-100,268)" stroke="rgb(255,153,0)">
      <path d="M155.5041 692.8392 L367.3174 692.8392 L343.7826 722.8392 L131.9693 722.8392 Z" fill-rule="evenodd" clip-path="url(#clipPath2)" stroke="none"/>
    </g>
    <g text-rendering="geometricPrecision" stroke-miterlimit="1.45" shape-rendering="geometricPrecision" transform="matrix(1,0,0,1,-100,268)" stroke-linecap="butt">
      <path fill="none" d="M155.5041 692.8392 L367.3174 692.8392 L343.7826 722.8392 L131.9693 722.8392 Z" fill-rule="evenodd" clip-path="url(#clipPath2)"/>
      <text x="191.284" xml:space="preserve" y="710.9045" clip-path="url(#clipPath2)" font-family="sans-serif" stroke="none">Directory to save data</text>
    </g>
    <g fill="rgb(255,204,0)" text-rendering="geometricPrecision" shape-rendering="geometricPrecision" transform="matrix(1,0,0,1,-100,268)" stroke="rgb(255,204,0)">
      <rect x="888.1655" y="195.9827" clip-path="url(#clipPath2)" width="200.6299" rx="4" ry="4" height="30" stroke="none"/>
    </g>
    <g text-rendering="geometricPrecision" stroke-miterlimit="1.45" shape-rendering="geometricPrecision" transform="matrix(1,0,0,1,-100,268)" stroke-linecap="butt">
      <rect x="888.1655" y="195.9827" clip-path="url(#clipPath2)" fill="none" width="200.6299" rx="4" ry="4" height="30"/>
      <text x="902.4355" xml:space="preserve" y="215.6965" clip-path="url(#clipPath2)" font-family="sans-serif" stroke="none">Submit job to workload manager</text>
    </g>
    <g fill="rgb(255,204,0)" text-rendering="geometricPrecision" shape-rendering="geometricPrecision" transform="matrix(1,0,0,1,-100,268)" stroke="rgb(255,204,0)">
      <rect x="862.8686" y="142.3973" clip-path="url(#clipPath2)" width="251.2237" rx="4" ry="4" height="30" stroke="none"/>
    </g>
    <g text-rendering="geometricPrecision" stroke-miterlimit="1.45" shape-rendering="geometricPrecision" transform="matrix(1,0,0,1,-100,268)" stroke-linecap="butt">
      <rect x="862.8686" y="142.3973" clip-path="url(#clipPath2)" fill="none" width="251.2237" rx="4" ry="4" height="30"/>
      <text x="885.4287" xml:space="preserve" y="162.1112" clip-path="url(#clipPath2)" font-family="sans-serif" stroke="none">Prepare job files for workload manager</text>
    </g>
    <g fill="url(#linearGradient1)" text-rendering="geometricPrecision" shape-rendering="geometricPrecision" transform="matrix(1,0,0,1,-100,268)" stroke="url(#linearGradient1)">
      <ellipse rx="40" ry="20" clip-path="url(#clipPath2)" cx="602.6117" cy="-232.0243" stroke="none"/>
    </g>
    <g text-rendering="geometricPrecision" stroke-miterlimit="1.45" shape-rendering="geometricPrecision" transform="matrix(1,0,0,1,-100,268)" stroke-linecap="butt">
      <ellipse rx="40" fill="none" ry="20" clip-path="url(#clipPath2)" cx="602.6117" cy="-232.0243"/>
      <text x="567.2651" xml:space="preserve" y="-227.3104" clip-path="url(#clipPath2)" font-family="sans-serif" stroke="none">Start process</text>
    </g>
    <g fill="url(#linearGradient2)" text-rendering="geometricPrecision" shape-rendering="geometricPrecision" transform="matrix(1,0,0,1,-100,268)" stroke="url(#linearGradient2)">
      <path d="M533.9564 80.3771 L711.9554 80.3771 L693.6605 152.1222 L515.6614 152.1222 Z" stroke="none" clip-path="url(#clipPath2)"/>
    </g>
    <g text-rendering="geometricPrecision" stroke-miterlimit="1.45" shape-rendering="geometricPrecision" transform="matrix(1,0,0,1,-100,268)" stroke-linecap="butt">
      <path fill="none" d="M533.9564 80.3771 L711.9554 80.3771 L693.6605 152.1222 L515.6614 152.1222 Z" clip-path="url(#clipPath2)"/>
      <text x="533.7781" xml:space="preserve" y="113.6129" clip-path="url(#clipPath2)" font-family="sans-serif" stroke="none">Records of measurement-files</text>
      <text x="536.116" xml:space="preserve" y="128.3141" clip-path="url(#clipPath2)" font-family="sans-serif" stroke="none">(msrawfileRecord) in batches</text>
    </g>
    <g fill="url(#linearGradient3)" text-rendering="geometricPrecision" shape-rendering="geometricPrecision" transform="matrix(1,0,0,1,-100,268)" stroke="url(#linearGradient3)">
      <rect x="480.8929" width="110.7531" height="40" y="-82.3515" clip-path="url(#clipPath2)" stroke="none"/>
    </g>
    <g text-rendering="geometricPrecision" stroke-miterlimit="1.45" shape-rendering="geometricPrecision" transform="matrix(1,0,0,1,-100,268)" stroke-linecap="butt">
      <rect fill="none" x="480.8929" width="110.7531" height="40" y="-82.3515" clip-path="url(#clipPath2)"/>
      <path fill="none" d="M490.8929 -82.3515 L490.8929 -42.3515 M581.646 -82.3515 L581.646 -42.3515 M490.8929 -82.3515 Z" clip-path="url(#clipPath2)"/>
      <text x="497.9198" xml:space="preserve" y="-57.6376" clip-path="url(#clipPath2)" font-family="sans-serif" stroke="none">Select records</text>
    </g>
    <g text-rendering="geometricPrecision" stroke-miterlimit="1.45" shape-rendering="geometricPrecision" transform="matrix(1,0,0,1,-100,268)" stroke-linecap="butt">
      <path fill="none" d="M634.1536 386.7769 L633.8512 396.9817" clip-path="url(#clipPath2)"/>
      <path d="M633.6143 404.9782 L638.9675 393.1316 L633.8808 395.9821 L628.9719 392.8354 Z" clip-path="url(#clipPath2)" stroke="none"/>
      <path fill="none" d="M634.3716 435.0329 L635.1896 445.2597" clip-path="url(#clipPath2)"/>
      <path d="M635.8275 453.2342 L639.8548 440.8737 L635.1099 444.2628 L629.8866 441.6711 Z" clip-path="url(#clipPath2)" stroke="none"/>
      <path fill="none" d="M633.1691 507.16 L633.1691 529.1746" clip-path="url(#clipPath2)"/>
      <path d="M633.1691 537.1746 L638.1691 525.1746 L633.1691 528.1746 L628.1691 525.1746 Z" clip-path="url(#clipPath2)" stroke="none"/>
      <path fill="none" d="M633.1691 567.1567 L633.1691 624.8301" clip-path="url(#clipPath2)"/>
      <path d="M633.1691 632.8301 L638.1691 620.8301 L633.1691 623.8301 L628.1691 620.8301 Z" clip-path="url(#clipPath2)" stroke="none"/>
      <rect x="545.464" y="590.6494" clip-path="url(#clipPath2)" fill="silver" width="175.4102" height="18.7012" stroke="none"/>
      <text x="547.464" xml:space="preserve" y="604.7139" clip-path="url(#clipPath2)" font-family="sans-serif" stroke="none">results object (e.g. dbasResults)</text>
      <path fill="none" d="M633.1691 662.8107 L633.1691 684.8449" clip-path="url(#clipPath2)"/>
      <path d="M633.1691 692.8449 L638.1691 680.8449 L633.1691 683.8449 L628.1691 680.8449 Z" clip-path="url(#clipPath2)" stroke="none"/>
      <path fill="none" d="M664.1691 853.5047 L664.1691 875.5389" clip-path="url(#clipPath2)"/>
      <path d="M664.1691 883.5389 L669.1691 871.5389 L664.1691 874.5389 L659.1691 871.5389 Z" clip-path="url(#clipPath2)" stroke="none"/>
      <path fill="none" d="M664.1691 913.5047 L664.1691 935.5389" clip-path="url(#clipPath2)"/>
      <path d="M664.1691 943.5389 L669.1691 931.5389 L664.1691 934.5389 L659.1691 931.5389 Z" clip-path="url(#clipPath2)" stroke="none"/>
      <path fill="none" d="M664.1691 973.5633 L664.1691 995.5584" clip-path="url(#clipPath2)"/>
      <path d="M664.1691 1003.5584 L669.1691 991.5584 L664.1691 994.5584 L659.1691 991.5584 Z" clip-path="url(#clipPath2)" stroke="none"/>
    </g>
    <g stroke-linecap="round" transform="matrix(1,0,0,1,-100,268)" stroke-dashoffset="2" text-rendering="geometricPrecision" shape-rendering="geometricPrecision" stroke-dasharray="0,8" stroke-width="2" stroke-miterlimit="1.45">
      <path fill="none" d="M591.5032 722.8435 L293.86 830.022" clip-path="url(#clipPath2)"/>
      <path d="M285.3923 833.0712 L299.9996 833.7897 L294.9185 829.6408 L296.1881 823.2051 Z" clip-path="url(#clipPath2)" stroke="none"/>
    </g>
    <g text-rendering="geometricPrecision" stroke-miterlimit="1.45" stroke-dasharray="6,2" shape-rendering="geometricPrecision" transform="matrix(1,0,0,1,-100,268)" stroke-linecap="butt">
      <path fill="none" d="M333.4315 846.0333 L573.3657 840.5929" clip-path="url(#clipPath2)"/>
      <path d="M581.3636 840.4116 L569.2534 835.6849 L572.3659 840.6155 L569.48 845.6823 Z" clip-path="url(#clipPath2)" stroke="none"/>
      <path fill="none" d="M593.3928 1013.1353 L327.2322 992.8329" clip-path="url(#clipPath2)"/>
      <path d="M319.2554 992.2244 L330.8403 998.1226 L328.2293 992.9089 L331.6009 988.1516 Z" clip-path="url(#clipPath2)" stroke="none"/>
      <path fill="none" d="M591.3504 963.1638 L335.2819 979.4446" clip-path="url(#clipPath2)"/>
      <path d="M327.298 979.9522 L339.5911 984.1807 L336.2798 979.3811 L338.9565 974.2009 Z" clip-path="url(#clipPath2)" stroke="none"/>
      <path fill="none" d="M608.2131 909.9176 L316.7302 969.2164" clip-path="url(#clipPath2)"/>
      <path d="M308.8907 970.8113 L321.6466 973.3187 L317.7101 969.0171 L319.6531 963.5194 Z" clip-path="url(#clipPath2)" stroke="none"/>
      <path fill="none" d="M274.2072 -16.9325 L413.8308 -123.9684 L437.7856 -123.9684" clip-path="url(#clipPath2)"/>
      <path d="M445.7856 -123.9684 L433.7856 -128.9684 L436.7856 -123.9684 L433.7856 -118.9684 Z" clip-path="url(#clipPath2)" stroke="none"/>
      <path fill="none" d="M862.5264 471.6437 L725.3231 469.5825" clip-path="url(#clipPath2)"/>
      <path d="M717.324 469.4623 L729.2476 474.642 L726.323 469.5975 L729.3978 464.6431 Z" clip-path="url(#clipPath2)" stroke="none"/>
      <path fill="none" d="M684.5109 3.0431 L638.0646 3.0431" clip-path="url(#clipPath2)"/>
      <path d="M630.0646 3.0431 L642.0646 8.0431 L639.0646 3.0431 L642.0646 -1.9569 Z" clip-path="url(#clipPath2)" stroke="none"/>
      <path fill="none" d="M355.5905 707.84 L516.3672 707.84" clip-path="url(#clipPath2)"/>
      <path d="M524.3672 707.84 L512.3672 702.84 L515.3672 707.84 L512.3672 712.84 Z" clip-path="url(#clipPath2)" stroke="none"/>
      <path fill="none" stroke-dasharray="none" d="M888.1638 210.9827 L705.5908 210.9827 L672.0049 254.5388" clip-path="url(#clipPath2)"/>
      <path stroke-dasharray="none" d="M667.1199 260.8741 L678.407 254.4243 L672.6156 253.7468 L670.4879 248.3179 Z" clip-path="url(#clipPath2)" stroke="none"/>
      <path fill="none" stroke-dasharray="none" d="M988.4805 172.3897 L988.4805 188.0204" clip-path="url(#clipPath2)"/>
      <path stroke-dasharray="none" d="M988.4805 196.0204 L993.4805 184.0204 L988.4805 187.0204 L983.4805 184.0204 Z" clip-path="url(#clipPath2)" stroke="none"/>
      <path fill="none" stroke-dasharray="none" d="M607.5477 -212.1822 L614.8459 -182.8434" clip-path="url(#clipPath2)"/>
      <path stroke-dasharray="none" d="M616.7772 -175.08 L618.7325 -187.9321 L614.6046 -183.8139 L609.0282 -185.5181 Z" clip-path="url(#clipPath2)" stroke="none"/>
      <path fill="none" stroke-dasharray="none" d="M625.2461 50.3771 L621.4041 72.5043" clip-path="url(#clipPath2)"/>
      <path stroke-dasharray="none" d="M620.0355 80.3864 L627.0146 69.4187 L621.5751 71.5191 L617.162 67.7079 Z" clip-path="url(#clipPath2)" stroke="none"/>
      <path fill="none" stroke-dasharray="none" d="M615.4773 152.0803 L620.1729 252.8967" clip-path="url(#clipPath2)"/>
      <path stroke-dasharray="none" d="M620.5451 260.8881 L624.9814 248.6684 L620.1264 251.8978 L614.9922 249.1337 Z" clip-path="url(#clipPath2)" stroke="none"/>
      <text x="544.9572" y="211.219" clip-path="url(#clipPath2)" font-family="sans-serif" stroke-dasharray="none" stroke="none" xml:space="preserve">local processing</text>
      <path fill="none" stroke-dasharray="none" d="M700.3873 125.758 L855.9294 142.8401" clip-path="url(#clipPath2)"/>
      <path stroke-dasharray="none" d="M863.8816 143.7135 L852.4991 137.4333 L854.9354 142.731 L851.4075 147.3736 Z" clip-path="url(#clipPath2)" stroke="none"/>
      <text x="722.7245" y="170.2096" clip-path="url(#clipPath2)" font-family="sans-serif" stroke-dasharray="none" stroke="none" xml:space="preserve">Processing with SLURM</text>
      <path fill="none" stroke-dasharray="none" d="M536.2694 -108.9553 L536.2694 -90.331" clip-path="url(#clipPath2)"/>
      <path stroke-dasharray="none" d="M536.2694 -82.331 L541.2694 -94.331 L536.2694 -91.331 L531.2694 -94.331 Z" clip-path="url(#clipPath2)" stroke="none"/>
      <path fill="none" stroke-dasharray="none" d="M536.8829 -42.3308 L537.5681 -19.9744" clip-path="url(#clipPath2)"/>
      <path stroke-dasharray="none" d="M537.8131 -11.9781 L542.4432 -24.1257 L537.5374 -20.9739 L532.4479 -23.8193 Z" clip-path="url(#clipPath2)" stroke="none"/>
    </g>
  </g>
</svg>
