<?xml version="1.0" encoding="UTF-8"?><svg xmlns="http://www.w3.org/2000/svg" xmlns:xlink="http://www.w3.org/1999/xlink" fill-opacity="1" color-rendering="auto" color-interpolation="auto" text-rendering="auto" stroke="black" stroke-linecap="square" width="900" stroke-miterlimit="10" shape-rendering="auto" stroke-opacity="1" fill="black" stroke-dasharray="none" font-weight="normal" stroke-width="1" height="576" font-family="'Dialog'" font-style="normal" stroke-linejoin="miter" font-size="12px" stroke-dashoffset="0" image-rendering="auto">
  <!--Generated by ySVG 2.6-->
  <defs id="genericDefs"/>
  <g>
    <defs id="defs1">
      <linearGradient x1="409.9307" gradientUnits="userSpaceOnUse" x2="525.3973" y1="119.7269" y2="119.7269" id="linearGradient1" spreadMethod="reflect">
        <stop stop-opacity="1" stop-color="rgb(153,204,255)" offset="0%"/>
        <stop stop-opacity="1" stop-color="rgb(255,153,204)" offset="100%"/>
      </linearGradient>
      <clipPath clipPathUnits="userSpaceOnUse" id="clipPath1">
        <path d="M0 0 L900 0 L900 576 L0 576 L0 0 Z"/>
      </clipPath>
      <clipPath clipPathUnits="userSpaceOnUse" id="clipPath2">
        <path d="M48 -85 L948 -85 L948 491 L48 491 L48 -85 Z"/>
      </clipPath>
    </defs>
    <g fill="white" text-rendering="geometricPrecision" shape-rendering="geometricPrecision" transform="translate(-48,85)" stroke="white">
      <rect x="48" width="900" height="576" y="-85" clip-path="url(#clipPath2)" stroke="none"/>
    </g>
    <g text-rendering="geometricPrecision" stroke-miterlimit="1.45" shape-rendering="geometricPrecision" transform="matrix(1,0,0,1,-48,85)" stroke-linecap="butt">
      <rect fill="none" x="236.9364" width="403.7219" height="544.4692" y="-69.4603" clip-path="url(#clipPath2)"/>
      <text x="242.9364" font-size="18px" y="-45.3637" clip-path="url(#clipPath2)" font-family="sans-serif" stroke="none" xml:space="preserve">ElasticSearch Ingest (Python)</text>
    </g>
    <g fill="rgb(153,204,255)" text-rendering="geometricPrecision" shape-rendering="geometricPrecision" transform="matrix(1,0,0,1,-48,85)" stroke="rgb(153,204,255)">
      <rect x="377.9973" y="-9.2125" clip-path="url(#clipPath2)" width="121.6" rx="4" ry="4" height="30" stroke="none"/>
    </g>
    <g text-rendering="geometricPrecision" stroke-miterlimit="1.45" shape-rendering="geometricPrecision" transform="matrix(1,0,0,1,-48,85)" stroke-linecap="butt">
      <rect x="377.9973" y="-9.2125" clip-path="url(#clipPath2)" fill="none" width="121.6" rx="4" ry="4" height="30"/>
      <text x="386.4438" xml:space="preserve" y="10.5014" clip-path="url(#clipPath2)" font-family="sans-serif" stroke="none">Read JSON gz files</text>
    </g>
    <g fill="rgb(153,204,255)" text-rendering="geometricPrecision" shape-rendering="geometricPrecision" transform="matrix(1,0,0,1,-48,85)" stroke="rgb(153,204,255)">
      <rect x="377.9973" y="55.2572" clip-path="url(#clipPath2)" width="121.6" rx="4" ry="4" height="30" stroke="none"/>
    </g>
    <g text-rendering="geometricPrecision" stroke-miterlimit="1.45" shape-rendering="geometricPrecision" transform="matrix(1,0,0,1,-48,85)" stroke-linecap="butt">
      <rect x="377.9973" y="55.2572" clip-path="url(#clipPath2)" fill="none" width="121.6" rx="4" ry="4" height="30"/>
      <text x="385.1049" xml:space="preserve" y="74.9711" clip-path="url(#clipPath2)" font-family="sans-serif" stroke="none">Get user credentials</text>
    </g>
    <g fill="rgb(255,153,204)" text-rendering="geometricPrecision" shape-rendering="geometricPrecision" transform="matrix(1,0,0,1,-48,85)" stroke="rgb(255,153,204)">
      <rect x="63.742" width="232.5944" height="38.8519" y="115.301" clip-path="url(#clipPath2)" stroke="none"/>
      <rect x="63.742" y="115.301" clip-path="url(#clipPath2)" fill="rgb(255,218,255)" width="1" height="38.8519" stroke="none"/>
      <rect x="64.742" y="115.301" clip-path="url(#clipPath2)" fill="rgb(255,218,255)" width="230.5944" height="1" stroke="none"/>
      <rect x="64.742" y="153.1529" clip-path="url(#clipPath2)" fill="rgb(178,107,142)" width="231.5944" height="1" stroke="none"/>
      <rect x="295.3364" y="115.301" clip-path="url(#clipPath2)" fill="rgb(178,107,142)" width="1" height="37.8519" stroke="none"/>
    </g>
    <g text-rendering="geometricPrecision" stroke-miterlimit="1.45" shape-rendering="geometricPrecision" font-family="sans-serif" transform="matrix(1,0,0,1,-48,85)" stroke-linecap="butt">
      <text x="67.9699" xml:space="preserve" y="139.4408" clip-path="url(#clipPath2)" stroke="none">Pink: Connection to ElasticSearch needed</text>
    </g>
    <g fill="rgb(255,204,0)" text-rendering="geometricPrecision" shape-rendering="geometricPrecision" transform="matrix(1,0,0,1,-48,85)" stroke="rgb(255,204,0)">
      <rect x="677.9444" width="232.5944" height="48.1951" y="304.0428" clip-path="url(#clipPath2)" stroke="none"/>
      <rect x="677.9444" y="304.0428" clip-path="url(#clipPath2)" fill="yellow" width="1" height="48.1951" stroke="none"/>
      <rect x="678.9444" y="304.0428" clip-path="url(#clipPath2)" fill="yellow" width="230.5944" height="1" stroke="none"/>
      <rect x="678.9444" y="351.2379" clip-path="url(#clipPath2)" fill="rgb(178,142,0)" width="231.5944" height="1" stroke="none"/>
      <rect x="909.5387" y="304.0428" clip-path="url(#clipPath2)" fill="rgb(178,142,0)" width="1" height="47.1951" stroke="none"/>
    </g>
    <g text-rendering="geometricPrecision" stroke-miterlimit="1.45" shape-rendering="geometricPrecision" font-family="sans-serif" transform="matrix(1,0,0,1,-48,85)" stroke-linecap="butt">
      <text x="690.847" xml:space="preserve" y="325.5036" clip-path="url(#clipPath2)" stroke="none">Mappings for dbas and nts documents </text>
      <text x="726.9115" xml:space="preserve" y="340.2048" clip-path="url(#clipPath2)" stroke="none">are saved in 'inst/extdata'</text>
    </g>
    <g fill="url(#linearGradient1)" text-rendering="geometricPrecision" shape-rendering="geometricPrecision" transform="matrix(1,0,0,1,-48,85)" stroke="url(#linearGradient1)">
      <rect x="352.1973" y="119.7269" clip-path="url(#clipPath2)" width="173.2" rx="4" ry="4" height="30" stroke="none"/>
    </g>
    <g text-rendering="geometricPrecision" stroke-miterlimit="1.45" shape-rendering="geometricPrecision" transform="matrix(1,0,0,1,-48,85)" stroke-linecap="butt">
      <rect x="352.1973" y="119.7269" clip-path="url(#clipPath2)" fill="none" width="173.2" rx="4" ry="4" height="30"/>
      <text x="356.7573" xml:space="preserve" y="139.4408" clip-path="url(#clipPath2)" font-family="sans-serif" stroke="none">Connect to Elasticsearch client</text>
    </g>
    <g fill="rgb(153,204,255)" text-rendering="geometricPrecision" shape-rendering="geometricPrecision" transform="matrix(1,0,0,1,-48,85)" stroke="rgb(153,204,255)">
      <rect x="343.6973" y="184.1966" clip-path="url(#clipPath2)" width="190.2" rx="4" ry="4" height="30" stroke="none"/>
    </g>
    <g text-rendering="geometricPrecision" stroke-miterlimit="1.45" shape-rendering="geometricPrecision" transform="matrix(1,0,0,1,-48,85)" stroke-linecap="butt">
      <rect x="343.6973" y="184.1966" clip-path="url(#clipPath2)" fill="none" width="190.2" rx="4" ry="4" height="30"/>
      <text x="348.4253" xml:space="preserve" y="203.9105" clip-path="url(#clipPath2)" font-family="sans-serif" stroke="none">Update import time for all features</text>
    </g>
    <g fill="rgb(255,204,0)" text-rendering="geometricPrecision" shape-rendering="geometricPrecision" transform="matrix(1,0,0,1,-48,85)" stroke="rgb(255,204,0)">
      <rect x="655.6416" width="277.2" height="76.9329" y="214.5" clip-path="url(#clipPath2)" stroke="none"/>
      <rect x="655.6416" y="214.5" clip-path="url(#clipPath2)" fill="yellow" width="1" height="76.9329" stroke="none"/>
      <rect x="656.6416" y="214.5" clip-path="url(#clipPath2)" fill="yellow" width="275.2" height="1" stroke="none"/>
      <rect x="656.6416" y="290.4329" clip-path="url(#clipPath2)" fill="rgb(178,142,0)" width="276.2" height="1" stroke="none"/>
      <rect x="931.8416" y="214.5" clip-path="url(#clipPath2)" fill="rgb(178,142,0)" width="1" height="75.9329" stroke="none"/>
    </g>
    <g text-rendering="geometricPrecision" stroke-miterlimit="1.45" shape-rendering="geometricPrecision" font-family="sans-serif" transform="matrix(1,0,0,1,-48,85)" stroke-linecap="butt">
      <text x="764.4091" xml:space="preserve" y="232.5645" clip-path="url(#clipPath2)" stroke="none">Example:</text>
      <text x="734.3798" xml:space="preserve" y="247.2656" clip-path="url(#clipPath2)" stroke="none">alias: ntsp_dbas_bfg</text>
      <text x="661.6415" xml:space="preserve" y="261.9668" clip-path="url(#clipPath2)" stroke="none">index: ntsp_index_dbas_v20241113140000_bfg</text>
      <text x="680.4091" xml:space="preserve" y="276.668" clip-path="url(#clipPath2)" stroke="none">(timestamp format: yyyymmddHHMMSS)</text>
      <path fill="none" d="M438.7973 20.8032 L438.7973 47.2375" clip-path="url(#clipPath2)"/>
      <path d="M438.7973 55.2375 L443.7973 43.2375 L438.7973 46.2375 L433.7973 43.2375 Z" clip-path="url(#clipPath2)" stroke="none"/>
      <path fill="none" d="M438.7973 85.2729 L438.7973 111.7072" clip-path="url(#clipPath2)"/>
      <path d="M438.7973 119.7072 L443.7973 107.7072 L438.7973 110.7072 L433.7973 107.7072 Z" clip-path="url(#clipPath2)" stroke="none"/>
      <path fill="none" stroke-dasharray="6,2" d="M296.3098 134.7269 L352.2125 134.7269" clip-path="url(#clipPath2)"/>
      <path fill="none" d="M438.7973 149.7426 L438.7973 176.1769" clip-path="url(#clipPath2)"/>
      <path d="M438.7973 184.1769 L443.7973 172.1769 L438.7973 175.1769 L433.7973 172.1769 Z" clip-path="url(#clipPath2)" stroke="none"/>
    </g>
    <g fill="rgb(245,245,245)" text-rendering="geometricPrecision" shape-rendering="geometricPrecision" transform="matrix(1,0,0,1,-48,85)" stroke="rgb(245,245,245)">
      <rect x="332.2001" y="248.6663" clip-path="url(#clipPath2)" width="213.1944" rx="4" ry="4" height="192.3331" stroke="none"/>
      <rect x="332.2001" y="248.6663" clip-path="url(#clipPath2)" fill="rgb(235,235,235)" width="213.1944" height="22.3765" stroke="none"/>
    </g>
    <g font-size="15px" stroke-linecap="butt" transform="matrix(1,0,0,1,-48,85)" text-rendering="geometricPrecision" font-family="sans-serif" shape-rendering="geometricPrecision" stroke-miterlimit="1.45">
      <text x="424.9912" xml:space="preserve" y="265.7469" clip-path="url(#clipPath2)" stroke="none">Ingest all features</text>
      <rect x="332.2001" y="248.6663" clip-path="url(#clipPath2)" fill="none" width="213.1944" stroke-dasharray="6,2" rx="4" ry="4" height="192.3331"/>
    </g>
    <g fill="rgb(255,153,204)" text-rendering="geometricPrecision" shape-rendering="geometricPrecision" transform="matrix(1,0,0,1,-48,85)" stroke="rgb(255,153,204)">
      <rect x="347.2001" y="286.0428" clip-path="url(#clipPath2)" width="183.1944" rx="4" ry="4" height="38.8519" stroke="none"/>
    </g>
    <g text-rendering="geometricPrecision" stroke-miterlimit="1.45" shape-rendering="geometricPrecision" transform="matrix(1,0,0,1,-48,85)" stroke-linecap="butt">
      <rect x="347.2001" y="286.0428" clip-path="url(#clipPath2)" fill="none" width="183.1944" rx="4" ry="4" height="38.8519"/>
      <text x="364.0815" xml:space="preserve" y="302.8321" clip-path="url(#clipPath2)" font-family="sans-serif" stroke="none">Create new index based on </text>
      <text x="368.7632" xml:space="preserve" y="317.5332" clip-path="url(#clipPath2)" font-family="sans-serif" stroke="none">alias name and timestamp</text>
    </g>
    <g fill="rgb(255,153,204)" text-rendering="geometricPrecision" shape-rendering="geometricPrecision" transform="matrix(1,0,0,1,-48,85)" stroke="rgb(255,153,204)">
      <rect x="370.0021" y="395.9994" clip-path="url(#clipPath2)" width="141.6" rx="4" ry="4" height="30" stroke="none"/>
    </g>
    <g text-rendering="geometricPrecision" stroke-miterlimit="1.45" shape-rendering="geometricPrecision" transform="matrix(1,0,0,1,-48,85)" stroke-linecap="butt">
      <rect x="370.0021" y="395.9994" clip-path="url(#clipPath2)" fill="none" width="141.6" rx="4" ry="4" height="30"/>
      <text x="401.1107" xml:space="preserve" y="415.7133" clip-path="url(#clipPath2)" font-family="sans-serif" stroke="none">Ingest features</text>
    </g>
    <g fill="rgb(255,153,204)" text-rendering="geometricPrecision" shape-rendering="geometricPrecision" transform="matrix(1,0,0,1,-48,85)" stroke="rgb(255,153,204)">
      <rect x="365.9926" y="345.4471" clip-path="url(#clipPath2)" width="145.6095" rx="4" ry="4" height="30" stroke="none"/>
    </g>
    <g text-rendering="geometricPrecision" stroke-miterlimit="1.45" shape-rendering="geometricPrecision" transform="matrix(1,0,0,1,-48,85)" stroke-linecap="butt">
      <rect x="365.9926" y="345.4471" clip-path="url(#clipPath2)" fill="none" width="145.6095" rx="4" ry="4" height="30"/>
      <text x="378.4282" xml:space="preserve" y="365.1609" clip-path="url(#clipPath2)" font-family="sans-serif" stroke="none">Link alias to new index</text>
      <path fill="none" d="M438.7973 214.1656 L438.7973 240.6508" clip-path="url(#clipPath2)"/>
      <path d="M438.7973 248.6508 L443.7973 236.6508 L438.7973 239.6508 L433.7973 236.6508 Z" clip-path="url(#clipPath2)" stroke="none"/>
      <path fill="none" stroke-dasharray="6,2" d="M655.6131 273.4431 L530.3988 291.9384" clip-path="url(#clipPath2)"/>
      <path fill="none" stroke-dasharray="6,2" d="M677.9152 320.7206 L530.4222 311.313" clip-path="url(#clipPath2)"/>
      <path fill="none" d="M438.7973 324.8776 L438.7973 337.476" clip-path="url(#clipPath2)"/>
      <path d="M438.7973 345.476 L443.7973 333.476 L438.7973 336.476 L433.7973 333.476 Z" clip-path="url(#clipPath2)" stroke="none"/>
      <path fill="none" d="M439.3905 375.4055 L439.891 388.0243" clip-path="url(#clipPath2)"/>
      <path d="M440.2079 396.018 L444.7285 383.8293 L439.8513 387.0251 L434.7364 384.2255 Z" clip-path="url(#clipPath2)" stroke="none"/>
    </g>
  </g>
</svg>
