<?xml version="1.0" encoding="UTF-8"?><svg xmlns="http://www.w3.org/2000/svg" xmlns:xlink="http://www.w3.org/1999/xlink" fill-opacity="1" color-rendering="auto" color-interpolation="auto" text-rendering="auto" stroke="black" stroke-linecap="square" width="654" stroke-miterlimit="10" shape-rendering="auto" stroke-opacity="1" fill="black" stroke-dasharray="none" font-weight="normal" stroke-width="1" height="776" font-family="'Dialog'" font-style="normal" stroke-linejoin="miter" font-size="12px" stroke-dashoffset="0" image-rendering="auto">
  <!--Generated by ySVG 2.6-->
  <defs id="genericDefs"/>
  <g>
    <defs id="defs1">
      <clipPath clipPathUnits="userSpaceOnUse" id="clipPath1">
        <path d="M0 0 L654 0 L654 776 L0 776 L0 0 Z"/>
      </clipPath>
      <clipPath clipPathUnits="userSpaceOnUse" id="clipPath2">
        <path d="M172 -83 L826 -83 L826 693 L172 693 L172 -83 Z"/>
      </clipPath>
    </defs>
    <g fill="white" text-rendering="geometricPrecision" shape-rendering="geometricPrecision" transform="translate(-172,83)" stroke="white">
      <rect x="172" width="654" height="776" y="-83" clip-path="url(#clipPath2)" stroke="none"/>
    </g>
    <g stroke-linecap="butt" transform="matrix(1,0,0,1,-172,83)" fill="rgb(153,153,153)" text-rendering="geometricPrecision" shape-rendering="geometricPrecision" stroke-dasharray="6,2" stroke="rgb(153,153,153)" stroke-miterlimit="1.45">
      <rect fill="none" x="354.6" width="155.8" height="148.4" y="404.4731" clip-path="url(#clipPath2)"/>
    </g>
    <g text-rendering="geometricPrecision" stroke-miterlimit="1.45" shape-rendering="geometricPrecision" font-family="sans-serif" transform="matrix(1,0,0,1,-172,83)" stroke-linecap="butt">
      <text x="360.6" xml:space="preserve" y="422.5376" clip-path="url(#clipPath2)" stroke="none">Collect EIC and spectra</text>
    </g>
    <g fill="rgb(255,153,0)" text-rendering="geometricPrecision" shape-rendering="geometricPrecision" transform="matrix(1,0,0,1,-172,83)" stroke="rgb(255,153,0)">
      <rect x="372.1411" width="121.6" height="30" y="509.1231" clip-path="url(#clipPath2)" stroke="none"/>
    </g>
    <g stroke-linecap="butt" transform="matrix(1,0,0,1,-172,83)" fill="rgb(153,51,0)" text-rendering="geometricPrecision" shape-rendering="geometricPrecision" stroke="rgb(153,51,0)" stroke-miterlimit="1.45">
      <rect fill="none" x="372.1411" width="121.6" height="30" y="509.1231" clip-path="url(#clipPath2)"/>
      <text x="380.5876" y="528.837" clip-path="url(#clipPath2)" fill="black" font-family="sans-serif" stroke="none" xml:space="preserve">collect MS2 spectra</text>
    </g>
    <g fill="rgb(255,153,0)" text-rendering="geometricPrecision" shape-rendering="geometricPrecision" transform="matrix(1,0,0,1,-172,83)" stroke="rgb(255,153,0)">
      <rect x="301.4" width="262.2" height="30" y="16.7475" clip-path="url(#clipPath2)" stroke="none"/>
    </g>
    <g stroke-linecap="butt" transform="matrix(1,0,0,1,-172,83)" fill="rgb(153,51,0)" text-rendering="geometricPrecision" shape-rendering="geometricPrecision" stroke="rgb(153,51,0)" stroke-miterlimit="1.45">
      <rect fill="none" x="301.4" width="262.2" height="30" y="16.7475" clip-path="url(#clipPath2)"/>
      <text x="314.0967" y="36.4614" clip-path="url(#clipPath2)" fill="black" font-family="sans-serif" stroke="none" xml:space="preserve">Collect peak areas and intensites of features</text>
    </g>
    <g fill="rgb(255,153,0)" text-rendering="geometricPrecision" shape-rendering="geometricPrecision" transform="matrix(1,0,0,1,-172,83)" stroke="rgb(255,153,0)">
      <rect x="343.6527" width="177.6945" height="30" y="68.7712" clip-path="url(#clipPath2)" stroke="none"/>
    </g>
    <g stroke-linecap="butt" transform="matrix(1,0,0,1,-172,83)" fill="rgb(153,51,0)" text-rendering="geometricPrecision" shape-rendering="geometricPrecision" stroke="rgb(153,51,0)" stroke-miterlimit="1.45">
      <rect fill="none" x="343.6527" width="177.6945" height="30" y="68.7712" clip-path="url(#clipPath2)"/>
      <text x="359.46" y="88.4851" clip-path="url(#clipPath2)" fill="black" font-family="sans-serif" stroke="none" xml:space="preserve">Round to nearest... see (a.)</text>
    </g>
    <g fill="rgb(255,153,0)" text-rendering="geometricPrecision" shape-rendering="geometricPrecision" transform="matrix(1,0,0,1,-172,83)" stroke="rgb(255,153,0)">
      <rect x="309.6" width="245.8" height="30" y="344.4731" clip-path="url(#clipPath2)" stroke="none"/>
    </g>
    <g stroke-linecap="butt" transform="matrix(1,0,0,1,-172,83)" fill="rgb(153,51,0)" text-rendering="geometricPrecision" shape-rendering="geometricPrecision" stroke="rgb(153,51,0)" stroke-miterlimit="1.45">
      <rect fill="none" x="309.6" width="245.8" height="30" y="344.4731" clip-path="url(#clipPath2)"/>
      <text x="315.4443" y="364.187" clip-path="url(#clipPath2)" fill="black" font-family="sans-serif" stroke="none" xml:space="preserve">Copy data from measurement file metadata </text>
    </g>
    <g fill="rgb(255,153,0)" text-rendering="geometricPrecision" shape-rendering="geometricPrecision" transform="matrix(1,0,0,1,-172,83)" stroke="rgb(255,153,0)">
      <rect x="355.0808" width="154.8383" height="30" y="120.795" clip-path="url(#clipPath2)" stroke="none"/>
    </g>
    <g stroke-linecap="butt" transform="matrix(1,0,0,1,-172,83)" fill="rgb(153,51,0)" text-rendering="geometricPrecision" shape-rendering="geometricPrecision" stroke="rgb(153,51,0)" stroke-miterlimit="1.45">
      <rect fill="none" x="355.0808" width="154.8383" height="30" y="120.795" clip-path="url(#clipPath2)"/>
      <text x="363.5117" y="140.5089" clip-path="url(#clipPath2)" fill="black" font-family="sans-serif" stroke="none" xml:space="preserve">Convert to 'list' of features</text>
    </g>
    <g fill="rgb(255,153,0)" text-rendering="geometricPrecision" shape-rendering="geometricPrecision" transform="matrix(1,0,0,1,-172,83)" stroke="rgb(255,153,0)">
      <rect x="327.625" width="209.75" height="30" y="175.3544" clip-path="url(#clipPath2)" stroke="none"/>
    </g>
    <g stroke-linecap="butt" transform="matrix(1,0,0,1,-172,83)" fill="rgb(153,51,0)" text-rendering="geometricPrecision" shape-rendering="geometricPrecision" stroke="rgb(153,51,0)" stroke-miterlimit="1.45">
      <rect fill="none" x="327.625" width="209.75" height="30" y="175.3544" clip-path="url(#clipPath2)"/>
      <text x="334.7891" y="195.0682" clip-path="url(#clipPath2)" fill="black" font-family="sans-serif" stroke="none" xml:space="preserve">Get compound information from CSL</text>
    </g>
    <g fill="rgb(255,153,0)" text-rendering="geometricPrecision" shape-rendering="geometricPrecision" transform="matrix(1,0,0,1,-172,83)" stroke="rgb(255,153,0)">
      <rect x="368.1411" width="129.6" height="30" y="468.7231" clip-path="url(#clipPath2)" stroke="none"/>
    </g>
    <g stroke-linecap="butt" transform="matrix(1,0,0,1,-172,83)" fill="rgb(153,51,0)" text-rendering="geometricPrecision" shape-rendering="geometricPrecision" stroke="rgb(153,51,0)" stroke-miterlimit="1.45">
      <rect fill="none" x="368.1411" width="129.6" height="30" y="468.7231" clip-path="url(#clipPath2)"/>
      <text x="380.5876" y="488.437" clip-path="url(#clipPath2)" fill="black" font-family="sans-serif" stroke="none" xml:space="preserve">collect MS1 spectra</text>
    </g>
    <g fill="rgb(255,153,0)" text-rendering="geometricPrecision" shape-rendering="geometricPrecision" transform="matrix(1,0,0,1,-172,83)" stroke="rgb(255,153,0)">
      <rect x="384.1411" width="97.6" height="30" y="428.3231" clip-path="url(#clipPath2)" stroke="none"/>
    </g>
    <g stroke-linecap="butt" transform="matrix(1,0,0,1,-172,83)" fill="rgb(153,51,0)" text-rendering="geometricPrecision" shape-rendering="geometricPrecision" stroke="rgb(153,51,0)" stroke-miterlimit="1.45">
      <rect fill="none" x="384.1411" width="97.6" height="30" y="428.3231" clip-path="url(#clipPath2)"/>
      <text x="404.2653" y="448.037" clip-path="url(#clipPath2)" fill="black" font-family="sans-serif" stroke="none" xml:space="preserve">collect EIC</text>
    </g>
    <g fill="rgb(255,153,0)" text-rendering="geometricPrecision" shape-rendering="geometricPrecision" transform="matrix(1,0,0,1,-172,83)" stroke="rgb(255,153,0)">
      <rect x="345.0038" width="174.9925" height="30" y="582.8731" clip-path="url(#clipPath2)" stroke="none"/>
    </g>
    <g stroke-linecap="butt" transform="matrix(1,0,0,1,-172,83)" fill="rgb(153,51,0)" text-rendering="geometricPrecision" shape-rendering="geometricPrecision" stroke="rgb(153,51,0)" stroke-miterlimit="1.45">
      <rect fill="none" x="345.0038" width="174.9925" height="30" y="582.8731" clip-path="url(#clipPath2)"/>
      <text x="356.8057" y="602.587" clip-path="url(#clipPath2)" fill="black" font-family="sans-serif" stroke="none" xml:space="preserve">Clean up (remove NAs, etc.)</text>
    </g>
    <g fill="rgb(255,153,0)" text-rendering="geometricPrecision" shape-rendering="geometricPrecision" transform="matrix(1,0,0,1,-172,83)" stroke="rgb(255,153,0)">
      <rect x="312.44" width="240.12" height="30" y="229.9137" clip-path="url(#clipPath2)" stroke="none"/>
    </g>
    <g stroke-linecap="butt" transform="matrix(1,0,0,1,-172,83)" fill="rgb(153,51,0)" text-rendering="geometricPrecision" shape-rendering="geometricPrecision" stroke="rgb(153,51,0)" stroke-miterlimit="1.45">
      <rect fill="none" x="312.44" width="240.12" height="30" y="229.9137" clip-path="url(#clipPath2)"/>
      <text x="316.4346" y="249.6276" clip-path="url(#clipPath2)" fill="black" font-family="sans-serif" stroke="none" xml:space="preserve">Collect peak areas and intensites of int. std.</text>
    </g>
    <g fill="rgb(232,238,247)" text-rendering="geometricPrecision" shape-rendering="geometricPrecision" transform="matrix(1,0,0,1,-172,83)" stroke="rgb(232,238,247)">
      <rect x="362.1" y="-67.7" clip-path="url(#clipPath2)" width="140.8" rx="20" ry="20" height="40" stroke="none"/>
    </g>
    <g stroke-linecap="butt" transform="matrix(1,0,0,1,-172,83)" fill="gray" text-rendering="geometricPrecision" shape-rendering="geometricPrecision" stroke="gray" stroke-miterlimit="1.45">
      <rect x="362.1" y="-67.7" clip-path="url(#clipPath2)" fill="none" width="140.8" rx="20" ry="20" height="40"/>
      <text x="371.1348" y="-42.9861" clip-path="url(#clipPath2)" fill="black" font-family="sans-serif" stroke="none" xml:space="preserve">File scanning complete</text>
    </g>
    <g fill="rgb(204,255,204)" text-rendering="geometricPrecision" shape-rendering="geometricPrecision" transform="matrix(1,0,0,1,-172,83)" stroke="rgb(204,255,204)">
      <path d="M187.408 344.1755 C190.1738 333.9771 276.8342 333.9771 279.6 344.1755 L279.6 374.7707 C276.8342 384.9691 190.1738 384.9691 187.408 374.7707 Z" stroke="none" clip-path="url(#clipPath2)"/>
    </g>
    <g stroke-linecap="butt" transform="matrix(1,0,0,1,-172,83)" fill="green" text-rendering="geometricPrecision" shape-rendering="geometricPrecision" stroke="green" stroke-miterlimit="1.45">
      <path fill="none" d="M187.408 344.1755 C190.1738 333.9771 276.8342 333.9771 279.6 344.1755 L279.6 374.7707 C276.8342 384.9691 190.1738 384.9691 187.408 374.7707 Z" clip-path="url(#clipPath2)"/>
      <path fill="none" d="M279.6 344.1755 C276.8342 354.3739 190.1738 354.3739 187.408 344.1755" clip-path="url(#clipPath2)"/>
      <text x="197.4981" y="363.8471" clip-path="url(#clipPath2)" fill="black" font-family="'Arial monospaced for SAP'" stroke="none" xml:space="preserve">msrawfiles</text>
    </g>
    <g fill="rgb(204,255,204)" text-rendering="geometricPrecision" shape-rendering="geometricPrecision" transform="matrix(1,0,0,1,-172,83)" stroke="rgb(204,255,204)">
      <path d="M187.408 175.0568 C190.1738 164.8584 276.8342 164.8584 279.6 175.0568 L279.6 205.652 C276.8342 215.8504 190.1738 215.8504 187.408 205.652 Z" stroke="none" clip-path="url(#clipPath2)"/>
    </g>
    <g stroke-linecap="butt" transform="matrix(1,0,0,1,-172,83)" fill="green" text-rendering="geometricPrecision" shape-rendering="geometricPrecision" stroke="green" stroke-miterlimit="1.45">
      <path fill="none" d="M187.408 175.0568 C190.1738 164.8584 276.8342 164.8584 279.6 175.0568 L279.6 205.652 C276.8342 215.8504 190.1738 215.8504 187.408 205.652 Z" clip-path="url(#clipPath2)"/>
      <path fill="none" d="M279.6 175.0568 C276.8342 185.2552 190.1738 185.2552 187.408 175.0568" clip-path="url(#clipPath2)"/>
      <text x="193.4903" y="195.0682" clip-path="url(#clipPath2)" fill="black" font-family="sans-serif" stroke="none" xml:space="preserve">Spectral library</text>
    </g>
    <g stroke-linecap="butt" transform="matrix(1,0,0,1,-172,83)" fill="rgb(153,153,153)" text-rendering="geometricPrecision" shape-rendering="geometricPrecision" stroke-dasharray="6,2" stroke="rgb(153,153,153)" stroke-miterlimit="1.45">
      <rect fill="none" x="582.56" width="208.536" height="48" y="59.7712" clip-path="url(#clipPath2)"/>
    </g>
    <g text-rendering="geometricPrecision" stroke-miterlimit="1.45" shape-rendering="geometricPrecision" font-family="sans-serif" transform="matrix(1,0,0,1,-172,83)" stroke-linecap="butt">
      <text x="605.7753" xml:space="preserve" y="81.1345" clip-path="url(#clipPath2)" stroke="none">a. Round intensities and areas</text>
      <text x="590.119" xml:space="preserve" y="95.8357" clip-path="url(#clipPath2)" stroke="none">to 3 sig. fig., m/z to 4 decimal places</text>
    </g>
    <g fill="rgb(255,153,0)" text-rendering="geometricPrecision" shape-rendering="geometricPrecision" transform="matrix(1,0,0,1,-172,83)" stroke="rgb(255,153,0)">
      <rect x="343.6527" width="177.6945" height="30" y="284.4731" clip-path="url(#clipPath2)" stroke="none"/>
    </g>
    <g stroke-linecap="butt" transform="matrix(1,0,0,1,-172,83)" fill="rgb(153,51,0)" text-rendering="geometricPrecision" shape-rendering="geometricPrecision" stroke="rgb(153,51,0)" stroke-miterlimit="1.45">
      <rect fill="none" x="343.6527" width="177.6945" height="30" y="284.4731" clip-path="url(#clipPath2)"/>
      <text x="359.46" y="304.187" clip-path="url(#clipPath2)" fill="black" font-family="sans-serif" stroke="none" xml:space="preserve">Round to nearest... see (a.)</text>
      <rect x="582.56" y="229.9137" clip-path="url(#clipPath2)" fill="none" width="113.88" stroke-dasharray="6,2" height="30" stroke="rgb(153,153,153)"/>
      <text x="596.293" y="249.2878" clip-path="url(#clipPath2)" fill="black" font-family="'Arial monospaced for SAP'" stroke="none" xml:space="preserve">dbas_is_name</text>
      <rect x="582.56" y="166.3544" clip-path="url(#clipPath2)" fill="none" width="166.022" stroke-dasharray="6,2" height="48" stroke="rgb(153,153,153)"/>
      <text x="586.3581" y="187.8348" clip-path="url(#clipPath2)" fill="black" font-family="'Arial monospaced for SAP'" stroke="none" xml:space="preserve">CAS, inchi, inchikey, </text>
      <text x="597.1599" y="201.6219" clip-path="url(#clipPath2)" fill="black" font-family="'Arial monospaced for SAP'" stroke="none" xml:space="preserve">formula, comp_group</text>
      <rect x="582.56" y="335.4731" clip-path="url(#clipPath2)" fill="none" width="228.038" stroke-dasharray="6,2" height="48" stroke="rgb(153,153,153)"/>
      <text x="610.1649" y="356.9536" clip-path="url(#clipPath2)" fill="black" font-family="'Arial monospaced for SAP'" stroke="none" xml:space="preserve">start, date_measurement,</text>
      <text x="588.5614" y="370.7407" clip-path="url(#clipPath2)" fill="black" font-family="'Arial monospaced for SAP'" stroke="none" xml:space="preserve">matrix, pol, data_source, etc.</text>
    </g>
    <g fill="rgb(232,238,247)" text-rendering="geometricPrecision" shape-rendering="geometricPrecision" transform="matrix(1,0,0,1,-172,83)" stroke="rgb(232,238,247)">
      <rect x="374.9" y="637.7159" clip-path="url(#clipPath2)" width="115.2" rx="20" ry="20" height="40" stroke="none"/>
    </g>
    <g stroke-linecap="butt" transform="matrix(1,0,0,1,-172,83)" fill="gray" text-rendering="geometricPrecision" shape-rendering="geometricPrecision" stroke="gray" stroke-miterlimit="1.45">
      <rect x="374.9" y="637.7159" clip-path="url(#clipPath2)" fill="none" width="115.2" rx="20" ry="20" height="40"/>
      <text x="393.1514" y="662.4297" clip-path="url(#clipPath2)" fill="black" font-family="sans-serif" stroke="none" xml:space="preserve">Save as JSON</text>
    </g>
    <g fill="rgb(204,255,204)" text-rendering="geometricPrecision" shape-rendering="geometricPrecision" transform="matrix(1,0,0,1,-172,83)" stroke="rgb(204,255,204)">
      <path d="M593.404 278.7349 C596.1697 268.5365 682.8303 268.5365 685.596 278.7349 L685.596 309.3301 C682.8303 319.5285 596.1697 319.5285 593.404 309.3301 Z" stroke="none" clip-path="url(#clipPath2)"/>
    </g>
    <g stroke-linecap="butt" transform="matrix(1,0,0,1,-172,83)" fill="green" text-rendering="geometricPrecision" shape-rendering="geometricPrecision" stroke="green" stroke-miterlimit="1.45">
      <path fill="none" d="M593.404 278.7349 C596.1697 268.5365 682.8303 268.5365 685.596 278.7349 L685.596 309.3301 C682.8303 319.5285 596.1697 319.5285 593.404 309.3301 Z" clip-path="url(#clipPath2)"/>
      <path fill="none" d="M685.596 278.7349 C682.8303 288.9333 596.1697 288.9333 593.404 278.7349" clip-path="url(#clipPath2)"/>
      <text x="603.4941" y="298.4065" clip-path="url(#clipPath2)" fill="black" font-family="'Arial monospaced for SAP'" stroke="none" xml:space="preserve">msrawfiles</text>
    </g>
    <g stroke-linecap="butt" transform="matrix(1,0,0,1,-172,83)" fill="rgb(153,153,153)" text-rendering="geometricPrecision" shape-rendering="geometricPrecision" stroke-dasharray="6,2" stroke="rgb(153,153,153)" stroke-miterlimit="1.45">
      <rect fill="none" x="190.248" width="92.192" height="30" y="229.9137" clip-path="url(#clipPath2)"/>
    </g>
    <g text-rendering="geometricPrecision" stroke-miterlimit="1.45" shape-rendering="geometricPrecision" font-family="'Arial monospaced for SAP'" transform="matrix(1,0,0,1,-172,83)" stroke-linecap="butt">
      <text x="200.3381" xml:space="preserve" y="249.2878" clip-path="url(#clipPath2)" stroke="none">dbasResult</text>
    </g>
    <g stroke-linecap="butt" transform="matrix(1,0,0,1,-172,83)" fill="rgb(153,153,153)" text-rendering="geometricPrecision" shape-rendering="geometricPrecision" stroke-dasharray="6,2" stroke="rgb(153,153,153)" stroke-miterlimit="1.45">
      <rect fill="none" x="548.808" width="92.192" height="30" y="468.7231" clip-path="url(#clipPath2)"/>
    </g>
    <g text-rendering="geometricPrecision" stroke-miterlimit="1.45" shape-rendering="geometricPrecision" font-family="'Arial monospaced for SAP'" transform="matrix(1,0,0,1,-172,83)" stroke-linecap="butt">
      <text x="558.8981" xml:space="preserve" y="488.0971" clip-path="url(#clipPath2)" stroke="none">dbasResult</text>
      <path fill="none" d="M432.5 46.7475 L432.5 60.7713" clip-path="url(#clipPath2)"/>
      <path d="M432.5 68.7713 L437.5 56.7713 L432.5 59.7713 L427.5 56.7713 Z" clip-path="url(#clipPath2)" stroke="none"/>
      <path fill="none" d="M432.5 374.4731 L432.5 396.4731" clip-path="url(#clipPath2)"/>
      <path d="M432.5 404.4731 L437.5 392.4731 L432.5 395.4731 L427.5 392.4731 Z" clip-path="url(#clipPath2)" stroke="none"/>
      <path fill="none" d="M432.5 98.7712 L432.5 112.795" clip-path="url(#clipPath2)"/>
      <path d="M432.5 120.795 L437.5 108.795 L432.5 111.795 L427.5 108.795 Z" clip-path="url(#clipPath2)" stroke="none"/>
      <path fill="none" d="M432.5 150.795 L432.5 167.3544" clip-path="url(#clipPath2)"/>
      <path d="M432.5 175.3544 L437.5 163.3544 L432.5 166.3544 L427.5 163.3544 Z" clip-path="url(#clipPath2)" stroke="none"/>
      <path fill="none" d="M432.5 552.8731 L432.5 574.8731" clip-path="url(#clipPath2)"/>
      <path d="M432.5 582.8731 L437.5 570.8731 L432.5 573.8731 L427.5 570.8731 Z" clip-path="url(#clipPath2)" stroke="none"/>
      <path fill="none" d="M432.5 205.3544 L432.5 221.9138" clip-path="url(#clipPath2)"/>
      <path d="M432.5 229.9138 L437.5 217.9138 L432.5 220.9138 L427.5 217.9138 Z" clip-path="url(#clipPath2)" stroke="none"/>
      <path fill="none" d="M432.5 -27.7381 L432.5 8.751" clip-path="url(#clipPath2)"/>
      <path d="M432.5 16.751 L437.5 4.751 L432.5 7.751 L427.5 4.751 Z" clip-path="url(#clipPath2)" stroke="none"/>
      <rect x="397.0395" y="-18.1523" clip-path="url(#clipPath2)" fill="silver" width="76.0117" height="17.7871" stroke="none"/>
      <text x="399.0395" xml:space="preserve" y="-4.8847" clip-path="url(#clipPath2)" stroke="none">dbasResult</text>
    </g>
    <g stroke-linecap="butt" transform="matrix(1,0,0,1,-172,83)" fill="rgb(153,153,153)" text-rendering="geometricPrecision" shape-rendering="geometricPrecision" stroke-dasharray="6,2" stroke="rgb(153,153,153)" stroke-miterlimit="1.45">
      <path fill="none" d="M309.6206 359.4731 L279.6274 359.4731" clip-path="url(#clipPath2)"/>
      <path fill="none" d="M279.6222 192.4544 L327.6243 192.4544" clip-path="url(#clipPath2)"/>
      <path fill="none" d="M521.3472 83.7712 L582.56 83.7712" clip-path="url(#clipPath2)"/>
      <path fill="none" stroke-dasharray="none" d="M432.5 259.9138 L432.5 276.4731" clip-path="url(#clipPath2)" stroke="black"/>
      <path fill="black" stroke-dasharray="none" d="M432.5 284.4731 L437.5 272.4731 L432.5 275.4731 L427.5 272.4731 Z" clip-path="url(#clipPath2)" stroke="none"/>
      <path fill="none" stroke-dasharray="none" d="M432.5 314.4731 L432.5 336.4731" clip-path="url(#clipPath2)" stroke="black"/>
      <path fill="black" stroke-dasharray="none" d="M432.5 344.4731 L437.5 332.4731 L432.5 335.4731 L427.5 332.4731 Z" clip-path="url(#clipPath2)" stroke="none"/>
      <path fill="none" d="M521.3472 299.4731 L559.9675 299.4731 L559.9675 83.7712 L582.5506 83.7712" clip-path="url(#clipPath2)"/>
      <path fill="none" d="M552.56 244.9138 L582.56 244.9138" clip-path="url(#clipPath2)"/>
      <path fill="none" d="M537.375 190.3544 L582.56 190.3544" clip-path="url(#clipPath2)"/>
      <path fill="none" d="M555.4 359.4731 L582.5753 359.4731" clip-path="url(#clipPath2)"/>
      <path fill="none" stroke-dasharray="none" d="M432.5 612.8731 L432.5 629.7031" clip-path="url(#clipPath2)" stroke="black"/>
      <path fill="black" stroke-dasharray="none" d="M432.5 637.7031 L437.5 625.7031 L432.5 628.7031 L427.5 625.7031 Z" clip-path="url(#clipPath2)" stroke="none"/>
      <path fill="none" d="M639.5 259.9138 L639.5 271.0757" clip-path="url(#clipPath2)"/>
      <path fill="none" d="M282.46 243.3 L312.4465 243.3" clip-path="url(#clipPath2)"/>
      <path fill="none" d="M548.808 483.7231 L510.4283 483.7231" clip-path="url(#clipPath2)"/>
    </g>
  </g>
</svg>
