<?xml version="1.0" encoding="UTF-8"?><svg xmlns="http://www.w3.org/2000/svg" xmlns:xlink="http://www.w3.org/1999/xlink" fill-opacity="1" color-rendering="auto" color-interpolation="auto" text-rendering="auto" stroke="black" stroke-linecap="square" width="474" stroke-miterlimit="10" shape-rendering="auto" stroke-opacity="1" fill="black" stroke-dasharray="none" font-weight="normal" stroke-width="1" height="1086" font-family="'Dialog'" font-style="normal" stroke-linejoin="miter" font-size="12px" stroke-dashoffset="0" image-rendering="auto">
  <!--Generated by ySVG 2.5-->
  <defs id="genericDefs"/>
  <g>
    <defs id="defs1">
      <linearGradient x1="609.3468" gradientUnits="userSpaceOnUse" x2="835.1349" y1="76.2575" y2="143.9558" id="linearGradient1" spreadMethod="reflect">
        <stop stop-opacity="1" stop-color="rgb(232,238,247)" offset="0%"/>
        <stop stop-opacity="1" stop-color="rgb(183,201,227)" offset="100%"/>
      </linearGradient>
      <clipPath clipPathUnits="userSpaceOnUse" id="clipPath1">
        <path d="M0 0 L474 0 L474 1086 L0 1086 L0 0 Z"/>
      </clipPath>
      <clipPath clipPathUnits="userSpaceOnUse" id="clipPath2">
        <path d="M401 -257 L875 -257 L875 829 L401 829 L401 -257 Z"/>
      </clipPath>
    </defs>
    <g fill="white" text-rendering="geometricPrecision" shape-rendering="geometricPrecision" transform="translate(-401,257)" stroke="white">
      <rect x="401" width="474" height="1086" y="-257" clip-path="url(#clipPath2)" stroke="none"/>
    </g>
    <g text-rendering="geometricPrecision" stroke-miterlimit="1.45" shape-rendering="geometricPrecision" transform="matrix(1,0,0,1,-401,257)" stroke-linecap="butt">
      <rect fill="none" x="416.5964" width="256.038" height="432.791" y="260.888" clip-path="url(#clipPath2)"/>
      <text x="422.5964" font-size="18px" y="283.7894" clip-path="url(#clipPath2)" font-family="'Arial monospaced for SAP'" stroke="none" xml:space="preserve">scanBatchDbas(), </text>
      <text x="422.5964" font-size="18px" y="304.4701" clip-path="url(#clipPath2)" font-family="'Arial monospaced for SAP'" stroke="none" xml:space="preserve">convertToRecord(), </text>
      <text x="422.5964" font-size="18px" y="325.1507" clip-path="url(#clipPath2)" font-family="'Arial monospaced for SAP'" stroke="none" xml:space="preserve">saveRecord()</text>
      <rect fill="none" x="695.868" width="163.559" height="255.9196" y="497.4104" clip-path="url(#clipPath2)"/>
      <text x="701.868" font-size="18px" y="520.3118" clip-path="url(#clipPath2)" font-family="'Arial monospaced for SAP'" stroke="none" xml:space="preserve">ingest()</text>
      <rect fill="none" x="416.5964" width="442.4841" height="367.6713" y="-171.3023" clip-path="url(#clipPath2)"/>
      <text x="422.5964" font-size="18px" y="-148.401" clip-path="url(#clipPath2)" font-family="'Arial monospaced for SAP'" stroke="none" xml:space="preserve">dbaScreening*()</text>
    </g>
    <g fill="rgb(255,153,0)" text-rendering="geometricPrecision" shape-rendering="geometricPrecision" transform="matrix(1,0,0,1,-401,257)" stroke="rgb(255,153,0)">
      <rect x="445.7694" width="181" height="30" y="-138.9684" clip-path="url(#clipPath2)" stroke="none"/>
    </g>
    <g stroke-linecap="butt" transform="matrix(1,0,0,1,-401,257)" fill="rgb(153,51,0)" text-rendering="geometricPrecision" shape-rendering="geometricPrecision" stroke="rgb(153,51,0)" stroke-miterlimit="1.45">
      <rect fill="none" x="445.7694" width="181" height="30" y="-138.9684" clip-path="url(#clipPath2)"/>
      <text x="476.9081" y="-119.2545" clip-path="url(#clipPath2)" fill="black" font-family="sans-serif" stroke="none" xml:space="preserve">Load msrawfiles index</text>
    </g>
    <g fill="rgb(255,153,0)" text-rendering="geometricPrecision" shape-rendering="geometricPrecision" transform="matrix(1,0,0,1,-401,257)" stroke="rgb(255,153,0)">
      <rect x="446.4734" width="183.6" height="30" y="-11.9569" clip-path="url(#clipPath2)" stroke="none"/>
    </g>
    <g stroke-linecap="butt" transform="matrix(1,0,0,1,-401,257)" fill="rgb(153,51,0)" text-rendering="geometricPrecision" shape-rendering="geometricPrecision" stroke="rgb(153,51,0)" stroke-miterlimit="1.45">
      <rect fill="none" x="446.4734" width="183.6" height="30" y="-11.9569" clip-path="url(#clipPath2)"/>
      <text x="470.9053" y="7.757" clip-path="url(#clipPath2)" fill="black" font-family="sans-serif" stroke="none" xml:space="preserve">Split records into batches</text>
      <rect x="446.1112" y="342.2779" clip-path="url(#clipPath2)" fill="none" width="199.7055" height="136.7666" stroke="black"/>
    </g>
    <g font-size="18px" stroke-linecap="butt" transform="matrix(1,0,0,1,-401,257)" text-rendering="geometricPrecision" font-family="'Arial monospaced for SAP'" shape-rendering="geometricPrecision" stroke-miterlimit="1.45">
      <text x="452.1112" xml:space="preserve" y="365.1792" clip-path="url(#clipPath2)" stroke="none">fileScanDbas()</text>
    </g>
    <g fill="rgb(255,153,0)" text-rendering="geometricPrecision" shape-rendering="geometricPrecision" transform="matrix(1,0,0,1,-401,257)" stroke="rgb(255,153,0)">
      <rect x="472.903" width="140.3584" height="30" y="380.2842" clip-path="url(#clipPath2)" stroke="none"/>
    </g>
    <g stroke-linecap="butt" transform="matrix(1,0,0,1,-401,257)" fill="maroon" text-rendering="geometricPrecision" shape-rendering="geometricPrecision" stroke="maroon" stroke-miterlimit="1.45">
      <rect fill="none" x="472.903" width="140.3584" height="30" y="380.2842" clip-path="url(#clipPath2)"/>
      <text x="480.7179" y="399.9981" clip-path="url(#clipPath2)" fill="black" font-family="sans-serif" stroke="none" xml:space="preserve">Open measurement file</text>
    </g>
    <g fill="rgb(255,153,0)" text-rendering="geometricPrecision" shape-rendering="geometricPrecision" transform="matrix(1,0,0,1,-401,257)" stroke="rgb(255,153,0)">
      <rect x="482.7559" width="123.719" height="30" y="431.4487" clip-path="url(#clipPath2)" stroke="none"/>
    </g>
    <g stroke-linecap="butt" transform="matrix(1,0,0,1,-401,257)" fill="maroon" text-rendering="geometricPrecision" shape-rendering="geometricPrecision" stroke="maroon" stroke-miterlimit="1.45">
      <rect fill="none" x="482.7559" width="123.719" height="30" y="431.4487" clip-path="url(#clipPath2)"/>
      <text x="489.5841" y="451.1626" clip-path="url(#clipPath2)" fill="black" font-family="sans-serif" stroke="none" xml:space="preserve">Scan for compounds</text>
    </g>
    <g fill="rgb(255,153,0)" text-rendering="geometricPrecision" shape-rendering="geometricPrecision" transform="matrix(1,0,0,1,-401,257)" stroke="rgb(255,153,0)">
      <rect x="498.432" width="95.0639" height="30" y="497.4104" clip-path="url(#clipPath2)" stroke="none"/>
    </g>
    <g stroke-linecap="butt" transform="matrix(1,0,0,1,-401,257)" fill="maroon" text-rendering="geometricPrecision" shape-rendering="geometricPrecision" stroke="maroon" stroke-miterlimit="1.45">
      <rect fill="none" x="498.432" width="95.0639" height="30" y="497.4104" clip-path="url(#clipPath2)"/>
      <text x="510.9483" y="517.1243" clip-path="url(#clipPath2)" fill="black" font-family="sans-serif" stroke="none" xml:space="preserve">Clean results</text>
    </g>
    <g fill="rgb(255,153,0)" text-rendering="geometricPrecision" shape-rendering="geometricPrecision" transform="matrix(1,0,0,1,-401,257)" stroke="rgb(255,153,0)">
      <rect x="458.9003" width="174.1272" height="30" y="570.9422" clip-path="url(#clipPath2)" stroke="none"/>
    </g>
    <g stroke-linecap="butt" transform="matrix(1,0,0,1,-401,257)" fill="maroon" text-rendering="geometricPrecision" shape-rendering="geometricPrecision" stroke="maroon" stroke-miterlimit="1.45">
      <rect fill="none" x="458.9003" width="174.1272" height="30" y="570.9422" clip-path="url(#clipPath2)"/>
      <text x="466.2676" y="590.6561" clip-path="url(#clipPath2)" fill="black" font-family="sans-serif" stroke="none" xml:space="preserve">Convert to NTSPortal schema</text>
    </g>
    <g fill="rgb(255,153,0)" text-rendering="geometricPrecision" shape-rendering="geometricPrecision" transform="matrix(1,0,0,1,-401,257)" stroke="rgb(255,153,0)">
      <rect x="437.1369" width="217.654" height="30" y="644.474" clip-path="url(#clipPath2)" stroke="none"/>
    </g>
    <g stroke-linecap="butt" transform="matrix(1,0,0,1,-401,257)" fill="maroon" text-rendering="geometricPrecision" shape-rendering="geometricPrecision" stroke="maroon" stroke-miterlimit="1.45">
      <rect fill="none" x="437.1369" width="217.654" height="30" y="644.474" clip-path="url(#clipPath2)"/>
      <text x="443.5919" y="664.1879" clip-path="url(#clipPath2)" fill="black" font-family="sans-serif" stroke="none" xml:space="preserve">Save as compressed JSON (*.json.gz)</text>
    </g>
    <g fill="rgb(255,153,0)" text-rendering="geometricPrecision" shape-rendering="geometricPrecision" transform="matrix(1,0,0,1,-401,257)" stroke="rgb(255,153,0)">
      <rect x="710.3357" width="140.7808" height="30" y="533.0757" clip-path="url(#clipPath2)" stroke="none"/>
    </g>
    <g stroke-linecap="butt" transform="matrix(1,0,0,1,-401,257)" fill="maroon" text-rendering="geometricPrecision" shape-rendering="geometricPrecision" stroke="maroon" stroke-miterlimit="1.45">
      <rect fill="none" x="710.3357" width="140.7808" height="30" y="533.0757" clip-path="url(#clipPath2)"/>
      <text x="719.0357" y="552.7896" clip-path="url(#clipPath2)" fill="black" font-family="sans-serif" stroke="none" xml:space="preserve">Read JSON file (batch)</text>
    </g>
    <g fill="rgb(255,153,0)" text-rendering="geometricPrecision" shape-rendering="geometricPrecision" transform="matrix(1,0,0,1,-401,257)" stroke="rgb(255,153,0)">
      <rect x="724.7457" width="111.9608" height="30" y="593.0757" clip-path="url(#clipPath2)" stroke="none"/>
    </g>
    <g stroke-linecap="butt" transform="matrix(1,0,0,1,-401,257)" fill="maroon" text-rendering="geometricPrecision" shape-rendering="geometricPrecision" stroke="maroon" stroke-miterlimit="1.45">
      <rect fill="none" x="724.7457" width="111.9608" height="30" y="593.0757" clip-path="url(#clipPath2)"/>
      <text x="734.0328" y="612.7896" clip-path="url(#clipPath2)" fill="black" font-family="sans-serif" stroke="none" xml:space="preserve">Create new index</text>
    </g>
    <g fill="rgb(255,153,0)" text-rendering="geometricPrecision" shape-rendering="geometricPrecision" transform="matrix(1,0,0,1,-401,257)" stroke="rgb(255,153,0)">
      <rect x="738.2201" width="85.0122" height="30" y="713.0757" clip-path="url(#clipPath2)" stroke="none"/>
    </g>
    <g stroke-linecap="butt" transform="matrix(1,0,0,1,-401,257)" fill="maroon" text-rendering="geometricPrecision" shape-rendering="geometricPrecision" stroke="maroon" stroke-miterlimit="1.45">
      <rect fill="none" x="738.2201" width="85.0122" height="30" y="713.0757" clip-path="url(#clipPath2)"/>
      <text x="748.0367" y="732.7896" clip-path="url(#clipPath2)" fill="black" font-family="sans-serif" stroke="none" xml:space="preserve">Ingest batch</text>
    </g>
    <g fill="rgb(255,153,0)" text-rendering="geometricPrecision" shape-rendering="geometricPrecision" transform="matrix(1,0,0,1,-401,257)" stroke="rgb(255,153,0)">
      <rect x="707.9214" width="145.6095" height="30" y="653.0757" clip-path="url(#clipPath2)" stroke="none"/>
    </g>
    <g stroke-linecap="butt" transform="matrix(1,0,0,1,-401,257)" fill="maroon" text-rendering="geometricPrecision" shape-rendering="geometricPrecision" stroke="maroon" stroke-miterlimit="1.45">
      <rect fill="none" x="707.9214" width="145.6095" height="30" y="653.0757" clip-path="url(#clipPath2)"/>
      <text x="713.355" y="672.7896" clip-path="url(#clipPath2)" fill="black" font-family="sans-serif" stroke="none" xml:space="preserve">Create alias to new index</text>
    </g>
    <g fill="rgb(255,153,0)" text-rendering="geometricPrecision" shape-rendering="geometricPrecision" transform="matrix(1,0,0,1,-401,257)" stroke="rgb(255,153,0)">
      <rect x="666.4204" width="183.6" height="30" y="-11.9569" clip-path="url(#clipPath2)" stroke="none"/>
    </g>
    <g stroke-linecap="butt" transform="matrix(1,0,0,1,-401,257)" fill="rgb(153,51,0)" text-rendering="geometricPrecision" shape-rendering="geometricPrecision" stroke="rgb(153,51,0)" stroke-miterlimit="1.45">
      <rect fill="none" x="666.4204" width="183.6" height="30" y="-11.9569" clip-path="url(#clipPath2)"/>
      <text x="676.8396" y="7.757" clip-path="url(#clipPath2)" fill="black" font-family="sans-serif" stroke="none" xml:space="preserve">Run quality checks on batches</text>
    </g>
    <g fill="rgb(255,153,0)" text-rendering="geometricPrecision" shape-rendering="geometricPrecision" transform="matrix(1,0,0,1,-401,257)" stroke="rgb(255,153,0)">
      <rect x="416.5964" width="118.6669" height="30" y="213.6285" clip-path="url(#clipPath2)" stroke="none"/>
    </g>
    <g stroke-linecap="butt" transform="matrix(1,0,0,1,-401,257)" fill="maroon" text-rendering="geometricPrecision" shape-rendering="geometricPrecision" stroke="maroon" stroke-miterlimit="1.45">
      <rect fill="none" x="416.5964" width="118.6669" height="30" y="213.6285" clip-path="url(#clipPath2)"/>
      <text x="424.9122" y="233.3424" clip-path="url(#clipPath2)" fill="black" font-family="sans-serif" stroke="none" xml:space="preserve">Submit job SLURM</text>
    </g>
    <g fill="rgb(255,153,0)" text-rendering="geometricPrecision" shape-rendering="geometricPrecision" transform="matrix(1,0,0,1,-401,257)" stroke="rgb(255,153,0)">
      <rect x="452.6255" width="132.0914" height="43.4882" y="125.4889" clip-path="url(#clipPath2)" stroke="none"/>
    </g>
    <g stroke-linecap="butt" transform="matrix(1,0,0,1,-401,257)" fill="rgb(153,51,0)" text-rendering="geometricPrecision" shape-rendering="geometricPrecision" stroke="rgb(153,51,0)" stroke-miterlimit="1.45">
      <rect fill="none" x="452.6255" width="132.0914" height="43.4882" y="125.4889" clip-path="url(#clipPath2)"/>
      <text x="466.6458" y="144.5962" clip-path="url(#clipPath2)" fill="black" font-family="sans-serif" stroke="none" xml:space="preserve">Prepare job files for</text>
      <text x="496.0012" y="159.2974" clip-path="url(#clipPath2)" fill="black" font-family="sans-serif" stroke="none" xml:space="preserve"> SLURM</text>
    </g>
    <g fill="rgb(204,255,255)" text-rendering="geometricPrecision" shape-rendering="geometricPrecision" transform="matrix(1,0,0,1,-401,257)" stroke="rgb(204,255,255)">
      <path d="M450.3264 33.8961 L636.4204 33.8961 L626.2205 73.8961 L440.1264 73.8961 Z" stroke="none" clip-path="url(#clipPath2)"/>
    </g>
    <g stroke-linecap="butt" transform="matrix(1,0,0,1,-401,257)" fill="teal" text-rendering="geometricPrecision" shape-rendering="geometricPrecision" stroke="teal" stroke-miterlimit="1.45">
      <path fill="none" d="M450.3264 33.8961 L636.4204 33.8961 L626.2205 73.8961 L440.1264 73.8961 Z" clip-path="url(#clipPath2)"/>
      <text x="458.2432" y="51.2594" clip-path="url(#clipPath2)" fill="black" font-family="sans-serif" stroke="none" xml:space="preserve">Records of measurement-files</text>
      <text x="460.5811" y="65.9606" clip-path="url(#clipPath2)" fill="black" font-family="sans-serif" stroke="none" xml:space="preserve">(msrawfileRecord) in batches</text>
    </g>
    <g fill="rgb(255,255,153)" text-rendering="geometricPrecision" shape-rendering="geometricPrecision" transform="matrix(1,0,0,1,-401,257)" stroke="rgb(255,255,153)">
      <rect x="480.8929" width="110.7531" height="40" y="-82.3515" clip-path="url(#clipPath2)" stroke="none"/>
    </g>
    <g stroke-linecap="butt" transform="matrix(1,0,0,1,-401,257)" fill="olive" text-rendering="geometricPrecision" shape-rendering="geometricPrecision" stroke="olive" stroke-miterlimit="1.45">
      <rect fill="none" x="480.8929" width="110.7531" height="40" y="-82.3515" clip-path="url(#clipPath2)"/>
      <path fill="none" d="M490.8929 -82.3515 L490.8929 -42.3515 M581.646 -82.3515 L581.646 -42.3515 M490.8929 -82.3515 Z" clip-path="url(#clipPath2)"/>
      <text x="497.9198" y="-57.6376" clip-path="url(#clipPath2)" fill="black" font-family="sans-serif" stroke="none" xml:space="preserve">Select records</text>
    </g>
    <g fill="rgb(232,238,247)" text-rendering="geometricPrecision" shape-rendering="geometricPrecision" transform="matrix(1,0,0,1,-401,257)" stroke="rgb(232,238,247)">
      <rect x="592.2541" y="-241.3023" clip-path="url(#clipPath2)" width="91.1687" rx="20" ry="20" height="40" stroke="none"/>
    </g>
    <g stroke-linecap="butt" transform="matrix(1,0,0,1,-401,257)" fill="gray" text-rendering="geometricPrecision" shape-rendering="geometricPrecision" stroke="gray" stroke-miterlimit="1.45">
      <rect x="592.2541" y="-241.3023" clip-path="url(#clipPath2)" fill="none" width="91.1687" rx="20" ry="20" height="40"/>
      <text x="602.4918" y="-216.5885" clip-path="url(#clipPath2)" fill="black" font-family="sans-serif" stroke="none" xml:space="preserve">Start process</text>
    </g>
    <g fill="url(#linearGradient1)" text-rendering="geometricPrecision" shape-rendering="geometricPrecision" transform="matrix(1,0,0,1,-401,257)" stroke="url(#linearGradient1)">
      <path d="M722.2408 76.2575 L835.1349 110.1067 L722.2408 143.9558 L609.3468 110.1067 Z" stroke="none" clip-path="url(#clipPath2)"/>
    </g>
    <g text-rendering="geometricPrecision" stroke-miterlimit="1.45" shape-rendering="geometricPrecision" transform="matrix(1,0,0,1,-401,257)" stroke-linecap="butt">
      <path fill="none" d="M722.2408 76.2575 L835.1349 110.1067 L722.2408 143.9558 L609.3468 110.1067 Z" clip-path="url(#clipPath2)"/>
      <text x="652.8717" xml:space="preserve" y="107.4699" clip-path="url(#clipPath2)" font-family="sans-serif" stroke="none">Where should processing </text>
      <text x="691.5524" xml:space="preserve" y="122.1711" clip-path="url(#clipPath2)" font-family="sans-serif" stroke="none">take place?</text>
    </g>
    <g fill="rgb(204,255,204)" text-rendering="geometricPrecision" shape-rendering="geometricPrecision" transform="matrix(1,0,0,1,-401,257)" stroke="rgb(204,255,204)">
      <path d="M692.3066 431.5449 C696.1577 421.6089 816.8266 421.6089 820.6777 431.5449 L820.6777 461.3525 C816.8266 471.2885 696.1577 471.2885 692.3066 461.3525 Z" stroke="none" clip-path="url(#clipPath2)"/>
    </g>
    <g stroke-linecap="butt" transform="matrix(1,0,0,1,-401,257)" fill="green" text-rendering="geometricPrecision" shape-rendering="geometricPrecision" stroke="green" stroke-miterlimit="1.45">
      <path fill="none" d="M692.3066 431.5449 C696.1577 421.6089 816.8266 421.6089 820.6777 431.5449 L820.6777 461.3525 C816.8266 471.2885 696.1577 471.2885 692.3066 461.3525 Z" clip-path="url(#clipPath2)"/>
      <path fill="none" d="M820.6777 431.5449 C816.8266 441.4807 696.1577 441.4807 692.3066 431.5449" clip-path="url(#clipPath2)"/>
      <text x="699.1436" y="451.1626" clip-path="url(#clipPath2)" fill="black" font-family="sans-serif" stroke="none" xml:space="preserve">Spectral library (CSL)</text>
    </g>
    <g fill="rgb(255,153,204)" text-rendering="geometricPrecision" shape-rendering="geometricPrecision" transform="matrix(1,0,0,1,-401,257)" stroke="rgb(255,153,204)">
      <path d="M496.2844 720.0727 L595.6434 720.0727 L595.6434 763.3251 Q570.8036 750.9673 545.9639 763.3251 Q521.1241 775.6829 496.2844 763.3251 Z" stroke="none" clip-path="url(#clipPath2)"/>
    </g>
    <g stroke-linecap="butt" transform="matrix(1,0,0,1,-401,257)" fill="purple" text-rendering="geometricPrecision" shape-rendering="geometricPrecision" stroke="purple" stroke-miterlimit="1.45">
      <path fill="none" d="M496.2844 720.0727 L595.6434 720.0727 L595.6434 763.3251 Q570.8036 750.9673 545.9639 763.3251 Q521.1241 775.6829 496.2844 763.3251 Z" clip-path="url(#clipPath2)"/>
    </g>
    <g fill="rgb(255,153,204)" text-rendering="geometricPrecision" shape-rendering="geometricPrecision" transform="matrix(1,0,0,1,-401,257)" stroke="rgb(255,153,204)">
      <path d="M507.6358 733.0511 L606.9948 733.0511 L606.9948 776.3035 Q582.155 763.9457 557.3153 776.3035 Q532.4755 788.6613 507.6358 776.3035 Z" stroke="none" clip-path="url(#clipPath2)"/>
    </g>
    <g stroke-linecap="butt" transform="matrix(1,0,0,1,-401,257)" fill="purple" text-rendering="geometricPrecision" shape-rendering="geometricPrecision" stroke="purple" stroke-miterlimit="1.45">
      <path fill="none" d="M507.6358 733.0511 L606.9948 733.0511 L606.9948 776.3035 Q582.155 763.9457 557.3153 776.3035 Q532.4755 788.6613 507.6358 776.3035 Z" clip-path="url(#clipPath2)"/>
    </g>
    <g fill="rgb(255,153,204)" text-rendering="geometricPrecision" shape-rendering="geometricPrecision" transform="matrix(1,0,0,1,-401,257)" stroke="rgb(255,153,204)">
      <path d="M520.9655 746.0223 L620.3245 746.0223 L620.3245 789.2747 Q595.4847 776.9169 570.645 789.2747 Q545.8052 801.6325 520.9655 789.2747 Z" stroke="none" clip-path="url(#clipPath2)"/>
    </g>
    <g stroke-linecap="butt" transform="matrix(1,0,0,1,-401,257)" fill="purple" text-rendering="geometricPrecision" shape-rendering="geometricPrecision" stroke="purple" stroke-miterlimit="1.45">
      <path fill="none" d="M520.9655 746.0223 L620.3245 746.0223 L620.3245 789.2747 Q595.4847 776.9169 570.645 789.2747 Q545.8052 801.6325 520.9655 789.2747 Z" clip-path="url(#clipPath2)"/>
      <text x="540.2993" y="775.4518" clip-path="url(#clipPath2)" fill="black" font-family="sans-serif" stroke="none" xml:space="preserve">Documents</text>
    </g>
    <g fill="rgb(232,238,247)" text-rendering="geometricPrecision" shape-rendering="geometricPrecision" transform="matrix(1,0,0,1,-401,257)" stroke="rgb(232,238,247)">
      <rect x="718.1755" y="773.0757" clip-path="url(#clipPath2)" width="125.1012" rx="20" ry="20" height="40" stroke="none"/>
    </g>
    <g stroke-linecap="butt" transform="matrix(1,0,0,1,-401,257)" fill="gray" text-rendering="geometricPrecision" shape-rendering="geometricPrecision" stroke="gray" stroke-miterlimit="1.45">
      <rect x="718.1755" y="773.0757" clip-path="url(#clipPath2)" fill="none" width="125.1012" rx="20" ry="20" height="40"/>
      <text x="733.0396" y="797.7896" clip-path="url(#clipPath2)" fill="black" font-family="sans-serif" stroke="none" xml:space="preserve">Process complete</text>
    </g>
    <g text-rendering="geometricPrecision" stroke-miterlimit="1.45" shape-rendering="geometricPrecision" transform="matrix(1,0,0,1,-401,257)" stroke-linecap="butt">
      <path fill="none" d="M543.5317 410.2842 L543.9263 423.4523" clip-path="url(#clipPath2)"/>
      <path d="M544.1659 431.4487 L548.8042 419.3043 L543.8963 422.4527 L538.8087 419.6039 Z" clip-path="url(#clipPath2)" stroke="none"/>
      <path fill="none" d="M545.9639 479.0445 L545.9639 489.4105" clip-path="url(#clipPath2)"/>
      <path d="M545.9639 497.4105 L550.9639 485.4105 L545.9639 488.4105 L540.9639 485.4105 Z" clip-path="url(#clipPath2)" stroke="none"/>
      <path fill="none" d="M545.9639 527.4105 L545.9639 562.9423" clip-path="url(#clipPath2)"/>
      <path d="M545.9639 570.9423 L550.9639 558.9423 L545.9639 561.9423 L540.9639 558.9423 Z" clip-path="url(#clipPath2)" stroke="none"/>
      <rect x="507.9581" y="540.2828" clip-path="url(#clipPath2)" fill="silver" width="76.0117" height="17.7871" stroke="none"/>
      <text x="509.9581" xml:space="preserve" y="553.5504" clip-path="url(#clipPath2)" font-family="'Arial monospaced for SAP'" stroke="none">dbasResult</text>
      <path fill="none" d="M545.9639 600.9423 L545.9639 636.474" clip-path="url(#clipPath2)"/>
      <path d="M545.9639 644.474 L550.9639 632.474 L545.9639 635.474 L540.9639 632.474 Z" clip-path="url(#clipPath2)" stroke="none"/>
      <rect x="503.9444" y="613.3575" clip-path="url(#clipPath2)" fill="silver" width="84.0391" height="18.7012" stroke="none"/>
      <text x="505.9444" xml:space="preserve" y="627.422" clip-path="url(#clipPath2)" font-family="sans-serif" stroke="none">FeatureRecord</text>
      <path fill="none" d="M780.7261 563.0757 L780.7261 585.0757" clip-path="url(#clipPath2)"/>
      <path d="M780.7261 593.0757 L785.7261 581.0757 L780.7261 584.0757 L775.7261 581.0757 Z" clip-path="url(#clipPath2)" stroke="none"/>
      <path fill="none" d="M780.7261 623.0757 L780.7261 645.0757" clip-path="url(#clipPath2)"/>
      <path d="M780.7261 653.0757 L785.7261 641.0757 L780.7261 644.0757 L775.7261 641.0757 Z" clip-path="url(#clipPath2)" stroke="none"/>
      <path fill="none" d="M780.7261 683.0757 L780.7261 705.0757" clip-path="url(#clipPath2)"/>
      <path d="M780.7261 713.0757 L785.7261 701.0757 L780.7261 704.0757 L775.7261 701.0757 Z" clip-path="url(#clipPath2)" stroke="none"/>
      <path fill="none" stroke-dasharray="6,2" d="M658.4204 3.0431 L630.0734 3.0431" clip-path="url(#clipPath2)"/>
      <path stroke-dasharray="6,2" d="M666.4204 3.0431 L654.4204 -1.9569 L657.4204 3.0431 L654.4204 8.0431 Z" clip-path="url(#clipPath2)" stroke="none"/>
      <path fill="none" d="M535.2632 228.6285 L544.6154 228.6285 L544.6154 252.8565" clip-path="url(#clipPath2)"/>
      <path d="M544.6154 260.8565 L549.6154 248.8565 L544.6154 251.8565 L539.6154 248.8565 Z" clip-path="url(#clipPath2)" stroke="none"/>
      <path fill="none" d="M495.1945 168.9771 L475.9298 186.8199 L475.9298 205.6285" clip-path="url(#clipPath2)"/>
      <path d="M475.9298 213.6285 L480.9298 201.6285 L475.9298 204.6285 L470.9298 201.6285 Z" clip-path="url(#clipPath2)" stroke="none"/>
      <path fill="none" d="M538.2734 18.0431 L538.2734 25.9039" clip-path="url(#clipPath2)"/>
      <path d="M538.2734 33.9039 L543.2734 21.9039 L538.2734 24.9039 L533.2734 21.9039 Z" clip-path="url(#clipPath2)" stroke="none"/>
      <path fill="none" d="M536.2694 -108.9684 L536.2694 -90.3366" clip-path="url(#clipPath2)"/>
      <path d="M536.2694 -82.3366 L541.2694 -94.3366 L536.2694 -91.3366 L531.2694 -94.3366 Z" clip-path="url(#clipPath2)" stroke="none"/>
      <path fill="none" d="M536.8829 -42.3308 L537.5687 -19.9531" clip-path="url(#clipPath2)"/>
      <path d="M537.8138 -11.9569 L542.4438 -24.1044 L537.5381 -20.9527 L532.4485 -23.7981 Z" clip-path="url(#clipPath2)" stroke="none"/>
      <path fill="none" d="M637.8384 -201.2927 L637.8384 -179.3023" clip-path="url(#clipPath2)"/>
      <path d="M637.8384 -171.3023 L642.8384 -183.3023 L637.8384 -180.3023 L632.8384 -183.3023 Z" clip-path="url(#clipPath2)" stroke="none"/>
      <path fill="none" d="M603.713 73.8909 L658.6539 90.6779" clip-path="url(#clipPath2)"/>
      <path d="M666.3047 93.0156 L656.2896 84.7273 L657.6976 90.3857 L653.3674 94.2908 Z" clip-path="url(#clipPath2)" stroke="none"/>
      <path fill="none" d="M652.0401 122.9096 L592.587 133.7525" clip-path="url(#clipPath2)"/>
      <path d="M584.7169 135.1878 L597.4192 137.9537 L593.5708 133.573 L595.6251 128.1159 Z" clip-path="url(#clipPath2)" stroke="none"/>
      <text x="467.5081" xml:space="preserve" y="115.6959" clip-path="url(#clipPath2)" font-family="sans-serif" stroke="none">Processing with SLURM</text>
      <path fill="none" d="M722.2408 143.959 L722.2408 229.7436 L583.8185 229.7436 L583.8185 252.8754" clip-path="url(#clipPath2)"/>
      <path d="M583.8185 260.8754 L588.8185 248.8754 L583.8185 251.8754 L578.8185 248.8754 Z" clip-path="url(#clipPath2)" stroke="none"/>
      <rect x="681.5971" y="164.6128" clip-path="url(#clipPath2)" fill="white" width="90.0449" height="18.7012" stroke="none"/>
      <text x="683.5971" xml:space="preserve" y="178.6772" clip-path="url(#clipPath2)" font-family="sans-serif" stroke="none">local processing</text>
      <path fill="none" stroke-dasharray="6,2" d="M692.3239 446.4487 L614.4749 446.4487" clip-path="url(#clipPath2)"/>
      <path stroke-dasharray="6,2" d="M606.4749 446.4487 L618.4749 451.4487 L615.4749 446.4487 L618.4749 441.4487 Z" clip-path="url(#clipPath2)" stroke="none"/>
      <path fill="none" d="M545.9639 674.474 L545.9639 712.1028" clip-path="url(#clipPath2)"/>
      <path d="M545.9639 720.1028 L550.9639 708.1028 L545.9639 711.1028 L540.9639 708.1028 Z" clip-path="url(#clipPath2)" stroke="none"/>
      <path fill="none" d="M620.3436 770.7379 L680.5024 770.7379 L680.5024 548.0757 L702.3358 548.0757" clip-path="url(#clipPath2)"/>
      <path d="M710.3358 548.0757 L698.3358 543.0757 L701.3358 548.0757 L698.3358 553.0757 Z" clip-path="url(#clipPath2)" stroke="none"/>
      <path fill="none" d="M780.7261 743.0757 L780.7261 765.105" clip-path="url(#clipPath2)"/>
      <path d="M780.7261 773.105 L785.7261 761.105 L780.7261 764.105 L775.7261 761.105 Z" clip-path="url(#clipPath2)" stroke="none"/>
    </g>
  </g>
</svg>
