<?xml version="1.0" encoding="UTF-8"?><svg xmlns="http://www.w3.org/2000/svg" xmlns:xlink="http://www.w3.org/1999/xlink" fill-opacity="1" color-rendering="auto" color-interpolation="auto" text-rendering="auto" stroke="black" stroke-linecap="square" width="621" stroke-miterlimit="10" shape-rendering="auto" stroke-opacity="1" fill="black" stroke-dasharray="none" font-weight="normal" stroke-width="1" height="414" font-family="'Dialog'" font-style="normal" stroke-linejoin="miter" font-size="12px" stroke-dashoffset="0" image-rendering="auto">
  <!--Generated by ySVG 2.5-->
  <defs id="genericDefs"/>
  <g>
    <defs id="defs1">
      <linearGradient x1="332.19" gradientUnits="userSpaceOnUse" x2="653.73" y1="365.5" y2="405.5" id="linearGradient1" spreadMethod="reflect">
        <stop stop-opacity="1" stop-color="rgb(232,238,247)" offset="0%"/>
        <stop stop-opacity="1" stop-color="rgb(183,201,227)" offset="100%"/>
      </linearGradient>
      <clipPath clipPathUnits="userSpaceOnUse" id="clipPath1">
        <path d="M0 0 L621 0 L621 414 L0 414 L0 0 Z"/>
      </clipPath>
      <clipPath clipPathUnits="userSpaceOnUse" id="clipPath2">
        <path d="M300 7 L921 7 L921 421 L300 421 L300 7 Z"/>
      </clipPath>
    </defs>
    <g fill="white" text-rendering="geometricPrecision" shape-rendering="geometricPrecision" transform="translate(-300,-7)" stroke="white">
      <rect x="300" width="621" height="414" y="7" clip-path="url(#clipPath2)" stroke="none"/>
    </g>
    <g text-rendering="geometricPrecision" stroke-miterlimit="1.45" shape-rendering="geometricPrecision" transform="matrix(1,0,0,1,-300,-7)" stroke-linecap="butt">
      <rect fill="none" x="315.5" width="348" height="233" y="22.5" clip-path="url(#clipPath2)"/>
      <text x="321.5" xml:space="preserve" y="40.5645" clip-path="url(#clipPath2)" font-family="sans-serif" stroke="none">Save files to selected beeGFS directory</text>
    </g>
    <g fill="rgb(255,204,0)" text-rendering="geometricPrecision" shape-rendering="geometricPrecision" transform="matrix(1,0,0,1,-300,-7)" stroke="rgb(255,204,0)">
      <rect x="361.48" y="192.324" clip-path="url(#clipPath2)" width="262.96" rx="4" ry="4" height="42.8" stroke="none"/>
    </g>
    <g text-rendering="geometricPrecision" stroke-miterlimit="1.45" shape-rendering="geometricPrecision" transform="matrix(1,0,0,1,-300,-7)" stroke-linecap="butt">
      <rect x="361.48" y="192.324" clip-path="url(#clipPath2)" fill="none" width="262.96" rx="4" ry="4" height="42.8"/>
      <text x="427.9385" xml:space="preserve" y="218.4379" clip-path="url(#clipPath2)" font-family="sans-serif" stroke="none">SLURM job file (.sbatch)</text>
    </g>
    <g fill="rgb(255,204,0)" text-rendering="geometricPrecision" shape-rendering="geometricPrecision" transform="matrix(1,0,0,1,-300,-7)" stroke="rgb(255,204,0)">
      <rect x="361.48" y="62.596" clip-path="url(#clipPath2)" width="262.96" rx="4" ry="4" height="39.728" stroke="none"/>
    </g>
    <g text-rendering="geometricPrecision" stroke-miterlimit="1.45" shape-rendering="geometricPrecision" transform="matrix(1,0,0,1,-300,-7)" stroke-linecap="butt">
      <rect x="361.48" y="62.596" clip-path="url(#clipPath2)" fill="none" width="262.96" rx="4" ry="4" height="39.728"/>
      <text x="396.2657" xml:space="preserve" y="87.1739" clip-path="url(#clipPath2)" font-family="sans-serif" stroke="none">msrawfileRecords in batches (.RDS)</text>
    </g>
    <g fill="rgb(255,204,0)" text-rendering="geometricPrecision" shape-rendering="geometricPrecision" transform="matrix(1,0,0,1,-300,-7)" stroke="rgb(255,204,0)">
      <rect x="353.8" y="283.226" clip-path="url(#clipPath2)" width="278.32" rx="4" ry="4" height="42.8" stroke="none"/>
    </g>
    <g text-rendering="geometricPrecision" stroke-miterlimit="1.45" shape-rendering="geometricPrecision" transform="matrix(1,0,0,1,-300,-7)" stroke-linecap="butt">
      <rect x="353.8" y="283.226" clip-path="url(#clipPath2)" fill="none" width="278.32" rx="4" ry="4" height="42.8"/>
      <text x="414.5821" xml:space="preserve" y="301.9893" clip-path="url(#clipPath2)" font-family="sans-serif" stroke="none">Change parameters in job file</text>
      <text x="403.2559" xml:space="preserve" y="316.6905" clip-path="url(#clipPath2)" font-family="sans-serif" stroke="none">(file locations, array length, email)</text>
    </g>
    <g fill="rgb(255,204,0)" text-rendering="geometricPrecision" shape-rendering="geometricPrecision" transform="matrix(1,0,0,1,-300,-7)" stroke="rgb(255,204,0)">
      <rect x="361.48" y="132.324" clip-path="url(#clipPath2)" width="262.96" rx="4" ry="4" height="30" stroke="none"/>
    </g>
    <g text-rendering="geometricPrecision" stroke-miterlimit="1.45" shape-rendering="geometricPrecision" transform="matrix(1,0,0,1,-300,-7)" stroke-linecap="butt">
      <rect x="361.48" y="132.324" clip-path="url(#clipPath2)" fill="none" width="262.96" rx="4" ry="4" height="30"/>
      <text x="413.2696" xml:space="preserve" y="152.0379" clip-path="url(#clipPath2)" font-family="sans-serif" stroke="none">R script to run processing (.R)</text>
    </g>
    <g fill="rgb(204,255,204)" text-rendering="geometricPrecision" shape-rendering="geometricPrecision" transform="matrix(1,0,0,1,-300,-7)" stroke="rgb(204,255,204)">
      <rect x="684.592" width="220.6" height="69" y="47.96" clip-path="url(#clipPath2)" stroke="none"/>
      <rect x="684.592" y="47.96" clip-path="url(#clipPath2)" fill="white" width="1" height="69" stroke="none"/>
      <rect x="685.592" y="47.96" clip-path="url(#clipPath2)" fill="white" width="218.6" height="1" stroke="none"/>
      <rect x="685.592" y="115.96" clip-path="url(#clipPath2)" fill="rgb(142,178,142)" width="219.6" height="1" stroke="none"/>
      <rect x="904.192" y="47.96" clip-path="url(#clipPath2)" fill="rgb(142,178,142)" width="1" height="68" stroke="none"/>
    </g>
    <g text-rendering="geometricPrecision" stroke-miterlimit="1.45" shape-rendering="geometricPrecision" font-family="sans-serif" transform="matrix(1,0,0,1,-300,-7)" stroke-linecap="butt">
      <text x="705.1762" xml:space="preserve" y="79.8233" clip-path="url(#clipPath2)" stroke="none">The list element is one batch, the </text>
      <text x="693.3578" xml:space="preserve" y="94.5245" clip-path="url(#clipPath2)" stroke="none">element's index becomes the batch ID</text>
    </g>
    <g fill="url(#linearGradient1)" text-rendering="geometricPrecision" shape-rendering="geometricPrecision" transform="matrix(1,0,0,1,-300,-7)" stroke="url(#linearGradient1)">
      <path d="M332.19 365.5 L653.73 365.5 L643.73 405.5 L342.19 405.5 Z" stroke="none" clip-path="url(#clipPath2)"/>
    </g>
    <g text-rendering="geometricPrecision" stroke-miterlimit="1.45" shape-rendering="geometricPrecision" transform="matrix(1,0,0,1,-300,-7)" stroke-linecap="butt">
      <path fill="none" d="M332.19 365.5 L653.73 365.5 L643.73 405.5 L342.19 405.5 Z" clip-path="url(#clipPath2)"/>
      <text x="352.2442" xml:space="preserve" y="390.2139" clip-path="url(#clipPath2)" font-family="sans-serif" stroke="none">User: switch to SLURM control server and submit job</text>
    </g>
    <g text-rendering="geometricPrecision" stroke-miterlimit="1.45" shape-rendering="geometricPrecision" transform="matrix(1,0,0,1,-300,-7)" stroke-linecap="butt">
      <path fill="none" d="M492.96 235.1623 L492.96 275.2238" clip-path="url(#clipPath2)"/>
      <path d="M492.96 283.2238 L497.96 271.2238 L492.96 274.2238 L487.96 271.2238 Z" clip-path="url(#clipPath2)" stroke="none"/>
      <path fill="none" d="M684.5792 82.46 L632.4643 82.46" clip-path="url(#clipPath2)"/>
      <path d="M624.4643 82.46 L636.4643 87.46 L633.4643 82.46 L636.4643 77.46 Z" clip-path="url(#clipPath2)" stroke="none"/>
      <path fill="none" d="M492.96 325.9897 L492.96 357.4792" clip-path="url(#clipPath2)"/>
      <path d="M492.96 365.4792 L497.96 353.4792 L492.96 356.4792 L487.96 353.4792 Z" clip-path="url(#clipPath2)" stroke="none"/>
    </g>
  </g>
</svg>
