<?xml version="1.0" encoding="UTF-8"?><svg xmlns="http://www.w3.org/2000/svg" xmlns:xlink="http://www.w3.org/1999/xlink" fill-opacity="1" color-rendering="auto" color-interpolation="auto" text-rendering="auto" stroke="black" stroke-linecap="square" width="860" stroke-miterlimit="10" shape-rendering="auto" stroke-opacity="1" fill="black" stroke-dasharray="none" font-weight="normal" stroke-width="1" height="871" font-family="'Dialog'" font-style="normal" stroke-linejoin="miter" font-size="12px" stroke-dashoffset="0" image-rendering="auto">
  <!--Generated by ySVG 2.5-->
  <defs id="genericDefs"/>
  <g>
    <defs id="defs1">
      <clipPath clipPathUnits="userSpaceOnUse" id="clipPath1">
        <path d="M0 0 L860 0 L860 871 L0 871 L0 0 Z"/>
      </clipPath>
      <clipPath clipPathUnits="userSpaceOnUse" id="clipPath2">
        <path d="M0 22 L860 22 L860 893 L0 893 L0 22 Z"/>
      </clipPath>
    </defs>
    <g fill="white" text-rendering="geometricPrecision" shape-rendering="geometricPrecision" transform="translate(0,-22)" stroke="white">
      <rect x="0" width="860" height="871" y="22" clip-path="url(#clipPath2)" stroke="none"/>
    </g>
    <g text-rendering="geometricPrecision" stroke-miterlimit="1.45" shape-rendering="geometricPrecision" transform="matrix(1,0,0,1,0,-22)" stroke-linecap="butt">
      <rect fill="none" x="297" width="271" height="234.8" y="558" clip-path="url(#clipPath2)"/>
      <text x="303" xml:space="preserve" y="576.0645" clip-path="url(#clipPath2)" font-family="sans-serif" stroke="none">Collect EIC and spectra</text>
    </g>
    <g fill="rgb(204,255,255)" text-rendering="geometricPrecision" shape-rendering="geometricPrecision" transform="matrix(1,0,0,1,0,-22)" stroke="rgb(204,255,255)">
      <rect x="308.6365" y="728.85" clip-path="url(#clipPath2)" width="240" rx="4" ry="4" height="40" stroke="none"/>
    </g>
    <g text-rendering="geometricPrecision" stroke-miterlimit="1.45" shape-rendering="geometricPrecision" transform="matrix(1,0,0,1,0,-22)" stroke-linecap="butt">
      <rect x="308.6365" y="728.85" clip-path="url(#clipPath2)" fill="none" width="240" rx="4" ry="4" height="40"/>
      <text x="376.283" xml:space="preserve" y="753.5638" clip-path="url(#clipPath2)" font-family="sans-serif" stroke="none">collect MS2 spectra</text>
    </g>
    <g fill="rgb(204,255,255)" text-rendering="geometricPrecision" shape-rendering="geometricPrecision" transform="matrix(1,0,0,1,0,-22)" stroke="rgb(204,255,255)">
      <rect x="283" y="37.5" clip-path="url(#clipPath2)" width="299" rx="4" ry="4" height="68" stroke="none"/>
    </g>
    <g text-rendering="geometricPrecision" stroke-miterlimit="1.45" shape-rendering="geometricPrecision" transform="matrix(1,0,0,1,0,-22)" stroke-linecap="butt">
      <rect x="283" y="37.5" clip-path="url(#clipPath2)" fill="none" width="299" rx="4" ry="4" height="68"/>
      <text x="314.0967" xml:space="preserve" y="76.2139" clip-path="url(#clipPath2)" font-family="sans-serif" stroke="none">Collect peak areas and intensites of features</text>
    </g>
    <g fill="rgb(255,204,0)" text-rendering="geometricPrecision" shape-rendering="geometricPrecision" transform="matrix(1,0,0,1,0,-22)" stroke="rgb(255,204,0)">
      <rect x="587.6316" y="160.869" clip-path="url(#clipPath2)" width="257.0545" rx="4" ry="4" height="47" stroke="none"/>
    </g>
    <g text-rendering="geometricPrecision" stroke-miterlimit="1.45" shape-rendering="geometricPrecision" transform="matrix(1,0,0,1,0,-22)" stroke-linecap="butt">
      <rect x="587.6316" y="160.869" clip-path="url(#clipPath2)" fill="none" width="257.0545" rx="4" ry="4" height="47"/>
      <text x="598.4177" xml:space="preserve" y="181.7323" clip-path="url(#clipPath2)" font-family="sans-serif" stroke="none">round all intensity and area data to 3 sig fig, </text>
      <text x="653.4665" xml:space="preserve" y="196.4335" clip-path="url(#clipPath2)" font-family="sans-serif" stroke="none">m/z to 4 decimal places</text>
    </g>
    <g fill="rgb(255,153,204)" text-rendering="geometricPrecision" shape-rendering="geometricPrecision" transform="matrix(1,0,0,1,0,-22)" stroke="rgb(255,153,204)">
      <rect x="276" y="481" clip-path="url(#clipPath2)" width="313" rx="4" ry="4" height="47" stroke="none"/>
    </g>
    <g text-rendering="geometricPrecision" stroke-miterlimit="1.45" shape-rendering="geometricPrecision" transform="matrix(1,0,0,1,0,-22)" stroke-linecap="butt">
      <rect x="276" y="481" clip-path="url(#clipPath2)" fill="none" width="313" rx="4" ry="4" height="47"/>
      <text x="342.4707" xml:space="preserve" y="501.8633" clip-path="url(#clipPath2)" font-family="sans-serif" stroke="none">Copy data from msrawfile record: </text>
      <text x="287.0967" xml:space="preserve" y="516.5645" clip-path="url(#clipPath2)" font-family="sans-serif" stroke="none">start, date_measurement, matrix, pol, data_source, etc</text>
    </g>
    <g fill="rgb(255,204,0)" text-rendering="geometricPrecision" shape-rendering="geometricPrecision" transform="matrix(1,0,0,1,0,-22)" stroke="rgb(255,204,0)">
      <rect x="333.5" y="128.376" clip-path="url(#clipPath2)" width="198" rx="4" ry="4" height="48" stroke="none"/>
    </g>
    <g text-rendering="geometricPrecision" stroke-miterlimit="1.45" shape-rendering="geometricPrecision" transform="matrix(1,0,0,1,0,-22)" stroke-linecap="butt">
      <rect x="333.5" y="128.376" clip-path="url(#clipPath2)" fill="none" width="198" rx="4" ry="4" height="48"/>
      <text x="360.793" xml:space="preserve" y="157.0899" clip-path="url(#clipPath2)" font-family="sans-serif" stroke="none"> change names of columns</text>
    </g>
    <g fill="rgb(255,204,0)" text-rendering="geometricPrecision" shape-rendering="geometricPrecision" transform="matrix(1,0,0,1,0,-22)" stroke="rgb(255,204,0)">
      <rect x="324.6808" y="199.2521" clip-path="url(#clipPath2)" width="215.6383" rx="4" ry="4" height="40" stroke="none"/>
    </g>
    <g text-rendering="geometricPrecision" stroke-miterlimit="1.45" shape-rendering="geometricPrecision" transform="matrix(1,0,0,1,0,-22)" stroke-linecap="butt">
      <rect x="324.6808" y="199.2521" clip-path="url(#clipPath2)" fill="none" width="215.6383" rx="4" ry="4" height="40"/>
      <text x="365.8027" xml:space="preserve" y="223.966" clip-path="url(#clipPath2)" font-family="sans-serif" stroke="none">Convert to list of features</text>
    </g>
    <g fill="lime" text-rendering="geometricPrecision" shape-rendering="geometricPrecision" transform="matrix(1,0,0,1,0,-22)" stroke="lime">
      <rect x="300.425" y="274" clip-path="url(#clipPath2)" width="264.15" rx="4" ry="4" height="40" stroke="none"/>
    </g>
    <g text-rendering="geometricPrecision" stroke-miterlimit="1.45" shape-rendering="geometricPrecision" transform="matrix(1,0,0,1,0,-22)" stroke-linecap="butt">
      <rect x="300.425" y="274" clip-path="url(#clipPath2)" fill="none" width="264.15" rx="4" ry="4" height="40"/>
      <text x="333.1221" xml:space="preserve" y="291.3633" clip-path="url(#clipPath2)" font-family="sans-serif" stroke="none">Get compound information from CSL:</text>
      <text x="319.4492" xml:space="preserve" y="306.0645" clip-path="url(#clipPath2)" font-family="sans-serif" stroke="none">CAS, inchi, inchikey, formula, comp_group</text>
    </g>
    <g fill="rgb(204,255,255)" text-rendering="geometricPrecision" shape-rendering="geometricPrecision" transform="matrix(1,0,0,1,0,-22)" stroke="rgb(204,255,255)">
      <rect x="308.6365" y="658.85" clip-path="url(#clipPath2)" width="240" rx="4" ry="4" height="40" stroke="none"/>
    </g>
    <g text-rendering="geometricPrecision" stroke-miterlimit="1.45" shape-rendering="geometricPrecision" transform="matrix(1,0,0,1,0,-22)" stroke-linecap="butt">
      <rect x="308.6365" y="658.85" clip-path="url(#clipPath2)" fill="none" width="240" rx="4" ry="4" height="40"/>
      <text x="376.283" xml:space="preserve" y="683.5638" clip-path="url(#clipPath2)" font-family="sans-serif" stroke="none">collect MS1 spectra</text>
    </g>
    <g fill="rgb(204,255,255)" text-rendering="geometricPrecision" shape-rendering="geometricPrecision" transform="matrix(1,0,0,1,0,-22)" stroke="rgb(204,255,255)">
      <rect x="308.6365" y="588.85" clip-path="url(#clipPath2)" width="240" rx="4" ry="4" height="40" stroke="none"/>
    </g>
    <g text-rendering="geometricPrecision" stroke-miterlimit="1.45" shape-rendering="geometricPrecision" transform="matrix(1,0,0,1,0,-22)" stroke-linecap="butt">
      <rect x="308.6365" y="588.85" clip-path="url(#clipPath2)" fill="none" width="240" rx="4" ry="4" height="40"/>
      <text x="399.9607" xml:space="preserve" y="613.5638" clip-path="url(#clipPath2)" font-family="sans-serif" stroke="none">collect EIC</text>
    </g>
    <g fill="rgb(255,204,0)" text-rendering="geometricPrecision" shape-rendering="geometricPrecision" transform="matrix(1,0,0,1,0,-22)" stroke="rgb(255,204,0)">
      <rect x="323.4449" y="829.9704" clip-path="url(#clipPath2)" width="218.9925" rx="4" ry="4" height="48" stroke="none"/>
    </g>
    <g text-rendering="geometricPrecision" stroke-miterlimit="1.45" shape-rendering="geometricPrecision" transform="matrix(1,0,0,1,0,-22)" stroke-linecap="butt">
      <rect x="323.4449" y="829.9704" clip-path="url(#clipPath2)" fill="none" width="218.9925" rx="4" ry="4" height="48"/>
      <text x="360.5807" xml:space="preserve" y="858.6843" clip-path="url(#clipPath2)" font-family="sans-serif" stroke="none">Clean up (remove NAs etc)</text>
    </g>
    <g fill="rgb(204,255,255)" text-rendering="geometricPrecision" shape-rendering="geometricPrecision" transform="matrix(1,0,0,1,0,-22)" stroke="rgb(204,255,255)">
      <rect x="283" y="354.2666" clip-path="url(#clipPath2)" width="299" rx="4" ry="4" height="35.7334" stroke="none"/>
    </g>
    <g text-rendering="geometricPrecision" stroke-miterlimit="1.45" shape-rendering="geometricPrecision" transform="matrix(1,0,0,1,0,-22)" stroke-linecap="butt">
      <rect x="283" y="354.2666" clip-path="url(#clipPath2)" fill="none" width="299" rx="4" ry="4" height="35.7334"/>
      <text x="285.418" xml:space="preserve" y="376.8472" clip-path="url(#clipPath2)" font-family="sans-serif" stroke="none">Collect peak areas and intensites of IS (dbas_is_name)</text>
    </g>
    <g fill="rgb(255,204,0)" text-rendering="geometricPrecision" shape-rendering="geometricPrecision" transform="matrix(1,0,0,1,0,-22)" stroke="rgb(255,204,0)">
      <rect x="307.505" y="420" clip-path="url(#clipPath2)" width="249.99" rx="4" ry="4" height="31" stroke="none"/>
    </g>
    <g text-rendering="geometricPrecision" stroke-miterlimit="1.45" shape-rendering="geometricPrecision" transform="matrix(1,0,0,1,0,-22)" stroke-linecap="butt">
      <rect x="307.505" y="420" clip-path="url(#clipPath2)" fill="none" width="249.99" rx="4" ry="4" height="31"/>
      <text x="335.7822" xml:space="preserve" y="440.2139" clip-path="url(#clipPath2)" font-family="sans-serif" stroke="none">normalize areas and intensities to IS</text>
    </g>
    <g fill="lime" text-rendering="geometricPrecision" shape-rendering="geometricPrecision" transform="matrix(1,0,0,1,0,-22)" stroke="lime">
      <rect x="43.3401" width="143.1856" height="47" y="270.5" clip-path="url(#clipPath2)" stroke="none"/>
    </g>
    <g text-rendering="geometricPrecision" stroke-miterlimit="1.45" shape-rendering="geometricPrecision" transform="matrix(1,0,0,1,0,-22)" stroke-linecap="butt">
      <rect fill="none" x="43.3401" width="143.1856" height="47" y="270.5" clip-path="url(#clipPath2)"/>
      <text x="64.5687" xml:space="preserve" y="298.7139" clip-path="url(#clipPath2)" font-family="sans-serif" stroke="none">Connection to CSL</text>
    </g>
    <g fill="rgb(204,255,255)" text-rendering="geometricPrecision" shape-rendering="geometricPrecision" transform="matrix(1,0,0,1,0,-22)" stroke="rgb(204,255,255)">
      <rect x="23.4393" width="198" height="40" y="51.5" clip-path="url(#clipPath2)" stroke="none"/>
    </g>
    <g text-rendering="geometricPrecision" stroke-miterlimit="1.45" shape-rendering="geometricPrecision" transform="matrix(1,0,0,1,0,-22)" stroke-linecap="butt">
      <rect fill="none" x="23.4393" width="198" height="40" y="51.5" clip-path="url(#clipPath2)"/>
      <text x="34.3964" xml:space="preserve" y="76.2139" clip-path="url(#clipPath2)" font-family="sans-serif" stroke="none">Results of scanning (dbasResult)</text>
    </g>
    <g fill="rgb(255,153,204)" text-rendering="geometricPrecision" shape-rendering="geometricPrecision" transform="matrix(1,0,0,1,0,-22)" stroke="rgb(255,153,204)">
      <rect x="15.9329" width="198" height="40" y="484.5" clip-path="url(#clipPath2)" stroke="none"/>
    </g>
    <g text-rendering="geometricPrecision" stroke-miterlimit="1.45" shape-rendering="geometricPrecision" transform="matrix(1,0,0,1,0,-22)" stroke-linecap="butt">
      <rect fill="none" x="15.9329" width="198" height="40" y="484.5" clip-path="url(#clipPath2)"/>
      <text x="67.2552" xml:space="preserve" y="509.2139" clip-path="url(#clipPath2)" font-family="sans-serif" stroke="none">msrawfileRecords</text>
      <path fill="none" d="M581.9948 71.5 L668.4202 71.5 L703.1008 153.4958" clip-path="url(#clipPath2)"/>
      <path d="M706.2172 160.8638 L706.1476 147.864 L702.7113 152.5748 L696.9376 151.7595 Z" clip-path="url(#clipPath2)" stroke="none"/>
      <path fill="none" d="M432.5 527.9904 L432.5 550" clip-path="url(#clipPath2)"/>
      <path d="M432.5 558 L437.5 546 L432.5 549 L427.5 546 Z" clip-path="url(#clipPath2)" stroke="none"/>
      <path fill="none" d="M432.5 105.5011 L432.5 120.3435" clip-path="url(#clipPath2)"/>
      <path d="M432.5 128.3435 L437.5 116.3435 L432.5 119.3435 L427.5 116.3435 Z" clip-path="url(#clipPath2)" stroke="none"/>
      <path fill="none" d="M432.5 176.377 L432.5 191.28" clip-path="url(#clipPath2)"/>
      <path d="M432.5 199.28 L437.5 187.28 L432.5 190.28 L427.5 187.28 Z" clip-path="url(#clipPath2)" stroke="none"/>
      <path fill="none" d="M432.5 239.2165 L432.5 266.0179" clip-path="url(#clipPath2)"/>
      <path d="M432.5 274.0179 L437.5 262.0179 L432.5 265.0179 L427.5 262.0179 Z" clip-path="url(#clipPath2)" stroke="none"/>
      <path fill="none" d="M432.79 792.8 L432.8621 821.9861" clip-path="url(#clipPath2)"/>
      <path d="M432.8819 829.9861 L437.8522 817.9738 L432.8596 820.9861 L427.8522 817.9985 Z" clip-path="url(#clipPath2)" stroke="none"/>
      <path fill="none" d="M432.5 314.0293 L432.5 346.2879" clip-path="url(#clipPath2)"/>
      <path d="M432.5 354.2879 L437.5 342.2879 L432.5 345.2879 L427.5 342.2879 Z" clip-path="url(#clipPath2)" stroke="none"/>
      <path fill="none" d="M582.0041 372.1333 L652.4996 372.1333 L705.6172 215.4618" clip-path="url(#clipPath2)"/>
      <path d="M708.1859 207.8854 L699.5977 217.6446 L705.2961 216.4088 L709.0682 220.8554 Z" clip-path="url(#clipPath2)" stroke="none"/>
      <path fill="none" d="M432.5 389.9861 L432.5 411.9879" clip-path="url(#clipPath2)"/>
      <path d="M432.5 419.9879 L437.5 407.9879 L432.5 410.9879 L427.5 407.9879 Z" clip-path="url(#clipPath2)" stroke="none"/>
      <path fill="none" d="M432.5 451.0317 L432.5 472.9771" clip-path="url(#clipPath2)"/>
      <path d="M432.5 480.9771 L437.5 468.9771 L432.5 471.9771 L427.5 468.9771 Z" clip-path="url(#clipPath2)" stroke="none"/>
      <path fill="none" d="M186.5257 294 L292.4149 294" clip-path="url(#clipPath2)"/>
      <path d="M300.4149 294 L288.4149 289 L291.4149 294 L288.4149 299 Z" clip-path="url(#clipPath2)" stroke="none"/>
      <path fill="none" d="M221.4393 71.5 L274.9901 71.5" clip-path="url(#clipPath2)"/>
      <path d="M282.9901 71.5 L270.9901 66.5 L273.9901 71.5 L270.9901 76.5 Z" clip-path="url(#clipPath2)" stroke="none"/>
      <path fill="none" d="M213.9329 504.5 L268.0186 504.5" clip-path="url(#clipPath2)"/>
      <path d="M276.0186 504.5 L264.0186 499.5 L267.0186 504.5 L264.0186 509.5 Z" clip-path="url(#clipPath2)" stroke="none"/>
    </g>
  </g>
</svg>
