<?xml version="1.0" encoding="UTF-8"?><svg xmlns="http://www.w3.org/2000/svg" xmlns:xlink="http://www.w3.org/1999/xlink" fill-opacity="1" color-rendering="auto" color-interpolation="auto" text-rendering="auto" stroke="black" stroke-linecap="square" width="495" stroke-miterlimit="10" shape-rendering="auto" stroke-opacity="1" fill="black" stroke-dasharray="none" font-weight="normal" stroke-width="1" height="572" font-family="'Dialog'" font-style="normal" stroke-linejoin="miter" font-size="12px" stroke-dashoffset="0" image-rendering="auto">
  <!--Generated by ySVG 2.6-->
  <defs id="genericDefs"/>
  <g>
    <defs id="defs1">
      <clipPath clipPathUnits="userSpaceOnUse" id="clipPath1">
        <path d="M0 0 L495 0 L495 572 L0 572 L0 0 Z"/>
      </clipPath>
      <clipPath clipPathUnits="userSpaceOnUse" id="clipPath2">
        <path d="M413 -34 L908 -34 L908 538 L413 538 L413 -34 Z"/>
      </clipPath>
    </defs>
    <g fill="white" text-rendering="geometricPrecision" shape-rendering="geometricPrecision" transform="translate(-413,34)" stroke="white">
      <rect x="413" width="495" height="572" y="-34" clip-path="url(#clipPath2)" stroke="none"/>
    </g>
    <g fill="rgb(255,153,0)" text-rendering="geometricPrecision" shape-rendering="geometricPrecision" transform="matrix(1,0,0,1,-413,34)" stroke="rgb(255,153,0)">
      <path d="M428 216.7589 L626 216.7589 L626 264.7589 L428 264.7589 Z" stroke="none" clip-path="url(#clipPath2)"/>
    </g>
    <g stroke-linecap="butt" transform="matrix(1,0,0,1,-413,34)" fill="rgb(153,51,0)" text-rendering="geometricPrecision" shape-rendering="geometricPrecision" stroke="rgb(153,51,0)" stroke-miterlimit="1.45">
      <path fill="none" d="M428 216.7589 L626 216.7589 L626 264.7589 L428 264.7589 Z" clip-path="url(#clipPath2)"/>
      <text x="437.6094" y="238.1221" clip-path="url(#clipPath2)" fill="black" font-family="sans-serif" stroke="none" xml:space="preserve">Keep only records when path not </text>
      <text x="441.6084" y="252.8233" clip-path="url(#clipPath2)" fill="black" font-family="sans-serif" stroke="none" xml:space="preserve">found in any existing dbas index</text>
    </g>
    <g fill="rgb(255,153,0)" text-rendering="geometricPrecision" shape-rendering="geometricPrecision" transform="matrix(1,0,0,1,-413,34)" stroke="rgb(255,153,0)">
      <path d="M676 216.7589 L841 216.7589 L841 264.7589 L676 264.7589 Z" stroke="none" clip-path="url(#clipPath2)"/>
    </g>
    <g stroke-linecap="butt" transform="matrix(1,0,0,1,-413,34)" fill="rgb(153,51,0)" text-rendering="geometricPrecision" shape-rendering="geometricPrecision" stroke="rgb(153,51,0)" stroke-miterlimit="1.45">
      <path fill="none" d="M676 216.7589 L841 216.7589 L841 264.7589 L676 264.7589 Z" clip-path="url(#clipPath2)"/>
      <text x="687.1211" y="238.1221" clip-path="url(#clipPath2)" fill="black" font-family="sans-serif" stroke="none" xml:space="preserve">Keep only records found in</text>
      <text x="683.4795" y="252.8233" clip-path="url(#clipPath2)" fill="black" font-family="sans-serif" stroke="none" xml:space="preserve"> listed directories (recursive)</text>
    </g>
    <g fill="rgb(255,153,0)" text-rendering="geometricPrecision" shape-rendering="geometricPrecision" transform="matrix(1,0,0,1,-413,34)" stroke="rgb(255,153,0)">
      <path d="M546.75 363.7589 L755.25 363.7589 L755.25 393.7589 L546.75 393.7589 Z" stroke="none" clip-path="url(#clipPath2)"/>
    </g>
    <g stroke-linecap="butt" transform="matrix(1,0,0,1,-413,34)" fill="rgb(153,51,0)" text-rendering="geometricPrecision" shape-rendering="geometricPrecision" stroke="rgb(153,51,0)" stroke-miterlimit="1.45">
      <path fill="none" d="M546.75 363.7589 L755.25 363.7589 L755.25 393.7589 L546.75 393.7589 Z" clip-path="url(#clipPath2)"/>
      <text x="561.9492" y="383.4727" clip-path="url(#clipPath2)" fill="black" font-family="sans-serif" stroke="none" xml:space="preserve">Run quality checks on all batches</text>
    </g>
    <g fill="rgb(255,153,0)" text-rendering="geometricPrecision" shape-rendering="geometricPrecision" transform="matrix(1,0,0,1,-413,34)" stroke="rgb(255,153,0)">
      <path d="M538.1059 304.2589 L763.8941 304.2589 L763.8941 334.2589 L538.1059 334.2589 Z" stroke="none" clip-path="url(#clipPath2)"/>
    </g>
    <g stroke-linecap="butt" transform="matrix(1,0,0,1,-413,34)" fill="rgb(153,51,0)" text-rendering="geometricPrecision" shape-rendering="geometricPrecision" stroke="rgb(153,51,0)" stroke-miterlimit="1.45">
      <path fill="none" d="M538.1059 304.2589 L763.8941 304.2589 L763.8941 334.2589 L538.1059 334.2589 Z" clip-path="url(#clipPath2)"/>
      <text x="546.958" y="323.9727" clip-path="url(#clipPath2)" fill="black" font-family="sans-serif" stroke="none" xml:space="preserve">Split records into batches (by directory)</text>
    </g>
    <g fill="rgb(204,255,255)" text-rendering="geometricPrecision" shape-rendering="geometricPrecision" transform="matrix(1,0,0,1,-413,34)" stroke="rgb(204,255,255)">
      <path d="M569.75 423.2589 L739.9 423.2589 L732.25 453.2589 L562.1 453.2589 Z" stroke="none" clip-path="url(#clipPath2)"/>
    </g>
    <g stroke-linecap="butt" transform="matrix(1,0,0,1,-413,34)" fill="teal" text-rendering="geometricPrecision" shape-rendering="geometricPrecision" stroke="teal" stroke-miterlimit="1.45">
      <path fill="none" d="M569.75 423.2589 L739.9 423.2589 L732.25 453.2589 L562.1 453.2589 Z" clip-path="url(#clipPath2)"/>
      <text x="570.293" y="442.9727" clip-path="url(#clipPath2)" fill="black" font-family="sans-serif" stroke="none" xml:space="preserve">Records to process in batches</text>
    </g>
    <g fill="rgb(204,255,204)" text-rendering="geometricPrecision" shape-rendering="geometricPrecision" transform="matrix(1,0,0,1,-413,34)" stroke="rgb(204,255,204)">
      <path d="M762.975 41.5218 C765.7408 31.3234 852.4012 31.3234 855.167 41.5218 L855.167 72.117 C852.4012 82.3154 765.7408 82.3154 762.975 72.117 Z" stroke="none" clip-path="url(#clipPath2)"/>
    </g>
    <g stroke-linecap="butt" transform="matrix(1,0,0,1,-413,34)" fill="green" text-rendering="geometricPrecision" shape-rendering="geometricPrecision" stroke="green" stroke-miterlimit="1.45">
      <path fill="none" d="M762.975 41.5218 C765.7408 31.3234 852.4012 31.3234 855.167 41.5218 L855.167 72.117 C852.4012 82.3154 765.7408 82.3154 762.975 72.117 Z" clip-path="url(#clipPath2)"/>
      <path fill="none" d="M855.167 41.5218 C852.4012 51.7202 765.7408 51.7202 762.975 41.5218" clip-path="url(#clipPath2)"/>
      <text x="773.0651" y="61.1935" clip-path="url(#clipPath2)" fill="black" font-family="'Arial monospaced for SAP'" stroke="none" xml:space="preserve">msrawfiles</text>
    </g>
    <g fill="rgb(255,153,0)" text-rendering="geometricPrecision" shape-rendering="geometricPrecision" transform="matrix(1,0,0,1,-413,34)" stroke="rgb(255,153,0)">
      <rect x="569.025" width="163.95" height="30" y="41.8194" clip-path="url(#clipPath2)" stroke="none"/>
    </g>
    <g stroke-linecap="butt" transform="matrix(1,0,0,1,-413,34)" fill="rgb(153,51,0)" text-rendering="geometricPrecision" shape-rendering="geometricPrecision" stroke="rgb(153,51,0)" stroke-miterlimit="1.45">
      <rect fill="none" x="569.025" width="163.95" height="30" y="41.8194" clip-path="url(#clipPath2)"/>
      <text x="576.9756" y="61.5333" clip-path="url(#clipPath2)" fill="black" font-family="sans-serif" stroke="none" xml:space="preserve">Read msrawfiles as records</text>
    </g>
    <g fill="rgb(153,204,255)" text-rendering="geometricPrecision" shape-rendering="geometricPrecision" transform="matrix(1,0,0,1,-413,34)" stroke="rgb(153,204,255)">
      <path d="M651 119.0606 L749.4941 152.9097 L651 186.7589 L552.5059 152.9097 Z" stroke="none" clip-path="url(#clipPath2)"/>
    </g>
    <g text-rendering="geometricPrecision" stroke-miterlimit="1.45" shape-rendering="geometricPrecision" transform="matrix(1,0,0,1,-413,34)" stroke-linecap="butt">
      <path fill="none" d="M651 119.0606 L749.4941 152.9097 L651 186.7589 L552.5059 152.9097 Z" clip-path="url(#clipPath2)"/>
      <text x="578.625" xml:space="preserve" y="157.6236" clip-path="url(#clipPath2)" font-family="sans-serif" stroke="none">How are batches selected?</text>
    </g>
    <g fill="rgb(232,238,247)" text-rendering="geometricPrecision" shape-rendering="geometricPrecision" transform="matrix(1,0,0,1,-413,34)" stroke="rgb(232,238,247)">
      <rect x="580.6" y="-18.76" clip-path="url(#clipPath2)" width="140.8" rx="20" ry="20" height="40" stroke="none"/>
    </g>
    <g stroke-linecap="butt" transform="matrix(1,0,0,1,-413,34)" fill="gray" text-rendering="geometricPrecision" shape-rendering="geometricPrecision" stroke="gray" stroke-miterlimit="1.45">
      <rect x="580.6" y="-18.76" clip-path="url(#clipPath2)" fill="none" width="140.8" rx="20" ry="20" height="40"/>
      <text x="585.6387" y="5.9539" clip-path="url(#clipPath2)" fill="black" font-family="sans-serif" stroke="none" xml:space="preserve">User initiates processing</text>
    </g>
    <g fill="rgb(232,238,247)" text-rendering="geometricPrecision" shape-rendering="geometricPrecision" transform="matrix(1,0,0,1,-413,34)" stroke="rgb(232,238,247)">
      <rect x="579" y="482.7588" clip-path="url(#clipPath2)" width="144" rx="20" ry="20" height="40" stroke="none"/>
    </g>
    <g stroke-linecap="butt" transform="matrix(1,0,0,1,-413,34)" fill="gray" text-rendering="geometricPrecision" shape-rendering="geometricPrecision" stroke="gray" stroke-miterlimit="1.45">
      <rect x="579" y="482.7588" clip-path="url(#clipPath2)" fill="none" width="144" rx="20" ry="20" height="40"/>
      <text x="588.6357" y="507.4727" clip-path="url(#clipPath2)" fill="black" font-family="sans-serif" stroke="none" xml:space="preserve">Next step in processing</text>
    </g>
    <g stroke-linecap="butt" transform="matrix(1,0,0,1,-413,34)" fill="rgb(153,153,153)" text-rendering="geometricPrecision" shape-rendering="geometricPrecision" stroke-dasharray="6,2" stroke="rgb(153,153,153)" stroke-miterlimit="1.45">
      <rect fill="none" x="749.571" width="119" height="30" y="-13.76" clip-path="url(#clipPath2)"/>
    </g>
    <g text-rendering="geometricPrecision" stroke-miterlimit="1.45" shape-rendering="geometricPrecision" font-family="'Arial monospaced for SAP'" transform="matrix(1,0,0,1,-413,34)" stroke-linecap="butt">
      <text x="755.0622" xml:space="preserve" y="5.614" clip-path="url(#clipPath2)" stroke="none">dbaScreening*()</text>
    </g>
    <g stroke-linecap="butt" transform="matrix(1,0,0,1,-413,34)" fill="rgb(153,153,153)" text-rendering="geometricPrecision" shape-rendering="geometricPrecision" stroke-dasharray="6,2" stroke="rgb(153,153,153)" stroke-miterlimit="1.45">
      <rect fill="none" x="765.9" width="127" height="30" y="423.2588" clip-path="url(#clipPath2)"/>
    </g>
    <g text-rendering="geometricPrecision" stroke-miterlimit="1.45" shape-rendering="geometricPrecision" font-family="'Arial monospaced for SAP'" transform="matrix(1,0,0,1,-413,34)" stroke-linecap="butt">
      <text x="771.7906" xml:space="preserve" y="442.6329" clip-path="url(#clipPath2)" stroke="none">msrawfilesRecord</text>
      <path fill="none" d="M527 264.7497 L527 279.0843 L640.25 279.0843 L640.25 296.2826" clip-path="url(#clipPath2)"/>
      <path d="M640.25 304.2826 L645.25 292.2826 L640.25 295.2826 L635.25 292.2826 Z" clip-path="url(#clipPath2)" stroke="none"/>
      <path fill="none" d="M758.5 264.7497 L758.5 279.0843 L666.75 279.0843 L666.75 296.1568" clip-path="url(#clipPath2)"/>
      <path d="M666.75 304.1568 L671.75 292.1568 L666.75 295.1568 L661.75 292.1568 Z" clip-path="url(#clipPath2)" stroke="none"/>
      <path fill="none" d="M651 334.2791 L651 355.773" clip-path="url(#clipPath2)"/>
      <path d="M651 363.773 L656 351.773 L651 354.773 L646 351.773 Z" clip-path="url(#clipPath2)" stroke="none"/>
      <path fill="none" d="M651 393.7293 L651 415.2639" clip-path="url(#clipPath2)"/>
      <path d="M651 423.2639 L656 411.2639 L651 414.2639 L646 411.2639 Z" clip-path="url(#clipPath2)" stroke="none"/>
      <path fill="none" stroke-dasharray="6,2" d="M762.9592 60.6469 L732.9614 60.6469" clip-path="url(#clipPath2)"/>
      <path fill="none" d="M651 71.842 L651 111.0815" clip-path="url(#clipPath2)"/>
      <path d="M651 119.0815 L656 107.0815 L651 110.0815 L646 107.0815 Z" clip-path="url(#clipPath2)" stroke="none"/>
      <rect x="594.7465" y="82.6024" clip-path="url(#clipPath2)" fill="silver" width="119.2188" height="17.7871" stroke="none"/>
      <text x="596.7465" xml:space="preserve" y="95.87" clip-path="url(#clipPath2)" stroke="none">msrawfilesRecord</text>
      <path fill="none" d="M552.5388 152.9097 L500.6842 152.9097 L500.6842 208.7805" clip-path="url(#clipPath2)"/>
      <path d="M500.6842 216.7805 L505.6842 204.7805 L500.6842 207.7805 L495.6842 204.7805 Z" clip-path="url(#clipPath2)" stroke="none"/>
      <rect x="448.4658" y="174.2391" clip-path="url(#clipPath2)" fill="white" width="120.0684" height="18.7012" stroke="none"/>
      <text x="450.4658" xml:space="preserve" y="188.3035" clip-path="url(#clipPath2)" font-family="sans-serif" stroke="none">Unprocessed batches</text>
      <path fill="none" d="M748.883 153.1056 L787.6509 153.1056 L787.6509 208.7484" clip-path="url(#clipPath2)"/>
      <path d="M787.6509 216.7484 L792.6509 204.7484 L787.6509 207.7484 L782.6509 204.7484 Z" clip-path="url(#clipPath2)" stroke="none"/>
      <rect x="755.6178" y="172.1134" clip-path="url(#clipPath2)" fill="white" width="58.6914" height="18.7012" stroke="none"/>
      <text x="757.6178" xml:space="preserve" y="186.1779" clip-path="url(#clipPath2)" font-family="sans-serif" stroke="none">User input</text>
      <path fill="none" d="M651 21.241 L651 33.8194" clip-path="url(#clipPath2)"/>
      <path d="M651 41.8194 L656 29.8194 L651 32.8194 L646 29.8194 Z" clip-path="url(#clipPath2)" stroke="none"/>
      <path fill="none" d="M651 453.2816 L651 474.8036" clip-path="url(#clipPath2)"/>
      <path d="M651 482.8036 L656 470.8036 L651 473.8036 L646 470.8036 Z" clip-path="url(#clipPath2)" stroke="none"/>
    </g>
    <g stroke-linecap="butt" transform="matrix(1,0,0,1,-413,34)" fill="rgb(153,153,153)" text-rendering="geometricPrecision" shape-rendering="geometricPrecision" stroke-dasharray="6,2" stroke="rgb(153,153,153)" stroke-miterlimit="1.45">
      <path fill="none" d="M749.571 1.24 L721.4147 1.24" clip-path="url(#clipPath2)"/>
      <path fill="none" d="M765.9 438.2589 L736.0801 438.2589" clip-path="url(#clipPath2)"/>
    </g>
  </g>
</svg>
