<?xml version="1.0" encoding="UTF-8"?><svg xmlns="http://www.w3.org/2000/svg" xmlns:xlink="http://www.w3.org/1999/xlink" fill-opacity="1" color-rendering="auto" color-interpolation="auto" text-rendering="auto" stroke="black" stroke-linecap="square" width="630" stroke-miterlimit="10" shape-rendering="auto" stroke-opacity="1" fill="black" stroke-dasharray="none" font-weight="normal" stroke-width="1" height="542" font-family="'Dialog'" font-style="normal" stroke-linejoin="miter" font-size="12px" stroke-dashoffset="0" image-rendering="auto">
  <!--Generated by ySVG 2.5-->
  <defs id="genericDefs"/>
  <g>
    <defs id="defs1">
      <linearGradient x1="532.5" gradientUnits="userSpaceOnUse" x2="730.5" y1="135" y2="175" id="linearGradient1" spreadMethod="reflect">
        <stop stop-opacity="1" stop-color="rgb(232,238,247)" offset="0%"/>
        <stop stop-opacity="1" stop-color="rgb(183,201,227)" offset="100%"/>
      </linearGradient>
      <linearGradient x1="316" gradientUnits="userSpaceOnUse" x2="565" y1="243" y2="309" id="linearGradient2" spreadMethod="reflect">
        <stop stop-opacity="1" stop-color="rgb(232,238,247)" offset="0%"/>
        <stop stop-opacity="1" stop-color="rgb(183,201,227)" offset="100%"/>
      </linearGradient>
      <linearGradient x1="687" gradientUnits="userSpaceOnUse" x2="916" y1="243" y2="309" id="linearGradient3" spreadMethod="reflect">
        <stop stop-opacity="1" stop-color="rgb(232,238,247)" offset="0%"/>
        <stop stop-opacity="1" stop-color="rgb(183,201,227)" offset="100%"/>
      </linearGradient>
      <linearGradient x1="506" gradientUnits="userSpaceOnUse" x2="724.5" y1="466" y2="532" id="linearGradient4" spreadMethod="reflect">
        <stop stop-opacity="1" stop-color="rgb(232,238,247)" offset="0%"/>
        <stop stop-opacity="1" stop-color="rgb(183,201,227)" offset="100%"/>
      </linearGradient>
      <linearGradient x1="516.25" gradientUnits="userSpaceOnUse" x2="714.25" y1="363" y2="412" id="linearGradient5" spreadMethod="reflect">
        <stop stop-opacity="1" stop-color="rgb(232,238,247)" offset="0%"/>
        <stop stop-opacity="1" stop-color="rgb(183,201,227)" offset="100%"/>
      </linearGradient>
      <linearGradient x1="500.75" gradientUnits="userSpaceOnUse" x2="729.75" y1="591" y2="647" id="linearGradient6" spreadMethod="reflect">
        <stop stop-opacity="1" stop-color="rgb(232,238,247)" offset="0%"/>
        <stop stop-opacity="1" stop-color="rgb(183,201,227)" offset="100%"/>
      </linearGradient>
      <clipPath clipPathUnits="userSpaceOnUse" id="clipPath1">
        <path d="M0 0 L630 0 L630 542 L0 542 L0 0 Z"/>
      </clipPath>
      <clipPath clipPathUnits="userSpaceOnUse" id="clipPath2">
        <path d="M301 120 L931 120 L931 662 L301 662 L301 120 Z"/>
      </clipPath>
    </defs>
    <g fill="white" text-rendering="geometricPrecision" shape-rendering="geometricPrecision" transform="translate(-301,-120)" stroke="white">
      <rect x="301" width="630" height="542" y="120" clip-path="url(#clipPath2)" stroke="none"/>
    </g>
    <g fill="url(#linearGradient1)" text-rendering="geometricPrecision" shape-rendering="geometricPrecision" transform="matrix(1,0,0,1,-301,-120)" stroke="url(#linearGradient1)">
      <path d="M542.7 135 L730.5 135 L720.3 175 L532.5 175 Z" stroke="none" clip-path="url(#clipPath2)"/>
    </g>
    <g text-rendering="geometricPrecision" stroke-miterlimit="1.45" shape-rendering="geometricPrecision" transform="matrix(1,0,0,1,-301,-120)" stroke-linecap="butt">
      <path fill="none" d="M542.7 135 L730.5 135 L720.3 175 L532.5 175 Z" clip-path="url(#clipPath2)"/>
      <text x="569.8125" xml:space="preserve" y="159.7139" clip-path="url(#clipPath2)" font-family="sans-serif" stroke="none">Entire Msrawfiles index</text>
    </g>
    <g fill="url(#linearGradient2)" text-rendering="geometricPrecision" shape-rendering="geometricPrecision" transform="matrix(1,0,0,1,-301,-120)" stroke="url(#linearGradient2)">
      <path d="M316 243 L565 243 L565 309 L316 309 Z" stroke="none" clip-path="url(#clipPath2)"/>
    </g>
    <g text-rendering="geometricPrecision" stroke-miterlimit="1.45" shape-rendering="geometricPrecision" transform="matrix(1,0,0,1,-301,-120)" stroke-linecap="butt">
      <path fill="none" d="M316 243 L565 243 L565 309 L316 309 Z" clip-path="url(#clipPath2)"/>
      <text x="358.4424" xml:space="preserve" y="273.3633" clip-path="url(#clipPath2)" font-family="sans-serif" stroke="none">Keep only docs when path not </text>
      <text x="349.4395" xml:space="preserve" y="288.0645" clip-path="url(#clipPath2)" font-family="sans-serif" stroke="none">found in any existing feature index</text>
    </g>
    <g fill="url(#linearGradient3)" text-rendering="geometricPrecision" shape-rendering="geometricPrecision" transform="matrix(1,0,0,1,-301,-120)" stroke="url(#linearGradient3)">
      <path d="M687 243 L916 243 L916 309 L687 309 Z" stroke="none" clip-path="url(#clipPath2)"/>
    </g>
    <g text-rendering="geometricPrecision" stroke-miterlimit="1.45" shape-rendering="geometricPrecision" transform="matrix(1,0,0,1,-301,-120)" stroke-linecap="butt">
      <path fill="none" d="M687 243 L916 243 L916 309 L687 309 Z" clip-path="url(#clipPath2)"/>
      <text x="720.1133" xml:space="preserve" y="273.3633" clip-path="url(#clipPath2)" font-family="sans-serif" stroke="none">Keep only records found in the</text>
      <text x="703.458" xml:space="preserve" y="288.0645" clip-path="url(#clipPath2)" font-family="sans-serif" stroke="none"> given directories (or below given dir)</text>
    </g>
    <g fill="url(#linearGradient4)" text-rendering="geometricPrecision" shape-rendering="geometricPrecision" transform="matrix(1,0,0,1,-301,-120)" stroke="url(#linearGradient4)">
      <path d="M506 466 L724.5 466 L724.5 532 L506 532 Z" stroke="none" clip-path="url(#clipPath2)"/>
    </g>
    <g text-rendering="geometricPrecision" stroke-miterlimit="1.45" shape-rendering="geometricPrecision" transform="matrix(1,0,0,1,-301,-120)" stroke-linecap="butt">
      <path fill="none" d="M506 466 L724.5 466 L724.5 532 L506 532 Z" clip-path="url(#clipPath2)"/>
      <text x="526.1992" xml:space="preserve" y="503.7139" clip-path="url(#clipPath2)" font-family="sans-serif" stroke="none">Run quality checks on all batches</text>
    </g>
    <g fill="url(#linearGradient5)" text-rendering="geometricPrecision" shape-rendering="geometricPrecision" transform="matrix(1,0,0,1,-301,-120)" stroke="url(#linearGradient5)">
      <path d="M516.25 363 L714.25 363 L714.25 412 L516.25 412 Z" stroke="none" clip-path="url(#clipPath2)"/>
    </g>
    <g text-rendering="geometricPrecision" stroke-miterlimit="1.45" shape-rendering="geometricPrecision" transform="matrix(1,0,0,1,-301,-120)" stroke-linecap="butt">
      <path fill="none" d="M516.25 363 L714.25 363 L714.25 412 L516.25 412 Z" clip-path="url(#clipPath2)"/>
      <text x="527.5469" xml:space="preserve" y="392.2139" clip-path="url(#clipPath2)" font-family="sans-serif" stroke="none">Split records into batches (by dir)</text>
    </g>
    <g fill="url(#linearGradient6)" text-rendering="geometricPrecision" shape-rendering="geometricPrecision" transform="matrix(1,0,0,1,-301,-120)" stroke="url(#linearGradient6)">
      <path d="M515.03 591 L729.75 591 L715.47 647 L500.75 647 Z" stroke="none" clip-path="url(#clipPath2)"/>
    </g>
    <g text-rendering="geometricPrecision" stroke-miterlimit="1.45" shape-rendering="geometricPrecision" transform="matrix(1,0,0,1,-301,-120)" stroke-linecap="butt">
      <path fill="none" d="M515.03 591 L729.75 591 L715.47 647 L500.75 647 Z" clip-path="url(#clipPath2)"/>
      <text x="521.2129" xml:space="preserve" y="623.7139" clip-path="url(#clipPath2)" font-family="sans-serif" stroke="none">List of batches of Msrawfile records</text>
    </g>
    <g text-rendering="geometricPrecision" stroke-miterlimit="1.45" shape-rendering="geometricPrecision" transform="matrix(1,0,0,1,-301,-120)" stroke-linecap="butt">
      <path fill="none" d="M583.3326 175.0247 L493.7251 238.3726" clip-path="url(#clipPath2)"/>
    </g>
    <g text-rendering="geometricPrecision" stroke-miterlimit="1.45" shape-rendering="geometricPrecision" transform="matrix(1,0,0,1,-301,-120)" stroke-linecap="butt">
      <path d="M487.1926 242.9907 L499.8776 240.1464 L494.5416 237.7954 L494.105 231.9808 Z" stroke="none" clip-path="url(#clipPath2)"/>
      <text x="436.8793" xml:space="preserve" y="206.2171" clip-path="url(#clipPath2)" font-family="sans-serif" stroke="none">Process new batches</text>
      <path fill="none" d="M659.6189 175.014 L748.6008 238.3482" clip-path="url(#clipPath2)"/>
      <path d="M755.1185 242.9873 L748.2414 231.9552 L747.7861 237.7684 L742.4426 240.1022 Z" clip-path="url(#clipPath2)" stroke="none"/>
      <text x="597.717" xml:space="preserve" y="221.155" clip-path="url(#clipPath2)" font-family="sans-serif" stroke="none">Process selected batches</text>
      <path fill="none" d="M492.2296 309.0063 L570.092 358.6868" clip-path="url(#clipPath2)"/>
      <path d="M576.8362 362.9899 L569.4094 352.3201 L569.249 358.1489 L564.0305 360.7503 Z" clip-path="url(#clipPath2)" stroke="none"/>
      <path fill="none" d="M746.3662 309.0063 L663.0558 358.8807" clip-path="url(#clipPath2)"/>
      <path d="M656.1918 362.9899 L669.056 361.1161 L663.9138 358.367 L663.9196 352.5361 Z" clip-path="url(#clipPath2)" stroke="none"/>
      <path fill="none" d="M615.25 412.0267 L615.25 458.0028" clip-path="url(#clipPath2)"/>
      <path d="M615.25 466.0028 L620.25 454.0028 L615.25 457.0028 L610.25 454.0028 Z" clip-path="url(#clipPath2)" stroke="none"/>
      <path fill="none" d="M615.25 532.0176 L615.25 583.011" clip-path="url(#clipPath2)"/>
      <path d="M615.25 591.011 L620.25 579.011 L615.25 582.011 L610.25 579.011 Z" clip-path="url(#clipPath2)" stroke="none"/>
    </g>
  </g>
</svg>
